<svg style="top: 3%; left: 54%; height: 42%; width: 42%;" version="1.1" id="svg_4779" xmlns="http://www.w3.org/2000/svg" xmlns:xlink="http://www.w3.org/1999/xlink" x="0px" y="0px" width="200px" height="200px" viewBox="0 0 200 200" enable-background="new 0 0 200 200" xml:space="preserve">
<path class="stroke" fill="#283843" d="M183.375,107.52c-0.248-0.557-0.782-1.057-0.547-1.826c1.374,0.016,2.481,1.137,3.787,0.792
	c0.509-0.946,0.118-1.67-0.253-2.345c-1.097-2.011-2.215-4.013-3.391-5.98c-0.797-1.337-1.918-2.376-3.492-2.679
	c-3.432-0.659-6.852-1.52-10.314-1.79c-4.014-0.313-8.069-0.11-12.106-0.066c-1.132,0.011-2.262,0.249-3.368,0.38
	c-1.727-1.949-2.62-4.201-3.719-6.74c0.748,0.196,1.141,0.278,1.52,0.402c2.196,0.72,4.439,1.158,6.762,1.054
	c2.692-0.122,4.58-1.593,5.124-4.212c0.7-3.393,0.678-6.833,0.173-10.254c-0.271-1.823-1.458-2.974-3.102-3.726
	c-1.664-0.761-3.422-0.615-5.166-0.621c-3.358-0.012-6.198,1.349-8.718,3.442c-0.994,0.829-1.853,1.823-2.993,2.96
	c-0.721-1.87-0.43-3.907-2.013-5.125c-0.507-0.386-1.06-0.744-1.57-1.154c-2.062-1.657-4.147-3.292-6.164-5.008
	c-1.635-1.394-3.513-1.74-5.562-1.565c-0.291,0.025-0.582,0.062-1.023,0.109c0.177-2.072,0.32-4.043,0.522-6.01
	c0.32-3.14-0.584-5.71-3.519-7.577c-0.403,0.078-0.955,0.183-1.491,0.286c-0.469,3.339-0.854,6.477-0.722,9.614
	c1.396,0.565,2.205-0.629,3.432-0.609c-0.065,1.613-0.129,3.185-0.194,4.795c-5.105,0.388-9.807,2.114-14.784,3.075
	c-0.152,2.035-0.011,3.785,0.629,5.694c5.568-0.421,10.529-3.109,16.053-3.935c2.025,2.243,4.889,3.523,6.743,6.062
	c-0.407,0.763-0.798,1.498-1.265,2.376c-2.215-1.858-4.777-2.539-7.551-2.615c-3.742-0.103-7.346,0.284-10.526,2.536
	c-1.522,1.079-3.099,2.079-4.675,3.128c-0.484-0.287-0.988-0.585-1.466-0.868c-1.771,0.278-3.32,0.732-4.545,2.104
	c-0.838,0.936-1.891,1.698-3.218,1.904c-2.322,0.361-4.631,0.904-6.968,1.063c-3.969,0.272-7.951,0.327-11.928,0.425
	c-1.344,0.033-2.452-0.517-3.231-1.67c-0.303-0.447-0.689-0.838-1.041-1.251c-0.947-1.116-2.135-1.735-3.613-1.788
	c-0.414-0.014-0.823-0.12-1.221-0.18c-0.383-0.454-0.73-0.862-1.126-1.324c-0.471-0.14-0.981-0.331-1.508-0.439
	c-6.187-1.274-12.482-1.208-18.747-1.337c-2.869-0.06-5.758,0.5-8.63,0.84c-1.545,0.184-2.503,1.179-2.867,2.637
	c-0.33,1.332-0.484,2.709-0.745,4.234c-0.492,0.24-1.118,0.611-1.789,0.863c-5.131,1.92-9.789,4.672-14.075,8.051
	c-4.552,3.586-7.521,8.237-9.117,13.801c-1.176,4.104-1.539,8.305-1.506,12.542c0.011,1.413,0.339,2.823,0.554,4.478
	c1.141-0.113,2.044-0.085,2.882-0.307c2.624-0.697,5.218-1.496,7.825-2.239c1.551-0.443,3.112-0.854,4.824-1.322
	c0.18,4.08,1.283,7.667,3.328,11.075c2.472,4.12,6.062,6.676,10.396,8.272c3.546,1.306,7.255,1.728,11.053,1.163
	c3.647-0.544,7.274-1.162,10.697-2.593c3.347-1.399,6.243-3.373,8.12-6.604c0.781-1.345,1.644-2.645,2.545-4.087
	c0.79-0.047,1.688-0.153,2.586-0.146c4.945,0.036,9.896,0.187,14.84,0.127c5.246-0.064,10.486-0.364,15.732-0.479
	c4.639-0.102,9.104-0.784,13.275-3.008c2.396-1.277,4.932-2.287,6.492-4.7c0.521-0.809,1.063-1.61,1.647-2.374
	c0.364-0.473,0.827-0.869,1.246-1.3c0.007,2.02-0.842,3.769-0.509,5.754c2.588,0.716,5.238,0.49,7.728,0.554
	c0.175,1.274,0.178,2.382,0.493,3.394c1.085,3.489,2.736,6.655,5.321,9.33c2.162,2.236,4.674,3.836,7.661,4.557
	c2.334,0.564,4.743,0.819,7.118,1.213c4.192,0.693,8.311,0.367,12.316-1.042c1.693-0.597,3.372-1.281,4.969-2.102
	c2.632-1.353,4.481-3.578,6.358-5.822c3.345-4.006,4.34-8.717,4.225-13.686C186.187,114.395,184.881,110.903,183.375,107.52z"></path>
<path fill-rule="evenodd" clip-rule="evenodd" fill="#7beeef" class="fill" d="M18.239,120.15c-0.9,0.146-1.642,0.265-2.54,0.409
	c-0.104-0.767-0.281-1.354-0.24-1.925c0.234-3.244,0.39-6.502,0.833-9.72c0.453-3.316,2.259-6.069,4.27-8.666
	c0.626-0.809,1.342-1.546,2.002-2.331c2.621-3.125,6.35-4.733,9.57-7.04c3.282-2.348,7.004-3.456,10.83-4.33
	c4.027-0.92,8.119-0.936,12.225-0.663c4.391,0.292,8.567,1.364,12.48,3.362c1.209,0.618,2.285,1.5,3.511,2.321
	c-0.729,1.198-1.345,2.212-1.976,3.247c-2.559-1.042-4.952-2.167-7.446-2.988c-2.48-0.817-5.109-0.731-7.709-0.703
	c-2.616,0.029-5.222,0.025-7.913,0.931c0.342,0.748,0.554,1.215,0.775,1.702c2.375-0.134,4.652-0.202,6.918-0.402
	c4.708-0.417,9.938,1.107,13.95,3.647c-0.507,0.642-0.998,1.269-1.475,1.875c-5.301-2.164-10.688-3.053-16.196-2.391
	c-3.631,0.437-7.252,1.27-10.479,3.199c-0.312,0.185-0.619,0.409-0.959,0.503c-1.737,0.478-3.059,1.588-4.398,2.722
	c-1.766,1.491-2.896,3.344-3.617,5.497c-0.093,0.277-0.268,0.527-0.467,0.91c-2.661-0.161-5.489-0.743-7.338,2.022
	c-0.149-0.197-0.276-0.291-0.268-0.365c0.921-6.289,3.771-11.368,9.283-14.778c0.82-0.508,1.626-1.041,2.408-1.602
	c0.736-0.526,0.959-1.209,0.452-2.069c-1.178-0.746-2.246-0.127-3.173,0.482c-6.265,4.112-11.075,9.35-12.381,17.035
	c-0.492,2.896-0.601,5.857-0.876,8.79C18.264,119.186,18.264,119.542,18.239,120.15z"></path>
<path fill-rule="evenodd" clip-rule="evenodd" fill="#7beeef" class="fill" d="M98.499,99.693c1.043,1.945,0.548,3.696-0.198,5.503
	c-3.671,1.027-5.446,3.699-6.22,7.318c-0.914,0.661-1.954,1.292-2.851,2.084c-1.806,1.594-3.982,1.884-6.229,1.958
	c-4.398,0.144-8.795,0.289-13.191,0.355c-4.405,0.067-8.813-0.042-13.217,0.071c-5.002,0.128-10.002,0.412-15.001,0.637
	c-0.603,0.028-1.202,0.15-1.804,0.161c-1.421,0.028-2.738,0.352-3.938,1.149c-0.326,0.218-0.725,0.33-1.286,0.295
	c0.362-0.486,0.722-0.973,1.165-1.571c-1.078-2.768-3.561-3.9-6.097-5.213c0.247-0.073,0.377-0.144,0.506-0.146
	c2.773-0.048,5.547-0.099,8.321-0.13c4.463-0.052,8.934,0.023,13.393-0.163c5.061-0.21,10.109-0.656,15.164-0.983
	c2.162-0.14,4.336-0.396,6.496-0.326c4.004,0.13,7.505-1.053,10.454-3.703c2.692-2.419,5.254-4.979,7.87-7.482
	c0.738-0.708,1.46-1.436,2.086-2.053c0.987,0.04,1.739,0.071,2.829,0.115c-0.489,0.511-0.73,0.808-1.015,1.057
	c-3.634,3.172-7.294,6.316-10.898,9.522c-0.897,0.796-1.66,1.752-2.413,2.694c-0.897,1.121-2.021,1.642-3.443,1.678
	c-6.689,0.167-13.378,0.304-20.063,0.557c-6.689,0.254-13.371,0.642-20.06,0.948c-0.837,0.039-1.678-0.058-2.739-0.101
	c-0.217,0.303-0.51,0.708-0.873,1.215c0.65,0.64,1.192,1.174,1.646,1.621c3.547-0.178,6.913-0.319,10.276-0.522
	c3.854-0.233,7.704-0.559,11.56-0.776c4.033-0.227,8.068-0.384,12.104-0.549c2.649-0.108,5.306-0.098,7.952-0.281
	c2.524-0.177,4.547-1.579,6.324-3.224c2.792-2.58,5.476-5.277,8.167-7.961C95.403,101.325,96.528,100.46,98.499,99.693z"></path>
<path fill-rule="evenodd" clip-rule="evenodd" fill="#7beeef" class="fill" d="M95.955,121.925c4.361,2.572,8.513,1.609,12.494-1.309
	c1.594-0.113,3.218-0.197,4.838-0.351c1.337-0.127,2.543-0.603,3.696-1.337c0.793-0.503,1.759-0.738,2.659-1.059
	c0.851-0.303,1.716-0.562,2.892-0.942c0.607,0.179,1.49,0.44,2.477,0.732c-0.765,2.237-2.343,3.328-4.038,4.252
	c-2.201,1.196-4.585,1.893-7.073,2.07c-4.565,0.325-9.14,0.685-13.717,0.77c-4.272,0.08-8.553-0.212-12.83-0.272
	c-3.556-0.051-7.113-0.006-10.669,0.003c-1.205,0.002-2.412,0.035-3.618,0.034c-7.298-0.003-14.597-0.052-21.895,0.006
	c-1.971,0.015-3.99-0.041-5.876,0.79c-0.297,0.129-0.665,0.081-1.316,0.147c0.679-0.529,1.094-0.853,1.461-1.137
	c0.536-2.301,0.424-2.467-3.097-4.443c0.654-0.069,1.097-0.138,1.541-0.158c5.663-0.253,11.326-0.541,16.988-0.729
	c2.891-0.096,5.787-0.013,8.68-0.012c0.482,0,0.971,0.04,1.448-0.011c6.126-0.652,12.264-0.621,18.404-0.287
	c0.754,0.041,1.498,0.262,2.248,0.4c0.011,0.125,0.021,0.25,0.033,0.374c-0.347,0.133-0.687,0.375-1.034,0.382
	c-1.982,0.042-3.968,0.027-5.949,0.034c-6.576,0.024-13.153-0.026-19.729,0.099c-4.998,0.097-9.992,0.422-14.988,0.635
	c-0.957,0.041-1.914,0.032-2.852,0.046c-0.296,1.338-0.092,1.794,0.952,2.041c0.466,0.111,0.96,0.14,1.438,0.136
	c4.703-0.037,9.406-0.021,14.107-0.15c7.175-0.199,14.341-0.533,21.513-0.742c2.288-0.067,4.581,0.106,6.872,0.122
	C93.277,122.067,94.542,121.976,95.955,121.925z"></path>
<path fill-rule="evenodd" clip-rule="evenodd" fill="#7beeef" class="fill" d="M108.112,89.432c0.844-2.369,1.822-4.324,3.32-5.983
	c2.129-2.355,4.857-3.716,7.864-4.588c0.289-0.083,0.589-0.144,0.86-0.269c3.369-1.563,6.582-0.757,9.745,0.658
	c0.488,0.219,0.953,0.525,1.376,0.859c1.097,0.862,1.879,1.933,1.602,3.409c-0.32,1.7-0.832,3.3-2.799,3.855
	c-1.807,0.509-3.607,0.809-5.51,0.84c-2.337,0.039-4.664,0.515-7.006,0.69C114.517,89.13,111.458,89.25,108.112,89.432z"></path>
<path fill-rule="evenodd" clip-rule="evenodd" fill="#7beeef" class="fill" d="M154.739,114.914c0.681,1.115,1.236,2.023,1.781,2.917
	c-0.09,0.432-0.196,0.778-0.227,1.131c-0.225,2.411,1.17,4.201,3.555,4.272c1.544,0.047,3.125-0.137,4.64-0.457
	c1.375-0.29,2.512-1.15,3.345-2.326c1.339-1.884,1.309-3.813-0.079-6.15c-1.021-0.442-2.387-1.033-3.997-1.732
	c-0.227-0.381-0.583-0.984-1.113-1.879c0.915-0.09,1.541-0.237,2.154-0.193c2.257,0.16,4.213,1.073,5.754,2.715
	c2.553,2.716,2.592,6.106,0.687,9.168c-1.671,2.683-4.104,4.279-7.342,4.72c-2.694,0.368-5.31,0.191-7.768-0.841
	c-2.81-1.178-4.171-3.925-3.683-6.948c0.17-1.062,0.494-2.122,0.917-3.11C153.565,115.731,154.165,115.432,154.739,114.914z"></path>
<path fill-rule="evenodd" clip-rule="evenodd" fill="#7beeef" class="fill" d="M145.178,120.247c-2.97,0.097-5.766,0.002-8.757-0.725
	c0.614-4.158,1.42-8.083,4.077-11.463c2.698,0.252,5.242,0.546,7.565,1.883c-0.605,1.729-1.285,3.396-1.771,5.117
	C145.823,116.729,145.553,118.457,145.178,120.247z"></path>
<path fill-rule="evenodd" clip-rule="evenodd" fill="#7beeef" class="fill" d="M155.903,97.862c1.807-0.331,3.373-0.755,4.965-0.882
	c4.987-0.399,9.986-0.596,14.986-0.188c0.898,0.073,1.805,0.217,2.66,0.482c0.539,0.166,1.14,0.511,1.447,0.958
	c0.883,1.279,1.628,2.651,2.625,4.314c-4.259-0.8-8.173-2.076-12.337-1.968c-4.087,0.106-8.177-0.146-12.1,1.688
	C157.37,100.735,156.694,99.415,155.903,97.862z"></path>
<path fill-rule="evenodd" clip-rule="evenodd" fill="#7beeef" class="fill" d="M100.259,107.123c-1.246,1.087-2.656,2.035-3.699,3.29
	c-2.625,3.16-1.487,6.92,2.404,8.116c1.806,0.556,3.638,0.542,5.481-0.183c4.085-1.607,4.669-6.739,2.437-9.156
	c-0.072-0.077-0.068-0.221-0.102-0.334c1.541-0.334,7.154,1.192,8.99,2.425c-0.66,0.771-1.331,1.555-2.107,2.463
	c0.73,1.045,1.34,1.914,2.062,2.945c-2.036,0.565-4.003,1.229-6.021,1.647c-3.371,0.699-6.786,0.99-10.24,0.667
	c-2.834-0.266-4.669-1.604-5.389-4.057c-0.768-2.608,0.356-5.839,2.58-7.394C97.844,106.724,99.106,106.759,100.259,107.123z"></path>
<path fill-rule="evenodd" clip-rule="evenodd" fill="#7beeef" class="fill" d="M115.487,96.653c-0.232-2.016,0.906-3.19,2.484-4.057
	c1.695-0.928,3.381-1.858,5.45-1.627c2.616,0.291,4.216,2.195,3.971,4.802c-0.354,3.781-1.714,7.255-3.213,10.688
	c-0.6,1.368-1.733,1.95-3.174,1.991c-1.494,0.041-2.354-0.829-2.814-2.124c-0.863-2.436-1.709-4.879-2.473-7.345
	C115.491,98.251,115.556,97.431,115.487,96.653z M121.218,101.368c2.066-0.178,4.245-1.443,5.001-3.085
	c0.694-1.511,0.265-3.976-0.954-5.201c-0.326-0.328-0.752-0.719-1.167-0.77c-3.091-0.38-5.357,0.031-6.99,2.841
	c-0.932,1.607-0.753,3.739,0.557,4.596C118.74,100.454,120.025,100.84,121.218,101.368z"></path>
<path fill-rule="evenodd" clip-rule="evenodd" fill="#7beeef" class="fill" d="M104.208,108.852c2.676,1.251,2.951,3.964,1.992,6.083
	c-0.305,0.671-0.85,1.358-1.469,1.74c-2.014,1.243-4.2,1.075-6.236,0.138c-2.02-0.933-2.268-3.982-0.814-6.008
	C99.37,108.449,101.653,108.393,104.208,108.852z"></path>
<path fill-rule="evenodd" clip-rule="evenodd" fill="#7beeef" class="fill" d="M140.104,79.188c0.233,0.312,0.518,0.596,0.689,0.938
	c3.202,6.397,6.266,12.866,9.631,19.175c1.896,3.547,4.283,6.83,6.451,10.232c1.835,2.882,3.67,5.764,5.582,8.76
	c-0.502,0.234-0.803,0.377-1.303,0.61c-0.892-1.404-1.767-2.754-2.615-4.12c-2.251-3.631-4.541-7.239-6.723-10.912
	c-3.163-5.322-6.479-10.562-8.67-16.408c-0.906-2.417-2.077-4.734-3.117-7.101c-0.135-0.307-0.21-0.64-0.312-0.96
	C139.847,79.332,139.976,79.26,140.104,79.188z"></path>
<path fill-rule="evenodd" clip-rule="evenodd" fill="#7beeef" class="fill" d="M163.788,116.574c-8.797-11.979-16.294-24.724-22.267-38.589
	c0.416,0.085,0.661,0.065,0.716,0.157C149.624,90.829,155.852,104.168,163.788,116.574z"></path>
<path fill-rule="evenodd" clip-rule="evenodd" fill="#7beeef" class="fill" d="M60.485,128.171c-2.833,2.086-5.765,2.96-8.979,2.894
	c-1.322-0.027-2.644-0.168-3.961-0.285c-1.949-0.173-3.529-0.966-4.585-2.717C44.674,127.397,57.147,127.448,60.485,128.171z"></path>
<path fill-rule="evenodd" clip-rule="evenodd" fill="#7beeef" class="fill" d="M101.548,96.072c-0.554-1.025-1.029-1.902-1.581-2.923
	c4.14-1.62,8.178-2.509,12.549-2.336c0.345,0.839,0.647,1.583,1.04,2.542C109.318,93.772,105.63,95.545,101.548,96.072z"></path>
<path fill-rule="evenodd" clip-rule="evenodd" fill="#7beeef" class="fill" d="M68.474,86.263c1.373-1.407,2.614-2.679,4.08-4.183
	c0.096,0.004,0.537,0.021,1.314,0.054c-0.821,1.038-1.479,1.869-2.274,2.879c0.199,0.361,0.362,0.895,0.711,1.238
	c2.55,2.514,5.216,4.925,8.885,5.604c1.819,0.337,3.713,0.505,5.557,0.425c3.727-0.16,7.444-0.548,11.168-0.825
	c0.503-0.037,1.013,0.033,1.521,0.054c0.017,0.118,0.032,0.235,0.052,0.352c-0.604,0.165-1.198,0.373-1.812,0.486
	c-4.046,0.75-8.137,0.57-12.218,0.525c-1.749-0.02-3.508,0.119-5.244-0.017c-0.977-0.077-2.021-0.4-2.858-0.904
	c-1.597-0.957-3.049-2.151-4.599-3.191c-0.849-0.569-1.771-1.023-2.658-1.534C69.59,86.934,69.091,86.63,68.474,86.263z"></path>
<path fill-rule="evenodd" clip-rule="evenodd" fill="#7beeef" class="fill" d="M147.652,76.194c1.454-3.174,7.95-4.891,11.312-4.251
	c-0.33,1.328-0.659,2.652-1.037,4.188C154.573,76.865,151.206,76.495,147.652,76.194z"></path>
<path fill-rule="evenodd" clip-rule="evenodd" fill="#7beeef" class="fill" d="M44.776,109.763c3.355-3.124,12.813-4.323,17.619-0.997
	C56.38,109.107,50.578,109.434,44.776,109.763z"></path>
<path fill-rule="evenodd" clip-rule="evenodd" fill="#7beeef" class="fill" d="M130.542,64.876c3.124,2.041,6.291,3.812,8.827,6.853
	c-0.633,0.392-1.202,0.746-1.693,1.049c-2.964-2.375-5.811-4.656-8.906-7.134C129.525,65.316,130.035,65.096,130.542,64.876z"></path>
<path fill-rule="evenodd" clip-rule="evenodd" fill="#7beeef" class="fill" d="M130.755,95.083c-0.099-0.747-0.189-1.434-0.279-2.135
	c1.627-0.028,6.729,2.469,8.314,4.06c-0.126,0.466-0.275,1.017-0.47,1.739C135.54,97.808,133.157,96.458,130.755,95.083z"></path>
<path fill-rule="evenodd" clip-rule="evenodd" fill="#7beeef" class="fill" d="M115.647,113.281c0.956-0.752,1.938-1.071,3.049-0.853
	c1.188,0.233,1.694,1.146,1.312,2.266c-0.335,0.983-1.297,1.427-2.31,1.062C116.738,115.411,116.128,114.705,115.647,113.281z"></path>
<path fill-rule="evenodd" clip-rule="evenodd" fill="#7beeef" class="fill" d="M107.319,106.595c-0.174-0.458-0.293-0.777-0.465-1.235
	c2.241-1.054,4.484-1.881,6.799-2.498c0.159-0.042,0.421,0.309,0.826,0.625C112.333,105.215,109.921,105.871,107.319,106.595z"></path>
<path fill-rule="evenodd" clip-rule="evenodd" fill="#7beeef" class="fill" d="M151.032,82.696c2.361-0.018,4.389-0.033,6.571-0.049
	c0.107,0.529,0.21,1.024,0.292,1.432C156.769,85.2,153.193,84.504,151.032,82.696z"></path>
<path fill-rule="evenodd" clip-rule="evenodd" fill="#7beeef" class="fill" d="M22.548,112.426c0.219,0.902,0.349,1.84,0.686,2.698
	c0.343,0.881,0.888,1.683,1.457,2.727c-0.994,0.38-1.902,0.727-3.152,1.205c0.252-2.438,0.471-4.534,0.688-6.631
	C22.334,112.426,22.44,112.426,22.548,112.426z"></path>
<path fill-rule="evenodd" clip-rule="evenodd" fill="#7beeef" class="fill" d="M133.501,103.532c-1.404-0.976-2.703-1.876-4.031-2.796
	c0.135-0.595,0.236-1.036,0.357-1.575c1.921,0.516,3.115,1.872,4.627,2.976C134.146,102.588,133.897,102.953,133.501,103.532z"></path>
<path fill-rule="evenodd" clip-rule="evenodd" fill="#7beeef" class="fill" d="M136.784,100.151c-0.375,0.267-0.691,0.491-1.067,0.758
	c-2.081-1.002-3.72-2.377-5.466-3.591C131.425,97.01,134.387,98.37,136.784,100.151z"></path>
<path fill-rule="evenodd" clip-rule="evenodd" fill="#7beeef" class="fill" d="M137.792,74.518c1.09-0.582,1.901-1.015,2.685-1.433
	c1.209,1.305,1.325,2.282,0.366,3.538C139.913,75.981,138.977,75.333,137.792,74.518z"></path>
<path fill-rule="evenodd" clip-rule="evenodd" fill="#7beeef" class="fill" d="M160.254,72.654c1.691,1.292,1.905,2.665,1.713,4.473
	c-0.827-0.389-1.499-0.706-2.396-1.128C159.779,74.98,159.985,73.972,160.254,72.654z"></path>
<path fill-rule="evenodd" clip-rule="evenodd" fill="#7beeef" class="fill" d="M106.114,103.73c-0.085-0.321-0.143-0.54-0.263-0.994
	c2.391-0.684,4.724-1.351,7.263-2.077C112.352,101.606,109.096,102.988,106.114,103.73z"></path>
<path fill-rule="evenodd" clip-rule="evenodd" fill="#7beeef" class="fill" d="M131.801,105.628c-1.171-0.819-2.242-1.568-3.368-2.354
	c0.215-0.478,0.351-0.784,0.572-1.282c1.266,0.918,2.409,1.748,3.667,2.661C132.35,105.013,132.103,105.291,131.801,105.628z"></path>
<path fill-rule="evenodd" clip-rule="evenodd" fill="#7beeef" class="fill" d="M124.393,51.795c0.649,1.068,1.092,1.796,1.616,2.656
	c-0.775,0.541-1.439,1.004-2.127,1.483C123.777,54.773,123.509,53.485,124.393,51.795z"></path>
<path fill-rule="evenodd" clip-rule="evenodd" fill="#7beeef" class="fill" d="M37.383,120.197c-0.248,1.792,0.291,3.02,2.014,3.921
	c0.787,0.41,1.631,0.706,2.616,1.125c-2.74,0-4.598-1.196-5.54-3.577C36.737,121.241,37.058,120.719,37.383,120.197z"></path>
<path fill-rule="evenodd" clip-rule="evenodd" fill="#7beeef" class="fill" d="M110.347,107.488c1.674-0.752,3.054-1.371,4.489-2.016
	C114.856,107.233,112.483,108.382,110.347,107.488z"></path>
<path fill-rule="evenodd" clip-rule="evenodd" fill="#7beeef" class="fill" d="M127.702,105.075c1.632,0.31,2.422,0.861,2.959,1.948
	C129.477,107.015,128.823,106.606,127.702,105.075z"></path>
<path fill-rule="evenodd" clip-rule="evenodd" fill="#7beeef" class="fill" d="M127.204,106.923c0.834,0.568,1.502,1.022,2.213,1.505
	c-0.957,0.677-1.437,0.518-2.746-0.814C126.802,107.445,126.936,107.271,127.204,106.923z"></path>
<path fill-rule="evenodd" clip-rule="evenodd" fill="#7beeef" class="fill" d="M159.628,84.111c-0.109-0.768-0.161-1.138-0.233-1.658
	c0.812-0.129,1.522-0.241,2.231-0.353c0.062,0.145,0.125,0.291,0.186,0.435C161.19,82.986,160.567,83.435,159.628,84.111z"></path>
<path fill-rule="evenodd" clip-rule="evenodd" fill="#7beeef" class="fill" d="M108.935,100.241c-1.197,0.307-2.394,0.612-3.593,0.918
	c-0.032-0.134-0.067-0.268-0.099-0.4c1.07-0.805,2.403-0.579,3.583-0.96C108.862,99.947,108.898,100.094,108.935,100.241z"></path>
<path fill-rule="evenodd" clip-rule="evenodd" fill="#7beeef" class="fill" d="M110.017,97.592c-0.951,1.063-2.314,0.677-3.501,0.909
	c1.092-0.606,2.271-0.91,3.538-0.882L110.017,97.592z"></path>
<path fill-rule="evenodd" clip-rule="evenodd" fill="#7beeef" class="fill" d="M121.943,113.704c0.678,1.213,0.678,1.213-0.525,1.904
	C121.612,114.905,121.754,114.397,121.943,113.704z"></path>
<path fill-rule="evenodd" clip-rule="evenodd" fill="#7beeef" class="fill" d="M25.621,112.174c0.308-0.127,0.613-0.254,0.918-0.381
	c0.062,0.121,0.12,0.242,0.18,0.362c-0.304,0.139-0.607,0.277-0.913,0.416C25.744,112.439,25.683,112.306,25.621,112.174z"></path>
<path fill-rule="evenodd" clip-rule="evenodd" fill="#7beeef" class="fill" d="M110.054,97.619c0.556-0.152,1.112-0.304,2.056-0.562
	c-0.828,0.757-1.435,0.729-2.087,0.54C110.017,97.592,110.054,97.619,110.054,97.619z"></path>
<path fill-rule="evenodd" clip-rule="evenodd" fill="#7beeef" class="fill" d="M26.637,115.952c0.245,0.225,0.487,0.449,0.729,0.673
	c-0.047,0.068-0.099,0.136-0.148,0.203c-0.283-0.186-0.568-0.372-0.854-0.559C26.457,116.164,26.548,116.058,26.637,115.952z"></path>
<path fill-rule="evenodd" clip-rule="evenodd" fill="#7beeef" class="fill" d="M120.197,93.638c0.711-0.042,1.485-0.141,2.255-0.123
	c1.449,0.031,2.227,0.656,2.62,2.004c0.38,1.3-0.073,2.585-1.169,3.316c-2.201,1.467-4.223,1.036-5.688-1.243
	C118.035,95.928,119.076,94.841,120.197,93.638z"></path>
</svg>