<svg style="top: 53%; left: 54%; height: 42%; width: 42%;" version="1.1" id="svg_4949" xmlns="http://www.w3.org/2000/svg" xmlns:xlink="http://www.w3.org/1999/xlink" x="0px" y="0px" width="200px" height="200px" viewBox="0 0 200 200" enable-background="new 0 0 200 200" xml:space="preserve">
<path class="stroke" fill="#561906" d="M158.545,121.362c-3.59-3.278-7.068-6.681-10.614-10.007c-2.975-2.792-5.885-5.664-8.989-8.304
	c-7.726-6.573-15.148-13.469-22.39-20.562c-4.745-4.646-9.439-9.346-14.193-13.984c-2.167-2.114-4.44-4.117-6.635-6.203
	c-3.434-3.266-6.815-6.585-10.268-9.83c-4.884-4.592-9.781-9.171-14.732-13.688c-3.058-2.792-6.226-5.462-9.425-8.256
	c-0.877,0.199-1.785,0.218-2.497,0.601c-3.476,1.87-7.027,3.643-10.312,5.814c-5.389,3.562-11.021,6.697-16.583,9.957
	c-1.18,0.69-2.249,1.569-3.318,2.327c-0.184,2.272-0.23,4.385-0.552,6.455c-0.392,2.521,0.161,4.675,1.807,6.605
	c1.443,1.695,2.889,3.394,4.228,5.17c2.415,3.207,4.718,6.498,7.124,9.712C45.405,82.792,49.688,88.36,53.879,94
	c2.902,3.903,5.656,7.919,8.553,11.827c3.843,5.184,7.711,10.349,11.66,15.451c5.44,7.027,10.966,13.988,16.455,20.979
	c3.942,5.021,7.869,10.052,11.826,15.06c4.488,5.681,8.997,11.347,13.514,17.003c0.438,0.547,0.999,0.995,1.573,1.56
	c1.664-0.778,3.212-1.486,4.749-2.22c5.345-2.553,10.732-5.023,16.016-7.697c5.692-2.882,11.26-6.009,16.927-8.938
	c4.854-2.508,9.772-4.889,14.66-7.329c0.76-0.379,1.511-0.775,2.515-1.29c0.661-4.065,1.332-8.193,2.031-12.5
	c-2.695-2.641-5.308-5.327-8.06-7.858C163.788,125.736,161.063,123.662,158.545,121.362z"></path>
<path fill-rule="evenodd" clip-rule="evenodd" fill="#bf7512" class="fill" d="M134.178,157.786c-1.847,1.852-6.943,4.437-12.729,6.503
	c-0.863-0.954-1.833-1.928-2.691-2.991c-4.01-4.972-8.035-9.934-11.961-14.968c-2.63-3.374-5.071-6.894-7.657-10.302
	c-4.296-5.66-8.581-11.331-12.987-16.905c-2.691-3.405-5.582-6.652-8.417-9.942c-5.159-5.986-9.816-12.36-14.587-18.65
	c-3.417-4.506-7.112-8.799-10.595-13.255c-2.187-2.8-4.188-5.741-6.311-8.591c-1.77-2.377-3.553-4.745-5.404-7.057
	c-2.178-2.721-4.462-5.356-6.646-8.072c-0.855-1.062-1.564-2.243-2.49-3.587c2.003-1.321,3.839-2.532,5.908-3.896
	c1.292,1.465,2.496,2.817,3.685,4.184c1.514,1.741,2.988,3.515,4.538,5.222c0.375,0.414,0.979,0.62,1.471,0.915
	c0.734-1.139-0.047-1.595-0.475-2.098c-2.216-2.61-4.47-5.188-6.707-7.782c-0.292-0.338-0.56-0.698-1.02-1.278
	c2.244-1.32,4.378-2.577,6.596-3.883c0.592,0.661,1.157,1.276,1.704,1.909c2.023,2.337,4.022,4.697,6.068,7.016
	c1.022,1.158,1.853,2.398,2.147,3.938c0.481,2.524,1.768,4.434,3.954,5.877c1.122,0.741,1.936,1.952,2.875,2.963
	c1.199,1.289,2.365,2.611,3.591,3.876c0.299,0.309,0.774,0.447,1.17,0.663c0.094-0.104,0.188-0.206,0.283-0.31
	c-0.116-0.328-0.154-0.721-0.361-0.976c-1.499-1.836-2.994-3.679-4.571-5.448c-0.692-0.777-1.522-1.459-2.381-2.053
	c-1.43-0.988-2.51-2.287-2.725-3.96c-0.374-2.906-2.176-4.844-4.021-6.833c-2.186-2.355-4.313-4.766-6.595-7.295
	c2.319-1.434,4.488-2.774,6.723-4.158c0.279,0.193,0.596,0.325,0.789,0.56c1.586,1.933,3.187,3.856,4.71,5.84
	c1.413,1.836,3.092,3.103,5.433,3.635c3.359,0.765,6.034,2.639,7.508,5.85c0.481,1.05,0.668,2.265,0.821,3.426
	c0.185,1.404,0.543,2.701,1.418,3.835c2.091,2.709,4.153,5.442,6.28,8.123c0.41,0.517,1.063,0.839,1.583,1.235
	c0.866-0.904,0.219-1.403-0.135-1.889c-1.24-1.701-2.509-3.383-3.791-5.052c-1.658-2.16-2.934-4.384-3.312-7.236
	c-0.469-3.542-2.044-6.672-5.448-8.464c-0.521-0.273-1.058-0.573-1.624-0.701c-3.807-0.863-6.502-3.322-8.934-6.159
	c-1.101-1.283-2.144-2.618-3.407-4.167c1.123-0.615,1.943-1.064,2.929-1.605c2.447,2.069,4.876,3.969,7.129,6.057
	c5.311,4.918,10.563,9.899,15.791,14.907c3.993,3.824,7.882,7.758,11.867,11.59c3.172,3.05,6.444,5.995,9.628,9.032
	c3.333,3.18,6.599,6.43,9.925,9.618c2.041,1.957,4.143,3.853,6.211,5.783c3.598,3.357,7.167,6.746,10.794,10.072
	c2.133,1.957,4.372,3.801,6.534,5.728c1.178,1.051,2.284,2.185,3.442,3.258c4.1,3.806,8.225,7.585,12.309,11.405
	c3.311,3.101,6.567,6.258,9.865,9.37c1.623,1.533,3.307,3.001,4.918,4.546c1.04,0.995,1.997,2.078,3.208,3.349
	c-5.117,3.107-10.441,5.452-15.445,8.542c-2.617-2.919-4.782-5.975-6.683-9.209c-0.371-0.631-0.444-1.532-0.403-2.295
	c0.323-6.122-2.454-10.299-7.906-12.859c-1.189-0.56-2.347-1.187-3.511-1.799c-1.66-0.872-3.035-2.032-4.052-3.653
	c-0.752-1.199-0.933-1.176-2.596-0.693c0.102,0.4,0.079,0.925,0.33,1.197c1.732,1.88,3.41,3.763,5.844,4.907
	c2.966,1.397,5.757,3.145,7.754,5.907c1.096,1.518,1.614,3.19,1.376,4.981c-0.334,2.518,0.299,4.648,1.84,6.632
	c1.977,2.543,3.855,5.165,5.907,7.931c-4.908,3.344-10.266,5.79-15.596,8.674c-0.722-0.739-1.444-1.389-2.06-2.126
	c-3.33-3.997-6.648-8.002-9.936-12.033c-1.04-1.274-1.931-2.668-2.966-3.946c-0.986-1.215-1.969-2.47-3.14-3.494
	c-1.807-1.581-3.261-3.284-4.29-5.537c-1.755-3.841-3.954-7.475-7.713-9.783c-0.945-0.581-1.979-1.029-3.003-1.469
	c-0.848-0.364-1.664-0.232-2.518,0.568c0.426,0.322,0.769,0.699,1.196,0.89c4.056,1.807,6.709,5.033,8.772,8.79
	c1.978,3.602,4.371,6.82,7.312,9.724c1.948,1.923,3.373,4.367,5.105,6.518c2.725,3.384,5.513,6.715,8.27,10.073
	C132.64,155.854,133.369,156.778,134.178,157.786z M142.192,141.983c-1.526-2.116-2.862-4.153-4.404-6.02
	c-0.626-0.756-1.702-1.143-2.576-1.693c-0.878-0.552-1.89-0.961-2.613-1.669c-2.142-2.097-3.51-4.717-4.887-7.361
	c-0.985-1.892-2.238-3.749-3.747-5.24c-2.865-2.831-5.751-5.61-7.971-9c-0.096-0.146-0.295-0.225-0.53-0.395
	c-0.341,0.287-0.664,0.56-1.198,1.012c1.481,1.964,2.828,3.895,4.33,5.696c1.389,1.668,2.977,3.166,4.406,4.802
	c0.594,0.679,1.08,1.479,1.483,2.293c0.965,1.942,1.758,3.978,2.797,5.88c1.076,1.969,2.377,3.914,4.56,4.735
	c2.065,0.778,3.645,2.063,5.055,3.653c0.874,0.984,1.684,2.026,2.565,3.003c0.465,0.517,1.021,0.95,1.62,1.497
	C141.485,142.745,141.736,142.474,142.192,141.983z M119.623,146.302c-0.194-0.349-0.262-0.538-0.385-0.681
	c-2.393-2.798-4.762-5.616-7.201-8.373c-1.44-1.626-2.957-3.198-5.103-3.937c-3.108-1.069-4.982-3.249-5.878-6.387
	c-0.766-2.682-1.991-5.127-3.962-7.171c-2.6-2.696-5.144-5.445-7.71-8.173c-1.037-1.102-2.074-2.202-3.102-3.312
	c-0.522-0.564-1.019-0.771-1.575-0.067c0.084,0.269,0.092,0.498,0.208,0.629c2.886,3.243,5.678,6.579,8.711,9.679
	c2.618,2.675,4.905,5.438,5.876,9.163c0.872,3.351,3.218,5.448,6.302,6.876c1.171,0.541,2.374,1.219,3.265,2.127
	c3.13,3.186,6.128,6.5,9.184,9.759c0.168,0.18,0.398,0.301,0.625,0.468C119.135,146.696,119.331,146.538,119.623,146.302z
	 M86.174,83.428c0.428,0.604,0.771,1.141,1.168,1.634c0.618,0.767,1.44,1.416,1.882,2.268c1.34,2.579,3.606,4.111,5.957,5.559
	c3.22,1.981,5.34,4.765,6.567,8.336c0.462,1.342,1.188,2.641,2.02,3.798c0.992,1.378,2.197,2.608,3.368,3.85
	c0.464,0.491,1.085,0.838,1.826,1.394c0.444-0.701,0.758-1.199,1.042-1.647c-1.28-1.481-2.493-2.705-3.491-4.082
	c-1.494-2.063-3.146-4.028-3.915-6.561c-0.896-2.949-2.679-5.223-5.547-6.584c-0.937-0.444-1.869-1.018-2.611-1.73
	c-2.033-1.955-3.97-4.01-5.931-6.04C87.907,82.996,87.301,82.593,86.174,83.428z M82.775,108.446
	c-2.751-3.548-5.492-6.995-8.125-10.521c-1.051-1.407-2.067-2.906-2.745-4.514c-1.489-3.53-3.491-6.729-6.538-8.983
	c-2.551-1.888-4.65-4.042-6.301-6.701c-0.089-0.144-0.312-0.203-0.483-0.308c-0.197,0.096-0.403,0.146-0.532,0.272
	c-0.126,0.127-0.174,0.332-0.294,0.58c1.298,2.37,2.82,4.562,5.081,6.165c3.356,2.379,5.831,5.44,7.311,9.31
	c0.445,1.162,0.938,2.364,1.678,3.345c2.773,3.674,5.648,7.271,8.51,10.875c0.431,0.543,0.997,0.978,1.595,1.553
	C82.287,109.066,82.509,108.786,82.775,108.446z M122.481,100.11c1.28,1.179,2.498,2.036,3.378,3.159
	c2.757,3.52,5.387,7.139,8.065,10.721c1.225,1.637,2.42,3.31,4.316,4.259c2.644,1.322,4.74,3.249,6.579,5.557
	c1.304,1.635,2.846,3.089,4.352,4.552c0.436,0.425,0.991,1.178,2.004,0.283c-0.467-0.609-0.886-1.24-1.387-1.798
	c-1.23-1.368-2.62-2.609-3.723-4.072c-1.704-2.261-3.851-3.909-6.236-5.365c-1.211-0.74-2.426-1.637-3.299-2.733
	c-2.371-2.98-4.512-6.143-6.836-9.162c-1.754-2.277-3.463-4.633-6.039-6.216C123.339,99.516,123.086,99.69,122.481,100.11z
	 M94.077,73.266c3.493,4.784,20.518,24.186,23.375,26.666c0.275-0.18,0.574-0.377,1.016-0.664c-0.551-0.719-0.985-1.365-1.5-1.941
	c-1.534-1.719-3.139-3.375-4.647-5.116c-5.25-6.063-10.466-12.155-15.709-18.226c-0.45-0.521-0.996-0.963-1.68-1.616
	C94.564,72.754,94.35,72.979,94.077,73.266z M73.572,80.14c0.618-0.884,0.46-1.549-0.022-2.164c-1.176-1.5-2.285-3.068-3.592-4.447
	c-0.84-0.887-1.92-1.601-3.002-2.189c-1.324-0.72-2.817-1.128-4.136-1.853c-1.6-0.878-3.129-1.897-4.621-2.951
	c-0.964-0.68-1.866-1.472-2.688-2.318c-0.854-0.88-1.576-1.886-2.416-2.911c-0.386,0.268-0.682,0.473-1.088,0.753
	c0.465,0.823,0.825,1.597,1.305,2.288c2.392,3.452,5.526,5.971,9.528,7.317c2.446,0.823,4.402,2.237,6.042,4.238
	c1.16,1.415,2.578,2.62,3.9,3.898C72.949,79.963,73.235,80.001,73.572,80.14z M77.249,68.486c0.171-0.16,0.341-0.32,0.511-0.479
	c-0.35-0.5-0.651-1.041-1.059-1.488c-1.815-1.994-3.577-4.048-5.521-5.909c-1.737-1.664-3.439-3.476-6.041-3.879
	c-0.47-0.073-0.942-0.485-1.304-0.851c-1.884-1.897-3.473-3.959-3.593-6.807c-0.069-1.657-0.849-3.077-1.956-4.201
	c-1.739-1.767-3.648-3.365-5.686-5.218c-0.285,0.245-0.555,0.476-0.988,0.846c1.625,1.54,2.932,2.822,4.287,4.052
	c1.553,1.41,2.699,2.988,3.006,5.162c0.178,1.264,0.549,2.576,1.16,3.688c1.146,2.084,2.574,3.923,5.055,4.718
	c1.086,0.347,2.112,1.104,2.977,1.882c2.141,1.927,4.158,3.989,6.255,5.968C75.281,66.847,76.281,67.648,77.249,68.486z
	 M138.541,153.428c-0.626-1.354-1.432-2.505-2.342-3.609c-2.427-2.943-4.843-5.895-7.219-8.879
	c-0.858-1.076-1.509-2.322-2.396-3.373c-2.674-3.164-5.421-6.266-8.127-9.404c-0.472-0.547-0.856-1.167-1.318-1.722
	c-0.519-0.624-1.057-0.685-1.697,0.135c0.391,0.549,0.737,1.095,1.142,1.593c3.926,4.847,7.861,9.686,11.796,14.525
	c1.99,2.448,3.985,4.892,5.969,7.344c0.745,0.921,1.447,1.877,2.2,2.791C137.005,153.382,137.506,153.929,138.541,153.428z
	 M77.995,91.708c1.707,3.327,4.092,6.116,7.364,8.094c0.574,0.347,1.385,0.463,2.068,0.418c0.564-0.037,1.104-0.471,1.907-0.847
	c-0.666-1.442-1.23-2.664-1.915-4.147c-0.181-2.584-2.102-4.711-4.917-5.176c-0.516-0.086-1.022-0.213-1.532-0.321
	C79.379,89.395,78.919,89.659,77.995,91.708z M70.069,81.985c0.695,0.852,1.262,1.479,1.752,2.159
	c1.185,1.648,2.41,3.237,2.408,5.474c-0.001,1.145,0.271,2.433,0.846,3.403c1.502,2.532,3.194,4.958,4.904,7.359
	c0.834,1.172,1.86,2.207,2.831,3.277c0.509,0.562,1.086,1.031,1.806,0.017c-0.422-0.565-0.792-1.189-1.282-1.698
	c-2.57-2.67-4.628-5.713-6.366-8.958c-0.597-1.116-0.783-2.453-1.15-3.69c-0.349-1.176-0.486-2.473-1.083-3.503
	c-0.915-1.578-2.141-2.976-3.246-4.443c-0.067-0.09-0.229-0.109-0.452-0.206C70.8,81.374,70.523,81.605,70.069,81.985z
	 M112.886,101.251c-6.357-7.193-12.571-14.223-18.944-21.433c-0.114,0.032-0.511,0.138-0.927,0.251
	c1.237,2.952,16.787,20.637,19.317,21.666C112.475,101.611,112.664,101.444,112.886,101.251z M133.147,126.328
	c0.071,0.45,0.056,0.864,0.203,1.209c0.989,2.326,2.492,4.282,4.398,5.932c0.852,0.735,1.832,0.974,2.929,0.707
	c1.985-1.575,2.246-2.871,0.814-4.825c-0.808-1.104-1.72-2.156-2.708-3.104C136.842,124.381,135.526,124.412,133.147,126.328z
	 M129.754,122.198c0.914-1.14,0.273-1.689-0.153-2.2c-1.64-1.967-3.335-3.89-4.985-5.85c-1.904-2.263-3.753-4.567-5.681-6.807
	c-0.935-1.085-1.995-2.06-3.032-3.118c-0.444,0.28-0.748,0.47-1.241,0.781C120.156,110.381,124.227,116.798,129.754,122.198z
	 M79.057,59.46c3.033,4.119,6.358,7.57,9.941,11.007c0.487-0.665,0.853-1.165,1.284-1.755c-1.663-1.825-3.233-3.577-4.834-5.3
	c-1.594-1.714-3.22-3.4-4.96-5.234C79.98,58.632,79.573,58.998,79.057,59.46z M91.907,100.23c0.252,1.216,0.562,2.169,0.625,3.139
	c0.104,1.608,0.829,2.838,1.86,4.017c1.427,1.629,2.703,3.392,4.109,5.04c1.022,1.197,2.127,2.329,3.245,3.438
	c0.49,0.486,1.101,0.775,1.611-0.103c-0.09-0.185-0.143-0.381-0.262-0.521c-2.384-2.803-4.759-5.614-7.174-8.392
	c-1.069-1.229-1.771-2.552-1.865-4.231c-0.053-0.934-0.439-1.849-0.708-2.899C92.727,99.939,92.387,100.06,91.907,100.23z
	 M65.363,47.422c-0.832,0.354-1.813,0.771-2.645,1.125c-0.084,0.514-0.167,0.715-0.139,0.898c0.336,2.124,3.463,5.483,5.514,5.945
	c1.469,0.332,1.954,0.113,2.871-1.287C69.444,50.502,68.461,48.747,65.363,47.422z M102.463,125.91
	c0.193,2.243,0.957,3.788,2.826,4.656c1.188,0.552,2.264,1.651,3.735,0.803c-0.136-2.298-1.74-4.716-4.333-6.488
	C104.047,125.179,103.304,125.522,102.463,125.91z M155.23,131.709c1.686,2.556,5.7,6.736,7.148,7.312
	c0.242-0.434,0.497-0.893,0.728-1.306c-0.65-0.858-1.131-1.564-1.684-2.21c-1.153-1.349-2.3-2.706-3.532-3.979
	C156.846,130.449,156.239,130.54,155.23,131.709z M96.42,95.841c-0.874,0.207-1.718,0.404-2.496,0.589
	c-0.038,2.009,1.115,3.911,2.799,4.825c0.979,0.532,1.968,0.758,3.004-0.354C99.655,98.771,98.091,97.486,96.42,95.841z
	 M109.247,112.739c2.859,3.34,5.436,6.349,8.124,9.487c0.358-0.399,0.623-0.693,0.907-1.01c-2.524-3.022-4.956-5.934-7.442-8.913
	C110.492,112.398,110.142,112.495,109.247,112.739z M36.42,51.898c2.978,4.488,6.715,8.882,8.084,9.489
	c0.081-0.239,0.301-0.573,0.218-0.685c-2.359-3.188-4.749-6.353-7.196-9.604C37.086,51.417,36.797,51.627,36.42,51.898z
	 M117.491,151.285c0.98-1.127,0.216-1.695-0.331-2.308c-1.612-1.807-3.219-3.615-4.844-5.408c-0.292-0.323-0.658-0.579-1.038-0.905
	c-0.316,0.268-0.55,0.465-0.836,0.706C112.352,146.455,114.888,148.835,117.491,151.285z M149.152,134.006
	c1.794,2.955,3.986,5.402,6.137,7.876c0.235,0.27,0.847,0.211,1.284,0.306c0.093-0.153,0.185-0.308,0.278-0.461
	c-2.134-2.687-4.268-5.375-6.467-8.144c-0.093,0-0.295-0.036-0.476,0.011C149.729,133.641,149.571,133.771,149.152,134.006z
	 M67.101,63.267c1.59,2.663,3.908,4.587,5.983,6.718c0.177,0.182,0.574,0.149,0.887,0.22c0.092-1.302-1.145-2.85-5.358-6.867
	C68.214,62.955,67.851,62.575,67.101,63.267z M121.839,106.758c1.799,2.617,3.153,5.431,6.187,7.088
	c-0.07-1.552-2.097-4.421-5.148-7.575C122.589,106.406,122.264,106.558,121.839,106.758z M84.848,86.479
	c2.182,2.076,3.434,4.778,6.078,6.365c0.238-0.281,0.458-0.542,0.646-0.766c-1.509-1.807-2.917-3.511-4.348-5.195
	C86.652,86.21,86.007,85.677,84.848,86.479z M76.435,82.735c1.827,3.131,4.754,5.605,6.589,5.425
	c-1.886-2.059-3.668-4.005-5.527-6.035C77.169,82.314,76.854,82.495,76.435,82.735z M55.002,73.217
	c0.066-0.151,0.134-0.303,0.2-0.455c-1.776-2.145-3.552-4.288-5.366-6.48c-0.416,0.245-0.676,0.4-1.223,0.726
	c1.916,2.152,3.711,4.19,5.547,6.19C54.292,73.341,54.715,73.217,55.002,73.217z M60.96,75.354c1.504,1.74,2.912,3.418,4.384,5.036
	c0.312,0.344,0.859,0.472,1.362,0.73c0.044-1.555-2.63-4.944-4.894-6.34C61.631,74.902,61.426,75.042,60.96,75.354z M106.79,141.428
	c0.232-0.169,0.466-0.338,0.699-0.507c-1.247-2.022-3.075-3.628-4.39-5.664c-0.519,0.203-0.853,0.335-1.337,0.525
	C103.386,137.874,104.588,140.11,106.79,141.428z M53.421,56.479c-0.52,0.315-0.857,0.521-1.315,0.8
	c1.725,1.991,3.332,3.844,4.932,5.688c0.157-0.049,0.312-0.054,0.393-0.132c0.134-0.129,0.221-0.308,0.36-0.512
	C56.897,59.972,54.636,58.707,53.421,56.479z M90.492,78.771c0.707-1.511,0.707-1.511-4.144-6.276
	c-0.283,0.131-0.6,0.277-1.136,0.525C87.052,75.022,88.75,76.873,90.492,78.771z M48.435,51.816
	c0.157,0.009,0.525,0.027,0.892,0.047c0.117-0.142,0.234-0.284,0.352-0.427c-1.326-2.016-3.447-3.37-4.855-5.433
	c-0.445,0.3-0.735,0.494-1.262,0.849C45.176,48.499,46.668,50.018,48.435,51.816z M86.314,115.436
	c-0.108,0.185-0.217,0.369-0.326,0.552c1.301,1.466,2.602,2.93,3.968,4.466c0.415-0.283,0.701-0.478,1.203-0.82
	c-1.394-1.477-2.663-2.852-3.979-4.177C87.033,115.308,86.609,115.436,86.314,115.436z M125.047,159.215
	c0.16-0.183,0.321-0.365,0.482-0.548c-1.297-1.472-2.594-2.945-3.99-4.529c-0.357,0.421-0.584,0.69-0.889,1.05
	C122.087,156.679,123.015,158.585,125.047,159.215z M145.723,118.008c-0.93-1.228-1.771-2.337-2.67-3.524
	c-0.62,0.352-1.034,0.586-1.611,0.914c1.115,1.282,2.108,2.424,3.156,3.629C144.984,118.677,145.218,118.465,145.723,118.008z
	 M80.474,79.915c0.351-0.377,0.586-0.63,0.902-0.97c-1.161-1.392-2.237-2.679-3.373-4.038c-0.408,0.096-0.801,0.188-1.562,0.367
	C77.854,76.901,79.068,78.297,80.474,79.915z M145.532,143.777c-0.421,0.122-0.806,0.232-1.236,0.356
	c1.917,2.975,2.671,3.521,3.955,2.82C147.396,145.955,146.554,144.973,145.532,143.777z M138.375,146.139
	c-0.428,0.318-0.707,0.525-1.275,0.949c1.498,0.578,1.363,2.581,3.25,2.796C140.374,148.164,139.292,147.352,138.375,146.139z"></path>
<path fill-rule="evenodd" clip-rule="evenodd" fill="#bf7512" class="fill" d="M79.353,91.284c3.059,0.572,7.178,4.735,7.766,7.469
	c-0.867,0.297-1.568-0.164-2.083-0.668C83.02,96.109,80.793,94.285,79.353,91.284z"></path>
<path fill-rule="evenodd" clip-rule="evenodd" fill="#bf7512" class="fill" d="M140.407,132.557c-0.872,0.566-1.521,0.281-2.002-0.326
	c-1.325-1.674-2.597-3.391-3.947-5.164C136.639,126.337,139.25,128.881,140.407,132.557z"></path>
<path fill-rule="evenodd" clip-rule="evenodd" fill="#bf7512" class="fill" d="M69.006,54.053c-1.939-0.323-4.089-2.29-5.1-4.533
	c0.364-0.182,0.732-0.364,1.124-0.559C66.655,50.402,68.243,51.738,69.006,54.053z"></path>
<path fill-rule="evenodd" clip-rule="evenodd" fill="#bf7512" class="fill" d="M106.498,129.662c-1.206-0.522-2.204-1.203-1.834-2.952
	c0.751,0.868,1.503,1.737,2.256,2.607C106.779,129.433,106.639,129.548,106.498,129.662z"></path>
<path fill-rule="evenodd" clip-rule="evenodd" fill="#bf7512" class="fill" d="M96.032,97.472c0.534,0.656,1.067,1.311,1.795,2.203
	C96.279,99.209,96.279,99.209,96.032,97.472z"></path>
</svg>