<svg style="top: 3%; left: 4%; height: 42%; width: 42%;" version="1.1" id="svg_4308" xmlns="http://www.w3.org/2000/svg" xmlns:xlink="http://www.w3.org/1999/xlink" x="0px" y="0px" width="200px" height="200px" viewBox="0 0 200 200" enable-background="new 0 0 200 200" xml:space="preserve">
<path class="stroke" fill="#283843" d="M158.204,124.41c-1.722-2.334-3.423-4.685-5.067-6.938c0.68-2.104,2.013-3.242,3.912-3.856
	c2.269-0.734,2.135-2.976,1.155-4.462c-0.621-0.941-1.411-1.773-2.01-2.728c-1.002-1.594-1.911-3.247-2.866-4.871
	c-2.04-3.467-4.069-6.943-6.136-10.396c-1.01-1.687-2.099-3.326-3.142-4.995c-1.184-1.888-2.353-3.787-3.533-5.679
	c-1.215-1.945-2.45-3.881-3.653-5.835c-1.928-3.129-3.818-6.281-5.756-9.405c-1.417-2.284-2.918-4.517-4.319-6.811
	c-1.322-2.164-2.57-4.374-3.838-6.571c-1.374-2.38-2.726-4.771-4.101-7.149c-0.368-0.636-0.784-1.242-1.126-1.781
	c-1.718-1.083-3.59-1.157-5.476-1.025c-3.137,0.221-6.273,0.487-9.408,0.745c-1.488,0.124-2.975,0.268-4.46,0.409
	c-2.748,0.26-5.499,0.495-8.242,0.798c-1.453,0.16-2.887,0.518-4.342,0.649c-2.275,0.208-4.562,0.303-6.843,0.44
	c-1.697,0.104-3.395,0.196-5.091,0.305c-2.198,0.141-4.399,0.253-6.592,0.452c-2.024,0.182-4.035,0.516-6.06,0.684
	c-2.36,0.195-4.604,0.732-6.697,1.856c-0.764,0.409-1.535,0.807-2.309,1.197c-2.107,1.061-3.967,2.347-4.903,4.667
	c-0.567,1.408-1.378,2.722-1.915,4.139c-0.738,1.95-1.17,3.996-0.888,6.094c0.285,2.114,1.14,4.043,2.123,5.933
	c1.744,3.353,3.439,6.731,5.072,10.139c1.541,3.214,2.94,6.494,4.466,9.716c1.076,2.268,2.248,4.49,3.401,6.722
	c1.585,3.062,3.192,6.111,4.656,8.911c0.207,0.652,0.287,1.056,0.459,1.415c1.305,2.739,2.61,5.479,3.952,8.199
	c1.915,3.88,3.801,7.776,5.816,11.604c1.259,2.391,2.749,4.659,4.106,7c0.905,1.561,1.7,3.187,2.654,4.716
	c1.285,2.057,2.791,3.983,3.996,6.084c2.492,4.344,6.35,6.22,11.148,6.208c2.418-0.007,4.839-0.511,7.253-0.831
	c1.007-0.133,1.999-0.374,3.001-0.567c0.925,3.053-0.164,6.025,0.207,9.014c0.398-0.052,0.746-0.099,1.194-0.158
	c0.928-1.404,1.869-2.83,2.939-4.45c0.281,1.545,0.518,2.838,0.754,4.132c0.115,0.045,0.231,0.09,0.347,0.135
	c0.431-0.294,0.861-0.586,1.291-0.878c0.601-3.048,1.183-5.992,1.764-8.937c-0.094-0.051-0.188-0.101-0.282-0.152
	c0.299-0.102,0.596-0.209,0.896-0.306c0.683-0.222,1.381-0.401,2.049-0.661c1.254-0.487,2.466-1.094,3.74-1.52
	c2.667-0.889,5.368-1.681,8.047-2.536c1.967-0.628,3.918-1.308,5.885-1.937c1.911-0.611,3.84-1.17,5.75-1.782
	c1.958-0.628,3.909-1.28,5.854-1.951c1.272-0.438,2.541-0.895,3.787-1.403c2.845-1.163,5.667-2.386,8.517-3.538
	c1.257-0.509,2.383-2.095,2.282-3.446c-0.017-0.22-0.139-0.457-0.275-0.64C160.31,127.182,159.237,125.811,158.204,124.41z"></path>
<path fill-rule="evenodd" clip-rule="evenodd" fill="#7beeef" class="fill" d="M151.086,117.562c-0.361,2.036-0.803,3.974,0.061,5.909
	c0.823,1.845,1.791,3.541,3.776,4.433c-0.717,1.172-1.918,1.281-2.92,1.627c-2.949,1.014-5.945,1.892-8.914,2.847
	c-3.391,1.093-6.756,2.268-10.167,3.298c-2.005,0.604-4.084,0.959-6.113,1.494c-2.292,0.604-4.562,1.29-6.845,1.93
	c-2.073,0.579-4.151,1.144-6.316,1.74c-0.496-1.025-1.006-1.941-1.391-2.906c-0.705-1.766-1.954-3.077-3.445-4.152
	c-0.348-0.251-1.051-0.195-1.523-0.056c-1.829,0.548-3.63,1.186-5.363,1.764c-0.361,1.129-0.013,1.845,0.574,2.69
	c0.979,1.409,1.671,3.017,2.533,4.632c-3.309,0.719-6.339,1.627-9.536,1.533c-2.544-0.073-4.616-1.868-5.42-3.877
	c-0.614-1.531-0.402-3.325,0.289-4.902c0.187-0.426,0.758-0.805,1.233-0.965c3.178-1.062,6.351-2.161,9.58-3.051
	c4.166-1.149,8.391-2.078,12.572-3.171c3.572-0.936,7.125-1.953,10.677-2.965c2.967-0.847,5.924-1.737,8.883-2.614
	c2.264-0.671,4.528-1.338,6.784-2.035c3.174-0.978,6.338-1.99,9.512-2.967C150.031,117.666,150.489,117.652,151.086,117.562z"></path>
<path fill-rule="evenodd" clip-rule="evenodd" fill="#7beeef" class="fill" d="M157.168,110.698c0.291,1.02-0.093,1.494-0.805,1.711
	c-2.323,0.705-4.647,1.409-6.988,2.052c-3.412,0.937-6.862,1.74-10.253,2.745c-4.98,1.476-9.909,3.125-14.885,4.613
	c-4.337,1.298-8.707,2.488-13.069,3.702c-3.356,0.934-6.736,1.779-10.079,2.757c-2.156,0.63-4.253,1.459-6.396,2.139
	c-2.413,0.766-4.341,2.148-5.674,4.304c-0.289,0.468-0.566,1.03-0.59,1.562c-0.092,2.074-0.375,4.133,0.963,6.068
	c1.696,2.45,4.934,4.038,7.951,3.523c2.678-0.458,5.35-0.949,8.157-1.45c0.193,0.679,0.416,1.464,0.694,2.446
	c-1.156,0.223-2.189,0.489-3.239,0.61c-2.086,0.242-4.179,0.446-6.274,0.588c-2.108,0.143-4.03-0.645-5.877-1.509
	c-0.606-0.283-1.026-1.032-1.446-1.628c-0.754-1.069-1.407-2.209-2.167-3.274c-1.104-1.546-1.226-3.243-0.759-4.98
	c0.995-3.693,3.499-5.962,7.019-7.259c2.107-0.776,4.136-1.797,6.281-2.438c4.034-1.203,8.139-2.171,12.193-3.311
	c3.727-1.047,7.419-2.223,11.144-3.279c2.128-0.603,4.313-1.008,6.436-1.626c2.848-0.832,5.647-1.828,8.492-2.669
	c2.289-0.677,4.618-1.217,6.924-1.835c2.207-0.594,4.413-1.188,6.607-1.823C153.406,111.893,155.264,111.288,157.168,110.698z"></path>
<path fill-rule="evenodd" clip-rule="evenodd" fill="#7beeef" class="fill" d="M98.157,125.551c-0.316,0.133-0.554,0.252-0.804,0.331
	c-0.257,0.082-0.526,0.123-0.899,0.206c-0.184-0.233-0.444-0.483-0.608-0.784c-2.56-4.662-5.119-9.326-7.654-14.002
	c-1.633-3.014-3.242-6.042-4.83-9.079c-1.266-2.419-2.468-4.871-3.726-7.296c-2.313-4.46-4.713-8.877-6.951-13.374
	c-1.714-3.444-3.135-7.033-4.872-10.463c-1.518-3-3.327-5.85-4.942-8.8c-1.165-2.127-2.24-4.304-3.322-6.475
	c-0.723-1.449-1.388-2.928-2.136-4.513c0.549-0.174,1.037-0.328,1.582-0.501c1.073,2.004,2.093,3.907,3.112,5.812
	c0.945,1.765,1.893,3.526,2.83,5.295c0.844,1.59,1.676,3.186,2.511,4.779c1.448,2.77,2.93,5.521,4.334,8.312
	c1.277,2.539,2.453,5.131,3.705,7.684c2.113,4.312,4.215,8.629,6.392,12.909c1.443,2.836,3.014,5.606,4.516,8.411
	c1.028,1.92,2.03,3.854,3.055,5.775c1.109,2.077,2.19,4.171,3.358,6.215c1.449,2.538,2.989,5.023,4.458,7.551
	C97.621,124.155,97.847,124.842,98.157,125.551z"></path>
<path fill-rule="evenodd" clip-rule="evenodd" fill="#7beeef" class="fill" d="M114.692,145.245c-0.226-1.004-0.423-1.877-0.637-2.829
	c1.442-0.395,2.846-0.781,4.251-1.161c5.008-1.359,10.037-2.65,15.019-4.098c3.267-0.949,6.466-2.134,9.7-3.198
	c1.254-0.413,2.525-0.77,3.78-1.18c2.735-0.891,5.494-1.72,8.184-2.732c1.403-0.527,2.681-1.388,4.166-2.178
	c0.296,0.66,0.554,1.237,0.891,1.991C145.2,136.089,129.802,140.207,114.692,145.245z"></path>
<path fill-rule="evenodd" clip-rule="evenodd" fill="#7beeef" class="fill" d="M112.576,153.721c-0.826-1.172-0.538-2.788-2.201-3.51
	c-0.558,1.545-1.09,3.024-1.624,4.505c-0.08-0.012-0.16-0.023-0.24-0.035c0.048-3.161-0.262-6.282-1.077-9.327
	c-0.812-3.033-1.993-5.921-3.88-8.667c0.484-0.208,0.93-0.412,1.386-0.593c0.392-0.155,0.787-0.304,1.191-0.421
	c2.331-0.673,2.585-0.716,3.941,1.378c1.92,2.964,3.199,6.228,3.219,9.828c0.01,1.818-0.191,3.639-0.336,5.454
	C112.919,152.769,112.725,153.19,112.576,153.721z"></path>
<path fill-rule="evenodd" clip-rule="evenodd" fill="#7beeef" class="fill" d="M65.438,101.7c-0.805-1.411-1.859-2.663-1.776-4.513
	c0.094-2.08,0.027-4.196,0.98-6.084c0.984-1.949,2.045-3.981,4.085-5.01c1.151-0.58,2.556-0.656,3.819-0.953
	c0.88,1.633,1.635,3.036,2.308,4.287c-1.478,0.417-2.983,0.564-4.174,1.256c-1.158,0.672-2.35,1.739-2.889,2.923
	c-0.894,1.963-1.293,4.153-1.863,6.259c-0.155,0.572-0.176,1.181-0.259,1.772C65.593,101.658,65.516,101.68,65.438,101.7z"></path>
<path fill-rule="evenodd" clip-rule="evenodd" fill="#7beeef" class="fill" d="M63.643,67.035c-1.953,0.021-3.55,0.324-4.93,1.491
	c-1.726,1.459-2.667,3.379-3.271,5.45c-0.499,1.709-0.713,3.5-1.083,5.407c-0.839-1.433-1.722-2.707-1.404-4.434
	c0.307-1.673,0.396-3.397,0.812-5.039c0.774-3.054,2.833-5.641,6.584-6.142c0.463-0.062,0.927-0.119,1.398-0.18
	C62.382,64.741,62.966,65.803,63.643,67.035z"></path>
<path fill-rule="evenodd" clip-rule="evenodd" fill="#7beeef" class="fill" d="M77.509,125.987c-0.561-0.979-1.31-1.903-1.62-2.956
	c-0.242-0.823,0.068-1.806,0.121-2.719c0.142-2.465,0.685-4.803,2-6.937c1.28-2.075,3.136-3.167,5.528-3.392
	c0.537-0.052,1.083-0.008,1.786-0.008c0.451,0.844,0.947,1.772,1.437,2.689c-1.199,0.23-2.283,0.325-3.29,0.657
	c-2.565,0.841-3.988,2.845-4.92,5.237c-0.775,1.99-0.844,4.085-0.733,6.192c0.021,0.38-0.03,0.763-0.047,1.145
	C77.684,125.928,77.596,125.956,77.509,125.987z"></path>
</svg>