<svg style="top: 3%; left: 4%; height: 42%; width: 42%;" version="1.1" id="svg_4408" xmlns="http://www.w3.org/2000/svg" xmlns:xlink="http://www.w3.org/1999/xlink" x="0px" y="0px" width="200px" height="200px" viewBox="0 0 200 200" enable-background="new 0 0 200 200" xml:space="preserve">
<path class="stroke" fill="#1f4a69" d="M168.379,64.176c-0.44-0.822-0.852-1.659-1.382-2.698c0.38-0.896,0.772-1.927,1.251-2.915
	c0.335-0.691,0.419-1.354,0.136-2.061c-0.166-0.413-0.297-0.85-0.526-1.226c-0.593-0.976-1.044-2.152-1.887-2.839
	c-2.388-1.946-5.107-3.41-7.886-4.747c-2.084-1.003-4.348-1.257-6.594-1.566c-2.798-0.383-5.597-0.228-8.375,0.186
	c-1.004,0.149-1.964,0.581-2.965,0.789c-1.794,0.374-3.339,1.208-4.74,2.354c-0.34,0.277-0.696,0.533-0.941,0.72
	c-1.104-0.154-1.78-0.682-2.47-1.385c-1.105-1.128-1.968-2.593-3.639-2.978c-0.497-1.472-1.372-2.552-2.433-3.547
	c-1.199-1.126-2.582-1.888-4.082-2.473c-2.371-0.924-4.788-1.625-7.366-1.727c-2.79-0.11-5.482,0.501-8.202,0.938
	c-0.262,0.042-0.542,0.086-0.77,0.21c-2.84,1.556-5.875,2.838-7.854,5.602c-0.128,0.179-0.303,0.328-0.469,0.476
	c-1.718,1.539-3.457,3.054-5.148,4.62c-0.833,0.771-1.78,1.176-2.894,1.185c-1.375,0.011-2.754,0.024-4.127-0.043
	c-3.82-0.188-7.532,0.293-11.187,1.461c-1.429,0.457-2.967,0.596-4.467,0.793c-0.551,0.072-1.135-0.111-1.704-0.17
	c-0.648-0.067-1.301-0.206-1.945-0.173c-1.419,0.073-2.834,0.23-4.25,0.36c-0.352,0.032-0.713,0.045-1.049,0.142
	c-3.135,0.907-5.949,2.364-8.116,4.877c-0.872,1.01-1.669,2.084-2.535,3.1c-0.712,0.836-1.196,1.762-1.388,2.846
	c-0.208,1.173-0.436,2.344-0.693,3.73c-1.561,0.427-2.052,1.74-2.544,3.054c-0.109,0.292-0.192,0.599-0.335,0.873
	c-0.64,1.22-1.197,2.499-1.966,3.633c-2.146,3.167-4.537,6.157-6.115,9.703c-1.354,3.04-2.534,6.126-2.769,9.44
	c-0.265,3.728-0.389,7.48-0.298,11.215c0.085,3.53,1.191,6.905,2.237,10.26c0.236,0.758,0.524,1.512,0.889,2.216
	c0.592,1.14,1.368,2.19,1.883,3.359c0.852,1.937,1.806,3.794,3.375,5.235c1.148,1.053,2.374,2.029,3.624,2.96
	c3.501,2.609,7.101,5.092,10.014,8.405c0.839,0.954,1.863,1.579,3.22,1.694c1.947,0.165,3.686,0.919,5.244,2.146
	c1.188,0.935,2.472,1.753,3.747,2.569c2.44,1.561,4.921,3.069,7.018,5.092c2.517,2.43,5.412,4.358,8.247,6.369
	c2.559,1.815,5.476,2.351,8.518,2.166c3.793-0.23,7.545-0.796,11.084-2.274c1.807-0.754,3.523-1.664,5.014-3.006
	c2.378-2.143,4.318-4.619,5.932-7.357c1.236-2.099,2.227-4.285,1.538-6.835c-0.036-0.134,0.044-0.3,0.103-0.64
	c0.714,1.292,1.37,2.383,1.935,3.521c1.104,2.227,2.663,3.854,5.188,4.447c1.623,0.381,3.188,0.296,4.721-0.281
	c1.185-0.445,2.364-0.702,3.646-0.643c2.126,0.098,4.131-0.543,6.12-1.197c2.211-0.728,4.441-1.247,6.805-1.205
	c1.275,0.022,2.559-0.25,3.833-0.429c2.153-0.301,3.222-1.838,4.136-3.601c0.356-0.685,0.848-1.377,1.451-1.84
	c1.265-0.97,2.646-1.79,4.022-2.701c0.505-1.394,1.036-2.809,1.527-4.236c0.916-2.659,1.925-5.264,3.76-7.463
	c0.341-0.407,0.646-0.869,0.857-1.354c0.616-1.407,1.349-2.745,1.017-4.436c-0.342-1.739-0.433-3.533-0.552-5.307
	c-0.19-2.837,0.192-5.538,1.414-8.194c0.999-2.171,1.393-4.559,1.253-7.033c-0.163-2.872-0.726-5.729-0.023-8.646
	c0.706-2.931,0.792-5.97,1.547-8.933c0.764-2.995,0.955-6.15,1.231-9.25C169.391,67.706,169.281,65.86,168.379,64.176z"></path>
<path fill-rule="evenodd" clip-rule="evenodd" fill="#b3d753" class="fill" d="M130.57,94.147c1.132,0.824,2.088,1.521,3.107,2.264
	c-0.104,0.562-0.204,1.105-0.309,1.664c-1.376-0.355-2.114-1.961-3.98-1.465c1.124,1.308,2.473,1.919,3.637,2.909
	c-0.116,0.363-0.245,0.765-0.43,1.34c-0.703-0.545-1.243-1.08-1.884-1.427c-0.562-0.304-0.951-1.304-2.007-0.592
	c0.897,1.309,2.251,2.08,3.261,3.357c-0.158,0.271-0.344,0.587-0.602,1.026c-1.046-0.798-1.988-1.517-3.017-2.301
	c-0.405,0.949,0.298,1.377,0.689,1.869c0.401,0.507,0.909,0.929,1.261,1.584c-0.219-0.046-0.484-0.028-0.648-0.148
	c-1.902-1.399-3.806-2.8-5.679-4.238c-3.123-2.397-6.534-4.069-10.462-4.771c-4.028-0.72-8.017-1.675-12.011-2.576
	c-3.593-0.811-6.88-2.37-10.017-4.269c-1.824-1.104-3.562-2.4-5.734-2.76c-1.225-0.203-2.469-0.282-3.701-0.442
	c-2.116-0.276-4.229-0.578-6.345-0.859c-2.077-0.277-3.24-1.568-3.755-3.484c-0.642-2.382-0.982-4.806-0.643-7.28
	c0.211-1.537,0.421-3.073,0.66-4.605c0.046-0.288,0.228-0.555,0.371-0.89c0.481,0.164,0.893,0.304,1.275,0.435
	c1.393-0.493,2.072-1.697,2.961-2.679c0.533-0.588,1.068-1.222,1.726-1.642c1.875-1.201,3.722-2.514,5.747-3.398
	c3.909-1.705,7.749-3.649,12.03-4.355c1.967-0.324,3.921-0.72,5.882-1.083c0.038,0.111,0.076,0.223,0.114,0.333
	c-0.844,0.393-1.673,0.824-2.534,1.17c-2.822,1.134-5.543,2.476-7.963,4.32c-2.118,1.616-4.178,3.354-5.678,5.589
	c-1.177,1.752-2.708,3.07-4.457,4.161c-2.301,1.434-3.994,3.374-5.15,5.81c-0.314,0.663-0.549,1.316-0.129,2.181
	c0.584,0.033,1.23,0.07,1.973,0.112c0.475-0.593,1.008-1.136,1.399-1.767c1.353-2.182,3.3-3.66,5.442-5.001
	c1.228-0.768,2.294-1.829,3.324-2.866c1.064-1.072,1.973-2.297,3-3.407c0.353-0.38,0.833-0.669,1.302-0.905
	c2.67-1.344,5.485-2.325,8.317-3.258c1.395-0.459,2.771-0.972,4.166-1.43c0.844-0.277,1.692-0.569,2.562-0.726
	c2.412-0.434,4.836-0.803,7.258-1.187c0.387-0.062,0.784-0.07,1.487-0.129c-0.454,0.363-0.659,0.568-0.899,0.714
	c-3.047,1.841-5.188,4.55-7.262,7.368c-1.475,2.005-3.182,3.842-4.789,5.75c-0.508,0.602-1.159,0.966-1.935,1.101
	c-2.778,0.483-5.468,1.309-8.056,2.386c-2.293,0.954-4.503,2.121-6.701,3.287c-1.065,0.564-1.654,1.576-1.889,2.861
	c0.878,0.754,1.834,0.81,2.853,0.402c1.114-0.446,2.228-0.899,3.324-1.386c1.977-0.877,4.032-1.405,6.196-1.468
	c0.344-0.01,0.69,0.068,1.235,0.126c-1.458,3.14-3.301,6.04-3.174,9.57c0.204,0.106,0.352,0.222,0.515,0.255
	c0.158,0.033,0.333-0.019,0.49-0.033c0.184-4.403,2.295-8.006,4.512-11.55c-0.188-0.264-0.313-0.439-0.43-0.601
	c-2.295-0.125-4.476,0.108-6.578,0.999c-0.811,0.343-1.717,0.455-2.552,0.75c-1.084,0.383-2.139,0.85-3.212,1.266
	c-0.238,0.092-0.499,0.126-1.076,0.267c0.566-0.824,1.16-1.133,1.743-1.457c2.851-1.586,5.935-2.637,8.954-3.825
	c1.188-0.467,2.483-0.737,3.755-0.891c1.504-0.181,2.515-1.012,3.463-2.055c2.101-2.312,4.013-4.763,5.808-7.322
	c1.358-1.936,3.145-3.498,5.083-4.873c1.3-0.923,2.562-1.9,3.971-2.95c0.376,0.27,0.821,0.589,1.437,1.03
	c-0.688,0.548-1.244,0.963-1.769,1.415c-0.878,0.756-1.729,1.526-2.214,2.63c-0.268,0.613-0.307,1.182-0.098,1.81
	c0.498,1.478,0.983,2.96,1.441,4.451c0.699,2.28,0.893,4.6,0.77,6.993c-0.153,2.988-0.461,5.948-0.897,8.904
	c-0.146,0.992-0.022,2.023-0.022,3.222c0.26-0.24,0.542-0.372,0.562-0.538c0.392-3.042,0.759-6.086,1.114-9.131
	c0.112-0.973,0.104-1.965,0.284-2.923c0.503-2.694,0.248-5.32-0.48-7.937c-0.369-1.319-0.636-2.666-0.932-3.931
	c0.465-0.648,0.818-1.141,1.217-1.696c0.315,0.302,0.527,0.504,0.785,0.751c0.359-0.115,0.725-0.231,1.154-0.369
	c0.253,0.175,0.534,0.37,0.871,0.603c-0.322,0.374-0.594,0.689-0.92,1.065c0.838,0.699,1.358-0.139,2.175-0.28
	c0.22,0.129,0.576,0.339,1.001,0.589c-0.668,0.591-1.219,1.078-1.834,1.622c0.269,0.218,0.428,0.347,0.596,0.483
	c0.767-0.471,1.48-0.91,2.248-1.383c0.411,0.237,0.783,0.453,1.335,0.771c-0.923,0.681-1.722,1.269-2.585,1.904
	c0.825,0.894,1.26,0.055,1.757-0.192c0.554-0.275,1.074-0.616,1.644-0.948c0.345,0.171,0.649,0.323,1.053,0.524
	c-0.948,0.91-2.333,1.145-2.891,2.342c0.349,0.571,0.691,0.295,1.032,0.089c0.868-0.521,1.737-1.042,2.698-1.617
	c0.42,0.414,0.738,0.729,1.216,1.201c-0.755,0.353-1.305,0.605-1.851,0.866c-0.492,0.235-0.979,0.48-1.534,0.752
	c0.71,0.972,1.234,0.185,1.749,0.084c0.598-0.117,1.17-0.37,1.916-0.618c0.098,0.538,0.18,0.986,0.25,1.374
	c-0.931,0.845-2.33,0.68-3.006,1.814c0.563,0.563,1.035,0.109,1.496-0.028c0.461-0.137,0.904-0.335,1.41-0.528
	c0.381,0.914-0.317,1.032-0.76,1.295c-0.441,0.262-0.897,0.499-1.461,0.809c0.908,0.871,1.495-0.235,2.318-0.029
	c-0.046,0.808,0.051,1.679-0.168,2.462c-0.512,1.841-1.146,3.651-1.796,5.45c-0.175,0.485-0.524,0.947-0.897,1.313
	c-1.209,1.182-1.773,2.635-2.02,4.268c-0.125,0.834-0.301,1.67-0.546,2.477c-0.546,1.791-1.556,3.261-3.091,4.38
	c-0.551,0.401-0.976,0.974-1.532,1.545c0.987,0.716,1.823,0.634,2.649,0.234c3.119-1.515,5.432-3.713,6.091-7.29
	c0.055-0.298,0.155-0.587,0.279-1.048c1.245,0.383,2.411,0.741,3.681,1.131c-0.124,0.743-0.23,1.385-0.344,2.064
	c-1.123,0.214-2.063-1.022-3.333-0.279c0.835,1.112,2.323,0.981,3.122,2.104c-0.024,0.483-0.055,1.095-0.088,1.739
	C132.806,94.955,132.142,93.233,130.57,94.147z M115.34,66.646c0.45,1.072,0.631,2.01,0.692,2.982
	c0.135,2.178,0.281,4.356,0.408,6.535c0.074,1.284,0.155,2.57,0.159,3.856c0.003,1.022-0.075,2.047-0.175,3.066
	c-0.205,2.117-0.17,4.275-1.105,6.273c-0.213,0.457-0.26,0.994-0.383,1.493c0.091,0.065,0.183,0.131,0.273,0.197
	c0.24-0.181,0.625-0.316,0.699-0.55c0.375-1.183,0.801-2.374,0.964-3.594c0.289-2.16,0.419-4.342,0.581-6.517
	c0.07-0.93,0.115-1.869,0.069-2.798c-0.11-2.222-0.229-4.445-0.445-6.658c-0.153-1.587-0.419-3.168-0.735-4.732
	c-0.166-0.825-0.633-1.538-1.457-1.946c-0.205,0.166-0.356,0.261-0.475,0.387c-1.032,1.099-2.036,2.224-3.095,3.295
	c-0.56,0.566-1.279,0.979-1.808,1.568c-1.248,1.392-2.421,2.851-3.63,4.277c-1.085,1.279-1.433,2.704-1.03,4.356
	c0.557,2.288,1.048,4.592,1.539,6.895c0.305,1.426,0.558,2.863,0.849,4.372c0.241-0.052,0.473-0.103,0.71-0.154
	c0-0.35,0.033-0.617-0.006-0.874c-0.197-1.272-0.487-2.535-0.605-3.814c-0.207-2.259-0.363-4.526-0.444-6.793
	c-0.049-1.35,0.254-2.673,1.19-3.718c1.838-2.053,3.704-4.081,5.593-6.087C114.116,67.492,114.693,67.149,115.34,66.646z
	 M103.547,82.415c0.552,2.25,1.128,4.394,1.587,6.562c0.219,1.028,0.64,1.804,1.736,2.381c0.182-0.353,0.337-0.654,0.507-0.985
	c-0.446-0.308-0.76-0.524-1.045-0.722c-0.061-0.234-0.106-0.405-0.149-0.577c-0.715-2.842-1.432-5.684-2.141-8.527
	c-0.172-0.69-0.473-1.245-1.451-1.431c-2.142,1.83-3.781,4.173-4.988,6.806c-0.395,0.859-0.839,1.818-0.682,2.91
	c0.98-0.045,1.127-0.634,1.299-1.253c0.634-2.29,2.118-3.948,3.949-5.358C102.623,82.284,103.015,82.339,103.547,82.415z"></path>
<path fill-rule="evenodd" clip-rule="evenodd" fill="#b3d753" class="fill" d="M86.062,143.209c0,0.733,0,1.259,0,1.938
	c0.374,0.042,0.728,0.18,1.017,0.096c2.376-0.687,4.684-1.5,6.19-3.671c0.196-0.284,0.48-0.548,0.784-0.712
	c1.283-0.693,2.249-1.765,3.138-2.849c0.652-0.797,0.97-1.869,1.543-3.035c0.919-0.23,2.062-0.518,3.365-0.845
	c0.16,0.764,0.377,1.359,0.394,1.958c0.091,3.49-0.665,6.6-3.296,9.223c-2.342,2.334-5.141,3.795-8.017,5.214
	c-0.786,0.388-1.441,0.859-1.556,1.815c0.605,0.508,1.271,0.669,1.921,0.454c1.686-0.559,3.404-1.073,5.001-1.834
	c3.424-1.634,5.859-4.392,7.978-7.459c0.706-1.023,1.597-1.955,2.116-3.062c0.596-1.269,0.873-2.687,1.389-4.371
	c0.68-0.787,1.939-0.954,3.25-1.235c0.578,1.836,1.134,3.537,1.396,5.459c-0.67-0.158-1.17-0.276-1.674-0.395
	c-0.154,0.981-0.068,1.051,1.783,1.432c-0.188,0.849-0.373,1.695-0.599,2.716c-1.013-0.336-1.905-0.632-2.849-0.945
	c-0.33,0.862,0.229,1.083,0.759,1.311c0.481,0.206,0.969,0.396,1.565,0.638c-0.303,0.526-0.559,0.972-0.849,1.477
	c-0.681-0.233-1.271-0.437-1.93-0.663c-0.22,1.023,0.604,1.126,1.044,1.664c-0.402,0.473-0.822,0.966-1.271,1.494
	c-0.709-0.259-1.358-0.496-2.031-0.741c-0.538,1.296,0.831,1.097,1.145,1.759c-0.536,0.611-0.938,1.385-1.982,1.472
	c-0.626-0.335-1.301-0.697-2.073-1.111c-0.3,1.238,0.716,1.352,1.273,2.019c-0.731,0.469-1.443,0.926-2.044,1.312
	c-1.185-0.114-1.525-1.465-2.665-1.518c-0.098,1.079,0.788,1.382,1.2,2.093c-0.736,0.699-1.629,0.741-2.614,0.737
	c-0.663-0.798-1.333-1.604-2.024-2.436c-0.413,0.638-0.413,0.638,0.688,2.637c-0.908,0.549-1.875,0.68-3.015,0.539
	c-0.165-0.454-0.304-0.916-0.499-1.354c-0.162-0.365-0.39-0.701-0.664-1.181c-0.862,1.103,0.149,1.849,0.1,2.756
	c-1.01,0.124-1.988,0.305-2.863-0.088c-0.492-0.677,0.554-1.474-0.502-2.121c-0.316,0.682-0.601,1.295-0.953,2.057
	c-0.529-0.098-1.113-0.206-1.584-0.293c-0.763-0.939,0.567-2.115-0.731-3.056c-0.261,0.822-0.478,1.504-0.726,2.29
	c-0.436-0.175-0.868-0.348-1.289-0.518c-0.22-0.465-0.422-0.896-0.636-1.349c0.081-0.506,0.164-1.029,0.255-1.597
	c-0.221-0.119-0.398-0.215-0.728-0.393c-0.237,0.698-0.444,1.307-0.712,2.093c-0.729-0.436-1.426-0.854-2.042-1.223
	c-0.483-1.006,0.42-1.682,0.401-2.615c-1.447-0.39-1.103,1.04-1.68,1.624c-1.945-1-3.479-2.565-5.27-3.71
	c-0.018-0.898,1.221-1.493,0.369-2.598c-0.468,0.634-0.872,1.182-1.322,1.791c-0.498-0.312-0.94-0.591-1.429-0.898
	c0.235-0.555,0.44-1.033,0.73-1.716c-0.128-0.147-0.287-0.331-0.546-0.629c-0.5,0.775-0.826,1.281-1.213,1.882
	c-0.521-0.36-0.982-0.68-1.385-0.96c-0.046-1.236,1.517-1.948,0.703-3.52c-0.578,0.963-1.055,1.757-1.613,2.691
	c-0.728-0.481-1.373-0.909-1.942-1.286c-0.058-1.086,1.193-1.763,0.405-2.962c-0.473,0.704-0.945,1.407-1.473,2.192
	c-0.68-0.383-1.281-0.723-1.969-1.11c0.522-0.921,0.979-1.726,1.457-2.57c-0.366-0.523-0.712-0.373-1.019,0.061
	c-0.435,0.614-0.844,1.245-1.345,1.989c-0.82-0.388-1.596-0.756-2.29-1.086c-0.12-1.206,1.095-1.77,0.967-3.018
	c-1.456,0.639-1.673,2.015-2.358,3.084c-0.905-0.333-1.264-1.118-1.877-1.877c0.797-1.229,1.602-2.469,2.451-3.779
	c-1.232-0.463-1.332,0.593-1.75,1.069c-0.492,0.561-0.86,1.231-1.34,1.939c-0.588-0.521-1.105-0.98-1.65-1.463
	c0.322-1.449,1.763-2.309,2.106-4.06c-1.753,0.683-2.021,2.27-3.076,3.349c-0.448-0.365-0.907-0.739-1.455-1.186
	c0.503-0.878,0.962-1.677,1.463-2.552c-0.152-0.163-0.317-0.338-0.604-0.644c-0.582,0.849-1.098,1.601-1.652,2.41
	c-0.598-0.472-1.149-0.908-1.64-1.294c-0.528-0.865,0.722-1.818-0.384-2.768c-0.302,0.627-0.553,1.149-0.846,1.758
	c-0.333-0.25-0.601-0.452-0.741-0.558c-0.466-1.737,1.136-2.638,1.35-3.96c-0.43-0.449-0.726-0.349-0.953,0.022
	c-0.396,0.646-0.772,1.304-1.146,1.962c-0.171,0.299-0.318,0.611-0.587,1.134c-0.274-0.543-0.458-0.908-0.699-1.386
	c0.875-1.386,1.744-2.766,2.614-4.147c-0.548-0.677-0.892-0.368-1.188,0.094c-0.698,1.087-1.383,2.183-2.071,3.276
	c-0.115,0.183-0.222,0.372-0.375,0.63c-0.787-0.308-0.971-0.878-0.638-1.483c0.53-0.963,1.167-1.872,1.813-2.763
	c0.326-0.449,0.773-0.811,1.23-1.279c-0.322-0.232-0.488-0.352-0.687-0.494c-1.655,1.142-2.579,2.819-3.571,4.454
	c-1.08-0.723-1.631-1.735-1.972-2.762c-0.542-1.63-1.272-3.129-2.34-4.488c0.153-0.438,0.292-0.839,0.482-1.388
	c-0.475,0-0.832,0-1.286,0c-0.302-0.546-0.619-1.122-0.934-1.692c0.756-0.727,1.447-1.386,2.122-2.062
	c0.036-0.037-0.08-0.227-0.183-0.497c-0.78,0.45-1.52,0.877-2.301,1.328c-0.471-0.669-0.266-1.151,0.249-1.536
	c0.354-0.265,0.772-0.443,1.147-0.685c0.391-0.252,0.762-0.534,1.206-0.848c-0.721-0.417-0.721-0.417-3.003,0.834
	c-0.116-0.37-0.225-0.716-0.37-1.183c0.983-0.643,1.907-1.246,3.014-1.968c-1.307-0.635-1.956,0.386-3.017,0.534
	c0.112-0.5,0.208-0.93,0.283-1.27c0.914-0.407,1.701-0.757,2.483-1.104c-0.435-0.984-1.106-0.227-1.734-0.503
	c0.139-0.457,0.232-0.922,0.417-1.347c0.853-1.962,1.641-3.935,2.229-6.006c0.356-1.257,1.168-2.404,2.26-3.237
	c0.859-0.656,1.462-1.803,2.61-1.515c1.905-0.907,2.547-2.501,3.192-4.142c0.838-2.126,1.571-4.259,1.712-6.565
	c0.034-0.553,0.262-1.094,0.451-1.837c1.569,0.996,2.975,1.888,4.533,2.877c-0.671,0.376-1.667-0.208-1.799,0.883
	c1.257,0.367,2.587,0.565,3.727,1.142c1.171,0.593,2.135,1.576,2.816,2.884c-1.145-0.304-2.176-0.708-3.237-0.821
	c-0.998-0.106-2.092-0.709-3.058,0.004c-0.016,0.129-0.031,0.258-0.046,0.387c0.382,0.112,0.758,0.251,1.146,0.333
	c1.305,0.272,2.642,0.43,3.912,0.811c1.163,0.348,2.193,0.995,2.442,2.362c0.013,0.071-0.048,0.154-0.084,0.257
	c-1.398-0.155-2.806-0.282-4.205-0.472c-3.956-0.536-7.382,0.694-10.445,3.111c-0.397,0.314-0.67,0.787-1.129,1.341
	c0.594,0.449,1.061,0.801,1.485,1.121c1.459-0.404,2.771-0.817,4.107-1.119c0.763-0.172,1.567-0.164,2.353-0.231
	c0.178-0.015,0.365,0.029,0.532-0.013c2.499-0.634,4.618,0.453,6.735,1.503c0.254,0.127,0.396,0.481,0.706,0.878
	c-0.583,0.114-0.924,0.245-1.262,0.236c-3.734-0.089-7.36,0.542-10.933,1.577c-0.551,0.16-1.018,0.311-0.992,1.185
	c2.25-0.115,4.304-1.093,6.486-1.289c2.168-0.194,4.343-0.313,6.627-0.472c0.053,0.438,0.092,0.751,0.122,1.004
	c-2.043,0.36-4.009,0.551-5.88,1.075c-2.479,0.693-5,1.416-7.297,2.543c-3.194,1.568-5.019,4.335-5.375,7.93
	c-0.147,1.49-0.154,2.996-0.168,4.495c-0.014,1.416,0.559,2.003,2.039,2.141c0.596-0.863,0.926-1.875,0.978-2.933
	c0.146-2.979,1.391-5.301,3.931-6.892c0.904-0.566,1.8-1.167,2.764-1.616c2.174-1.013,4.48-1.093,6.813-0.734
	c1.981,0.305,3.96,0.624,5.935,0.964c0.299,0.051,0.573,0.254,0.935,0.422c-0.444,0.63-0.922,0.438-1.324,0.416
	c-2.925-0.161-5.775,0.156-8.507,1.265c-1.565,0.636-3.156,1.227-4.666,1.979c-1.008,0.503-1.998,1.145-2.552,2.336
	c0.607,0.206,1,0,1.381-0.328c1.514-1.301,3.287-2.084,5.171-2.704c1.868-0.614,3.719-1.184,5.692-1.418
	c1.538-0.183,3.011-0.084,4.595,0.198c0.02,0.262,0.037,0.506,0.06,0.796c-1.285,0.471-2.547,0.888-3.774,1.391
	c-3.516,1.44-6.46,3.648-8.442,6.908c-0.717,1.18-0.953,2.657-1.378,4.008c-0.146,0.463-0.184,0.959-0.292,1.436
	c-0.385,1.695-0.356,2.033,0.435,4.556c0.798,0.461,0.798,0.461,1.83,0.193c0.167-0.894,0.42-1.842,0.51-2.805
	c0.256-2.772,1.388-5.033,3.679-6.67c0.071-0.051,0.137-0.115,0.199-0.178c1.816-1.825,4.138-2.517,6.583-2.911
	c1.408-0.227,2.818-0.442,4.233-0.61c0.466-0.056,1.075-0.337,1.362,0.369c-2.173,0.966-4.345,1.831-6.42,2.883
	c-2.055,1.042-4.203,2.015-5.698,3.953c0.63,0.494,0.978,0.137,1.306-0.137c2.396-1.991,5.199-3.271,7.998-4.54
	c0.917-0.415,1.958-0.558,2.949-0.827c0.239,0.274,0.402,0.462,0.597,0.684c-0.167,0.222-0.267,0.43-0.429,0.559
	c-1.398,1.107-2.868,2.133-4.193,3.321c-1.02,0.914-1.867,2.021-2.775,3.056c-0.096,0.11-0.09,0.312-0.153,0.562
	c0.927,0.111,1.354-0.453,1.782-1.014c1.31-1.719,2.248-2.521,4.425-3.708c-0.651,0.936-1.175,1.677-1.687,2.428
	c-0.729,1.067-1.487,2.117-2.154,3.222c-0.361,0.6-0.615,1.281-0.821,1.955c-0.417,1.36-0.84,2.725-1.12,4.116
	c-0.164,0.814-0.1,1.686-0.057,2.527c0.027,0.549,0.259,1.043,0.936,1.147c0.662-0.218,0.927-0.791,1.129-1.382
	c0.344-1.011,0.646-2.037,0.961-3.059c0.577-1.875,1.642-3.396,3.219-4.577c1.385-1.038,2.732-2.125,4.271-3.002
	c-1.424,1.868-2.971,3.657-4.236,5.626c-1.291,2.006-2.512,4.087-3.296,6.243c0.271,0.81,0.681,0.979,1.154,0.741
	c0.227-0.77,0.324-1.476,0.63-2.076c1.727-3.386,3.717-6.593,6.412-9.324c1.506-1.525,3.295-2.614,5.271-3.545
	c-0.129,0.249-0.224,0.524-0.393,0.742c-2.049,2.649-3.791,5.494-5.416,8.414c-0.277,0.498-0.254,0.511,0.062,1.248
	c0.309-0.132,0.616-0.265,0.826-0.355c1.781-3.36,3.717-6.476,6.053-9.566c0.279,0.508,0.442,0.804,0.545,0.991
	c-0.012,1.532-1.203,2.797-0.533,4.509c0.444-0.565,0.757-0.962,1.069-1.36c-0.057,4.11-1.806,7.611-3.876,11.267
	c0.453-0.15,0.735-0.159,0.867-0.304c0.449-0.491,0.977-0.972,1.236-1.562c0.916-2.068,1.798-4.157,2.557-6.287
	c0.338-0.943,0.435-1.997,0.492-3.01c0.11-1.936-0.826-3.608-1.515-5.337c-0.065-0.164-0.145-0.322-0.208-0.487
	c-0.01-0.023,0.038-0.069,0.106-0.182c0.684,0.123,1.113,0.623,1.499,1.147c0.396,0.537,0.726,1.124,1.108,1.671
	c0.643,0.917,0.802,1.924,0.803,3.032c0.003,2.501-0.407,4.917-1.628,7.09c-0.909,1.618-2.09,3.084-3.163,4.609
	c-0.255,0.362-0.592,0.667-0.845,1.03c-0.94,1.355-2.101,2.411-3.735,2.86c-0.207,0.057-0.403,0.191-0.576,0.326
	c-0.093,0.073-0.124,0.225-0.21,0.396c0.482,0.558,1.101,0.382,1.569,0.141c1.343-0.69,2.647-1.433,3.537-2.752
	c0.569-0.845,1.271-1.61,1.974-2.352c2.182-2.297,3.365-5.1,4.196-8.091c0.128-0.464,0.291-0.918,0.481-1.514
	c0.829,0.131,1.6,0.254,2.504,0.397c-0.246,2.944-1.054,5.632-2.406,8.308c0.242,0.297,0.493,0.606,0.783,0.961
	c1.768-2.942,2.389-6.072,3.018-9.294c0.34,0.089,0.621,0.163,1.072,0.281c0.217,1.453,0.583,2.93,0.625,4.417
	c0.066,2.442-0.771,4.652-2.408,6.478c-0.764,0.852-1.712,1.538-2.577,2.299C86.975,142.408,86.51,142.815,86.062,143.209z"></path>
<path fill-rule="evenodd" clip-rule="evenodd" fill="#b3d753" class="fill" d="M154.864,96.813c0.488-1.925,2.004-3.141,3.096-4.626
	c1.097-1.491,2.548-2.565,4.345-3.071c-0.206-0.972-0.805-1.071-1.524-1.144c-2.9-0.292-4.955,1.168-6.651,3.246
	c-1.037,1.27-1.937,2.661-2.813,4.05c-0.583,0.926-1.385,1.498-2.369,1.852c-0.752,0.272-1.529,0.474-2.364,0.728
	c-0.695-0.952-2.065-1.315-2.45-2.759c1.949,0.263,3.824,0.723,5.77-0.1c-0.521-0.693-1.115-0.666-1.738-0.596
	c-1.498,0.168-2.928-0.163-4.324-0.659c-0.758-0.27-0.75-0.291-0.953-1.367c1.351,0.08,2.668,0.163,3.985,0.234
	c1.319,0.072,2.646,0.201,3.999-0.333c-0.138-0.293-0.227-0.481-0.316-0.675c-2.283-0.063-4.544,0.172-6.977-0.338
	c0.417-0.688,0.726-1.198,0.922-1.522c2.533-0.107,4.833-0.204,7.085-0.298c0.097-0.323,0.17-0.449,0.162-0.57
	c-0.007-0.118-0.097-0.231-0.135-0.311c-1.982,0-3.923,0-5.898,0c-0.047-0.653,0.299-0.854,0.851-0.979
	c1.174-0.262,2.34-0.568,3.495-0.901c0.869-0.25,1.073-0.434,1.659-1.262c-1.734-0.049-3.145,0.868-4.794,0.952
	c-0.071-0.972,0.536-1.702,1.065-2.296c1-1.123,2.184-2.083,3.318-3.082c0.294-0.258,0.711-0.373,1.027-0.611
	c0.33-0.25,0.607-0.571,1.035-0.984c-1.15-0.363-1.783,0.282-2.525,0.666c0.221-0.664,0.668-1.342,1.411-1.774
	c2.613-1.521,5.06-3.34,7.892-4.476c1.766-0.708,3.533-1.409,5.383-2.145c-0.073-0.235-0.146-0.472-0.225-0.722
	c-7.315-1.106-13.555,0.816-18.467,6.562c-0.196-1.223-0.066-1.701,1.752-4.068c0.938-1.222,2.122-2.256,3.297-3.482
	c-0.039-0.106-0.141-0.373-0.312-0.824c-1.137,0.978-2.166,1.864-3.416,2.939c0.074-0.872,0.126-1.5,0.168-2.004
	c0.592-1.446,2.436-1.886,2.424-3.632c-2.17,1.175-3.316,3.632-5.826,4.591c0.363-1.398,1.131-2.403,1.959-3.285
	c1.949-2.077,3.977-4.084,6.059-6.029c0.697-0.652,1.631-1.072,2.498-1.516c0.943-0.483,1.873-0.974,2.786-1.521
	c0.979-0.586,2.274-0.671,3.445-0.9c1.11-0.218,2.24-0.339,3.358-0.502c-0.507-1.508-2.476-2.868-4.343-2.896
	c-0.743-0.011-1.513,0.084-2.233,0.272c-3.058,0.8-6.026,1.871-8.902,3.175c-1.009,0.457-1.865,1.291-2.898,1.645
	c-2.17,0.742-3.691,2.196-5.058,3.932c-0.484,0.615-1.135,1.097-1.893,1.813c0.144-4.24,3.112-6.761,5.074-10.009
	c-1.087,0.15-1.636,0.707-2.146,1.374c-1.377,1.804-2.775,3.591-3.646,5.775c-0.395-1.049-0.588-2.117-0.093-3.126
	c1.414-2.888,3.212-5.472,6.251-6.875c1.613-0.745,3.247-1.478,5.07-1.583c0.205-0.012,0.404-0.132,0.654-0.219
	c-0.309-1.156-1.087-1.689-2.128-1.777c-0.928-0.079-1.884-0.089-2.802,0.043c-3.242,0.467-6.197,1.663-8.63,3.896
	c-0.733,0.673-1.227,1.613-1.796,2.454c-0.239,0.354-0.394,0.766-0.636,1.253c-0.334-0.944-0.337-1.064,0.235-2.718
	c0.305-0.881,0.679-1.739,1.009-2.579c3.157-2.441,10.221-3.914,15.289-3.196c0.243,0.279,0.496,0.57,0.797,0.915
	c0.427-0.208,0.815-0.396,1.265-0.614c0.423,0.089,0.896,0.189,1.507,0.318c-0.358,0.439-0.654,0.801-1.012,1.238
	c0.146,0.168,0.298,0.345,0.487,0.562c0.682-0.467,1.301-0.892,2.029-1.393c0.545,0.183,1.163,0.39,1.952,0.654
	c-0.66,0.436-1.167,0.771-1.896,1.251c1.426,0.639,2.176-0.331,3.188-0.604c0.261,0.179,0.578,0.398,1.062,0.732
	c-0.873,0.509-1.606,0.936-2.374,1.382c0.863,0.641,1.042,0.597,3.311-0.769c1.804,0.887,3.328,2.072,3.793,4.247
	c0.046,0.218,0.067,0.453,0.166,0.647c0.596,1.18,0.287,2.247-0.463,3.407c-0.761,0.284-1.644,0.613-2.598,0.969
	c0.619,0.62,0.619,0.62,2.161,0.463c0.12,0.5,0.242,1.008,0.364,1.521c-0.505,0.735-1.695,0.365-2.086,1.36
	c0.983,0.623,1.795-0.303,2.843-0.209c0.202,0.293,0.465,0.674,0.7,1.015c-0.689,0.99-2.057,0.536-2.681,1.491
	c0.784,0.462,0.784,0.462,2.95-0.186c0.064,0.472,0.125,0.921,0.192,1.414c-0.774,0.344-1.472,0.654-2.237,0.995
	c0.197,0.169,1.84,0.401,2.213,0.4c0,1.137,0,2.275,0,3.438c-0.771,0.305-1.479,0.584-2.262,0.893
	c0.628,1.072,1.431,0.144,2.174,0.577c-0.139,0.678-0.294,1.429-0.451,2.19c-0.86,0.173-1.649,0.333-2.531,0.51
	c0.477,1.087,1.357,0.608,2.09,0.967c-0.057,0.44-0.122,0.938-0.174,1.341c-0.845,0.58-1.92-0.215-2.593,0.736
	c0.52,0.868,1.405,0.397,2.146,0.682c0.237,0.832-0.265,1.559-0.342,2.229c-0.816,0.583-1.959-0.57-2.497,0.91
	c0.731,0.154,1.397,0.294,2.189,0.46c-0.069,0.398-0.14,0.81-0.194,1.131c-0.658,0.558-1.649,0.073-2.15,1.091
	c0.578,0.142,1.099,0.27,1.682,0.413c-0.111,1.123-0.303,2.214-0.305,3.306c0,1.052,0.196,2.105,0.298,3.069
	c-0.622,0.621-1.806,0.159-1.94,1.401c0.701,0,1.353,0,2.096,0c0.045,0.404,0.081,0.731,0.105,0.965
	c-0.48,0.613-1.611,0.192-1.613,1.375c0.536,0,1.037,0,1.568,0c0.442,1.088,0.282,2.064-0.035,3.142
	c-0.195-0.089-0.387-0.115-0.467-0.224c-0.84-1.124-2.076-1.474-3.351-1.745C158.667,97.599,156.844,97.225,154.864,96.813z"></path>
<path fill-rule="evenodd" clip-rule="evenodd" fill="#b3d753" class="fill" d="M95.136,117.672c-0.355-0.438-0.786-0.835-1.053-1.322
	c-1.429-2.618-2.688-5.309-3.618-8.157c-1-3.065-1.599-6.208-1.945-9.396c-0.109-1.018-0.497-1.658-1.479-2.14
	c-0.259,0.278-0.589,0.522-0.776,0.848c-1.37,2.395-1.949,4.964-1.518,7.708c0.408,2.593,0.879,5.175,1.341,7.871
	c-0.358,0.707-1.04,0.441-1.888,0.388c0.204-1.405,0.398-2.74,0.593-4.075c-1.036,1.006-1.12,2.411-1.763,3.745
	c-0.454-0.152-0.883-0.295-1.364-0.456c0.294-1.62,0.567-3.132,0.883-4.874c-1.056,0.512-0.99,1.375-1.285,1.996
	c-0.313,0.662-0.454,1.407-0.702,2.221c-1.641-1.112-0.145-2.361-0.422-3.666c-0.532,0.697-0.963,1.263-1.395,1.828
	c-0.092-0.013-0.184-0.025-0.276-0.038c-0.11-0.77-0.281-1.537-0.318-2.311c-0.214-4.419,0.035-8.819,0.623-13.203
	c0.124-0.925,0.108-1.871,0.269-2.787c0.313-1.792,1.177-3.344,2.246-4.769c1.387-0.545,2.689-0.214,3.898,0.389
	c1.391,0.694,2.734,1.494,4.039,2.339c0.502,0.326,0.91,0.861,1.242,1.377c1.103,1.713,2.144,3.457,3.019,5.31
	c0.89,1.885,1.914,3.714,3.003,5.493c0.497,0.812,1.286,1.446,1.948,2.156c0.091,0.097,0.221,0.155,0.312,0.25
	c1.829,1.882,3.794,3.653,5.444,5.681c1.98,2.435,2.709,5.375,2.528,8.519c-0.046,0.79-0.118,1.578-0.182,2.405
	c-0.442,0.124-0.815,0.228-1.407,0.392c0-0.858,0.014-1.589-0.002-2.319c-0.018-0.702,0.153-1.446-0.38-2.077
	c-0.778,1.514-0.485,3.205-1.006,4.827c-0.275,0.065-0.598,0.14-0.938,0.22c-0.502-0.811-0.266-1.629-0.309-2.401
	c-0.053-0.932-0.007-1.869-0.049-2.802c-0.013-0.306-0.164-0.606-0.304-1.089c-0.65,0.667-0.681,1.282-0.688,1.893
	c-0.013,1.203,0.008,2.407-0.006,3.611c-0.007,0.471,0.044,1.008-0.814,1.113c-0.015-2.562-0.308-5.042-0.917-7.539
	c-0.813,0.231-0.628,0.801-0.611,1.229c0.047,1.158,0.165,2.312,0.227,3.47c0.032,0.614,0.006,1.232,0.006,1.891
	c-0.717-0.027-0.798-0.427-0.84-0.897c-0.134-1.461-0.275-2.922-0.436-4.38c-0.055-0.498-0.17-0.988-0.451-1.472
	c-0.794,1.521-0.348,3.155-0.478,4.747c-0.683-0.102-0.532-0.564-0.56-0.924c-0.109-1.493-0.213-2.985-0.324-4.573
	c-0.866,0.5-0.852,0.499-0.793,1.658c0.033,0.651,0.006,1.305,0.006,1.958C95.357,117.582,95.246,117.627,95.136,117.672z"></path>
<path fill-rule="evenodd" clip-rule="evenodd" fill="#b3d753" class="fill" d="M147.144,114.429c4.546,2.126,9.329,2.983,14.205,3.426
	c0.104,0.009,0.223-0.132,0.421-0.259c-0.87-1.086-1.664-2.078-2.272-2.838c-3.004-1.435-5.768-2.754-8.527-4.075
	c-1.278-0.613-2.284-1.577-3.114-2.683c-1.007-1.342-1.887-2.781-2.827-4.184c2.824-1.546,5.873-1.765,8.819-2.369
	c1.177-0.242,2.356-0.478,3.523-0.767c2.171-0.538,4.317-0.355,6.682,0.126c-0.423,1.044-0.813,2.01-1.177,2.909
	c-0.747,0.151-1.361,0.275-2.053,0.415c0.506,0.719,0.506,0.719,1.441,1.003c-0.099,0.348-0.199,0.699-0.268,0.944
	c-0.932,0.446-2.078-0.314-2.721,1.019c0.828,0.143,1.58,0.273,2.444,0.423c-0.124,0.434-0.227,0.797-0.304,1.069
	c-0.699,0.486-1.844-0.21-2.072,1.212c0.588,0.106,1.165,0.21,1.869,0.338c0.066,0.368,0.141,0.783,0.209,1.159
	c-0.764,0.625-2.053,0.048-2.423,1.425c0.829,0,1.584,0,2.458,0c0.098,2.072,1.301,3.866,0.922,6.031
	c-0.709,0.149-1.434,0.302-2.186,0.461c-0.086,0.269-0.162,0.508-0.278,0.872c0.653,0,1.198,0,1.864,0
	c-0.08,0.356-0.133,0.588-0.17,0.758c-0.834,0.57-2.149-0.762-2.701,0.924c0.621,0.138,1.161,0.258,1.891,0.42
	c-0.343,0.407-0.606,0.719-0.883,1.047c-0.681-0.086-1.294-0.163-1.971-0.249c-0.151,0.229-0.314,0.472-0.523,0.788
	c0.455,0.241,0.828,0.439,1.255,0.665c-0.176,0.318-0.344,0.622-0.55,0.995c-0.666-0.135-1.307-0.264-2.022-0.409
	c-0.14,0.27-0.268,0.518-0.446,0.862c0.616,0.248,1.135,0.456,1.719,0.69c-0.289,1.004-0.568,1.971-0.886,3.071
	c-0.274-0.237-0.552-0.361-0.626-0.561c-0.506-1.365-1.547-2.278-2.629-3.139c-1.705-1.355-3.449-2.662-5.185-3.98
	c-0.717-0.545-1.068-1.278-1.235-2.144C146.481,118.09,146.577,116.38,147.144,114.429z"></path>
<path fill-rule="evenodd" clip-rule="evenodd" fill="#b3d753" class="fill" d="M110.719,126.868c-0.835,0.383-1.439-0.021-2.136-0.361
	c0.031-0.356,0.019-0.712,0.098-1.046c1.177-4.897,1.102-9.785,0.029-14.695c-0.41-1.87-1.789-2.833-3.197-3.737
	c-2.279-1.463-4.582-2.887-6.51-4.808c-1.764-1.757-3.371-3.647-4.418-5.947c-0.437-0.96-0.894-1.911-1.46-3.118
	c0.614,0.049,0.923,0.073,1.135,0.09c1.54,3.061,3.49,5.598,5.829,7.917c1.754,1.74,3.865,2.81,5.917,4.035
	c0.531,0.316,1.038,0.673,1.539,1c1.714-0.41,1.893-0.68,1.821-2.374c-0.066-1.545-0.678-2.934-1.125-4.376
	c-0.297-0.956-0.461-1.954-0.684-2.933c0.092-0.037,0.184-0.075,0.276-0.113c0.101,0.105,0.241,0.193,0.295,0.318
	c0.628,1.474,1.203,2.972,1.871,4.427c0.96,2.088,1.515,4.237,1.702,6.551c0.299,3.672,0.002,7.299-0.365,10.934
	c-0.082,0.818-0.313,1.622-0.48,2.456c0.9,0.388,1.571,0.101,2.128-0.323c1.733-1.32,3.646-2.478,4.872-4.327
	c0.676-1.02,1.163-2.205,1.53-3.379c0.595-1.906,1.005-3.869,1.527-5.798c0.132-0.489,0.391-0.943,0.71-1.372
	c-0.22,2.52,0.129,5.104-0.826,7.478c-1.083,2.694-2.487,5.25-4.53,7.353c-1.11,1.142-2.362,2.172-3.661,3.099
	C111.501,124.606,111.017,125.685,110.719,126.868z"></path>
<path fill-rule="evenodd" clip-rule="evenodd" fill="#b3d753" class="fill" d="M110.748,99.654c3.908-0.595,9.122,1.741,10.472,4.747
	c-1.435,1.765-1.738,4.003-2.324,6.139c-0.104,0.375-0.275,0.733-0.437,1.089c-0.276,0.606-0.643,1.183-0.842,1.812
	c-0.789,2.503-2.446,4.289-4.581,5.698c-0.098,0.064-0.245,0.054-0.461,0.097c0.051-1.267-0.003-2.497,0.17-3.695
	c0.434-3.019,0.26-6.026,0.021-9.039c-0.164-2.074-0.943-3.969-1.736-5.857c-0.104-0.245-0.222-0.483-0.312-0.732
	C110.692,99.84,110.735,99.741,110.748,99.654z"></path>
<path fill-rule="evenodd" clip-rule="evenodd" fill="#b3d753" class="fill" d="M150.294,134.264c0.686,0.483,1.219,0.859,1.83,1.291
	c-0.288,0.408-0.533,0.755-0.775,1.1c-0.865-0.089-1.374-0.639-1.809-1.166c-1.586-1.921-3.22-3.818-4.627-5.868
	c-1.508-2.197-2.779-4.556-4.155-6.844c-0.498-0.826-0.818-1.801-1.919-2.158c-0.115-1.073-0.226-2.115-0.336-3.157
	c1.209,0.981,1.799,2.409,3.119,3.309c0.241-0.744-0.262-1.101-0.503-1.527c-0.68-1.2-1.403-2.375-2.089-3.572
	c-0.168-0.294-0.253-0.635-0.303-1.004c1.178,1.159,2.006,2.665,3.577,3.305c-0.138,3.798,1.694,6.383,4.865,8.133
	c1.871,1.032,3.808,1.944,5.67,2.991c1.122,0.63,2.157,1.415,3.349,2.209c-0.076,0.46-0.158,0.95-0.26,1.573
	c-1.01-0.306-1.85-0.56-2.784-0.842c-0.154,0.188-0.332,0.404-0.49,0.597c0.484,1.096,1.729,0.699,2.446,1.388
	c-1.654,1.185-2.908,0.088-4.289-0.622C150.652,133.665,150.51,133.904,150.294,134.264z"></path>
<path fill-rule="evenodd" clip-rule="evenodd" fill="#b3d753" class="fill" d="M113.04,56.454c-1.363,0.909-2.688,0.988-3.893,1.401
	c-2.736,0.939-5.562,1.56-8.348,2.321c-2.906,0.794-5.752,1.888-8.288,3.61c-1.67,1.133-3.182,2.437-4.364,4.089
	c-1.242,1.734-2.852,3.022-4.668,4.131c-1.982,1.211-3.793,2.653-4.964,4.749c-0.265,0.474-0.658,0.875-0.993,1.309
	c-0.09-0.047-0.18-0.094-0.271-0.141c0.047-0.271,0.044-0.562,0.149-0.808c0.993-2.328,2.607-4.143,4.742-5.465
	c1.89-1.171,3.373-2.725,4.773-4.428c1.152-1.404,2.475-2.681,3.806-3.925c3.729-3.486,8.36-5.369,13.045-7.098
	c1.435-0.529,2.962-0.936,4.579-0.58c1.256,0.276,2.553,0.373,3.83,0.561C112.378,56.21,112.571,56.302,113.04,56.454z"></path>
<path fill-rule="evenodd" clip-rule="evenodd" fill="#b3d753" class="fill" d="M64.565,101.998c0.414,0.627,0.768,1.118,1.066,1.64
	c0.1,0.173,0.063,0.425,0.104,0.766c-1.034-0.049-2.004-0.052-2.963-0.15c-2.549-0.26-5.031,0.068-7.551,0.481
	c-3.205,0.525-5.858,2.037-8.33,3.96c-1.872,1.457-2.934,3.425-3.074,5.834c-0.103,1.752-0.1,1.753-0.656,2.748
	c-0.438-1.175-0.471-2.305-0.432-3.422c0.102-3.005,1.049-5.68,3.325-7.747c0.585-0.531,1.245-1.071,1.97-1.337
	c2.581-0.948,5.178-1.865,7.817-2.629c2.37-0.687,4.826-0.758,7.279-0.426C63.603,101.781,64.076,101.901,64.565,101.998z"></path>
<path fill-rule="evenodd" clip-rule="evenodd" fill="#b3d753" class="fill" d="M134.941,126.991c0.698,2.077-0.06,4.527,2.034,6.005
	c-0.689-2.173-0.656-4.41-0.614-6.703c0.126,0.229,0.293,0.444,0.37,0.688c0.764,2.399,1.845,4.644,3.431,6.603
	c1.967,2.432,4.395,4.273,7.34,5.395c0.263,0.1,0.502,0.267,0.753,0.402c-0.037,0.099-0.074,0.197-0.111,0.296
	c-0.639-0.208-1.266-0.472-1.918-0.604c-0.618-0.125-1.209-0.685-1.938-0.187c-0.099,1.302,1.299,0.895,1.971,1.636
	c-1.561,0.191-2.525-0.854-3.756-1.182c-0.189,0.165-0.38,0.328-0.605,0.523c0.19,0.292,0.35,0.538,0.52,0.799
	c-0.125,0.023-0.23,0.076-0.271,0.045c-1.089-0.835-2.184-1.665-3.252-2.524c-2.031-1.634-3.846-3.478-4.716-5.992
	c-0.55-1.583-0.508-3.228,0.316-4.766C134.565,127.291,134.721,127.201,134.941,126.991z"></path>
<path fill-rule="evenodd" clip-rule="evenodd" fill="#b3d753" class="fill" d="M100.554,124.717c-1.393,0.068-2.775-0.001-3.938-0.966
	c-3.246-2.695-5.628-6.043-7.263-9.913c-1.004-2.375-1.853-4.804-2.289-7.368c-0.421-2.474-0.599-4.948-0.363-7.448
	c0.017-0.173,0.052-0.351,0.116-0.512c0.047-0.117,0.155-0.21,0.374-0.489c0.13,0.426,0.257,0.716,0.303,1.018
	c0.216,1.406,0.322,2.835,0.63,4.22c0.396,1.775,0.938,3.519,1.433,5.272c0.839,2.976,2.187,5.745,3.758,8.375
	c0.806,1.349,2.004,2.487,3.126,3.618c1.342,1.352,2.793,2.594,4.198,3.883C100.609,124.511,100.582,124.614,100.554,124.717z"></path>
<path fill-rule="evenodd" clip-rule="evenodd" fill="#b3d753" class="fill" d="M71.8,111.184c0.285,0.68,0.501,1.198,0.774,1.851
	c-0.49,0.099-0.907,0.214-1.331,0.263c-1.771,0.204-3.555,0.318-5.313,0.595c-2.815,0.442-5.407,1.41-7.58,3.368
	c-1.387,1.248-2.981,2.255-4.021,3.879c-0.963,1.505-1.332,3.174-1.578,4.895c-0.053,0.37-0.082,0.744-0.139,1.276
	c-0.62-0.449-0.669-0.964-0.635-1.407c0.213-2.785,0.76-5.493,2.465-7.789c1.367-1.84,3.066-3.354,5.077-4.481
	c2.878-1.613,5.934-2.658,9.262-2.706C69.748,110.913,70.717,111.086,71.8,111.184z"></path>
<path fill-rule="evenodd" clip-rule="evenodd" fill="#b3d753" class="fill" d="M128.12,108.224c-0.265,0.183-0.474,0.328-0.752,0.52
	c0.756,1.074,1.485,2.111,2.22,3.155c-0.11,0.244-0.196,0.437-0.336,0.745c-0.896-1.145-1.724-2.204-2.593-3.315
	c-0.312,0.138-0.531,0.234-0.76,0.334c2.66,4.652,2.66,4.652,1.958,5.819c-0.655-1.125-1.264-2.191-1.896-3.243
	c-0.253-0.42-0.534-0.875-1.232-0.332c0.349,0.7,0.717,1.399,1.051,2.115c0.337,0.725,0.675,1.454,0.948,2.205
	c0.244,0.669,0.026,1.208-0.723,1.596c-0.808-1.27-1.319-2.713-2.464-3.748c-0.376,1.811,1.314,3.07,1.125,4.937
	c-0.203,0.174-0.49,0.421-0.932,0.799c-0.49-1.256-0.92-2.355-1.395-3.572c-0.736,0.655-0.52,1.371-0.33,2.083
	c0.195,0.729,0.387,1.458,0.588,2.212c-0.219,0.206-0.401,0.378-0.614,0.578c-1.034-0.66-0.919-1.814-1.468-2.831
	c2.764-3.859,2.589-8.403,2.68-12.895C124.483,105.456,126.431,106.546,128.12,108.224z"></path>
<path fill-rule="evenodd" clip-rule="evenodd" fill="#b3d753" class="fill" d="M134.077,69.579c0.526-0.808,1.139-1.149,2.171-0.923
	c0.586,1.584,1.251,3.224,0.513,5.02c-1.201,2.921-2.48,5.785-4.365,8.38c-1.274,1.755-2.117,3.823-2.518,5.984
	c-0.573,3.093-1.817,5.665-4.837,7.055c-0.295,0.136-0.562,0.333-0.98,0.317c0.167-0.155,0.336-0.308,0.499-0.466
	c0.435-0.42,0.956-0.783,1.28-1.276c0.677-1.027,1.571-1.935,1.815-3.22c0.199-1.046,0.535-2.07,0.691-3.121
	c0.17-1.147,0.574-2.168,1.396-2.963c1.413-1.367,1.994-3.165,2.482-4.947c0.588-2.139,0.922-4.348,1.333-6.533
	C133.772,71.752,133.917,70.606,134.077,69.579z"></path>
<path fill-rule="evenodd" clip-rule="evenodd" fill="#b3d753" class="fill" d="M158.687,115.589c-2.65-0.279-5.227-0.767-7.701-1.896
	c-2.627-1.199-4.884-2.938-7.205-4.58c-1.15-0.814-2.115-1.906-3.101-2.934c-0.352-0.367-0.513-0.917-0.767-1.393
	c0.23-0.85,0.45-1.655,0.67-2.463c0.965-0.116,1.717,0.183,2.254,0.8c1.135,1.307,2.297,2.61,3.252,4.046
	c1.131,1.702,2.396,3.198,4.234,4.143c1.98,1.018,3.957,2.045,5.951,3.038c0.471,0.234,1.004,0.341,1.508,0.513
	c0.347,0.119,0.689,0.248,1.033,0.373C158.772,115.354,158.729,115.472,158.687,115.589z"></path>
<path fill-rule="evenodd" clip-rule="evenodd" fill="#b3d753" class="fill" d="M66.86,93.238c0-0.353-0.034-0.534,0.009-0.693
	c0.058-0.209,0.178-0.401,0.224-0.499c2.005-0.868,4.124-1.138,5.949-2.24c-1.891-0.438-3.595,0.184-5.485,0.972
	c0.239-0.737,0.409-1.266,0.555-1.716c1.993-0.234,3.709-0.915,5.689-1.786c0.614,0,1.532,0,2.544,0
	c-1.129,3.469-2.225,6.836-3.381,10.389c-1.338,0.25-2.547-0.7-4.096-0.98c0.874-0.962,2.271-0.81,2.804-2.056
	c-1.462,0.059-2.712,0.421-3.956,1.062c-0.271-0.23-0.527-0.449-0.787-0.669c0.086-0.181,0.108-0.352,0.199-0.402
	c0.578-0.324,1.157-0.654,1.765-0.918c0.897-0.391,1.823-0.714,2.724-1.098c0.254-0.107,0.459-0.327,0.845-0.612
	C70.251,91.341,68.738,92.797,66.86,93.238z"></path>
<path fill-rule="evenodd" clip-rule="evenodd" fill="#b3d753" class="fill" d="M97.242,96.174c4.34-0.836,7.458,0.849,10.015,3.921
	c0.688,1.54,0.989,3.156,0.887,4.926C103.646,103.042,99.866,100.432,97.242,96.174z"></path>
<path fill-rule="evenodd" clip-rule="evenodd" fill="#b3d753" class="fill" d="M153.423,97.279c0.261,0.273,0.471,0.494,0.727,0.763
	c2.252-0.307,4.356,0.335,6.469,1.119c-5.367-0.084-10.628,0.368-15.724,2.522c-0.298-0.253-0.616-0.526-1.044-0.892
	c0.448-0.361,0.748-0.705,1.126-0.887c1.233-0.595,2.5-1.121,3.744-1.693c0.962-0.441,1.91-0.912,2.608-1.246
	c1.029-1.549,1.815-2.904,2.775-4.123c0.874-1.11,1.881-2.134,2.936-3.078c0.691-0.619,1.604-0.922,2.752-0.879
	C157.302,91.481,154.895,93.951,153.423,97.279z"></path>
<path fill-rule="evenodd" clip-rule="evenodd" fill="#b3d753" class="fill" d="M77.827,112.263c-0.896,0.408-1.237-0.36-1.785-0.607
	c-0.282-1.814-0.627-3.561-0.814-5.323c-0.273-2.571-0.182-5.142,0.279-7.698c0.277-1.529,0.319-3.117,0.746-4.598
	c0.61-2.119,1.461-4.169,2.252-6.233c0.092-0.24,0.454-0.376,0.69-0.56c0.077,0.061,0.155,0.121,0.233,0.182
	c-0.038,0.235-0.008,0.515-0.125,0.7c-1.033,1.625-1.398,3.418-1.582,5.312c-0.432,4.478-0.863,8.955-0.622,13.456
	c0.083,1.542,0.431,3.069,0.652,4.604C77.788,111.747,77.802,112,77.827,112.263z"></path>
<path fill-rule="evenodd" clip-rule="evenodd" fill="#b3d753" class="fill" d="M128.222,131.222c0.141,5.371,2.27,9.347,7.127,11.664
	c-0.036,0.099-0.073,0.197-0.11,0.296c-0.697,0.142-1.395,0.283-1.9,0.385c-1.106-0.595-2.035-1.095-3.038-1.635
	c-0.283,0.202-0.547,0.388-1.179,0.838c0.541,0.234,0.896,0.388,1.251,0.542c-0.059,0.085-0.118,0.17-0.177,0.255
	c-0.204,0-0.476,0.086-0.601-0.013c-1.603-1.274-3.312-2.478-4.015-4.529c-0.19-0.558-0.261-1.209-0.188-1.792
	c0.123-0.984,0.404-1.949,0.672-3.163c0.915,1.91,0.429,3.998,2.163,5.309c-0.152-0.976-0.332-1.948-0.451-2.927
	c-0.146-1.188-0.276-2.38-0.347-3.574C127.397,132.316,127.495,131.733,128.222,131.222z"></path>
<path fill-rule="evenodd" clip-rule="evenodd" fill="#b3d753" class="fill" d="M96.356,131.184c0.734,1.987,0.148,3.828-0.773,5.589
	c-1.038,1.985-2.52,3.651-4.06,5.255c-1.145,1.192-2.591,1.754-4.164,2.013c-0.069-0.086-0.138-0.174-0.207-0.26
	c0.272-0.292,0.501-0.653,0.826-0.865c1.669-1.088,3.057-2.445,4.039-4.182c1.632-2.886,2.085-5.917,0.997-9.105
	c-0.064-0.188-0.243-0.335-0.436-0.588c0.869-0.22,1.537-0.002,2.035,0.612c0.48,0.592,0.879,1.25,1.313,1.88
	C96.071,131.416,96.213,131.3,96.356,131.184z"></path>
<path fill-rule="evenodd" clip-rule="evenodd" fill="#b3d753" class="fill" d="M64.847,132.997c-0.363-5.168,5.548-13.424,11.614-16.19
	c0.556,0.453,1.183,0.963,1.934,1.577C72.038,121.696,67.174,126.096,64.847,132.997z"></path>
<path fill-rule="evenodd" clip-rule="evenodd" fill="#b3d753" class="fill" d="M91.718,151.393c0.616-0.325,1.242-0.634,1.848-0.979
	c1.465-0.834,3.052-1.525,4.347-2.574c1.396-1.13,2.507-2.606,3.753-3.922c1.479-1.562,1.659-3.504,1.886-5.532
	c0.212-1.908-0.118-3.705-0.454-5.52c0.737-0.566,1.193,0.189,1.729,0.161c1.649,2.069,1.823,4.15,0.546,6.383
	c-0.882,1.54-1.599,3.183-2.569,4.661c-0.698,1.062-1.687,1.937-2.565,2.876c-0.24,0.257-0.611,0.401-0.821,0.675
	c-1.47,1.917-3.685,2.562-5.773,3.416c-0.594,0.242-1.225,0.393-1.839,0.585C91.775,151.545,91.747,151.469,91.718,151.393z"></path>
<path fill-rule="evenodd" clip-rule="evenodd" fill="#b3d753" class="fill" d="M139.864,124.078c1.63,2.429,3.056,5.033,4.949,7.236
	c1.867,2.172,3.252,4.795,5.951,6.484c-0.428,0.152-0.657,0.323-0.854,0.291c-1.598-0.261-2.848-1.182-4.031-2.206
	c-0.638-0.553-1.223-1.167-1.854-1.729c-1.686-1.5-2.696-3.412-3.284-5.544c-0.411-1.489-0.68-3.018-1.013-4.528
	C139.774,124.081,139.819,124.079,139.864,124.078z"></path>
<path fill-rule="evenodd" clip-rule="evenodd" fill="#b3d753" class="fill" d="M153.384,127.785c-1.955-0.614-3.637-1.751-5.308-2.898
	c-0.77-0.528-1.452-1.188-2.24-1.684c-1.93-1.216-2.639-3.002-2.349-5.155c0.164-1.216,0.621-2.395,0.989-3.576
	c0.069-0.224,0.341-0.384,0.53-0.587c0.822,0.183,0.959,0.708,0.879,1.407c-0.102,0.884-0.17,1.772-0.234,2.66
	c-0.192,2.644,1.135,4.472,3.174,5.933c1.372,0.984,2.722,2,4.07,3.017c0.238,0.18,0.422,0.436,0.631,0.657
	C153.479,127.635,153.432,127.709,153.384,127.785z"></path>
<path fill-rule="evenodd" clip-rule="evenodd" fill="#b3d753" class="fill" d="M148.627,49.827c-2.443,0.818-4.741,1.855-6.87,3.363
	c-2.172,1.538-4.043,3.289-5.457,5.545c-0.389,0.62-0.922,1.149-1.506,1.862c-0.15-1.589,2.216-6.349,3.66-7.472
	C141.444,50.798,144.781,49.487,148.627,49.827z"></path>
<path fill-rule="evenodd" clip-rule="evenodd" fill="#b3d753" class="fill" d="M144.129,65.771c-0.019-1.436,0.516-2.703,1.058-3.958
	c0.111-0.26,0.416-0.474,0.678-0.626c3.039-1.764,6.111-3.46,9.438-4.632c1.046-0.368,2.108-0.69,3.169-1.013
	c1.084-0.331,2.19-0.438,3.291-0.116c0.39,0.114,0.741,0.357,1.109,0.542c-0.026,0.085-0.053,0.17-0.08,0.255
	c-0.242,0.012-0.486,0.05-0.727,0.031c-1.836-0.146-3.694-0.079-5.437,0.425c-1.958,0.566-3.795,1.52-5.362,2.893
	c-0.234,0.206-0.453,0.443-0.717,0.601C148.084,61.637,145.832,63.34,144.129,65.771z"></path>
<path fill-rule="evenodd" clip-rule="evenodd" fill="#b3d753" class="fill" d="M61.295,95.083c-0.319-0.063-0.495-0.07-0.648-0.133
	c-2.618-1.092-5.329-0.926-8.022-0.476c-1.878,0.314-3.72,0.85-5.58,1.28c-0.209,0.048-0.427,0.053-0.884,0.105
	c1.496-1.511,3.103-2.4,4.893-2.904c2.77-0.779,5.569-0.556,8.333,0.078C60.349,93.254,61.27,93.657,61.295,95.083z"></path>
<path fill-rule="evenodd" clip-rule="evenodd" fill="#b3d753" class="fill" d="M146.331,82.591c-0.414-0.037-0.804-0.072-1.295-0.116
	c0.104-0.283,0.151-0.493,0.253-0.674c2.568-4.595,6.135-8.046,11.259-9.637c1.438-0.446,2.948-0.609,4.551-0.264
	c-0.656,0.233-1.299,0.612-1.971,0.674c-3.158,0.291-5.465,2.191-7.832,3.997c-0.035,0.027-0.064,0.062-0.099,0.089
	C147.75,79.432,148.296,78.993,146.331,82.591z"></path>
<path fill-rule="evenodd" clip-rule="evenodd" fill="#b3d753" class="fill" d="M71.933,66.626c-0.389,0.569-0.705,1.031-1.074,1.571
	c-1.036-0.752-2.026-1.417-2.955-2.159c-1.645-1.312-3.567-1.993-5.552-2.542c-1.973-0.547-3.953-1.065-5.929-1.603
	c-0.15-0.041-0.283-0.145-0.494-0.256c1.188-0.424,2.248-0.272,3.35-0.079c3.362,0.591,6.52,1.772,9.616,3.146
	C69.981,65.187,70.997,65.795,71.933,66.626z"></path>
<path fill-rule="evenodd" clip-rule="evenodd" fill="#b3d753" class="fill" d="M111.117,53.731c1.124-3.63,1.778-7.199,4.101-10.144
	c0.018,3.685-0.777,7.224-1.728,10.935C112.737,54.271,112.058,54.045,111.117,53.731z"></path>
<path fill-rule="evenodd" clip-rule="evenodd" fill="#b3d753" class="fill" d="M68.734,84.062c-1.84,3.696-3.953,7.255-4.376,11.425
	c-0.821,0.288-1.146-0.209-1.482-0.649C62.943,91.493,66.384,84.989,68.734,84.062z"></path>
<path fill-rule="evenodd" clip-rule="evenodd" fill="#b3d753" class="fill" d="M132.556,134.702c0.535,0,0.881,0,1.323,0
	c0.994,1.106,1.958,2.328,3.078,3.384c1.087,1.025,2.335,1.88,3.549,2.838c-0.272,0.498-0.622,0.55-1.009,0.323
	c-0.986-0.578-2.086-1.043-2.906-1.805c-1.314-1.22-2.845-2.279-3.645-3.983C132.854,135.263,132.748,135.074,132.556,134.702z"></path>
<path fill-rule="evenodd" clip-rule="evenodd" fill="#b3d753" class="fill" d="M103.641,44.094c1.161,0.747,4.166,3.926,4.831,5.154
	c-0.199,0.455-0.426,0.974-0.652,1.492C106.337,50.12,103.803,46.031,103.641,44.094z"></path>
<path fill-rule="evenodd" clip-rule="evenodd" fill="#b3d753" class="fill" d="M127.365,143.71c-0.552,0.055-1.103,0.109-1.604,0.159
	c-1.864-2.24-3.304-4.555-3.212-7.845c0.825,0.938,1.507,1.525,1.741,2.571c0.364,1.627,1.188,3.055,2.482,4.166
	c0.229,0.197,0.441,0.414,0.661,0.622C127.412,143.491,127.389,143.601,127.365,143.71z"></path>
<path fill-rule="evenodd" clip-rule="evenodd" fill="#b3d753" class="fill" d="M143.036,114.786c-0.2,0.691-0.428,1.475-0.671,2.31
	c-3.188-3.25-4.153-4.961-3.636-6.419C140.1,111.983,141.463,113.284,143.036,114.786z"></path>
<path fill-rule="evenodd" clip-rule="evenodd" fill="#b3d753" class="fill" d="M53.236,68.534c1.206-0.362,2.448-0.634,3.606-1.113
	c1.18-0.487,2.275-1.178,3.461-1.809c0.49,0.181,0.975,0.359,1.489,0.549C60.529,67.86,56.607,69.018,53.236,68.534z"></path>
<path fill-rule="evenodd" clip-rule="evenodd" fill="#b3d753" class="fill" d="M83.084,52.182c0.784-0.208,0.868,0.252,0.949,0.625
	c0.448,2.044,0.856,4.096,0.728,6.312c-0.355,0.195-0.731,0.401-1.31,0.719C83.323,57.162,83.203,54.656,83.084,52.182z"></path>
<path fill-rule="evenodd" clip-rule="evenodd" fill="#b3d753" class="fill" d="M117.356,52.107c0.109-0.553,0.198-1,0.272-1.374
	c2.43-0.336,4.704-0.651,7.048-0.976C123.857,50.899,119.719,52.247,117.356,52.107z"></path>
<path fill-rule="evenodd" clip-rule="evenodd" fill="#b3d753" class="fill" d="M69.8,54.112c0.54,2.676,0.941,5.133,1.171,7.802
	c-0.589-0.15-0.956-0.243-1.437-0.365c-0.132-2.368-0.266-4.698-0.373-7.028C69.157,54.441,69.421,54.348,69.8,54.112z"></path>
<path fill-rule="evenodd" clip-rule="evenodd" fill="#b3d753" class="fill" d="M144.409,112.632c-0.402,0.336-0.667,0.557-1.003,0.836
	c-1.753-1.222-3.103-2.812-4.54-4.379c0.07-0.185,0.142-0.374,0.234-0.617C140.876,109.864,142.579,111.198,144.409,112.632z"></path>
<path fill-rule="evenodd" clip-rule="evenodd" fill="#b3d753" class="fill" d="M92.686,56.017c-0.337-1.539-0.638-2.916-0.967-4.417
	c0.286-0.186,0.59-0.382,1.058-0.685c0.497,1.583,0.942,3,1.424,4.532C93.692,55.638,93.262,55.8,92.686,56.017z"></path>
<path fill-rule="evenodd" clip-rule="evenodd" fill="#b3d753" class="fill" d="M121.261,138.706c0.205,1.429,0.389,2.714,0.616,4.302
	c-1-0.802-1.774-1.422-2.524-2.023C120.002,139.499,120.112,139.364,121.261,138.706z"></path>
<path fill-rule="evenodd" clip-rule="evenodd" fill="#b3d753" class="fill" d="M134.626,87.989c-1.195-0.321-2.214-0.595-3.386-0.91
	c0.192-0.549,0.373-1.064,0.584-1.668c0.937,0.301,1.769,0.567,2.664,0.854C134.533,86.828,134.574,87.336,134.626,87.989z"></path>
<path fill-rule="evenodd" clip-rule="evenodd" fill="#b3d753" class="fill" d="M61.521,58.881c0.135-1.484,0.256-2.88,0.408-4.273
	c0.01-0.085,0.279-0.142,0.428-0.212c0.527,1.083,0.803,3.028,0.663,4.691C62.563,59.024,62.112,58.962,61.521,58.881z"></path>
<path fill-rule="evenodd" clip-rule="evenodd" fill="#b3d753" class="fill" d="M77.206,63.126c-0.521-0.146-0.936-0.263-1.4-0.394
	c0.175-1.588,0.344-3.113,0.514-4.657C76.94,59.008,77.411,61.597,77.206,63.126z"></path>
<path fill-rule="evenodd" clip-rule="evenodd" fill="#b3d753" class="fill" d="M118.59,120.293c0.446-0.36,0.778-0.63,1.261-1.021
	c0.333,0.968,0.623,1.811,1.018,2.958c-0.25,0.215-0.531,0.457-0.988,0.851C119.391,122.024,119.019,121.219,118.59,120.293z"></path>
<path fill-rule="evenodd" clip-rule="evenodd" fill="#b3d753" class="fill" d="M68.661,87.913c0.241-0.964,0.418-1.673,0.633-2.534
	c0.816,0.501,1.531,0.939,2.412,1.479C70.631,87.23,69.753,87.534,68.661,87.913z"></path>
<path fill-rule="evenodd" clip-rule="evenodd" fill="#b3d753" class="fill" d="M117.804,124.213c-0.84-1.749-0.818-2.072,0.103-2.818
	C118.693,122.671,118.685,123.305,117.804,124.213z"></path>
<path fill-rule="evenodd" clip-rule="evenodd" fill="#b3d753" class="fill" d="M116.231,123.317c0.105,0.482,0.213,0.965,0.342,1.55
	c-0.576,0.32-1.1,0.611-1.733,0.964C114.683,124.626,115.581,124.092,116.231,123.317z"></path>
<path fill-rule="evenodd" clip-rule="evenodd" fill="#b3d753" class="fill" d="M134.354,85.017c-0.752-0.235-1.309-0.409-1.956-0.611
	c0.166-0.315,0.262-0.496,0.392-0.741C133.47,83.813,134.257,83.694,134.354,85.017z"></path>
<path fill-rule="evenodd" clip-rule="evenodd" fill="#b3d753" class="fill" d="M134.108,82.073c-0.075,0.211-0.15,0.422-0.227,0.633
	c-0.09-0.028-0.18-0.056-0.271-0.083c0.056-0.219,0.11-0.438,0.166-0.657C133.888,82.001,133.998,82.038,134.108,82.073z"></path>
</svg>