<svg version="1.1" xmlns="http://www.w3.org/2000/svg" width="200" height="200" viewBox="0 0 200 200">
    <path fill="#1f4a69" d="M127.875,82.229c-0.777-1.109-1.537-2.232-2.265-3.375c-0.521-0.817-0.992-1.669-1.459-2.521 c-1.093-1.989-2.83-2.782-5.022-2.72c-0.658,0.019-1.322,0.202-1.969,0.14c-3.102-0.298-5.542,1.305-8.021,2.761 c-0.602,0.353-1.061,0.95-1.695,1.537c-0.123-0.55-0.213-0.98-0.316-1.408c-0.438-1.825-0.931-3.612-1.771-5.326 c-1.172-2.386-4.859-4.271-7.818-3.686c-3.465,0.686-6.604,2.13-9.158,4.658c-0.652,0.645-1.396,1.12-2.246,1.479 c-0.763,0.322-1.539,0.698-2.178,1.214c-2.23,1.804-3.445,4.197-3.537,7.051c-0.078,2.42,0.703,4.525,2.893,5.888 c0.19,0.119,0.342,0.297,0.553,0.484c-0.27,0.284-0.47,0.52-0.697,0.727c-1.336,1.215-2.181,2.721-2.464,4.489 c-0.219,1.371-0.343,2.766-0.378,4.154c-0.016,0.592,0.232,1.224,0.485,1.783c0.505,1.117,1.223,2.106,2.11,2.958 c0.517,0.497,0.825,1.09,1.046,1.772c0.276,0.857,0.614,1.701,1.003,2.515c1.398,2.938,6.618,6.069,10.312,4.91 c2.45-0.77,4.933-1.336,7.186-2.87c0.463,0.646,0.922,1.283,1.392,1.938c-0.601,1.757-1.202,3.459-1.768,5.173 c-0.909,2.755-2.115,5.363-3.661,7.822c-1.771,2.818-3.773,5.411-6.597,7.271c-0.318,0.21-0.644,0.434-0.896,0.715 c-0.518,0.575-1.344,0.9-1.519,1.814c0.914,1.266,1.994,2.365,3.106,3.347c0.193-0.048,0.271-0.049,0.325-0.084 c0.145-0.097,0.285-0.199,0.414-0.315c2.52-2.265,4.823-4.712,6.632-7.606c3.03-4.85,5.754-9.847,7.595-15.286 c0.032-0.094,0.113-0.173,0.154-0.231c0.211,0.04,0.354,0.047,0.481,0.095c2.029,0.761,4.084,0.951,6.251,0.634 c2.685-0.393,4.702-1.652,5.941-4.044c0.577-1.111,1.496-1.791,2.453-2.484c0.981-0.711,2.006-1.381,2.896-2.193 c1.154-1.052,1.739-2.427,1.666-4.014c-0.08-1.758-0.461-3.445-1.333-4.998c-0.372-0.664-0.729-1.337-1.111-2.039 c0.173-0.125,0.339-0.245,0.503-0.368c0.695-0.52,1.491-0.949,2.062-1.581c1.3-1.438,1.887-3.216,2.058-5.131 C129.683,85.367,128.942,83.749,127.875,82.229z" />
    
    <path fill="#b3d753" d="M104.755,89.674c-0.273,0.261-0.493,0.54-0.774,0.722 c-0.367,0.238-0.765,0.491-1.182,0.578c-2.34,0.488-4.702,0.341-7.035-0.003c-1.642-0.243-3.249-0.721-4.87-1.1 c-2.3-0.538-4.366-1.564-6.22-3.018c-0.627-0.491-1.267-0.978-1.822-1.544c-0.843-0.861-1.141-1.933-1.105-3.146 c0.037-1.303,0.318-2.544,0.702-3.774c0.296-0.951,0.778-1.809,1.615-2.365c0.95-0.632,1.932-1.242,2.962-1.729 c1.105-0.521,2.117-1.094,3.029-1.95c0.922-0.867,2.041-1.55,3.15-2.182c0.926-0.527,1.943-0.913,2.952-1.274 c1.713-0.614,3.448-0.39,5.12,0.151c1.397,0.453,2.297,1.559,2.908,2.842c0.719,1.508,1.121,3.113,1.42,4.772 c0.618,3.429,0.24,6.786-0.378,10.151C105.053,87.759,104.911,88.719,104.755,89.674z M89.757,74.348 c-0.089,1.39,0.196,1.959,1.382,2.949c1.334,1.114,2.631,2.261,3.318,3.925c0.048,0.118,0.162,0.208,0.229,0.29 c0.414-0.027,0.533-0.256,0.475-0.571c-0.049-0.27-0.148-0.533-0.238-0.794c-0.63-1.835-1.783-3.353-2.975-4.841 c-0.379-0.475-0.857-0.871-1.283-1.296C90.283,74.151,90.035,74.244,89.757,74.348z" />
    <path fill="#b3d753" d="M105.09,90.966c0.941-1.782,1.627-3.512,1.889-5.395 c0.205-1.476,0.339-2.971,0.678-4.417c0.287-1.224,0.992-2.27,1.95-3.138c2.045-1.855,4.37-2.992,7.163-3.259 c1.207-0.115,2.385-0.385,3.611-0.178c1.398,0.236,2.312,1.043,2.896,2.282c0.564,1.192,1.059,2.422,1.69,3.576 c0.321,0.588,0.829,1.105,1.339,1.556c2.019,1.788,2.811,4.666,1.752,7.117c-0.612,1.417-1.668,2.549-2.98,3.403 c-2.041,1.327-4.32,1.881-6.716,1.964c-1.661,0.058-3.328,0.035-4.989-0.023c-0.649-0.022-1.305-0.192-1.936-0.375 c-1.361-0.395-2.809-0.426-4.115-1.072c-0.596-0.295-1.215-0.452-1.501-1.165C105.688,91.511,105.347,91.263,105.09,90.966z M115.287,85.287c2.98-0.999,5.777-1.936,8.533-2.86c0.152-0.645-0.154-0.92-0.632-0.898c-0.646,0.03-1.31,0.109-1.926,0.297 c-0.825,0.251-1.608,0.638-2.417,0.949C117.508,83.29,116.387,84.104,115.287,85.287z" />
    <path fill="#b3d753" d="M105.667,93.486c0.634,0.432,1.273,0.913,1.956,1.323 c0.771,0.464,1.536,1.005,2.38,1.266c2.286,0.708,4.593,1.379,6.931,1.889c2.481,0.541,5.02,0.72,7.567,0.544 c0.242-0.016,0.485-0.022,0.729-0.019c0.1,0.001,0.199,0.041,0.29,0.06c1.454,2.629,0.562,5.386-1.438,6.883 c-0.549,0.412-1.191,0.702-1.803,1.027c-0.885,0.472-1.781,0.926-2.637,1.368c-0.095,0.32-0.178,0.548-0.229,0.78 c-0.498,2.338-2.153,3.49-4.287,4.062c-1.068,0.286-2.186,0.4-3.288,0.54c-0.367,0.047-0.771-0.019-1.132-0.124 c-1.976-0.572-3.777-1.556-5.107-3.087c-1.105-1.272-1.902-2.846-2.19-4.56c-0.571-3.397-0.499-6.768,0.569-10.088 C104.268,94.458,104.721,93.807,105.667,93.486z M110.762,99.616c0.985,3.271,2.596,5.786,5.556,7.354 c0.123-0.088,0.275-0.2,0.431-0.312c-0.038-0.048-5.41-6.862-5.41-6.862C111.216,99.758,111.094,99.719,110.762,99.616z" />
    <path fill="#b3d753" d="M82.183,92.409c0.396,0.088,0.765,0.159,1.127,0.252 c1.885,0.486,3.764,0.992,5.651,1.464c4.194,1.05,8.207,0.449,12.084-1.356c0.466-0.217,0.94-0.416,1.414-0.624 c0.195,0.52,0.363,0.965,0.566,1.505c-0.852,2.301-1.824,4.656-2.092,7.202c-0.261,2.487-0.54,4.981,0.254,7.551 c-0.793,0.451-1.507,0.953-2.293,1.286c-2.092,0.884-4.309,1.274-6.529,0.792c-1.396-0.304-2.78-0.841-3.891-1.888 c-1.458-1.376-2.43-3.033-2.977-4.934c-0.283-0.984-0.83-1.715-1.592-2.373c-2.242-1.936-3.105-5.404-2.085-8.188 C81.902,92.879,82.04,92.679,82.183,92.409z M97.951,97.271c-0.033-0.105-0.066-0.21-0.1-0.315 c-1.152,0.301-2.334,0.522-3.453,0.918c-2.578,0.912-5.124,1.912-7.687,2.867c-0.308,0.115-0.568,0.234-0.57,0.613 c0.728,0.271,0.991,0.298,1.698,0.082c1.226-0.376,2.436-0.807,3.671-1.151c2.021-0.564,3.902-1.437,5.709-2.483 C97.479,97.65,97.707,97.448,97.951,97.271z" />
    <path fill="#b3d753" d="M93.027,135.214c-0.676-0.564-1.251-1.045-1.965-1.642 c2.311-1.636,4.305-3.434,6.07-5.479c1.76-2.041,2.957-4.432,4.313-6.88c0.319,0.172,0.629,0.34,1.006,0.543 c-1.507,3.188-3.479,5.99-5.408,8.819C95.453,131.855,94.623,133.826,93.027,135.214z" />
</svg>