<svg style="top: 53%; left: 54%; height: 42%; width: 42%;" version="1.1" id="svg_4493" xmlns="http://www.w3.org/2000/svg" xmlns:xlink="http://www.w3.org/1999/xlink" x="0px" y="0px" width="200px" height="200px" viewBox="0 0 200 200" enable-background="new 0 0 200 200" xml:space="preserve">
<path class="stroke" fill="#1a1a37" d="M126.604,91.927c-0.146-0.407-0.437-0.833-0.781-1.085c-1.923-1.408-3.885-2.762-5.831-4.14
	c-1.32-0.935-2.621-1.91-4.218-2.33c-2.302-0.604-4.525-1.453-6.911-1.8c-2.652-0.387-5.254-1.114-7.898-1.58
	c-1.583-0.279-3.204-0.353-4.81-0.492c-0.686-0.06-1.392-0.153-2.065-0.06c-2.932,0.405-5.857,0.863-8.782,1.321
	c-0.869,0.137-1.688,0.335-2.397,0.984c-0.876,0.8-1.888,1.454-2.854,2.155c-2.049,1.487-4.104,2.964-6.188,4.466
	c0.03,0.21,0.034,0.444,0.1,0.66c0.561,1.838,1.077,3.692,1.713,5.504c1.146,3.264,2.288,6.533,3.578,9.741
	c1.363,3.389,2.91,6.703,4.352,10.061c2.155,5.02,4.231,10.075,6.739,14.937c0.319,0.618,0.717,1.089,1.567,1.15
	c0.843-0.436,1.776-0.886,2.68-1.391c2.648-1.48,5.418-2.792,7.898-4.518c4.425-3.077,9.114-5.724,13.593-8.705
	c2.912-1.937,5.943-3.69,8.662-5.922c2.104-1.728,4.329-3.306,6.641-5.056c-0.142-0.547-0.252-1.152-0.454-1.727
	C129.51,100.037,128.072,95.977,126.604,91.927z"></path>
<path class="stroke" fill="#1a1a37" d="M67.2,67.511c0.461,0.007,0.929,0.024,1.382-0.044c1.278-0.192,2.526-0.088,3.771,0.243c0.518,0.138,1.063,0.17,1.585,0.298
	c0.764,0.187,1.623,0.16,2.195,0.876c0.083,1.342-1.384,1.899-1.592,3.086c0.557,0.553,0.929,0.126,1.311-0.172
	c0.69-0.541,1.391-1.052,2.395-1.145c0.728,3.328,0.321,6.697,0.752,10.077c0.353-0.058,0.589-0.096,0.874-0.143
	c-0.026-3.24,0.421-6.331,1.507-9.162c0.676-0.515,1.163-0.307,1.644-0.017c0.461,0.279,0.914,0.574,1.387,0.831
	c0.417,0.227,0.742,0.159,0.854-0.442c-0.776-1.064-2.113-1.745-2.575-3.271c2.545-1.223,5.278-0.775,7.93-0.999
	c0.045-0.295,0.079-0.517,0.125-0.827c-2.529-0.269-4.977-0.26-7.389-0.762c0.565-1.756,2.155-2.256,3.286-3.121
	c-0.155-0.784-0.632-0.647-1.027-0.562c-0.863,0.186-1.71,0.445-2.574,0.628c-1.015,0.214-1.518-0.005-1.778-0.969
	c-0.427-1.59-0.792-3.204-1.061-4.828c-0.261-1.585-0.367-3.194-0.544-4.815c-0.278-0.083-0.486-0.147-0.742-0.225
	c-0.225,0.283-0.432,0.545-0.612,0.773c0,2.157,0.018,4.236-0.007,6.315c-0.013,1.078-0.086,2.157-0.916,3.141
	c-1.972,0.114-3.407-1.306-5.168-2.023c-0.172,0.145-0.356,0.299-0.572,0.48c0.493,0.721,1.135,1.125,1.791,1.534
	c1.013,0.632,1.864,1.421,2.336,2.738c-0.543,0.186-0.951,0.398-1.381,0.46c-2.319,0.336-4.646,0.625-6.968,0.955
	c-0.379,0.054-0.741,0.229-1.104,0.347C66.434,67.415,66.802,67.504,67.2,67.511z"></path>
<path class="stroke" fill="#1a1a37" d="M142.024,76.805c-1.619-0.523-3.335-0.374-4.959-0.688c-0.339-1.265,1.459-1.246,1.327-2.335
	c-0.658-0.164-0.66-0.174-1.184,0.125c-0.631,0.361-1.277,0.535-1.979,0.061c-0.447-0.807-0.598-1.694-0.604-2.635
	c-0.009-1.498-0.06-2.997-0.134-4.493c-0.014-0.291-0.219-0.572-0.336-0.858c-0.097-0.002-0.193-0.004-0.289-0.006
	c-0.158,0.323-0.376,0.63-0.461,0.971c-0.149,0.595-0.232,1.206-0.314,1.814c-0.159,1.18-0.255,2.369-0.465,3.539
	c-0.11,0.618-0.292,1.272-0.917,1.609c-0.879-0.17-1.139-1.606-2.353-1.061c0.085,0.992,1.464,1.296,1.146,2.547
	c-0.224,0.084-0.521,0.258-0.837,0.304c-0.646,0.094-1.299,0.142-1.952,0.166c-0.961,0.036-1.923,0.023-2.884,0.052
	c-0.407,0.012-0.879-0.026-0.931,0.719c0.281,0.11,0.58,0.31,0.891,0.334c1.297,0.103,2.599,0.161,3.9,0.219
	c0.71,0.031,1.452-0.112,2.19,0.507c-0.553,0.722-1.085,1.419-1.662,2.173c0.313,0.189,0.495,0.299,0.678,0.41
	c0.779-0.512,1.314-1.392,2.365-1.281c0.066,0.151,0.127,0.251,0.154,0.359c0.416,1.634,0.195,3.285,0.146,4.935
	c-0.024,0.816,0.049,1.636,0.077,2.455c0.084,0.02,0.168,0.04,0.253,0.06c0.135-0.14,0.356-0.264,0.39-0.427
	c0.134-0.637,0.202-1.29,0.307-1.933c0.217-1.326,0.407-2.659,0.677-3.974c0.169-0.828,0.423-0.969,1.359-1.07
	c0.687,0.359,0.974,1.312,1.919,1.314c0.403-0.617-0.046-0.966-0.362-1.32c-0.395-0.443-0.728-0.892-0.623-1.673
	c0.909-0.344,1.792-0.519,2.729-0.37c0.645,0.104,1.289,0.233,1.938,0.29C141.723,77.689,142.146,77.555,142.024,76.805z"></path>
<path class="stroke" fill="#1a1a37" d="M78.449,137.396c-0.711-0.031-1.452,0.111-2.19-0.507c0.553-0.723,1.085-1.419,1.662-2.173
	c-0.312-0.189-0.495-0.299-0.677-0.41c-0.779,0.512-1.314,1.392-2.365,1.281c-0.066-0.151-0.127-0.251-0.155-0.359
	c-0.415-1.634-0.195-3.285-0.146-4.935c0.024-0.817-0.049-1.637-0.077-2.455c-0.084-0.02-0.168-0.041-0.252-0.06
	c-0.136,0.14-0.357,0.264-0.391,0.426c-0.134,0.638-0.201,1.29-0.307,1.934c-0.216,1.326-0.406,2.658-0.676,3.974
	c-0.169,0.828-0.423,0.969-1.36,1.07c-0.686-0.359-0.973-1.312-1.918-1.314c-0.403,0.618,0.046,0.965,0.363,1.32
	c0.395,0.443,0.728,0.892,0.622,1.673c-0.908,0.344-1.792,0.519-2.729,0.37c-0.645-0.104-1.288-0.233-1.938-0.291
	c-0.498-0.043-0.922,0.091-0.8,0.842c1.619,0.523,3.335,0.374,4.96,0.687c0.339,1.266-1.46,1.247-1.328,2.336
	c0.658,0.164,0.661,0.174,1.184-0.125c0.632-0.361,1.277-0.535,1.979-0.061c0.446,0.807,0.598,1.693,0.604,2.635
	c0.01,1.498,0.06,2.997,0.134,4.492c0.015,0.291,0.22,0.573,0.338,0.858c0.096,0.003,0.192,0.005,0.287,0.007
	c0.159-0.322,0.377-0.63,0.462-0.971c0.149-0.594,0.232-1.207,0.314-1.815c0.159-1.179,0.255-2.368,0.465-3.538
	c0.11-0.618,0.292-1.272,0.918-1.609c0.878,0.169,1.139,1.606,2.353,1.061c-0.084-0.992-1.464-1.296-1.146-2.547
	c0.224-0.084,0.521-0.257,0.837-0.303c0.645-0.094,1.3-0.142,1.951-0.167c0.961-0.035,1.923-0.023,2.884-0.052
	c0.406-0.012,0.879,0.026,0.931-0.719c-0.282-0.11-0.58-0.31-0.891-0.334C81.052,137.512,79.75,137.454,78.449,137.396z"></path>
<path class="stroke" fill="#1a1a37" d="M122.22,58.828c1.469-0.125,2.132,0.344,2.569,1.752c0.168,0.543,0.316,1.093,0.476,1.652c0.286,0,0.502,0,0.743,0
	c0.04-0.197,0.09-0.342,0.096-0.488c0.072-1.74,0.622-2.717,2.514-3.029c0.22-0.036,0.411-0.243,0.616-0.371
	c-0.024-0.092-0.048-0.185-0.071-0.277c-0.244-0.076-0.485-0.157-0.731-0.227c-1.871-0.53-2.225-0.95-2.462-2.952
	c-0.043-0.37-0.126-0.684-0.688-0.683c-0.215,0.342-0.454,0.722-0.662,1.051c-0.103,2.18-0.228,2.319-2.284,2.623
	c-0.152,0.022-0.32-0.002-0.456,0.055c-0.261,0.109-0.504,0.26-0.762,0.396C121.379,58.961,121.779,58.866,122.22,58.828z"></path>
<path class="stroke" fill="#1a1a37" d="M126.186,128.412c-1.871-0.53-2.225-0.949-2.462-2.952c-0.043-0.37-0.126-0.684-0.688-0.683
	c-0.215,0.342-0.454,0.721-0.662,1.052c-0.103,2.178-0.228,2.319-2.284,2.622c-0.152,0.021-0.32-0.001-0.456,0.055
	c-0.261,0.109-0.504,0.26-0.762,0.396c0.263,0.63,0.663,0.534,1.104,0.498c1.469-0.126,2.132,0.343,2.569,1.751
	c0.168,0.543,0.315,1.093,0.476,1.653c0.286,0,0.502,0,0.743,0c0.04-0.197,0.09-0.341,0.096-0.489
	c0.072-1.739,0.622-2.716,2.514-3.029c0.22-0.036,0.412-0.243,0.616-0.371c-0.024-0.093-0.048-0.185-0.071-0.277
	C126.673,128.563,126.432,128.481,126.186,128.412z"></path>
<path class="stroke" fill="#1a1a37" d="M104.444,69.671c0.15,0.391,0.28,0.791,0.432,1.219c0.235,0.024,0.449,0.045,0.616,0.062
	c0.078-0.085,0.114-0.109,0.128-0.144c0.029-0.068,0.065-0.144,0.065-0.215c-0.011-1.53,0.684-2.464,2.238-2.722
	c0.2-0.033,0.366-0.276,0.657-0.508c-0.953-0.417-1.911-0.593-2.489-1.158c-0.569-0.557-0.752-1.507-1.181-2.452
	c-0.303,0.233-0.564,0.435-0.816,0.629c-0.029,1.68-0.908,2.509-2.469,2.721c-0.185,0.025-0.343,0.237-0.764,0.544
	c0.56,0.131,0.858,0.26,1.155,0.259C103.271,67.9,104.017,68.563,104.444,69.671z"></path>
<path fill-rule="evenodd" clip-rule="evenodd" fill="#e2e6bc" class="fill" d="M87.03,84.722c1.691-0.237,3.218-0.376,4.71-0.68
	c2.021-0.411,3.979,0.013,5.956,0.252c1.68,0.203,3.355,0.479,5.041,0.584c1.753,0.108,3.404,0.575,5.06,1.085
	c1.945,0.599,3.892,1.187,5.85,1.741c1.743,0.494,3.446,1.054,4.993,2.039c1.426,0.908,2.897,1.747,4.343,2.625
	c0.225,0.136,0.424,0.313,0.754,0.561c-0.305,0.153-0.506,0.316-0.728,0.355c-1.854,0.325-3.714,0.616-5.568,0.943
	c-0.488,0.086-0.96,0.259-1.434,0.51c-3.064-0.243-6.132-0.448-9.191-0.74c-1.95-0.187-3.893-0.463-5.827-0.781
	c-0.662-0.109-1.296-0.443-1.919-0.727c-0.839-0.382-1.656-0.812-2.481-1.225c-1.788-0.894-3.563-1.814-5.366-2.676
	C89.462,87.745,88.315,86.288,87.03,84.722z"></path>
<path fill-rule="evenodd" clip-rule="evenodd" fill="#e2e6bc" class="fill" d="M98.306,105.505c0.701,3.137,1.401,6.275,2.119,9.488
	c-2.287,3.28-4.565,6.55-6.941,9.958c-0.112-0.348-0.221-0.54-0.233-0.738c-0.193-3.187-0.392-6.373-0.536-9.562
	c-0.019-0.421,0.188-0.899,0.414-1.278c0.805-1.351,1.675-2.663,2.496-4.004c0.502-0.819,0.95-1.672,1.442-2.497
	c0.292-0.486,0.625-0.947,0.939-1.419C98.105,105.472,98.206,105.488,98.306,105.505z"></path>
<path fill-rule="evenodd" clip-rule="evenodd" fill="#e2e6bc" class="fill" d="M110.018,115.687c-4.853,3.239-9.591,6.403-14.329,9.566
	c-0.056-0.043-0.112-0.085-0.169-0.128c0.365-0.509,0.733-1.015,1.095-1.526c1.44-2.035,2.985-4.008,4.279-6.132
	c0.824-1.352,1.87-2.398,3.038-3.401c2.096-1.803,4.15-3.652,6.227-5.478c0.45-0.396,0.917-0.773,1.501-1.085
	C111.225,110.326,110.748,113.094,110.018,115.687z"></path>
<path fill-rule="evenodd" clip-rule="evenodd" fill="#e2e6bc" class="fill" d="M85.149,102.328c0.247,0.39,0.359,0.531,0.434,0.69
	c1.342,2.889,2.68,5.78,4.021,8.67c0.114,0.243,0.225,0.498,0.389,0.706c0.903,1.145,1.042,2.503,1.197,3.886
	c0.223,1.984,0.59,3.953,0.805,5.938c0.108,1.008,0.019,2.038,0.019,3.232c-0.767-0.75-1.125-1.586-1.49-2.389
	c-1.48-3.248-2.835-6.556-4.4-9.761c-0.899-1.841-1.153-3.696-1.046-5.688c0.072-1.34-0.017-2.689-0.022-4.034
	C85.054,103.253,85.103,102.931,85.149,102.328z"></path>
<path fill-rule="evenodd" clip-rule="evenodd" fill="#e2e6bc" class="fill" d="M99.027,102.8c-0.216-0.188-0.381-0.294-0.498-0.439
	c-1.535-1.906-3.063-3.818-4.689-5.847c2.263-0.628,4.452-1.235,6.679-1.854c1.852,1.434,3.66,2.834,5.667,4.388
	C103.679,100.362,101.396,101.559,99.027,102.8z"></path>
<path fill-rule="evenodd" clip-rule="evenodd" fill="#e2e6bc" class="fill" d="M125.001,106.258c-2.52,2.265-11.179,7.718-12.868,8.076
	c0.495-2.629,0.982-5.21,1.458-7.729C115.282,106.005,122.518,105.794,125.001,106.258z"></path>
<path fill-rule="evenodd" clip-rule="evenodd" fill="#e2e6bc" class="fill" d="M116.333,96.531c1.763,1.044,2.985,2.718,4.806,3.95
	c-2.26,1.512-4.592,2.479-6.759,3.838c-1.918-1.267-3.542-2.808-5.243-4.443C111.626,98.719,113.945,97.642,116.333,96.531z"></path>
<path fill-rule="evenodd" clip-rule="evenodd" fill="#e2e6bc" class="fill" d="M96.952,104.753c-1.67,2.352-3.303,4.651-4.95,6.972
	c-0.843-1.097-5.101-9.537-5.457-10.831c1.86,0.425,3.422,1.439,5.145,2.021C93.395,103.491,95.088,104.101,96.952,104.753z"></path>
<path fill-rule="evenodd" clip-rule="evenodd" fill="#e2e6bc" class="fill" d="M100.229,105.885c3.469,0.078,6.936,0.155,10.405,0.232
	c0.037,0.104,0.074,0.208,0.111,0.312c-2.728,2.519-5.822,4.601-8.633,7.025C101.638,112.772,100.207,107.027,100.229,105.885z"></path>
<path fill-rule="evenodd" clip-rule="evenodd" fill="#e2e6bc" class="fill" d="M83.83,91.463c2.069-0.287,3.874-0.537,5.831-0.808
	c0.47,1.55,0.94,3.105,1.448,4.783c-1.919,0.685-3.826,1.261-5.922,1.678C84.726,95.192,84.3,93.422,83.83,91.463z"></path>
<path fill-rule="evenodd" clip-rule="evenodd" fill="#e2e6bc" class="fill" d="M92.276,96.831c1.51,1.818,3.016,3.631,4.602,5.541
	c-1.074,0.062-8.742-2.665-10.713-3.753C88.207,98.021,90.127,97.459,92.276,96.831z"></path>
<path fill-rule="evenodd" clip-rule="evenodd" fill="#e2e6bc" class="fill" d="M107.835,100.005c1.356,1.292,2.743,2.614,4.134,3.939
	c-1.011,0.443-8.838,0.041-10.725-0.576C103.442,102.247,105.568,101.162,107.835,100.005z"></path>
<path fill-rule="evenodd" clip-rule="evenodd" fill="#e2e6bc" class="fill" d="M78.57,94.42c1.669,1.781,3.339,3.561,5.051,5.389
	c-0.099,2.035-0.196,4.054-0.305,6.286c-0.278-0.255-0.449-0.341-0.508-0.476c-1.122-2.562-2.252-5.12-3.333-7.698
	c-0.455-1.083-0.804-2.209-1.201-3.316C78.373,94.543,78.471,94.481,78.57,94.42z"></path>
<path fill-rule="evenodd" clip-rule="evenodd" fill="#e2e6bc" class="fill" d="M113.119,96.425c-1.797,0.622-3.593,1.245-5.423,1.878
	c-1.418-0.934-2.899-1.718-4.165-2.931C104.658,94.995,110.899,95.571,113.119,96.425z"></path>
<path fill-rule="evenodd" clip-rule="evenodd" fill="#e2e6bc" class="fill" d="M126.159,104.089c-3.094,0.39-5.903,0.654-8.731,0.334
	c-0.025-0.092-0.05-0.185-0.074-0.276c1.709-0.899,3.419-1.797,5.144-2.704C123.787,102.218,124.954,102.949,126.159,104.089z"></path>
<path fill-rule="evenodd" clip-rule="evenodd" fill="#e2e6bc" class="fill" d="M91.28,90.499c2.151,1.075,4.301,2.15,6.625,3.312
	c-1.761,0.712-3.417,1.172-5.298,1.483c-0.533-1.571-1.053-3.104-1.573-4.638C91.116,90.604,91.198,90.551,91.28,90.499z"></path>
<path fill-rule="evenodd" clip-rule="evenodd" fill="#e2e6bc" class="fill" d="M83.484,97.21c-1.846-1.955-3.692-3.909-5.538-5.862
	c0.037-0.09,0.074-0.181,0.111-0.271c1.303,0.075,2.605,0.15,3.948,0.228c0.606,1.969,1.186,3.854,1.767,5.74
	C83.676,97.1,83.58,97.155,83.484,97.21z"></path>
<path fill-rule="evenodd" clip-rule="evenodd" fill="#e2e6bc" class="fill" d="M123.509,94.801c-0.283,1.752-0.535,3.306-0.805,4.974
	c-1.598-1.306-3.028-2.474-4.685-3.827C119.989,95.535,121.671,95.185,123.509,94.801z"></path>
<path fill-rule="evenodd" clip-rule="evenodd" fill="#e2e6bc" class="fill" d="M85.898,85.885c1.038,1.044,1.941,1.953,3.002,3.02
	c-1.692,0.703-3.207,1.219-5.079,1.457C84.544,88.804,85.185,87.423,85.898,85.885z"></path>
<path fill-rule="evenodd" clip-rule="evenodd" fill="#e2e6bc" class="fill" d="M124.867,96.355c0.921,2.278,2.073,4.41,2.32,6.95
	c-1.355-0.817-2.133-2.062-3.179-3.117C124.293,98.917,124.58,97.637,124.867,96.355z"></path>
<path fill-rule="evenodd" clip-rule="evenodd" fill="#e2e6bc" class="fill" d="M84.548,86.084c-0.553,1.245-1.107,2.489-1.654,3.721
	c-1.296-0.093-2.467-0.178-3.871-0.28c1.667-1.595,3.441-2.676,5.273-3.672C84.38,85.93,84.465,86.007,84.548,86.084z"></path>
<path fill-rule="evenodd" clip-rule="evenodd" fill="#e2e6bc" class="fill" d="M73.274,66.616c0.59-0.114,1.2-0.169,1.766-0.36
	c0.561-0.188,1.075-0.512,1.444-0.695c0.411-0.988,0.019-1.634-0.307-2.296c2.003-0.187,2.621-0.129,3.287-4.022
	c0.096,0.28,0.211,0.555,0.28,0.842c0.163,0.67,0.272,1.354,0.464,2.016c0.339,1.167,1.106,1.812,2.363,1.798
	c0.151-0.002,0.303,0.026,0.659,0.06c-0.433,0.636-0.803,1.178-1.161,1.705c-0.107,0.807,0.605,0.985,1.148,1.429
	c-0.729,0.396-1.52,0.656-1.577,1.688c0.122,0.332,0.28,0.762,0.464,1.26c-1.718,0.039-1.771,1.526-2.274,2.76
	c-0.514-0.563-0.212-1.182-0.394-1.673c-0.19-0.517-0.473-0.999-0.696-1.459c-0.594,0-1.012,0-1.52,0
	c-0.03-0.401-0.061-0.805-0.099-1.308C76.234,67.035,74.604,67.25,73.274,66.616z"></path>
<path fill-rule="evenodd" clip-rule="evenodd" fill="#e2e6bc" class="fill" d="M133.604,72.663c0.747,2.075,0.747,2.075,2.284,2.66
	c0.026,0.448,0.05,0.9,0.068,1.221c-0.247,0.627-0.453,1.151-0.678,1.723c-0.528,0.274-1.128,0.585-1.625,0.842
	c-0.547-0.462-1.071-0.905-1.656-1.399c-0.233-0.396-0.529-0.897-0.863-1.461c0.198-0.354,0.464-0.832,0.793-1.422
	C132.813,74.574,133.046,73.601,133.604,72.663z"></path>
<path fill-rule="evenodd" clip-rule="evenodd" fill="#e2e6bc" class="fill" d="M73.532,141.922c-0.746-2.074-0.746-2.074-2.283-2.659
	c-0.025-0.449-0.05-0.901-0.067-1.221c0.246-0.628,0.453-1.151,0.678-1.723c0.528-0.274,1.128-0.585,1.625-0.842
	c0.547,0.462,1.071,0.904,1.656,1.398c0.234,0.396,0.531,0.898,0.863,1.462c-0.197,0.354-0.464,0.833-0.794,1.421
	C74.323,140.012,74.091,140.985,73.532,141.922z"></path>
<path fill-rule="evenodd" clip-rule="evenodd" fill="#e2e6bc" class="fill" d="M126.736,58.172c-0.371,0.469-0.72,0.91-1.138,1.438
	c-0.408-0.472-0.746-0.863-1.107-1.282c0.32-0.447,0.602-0.838,0.902-1.257C125.895,57.482,126.358,57.862,126.736,58.172z"></path>
<path fill-rule="evenodd" clip-rule="evenodd" fill="#e2e6bc" class="fill" d="M124.491,128.743c-0.372,0.469-0.721,0.91-1.138,1.438
	c-0.408-0.471-0.746-0.862-1.107-1.281c0.32-0.447,0.602-0.839,0.902-1.257C123.65,128.054,124.113,128.434,124.491,128.743z"></path>
<path fill-rule="evenodd" clip-rule="evenodd" fill="#e2e6bc" class="fill" d="M103.651,67.31c0.339-0.383,0.638-0.721,0.988-1.116
	c0.526,0.414,1.041,0.818,1.557,1.224c-0.406,0.368-0.79,0.715-1.215,1.101C104.614,68.185,104.17,67.78,103.651,67.31z"></path>
</svg>