<svg style="top: 53%; left: 54%; height: 42%; width: 42%;" version="1.1" id="svg_4619" xmlns="http://www.w3.org/2000/svg" xmlns:xlink="http://www.w3.org/1999/xlink" x="0px" y="0px" width="200px" height="200px" viewBox="0 0 200 200" enable-background="new 0 0 200 200" xml:space="preserve">
<path class="stroke" fill="#492208" d="M183.37,78.818c0.365-0.894,1.374-1.578,0.816-2.638c-0.568-0.562-1.1-1.084-1.638-1.615
	c0.178-0.53,0.339-1.007,0.571-1.696c-0.377-0.272-0.79-0.569-1.247-0.901c0.627-1.92,1.229-3.778,1.84-5.635
	c0.409-1.239,0.781-2.494,1.259-3.706c0.904-2.292,1.511-4.604,0.89-7.219c-0.294-0.043-0.522-0.106-0.746-0.104
	c-2.333,0.037-4.675-0.025-6.995,0.166c-1.709,0.14-3.465,0.348-5.012,1.219c-2.237,1.264-4.448,2.577-6.675,3.861
	c-0.678,0.391-1.368,0.762-1.928,1.072c-0.883-0.262-1.279-1.166-2.263-0.871c-0.239,0.221-0.54,0.498-0.87,0.804
	c-2.238-0.524-4.338,1.155-6.588,0.449c-0.97-1.664-2.77-2.193-4.062-3.303c-0.47,0.091-0.827,0.161-1.186,0.23
	c-1.357-0.535-2.755-0.849-4.149-1.178c-2.316-0.548-4.627-1.123-6.95-1.645c-0.39-0.087-0.828,0.036-1.391,0.07
	c0.257,2.01,0.361,3.838,0.749,5.604c0.488,2.232,1.263,4.4,1.806,6.62c0.358,1.47,1.312,2.823,0.95,4.463
	c-0.856,1.044-1.712,2.096-2.578,3.139c-1.644,1.976-3.856,2.964-6.316,3.257c-3.917,0.468-7.725-0.48-11.519-1.27
	c-3.197-0.668-6.352-1.536-9.537-2.258c-1.318-0.3-2.674-0.431-4.006-0.671c-2.814-0.505-5.655-0.738-8.506-0.687
	c-4.698,0.086-9.13,1.382-13.392,3.27c-3.674,1.627-7.295,3.37-10.968,5.003c-1.486,0.658-3.042,1.163-4.569,1.732
	c-0.71,0.264-1.35,0.088-2.012-0.246c-3.915-1.983-6.813-5.03-9.146-8.674c-0.301-0.469-0.533-0.989-0.731-1.514
	c-0.741-1.966-1.469-3.938-2.179-5.916c-1.904-5.286-5.025-9.722-9.566-13.024c-2.335-1.699-4.893-3.106-7.422-4.516
	c-2.006-1.117-3.497-2.626-4.366-4.741c-0.552-1.338-1.076-2.688-1.604-4.037c-0.291-0.738-0.537-1.494-0.861-2.217
	c-0.229-0.514-0.562-0.979-1.415-0.946c-0.068,0.408-0.193,0.837-0.203,1.269c-0.022,1.029,0.021,2.059,0.009,3.088
	c-0.003,0.269-0.113,0.538-0.21,0.968c-1.287-2.647-1.287-2.647-2.21-2.807c-0.811,2.026-1.629,4.07-2.494,6.232
	c-1.115-1.876-0.803-4.171-2.343-5.765c-2.592,2.121-3.646,4.978-4.462,8.133c-0.7-0.873-1.233-1.539-1.894-2.362
	c-0.502,0.639-0.901,1.082-1.228,1.573c-1.346,2.036-1.941,4.347-2.24,6.72c-0.203,1.612-0.381,3.279-0.196,4.88
	c0.327,2.821,0.88,5.624,2.006,8.271c0.06,0.141,0.008,0.331,0.008,0.697c-0.845-0.302-1.535-0.549-2.341-0.835
	c-0.273,0.068-0.652,0.165-1.109,0.28c0.501,1.663,0.917,3.271,2.018,4.52c1.078,1.225,2.318,2.312,3.673,3.642
	c-1.318,0-2.413,0-3.565,0c0,0.415-0.105,0.753,0.018,0.949c1.306,2.078,3.521,3.137,5.395,4.663
	c-0.336,0.235-0.62,0.433-0.936,0.653c0.045,0.449,0.087,0.858,0.13,1.266c2.042,1.954,4.421,3.365,6.957,4.88
	c-0.775,0.237-1.3,0.397-1.796,0.548c-0.115,1.077-0.125,1.093,0.715,1.619c2.351,1.468,4.854,2.608,7.478,3.493
	c0.212,0.07,0.404,0.195,0.632,0.306c-0.102,0.404-0.189,0.753-0.328,1.299c0.675,0.447,1.309,1.009,2.048,1.333
	c2.581,1.136,5.269,1.896,8.103,2.073c0.921,0.058,1.836,0.214,2.725,0.323c-0.269,0.618-0.484,1.122-0.732,1.693
	c2.776,1.783,5.852,1.697,8.73,2.369c-0.151,0.758-1.39,0.949-0.828,1.975c3.08,1.208,6.348,1.023,9.647,0.938
	c0.061,1.146,0.117,2.2,0.169,3.173c1.205,0.934,1.807-0.725,2.77-0.424c0.079,1.438,0.156,2.86,0.244,4.475
	c0.812-0.069,1.408-0.122,2.07-0.179c0.529,1.343,1.125,2.664,1.572,4.036c0.688,2.103,1.177,4.292,0.691,6.48
	c-0.616,2.788-1.622,5.45-3.326,7.81c-0.588,0.816-0.988,1.77-1.395,2.513c0.172,0.693,0.268,1.152,0.398,1.6
	c0.901,3.095,1.765,6.201,2.73,9.275c0.91,2.893,1.922,5.754,2.912,8.621c0.15,0.438,0.43,0.828,0.641,1.245
	c0.471,0.931,1.25,1.308,2.264,1.395c1.629,0.141,3.25,0.342,4.874,0.532c3.059,0.361,6.408-0.458,7.181-4.171
	c-0.589-1.835-1.532-2.901-3.236-3.545c-0.973-3.283-1.525-6.705-1.509-10.362c2.389-1.705,4.764-3.397,7.222-5.148
	c0.223,0.479,0.378,0.762,0.492,1.06c1.569,4.048,3.129,8.1,4.696,12.147c0.472,1.221,0.962,2.435,1.431,3.655
	c0.292,0.762,0.786,1.196,1.63,1.341c0.963,0.165,1.907,0.453,2.843,0.742c1.854,0.571,3.709,0.913,5.592,0.255
	c0.393-0.302,0.792-0.592,1.236-0.773c1.529-0.627,2.255-1.965,1.919-3.609c-0.379-1.859-1.485-3.055-3.271-3.68
	c-0.91-0.318-1.791-0.723-2.603-1.055c-0.894-3.317-1.601-6.447-1.801-9.603c0.58-0.538,11.071-13.191,11.685-14.077
	c1.363,0.135,2.76,0.226,4.142,0.425c1.334,0.193,2.648,0.518,3.978,0.752c1.348,0.239,2.748-0.287,4.303,0.224
	c-0.773,1.213-1.463,2.29-2.235,3.5c0.832,0.382,1.613,0.74,2.501,1.148c-0.148,1.151-0.137,2.354-0.486,3.443
	c-0.581,1.818-0.629,3.695-0.731,5.538c-0.233,4.164-0.688,8.287-1.566,12.36c-0.213,0.983-0.08,1.854,0.425,2.686
	c0.458,0.76,1.082,1.445,1.408,2.256c0.706,1.758,2.03,2.314,3.773,2.266c0.375-0.012,0.749,0.037,1.124,0.03
	c1.681-0.028,3.363-0.052,5.044-0.108c0.951-0.032,1.823-0.407,2.123-1.334c0.387-1.2,0.57-2.483-0.188-3.648
	c-0.761-1.167-1.568-2.303-2.479-3.634c0.188-0.587,0.409-1.339,0.666-2.079c0.904-2.604,1.838-5.198,2.725-7.808
	c0.81-2.388,1.568-4.793,2.365-7.187c0.066-0.2,0.242-0.363,0.364-0.537c0.378,0.208,0.691,0.381,1.037,0.571
	c2.067-1.078,1.501-3.298,2.19-4.838c0.615-0.152,1.156-0.289,1.838-0.459c0.3,0.889,0.616,1.827,0.979,2.901
	c1.416-0.438,1.89-2.109,3.418-2.207c0,0.517,0,0.974,0,1.431c0.408,0.823,0.646,1.669,0.785,2.53
	c0.343,2.119,0.647,4.243,0.953,6.368c0.141,0.968,0.115,1.981,0.397,2.902c0.495,1.613,0.411,3.231,0.338,4.863
	c-0.063,1.448-0.125,2.897-0.197,4.345c-0.083,1.655,0.388,3.039,1.892,3.949c0.596,0.049,1.199,0.114,1.805,0.148
	c2.517,0.141,5.032,0.357,7.548,0.366c1.107,0.005,2.389,0.06,3.234-1.184c0.41-3.091-1.631-5-3.607-6.942
	c-0.729-2.081-0.254-4.039,0.535-5.995c0.398-0.987,0.682-2.026,0.951-3.061c0.351-1.348,0.636-2.713,0.949-4.078
	c0.421-0.084,0.772-0.154,1.306-0.263c0.401-1.272,0.873-2.583,1.225-3.926c0.605-2.315,0.899-4.677,0.883-7.077
	c-0.006-0.592,0.185-1.183,0.289-1.799c0.396,0,0.707,0,0.906,0c1.22-1.186,0.612-2.761,1.138-4.128
	c0.653,0.338,1.243,0.644,2.05,1.062c0.291-1.344,0.541-2.5,0.793-3.657c0.605-0.236,1.164-0.453,1.854-0.723
	c0.073-0.82,0.292-1.665,0.193-2.472c-0.236-1.931,1.019-3.288,1.504-4.837c0.778,0.104,1.384,0.185,2.144,0.286
	c0.081-1.46,0.149-2.701,0.215-3.889c1.479-0.676,1.551-1.694,1.469-3.517c0.324-0.124,0.663-0.253,1.199-0.458
	c0.085-0.859,0.296-1.775,0.233-2.671c-0.081-1.15,0.282-1.985,1.157-2.69c0.469-0.378,0.858-0.854,1.287-1.285
	c0.658-0.66,0.873-1.41,0.488-2.2c0.287-0.713,0.546-1.349,0.773-1.911c-0.46-0.702-0.839-1.28-1.244-1.9
	c0.572-0.847,1.108-1.639,1.684-2.488C184.408,79.906,183.901,79.375,183.37,78.818z"></path>
<path fill-rule="evenodd" clip-rule="evenodd" fill="#f4751a" class="fill" d="M142.081,73.404c0-0.465,0-0.916,0-1.434
	c1.679-0.241,3.418-0.018,4.974-1.204c-1.044-0.526-1.752,0.29-2.561,0.335c-0.822,0.046-1.637,0.258-2.531,0.408
	c-0.105-0.3-0.209-0.592-0.359-1.018c0.838,0,1.565,0.055,2.279-0.016c0.695-0.068,1.491-0.104,1.658-1.157
	c-0.803,0.111-1.517,0.275-2.233,0.291c-0.691,0.016-1.387-0.123-2.138-0.198c-0.113-0.372-0.215-0.712-0.338-1.116
	c1.408-0.215,2.722,0.569,4.063,0.073c-0.431-0.623-0.431-0.623-4.4-1.067c-0.915-2.829-1.921-5.693-1.936-8.773
	c0.096-0.071,0.192-0.141,0.288-0.211c0.624,0.448,1.318,0.826,1.855,1.359c0.822,0.821,1.675,1.665,2.268,2.647
	c1.556,2.574,3.65,4.598,6.035,6.361c0.675,0.498,1.376,0.96,2.183,1.519c0.235-0.171,0.501-0.365,0.893-0.65
	c-2.173-1.771-4.218-3.436-6.391-5.206c0.493-0.33,0.783-0.522,1.126-0.75c0.097-0.304,0.208-0.653,0.252-0.792
	c1.039-0.763,1.92-1.407,3.02-2.216c1.461,0.877,2.736,2.458,4.075,3.343c2.618-0.093,4.912-0.038,7.17-0.294
	c2.11-0.24,4.173-0.811,5.992-2.042c0.92-0.623,1.925-1.124,2.706-1.574c0.989,0.335,1.751,0.594,2.658,0.9
	c-1.296,1.293-2.616,2.61-4.047,4.04c0.446,0.233,0.702,0.365,1.074,0.559c3.963-4.496,8.621-7.771,14.804-8.692
	c-0.108,1.432-0.398,2.792-1.065,4.27c-0.434-0.679-0.785-1.23-1.177-1.849c-0.332,0.188-0.552,0.313-0.952,0.539
	c0.597,0.853,1.136,1.62,1.849,2.636c-1.077,3.069-2.26,6.44-3.39,9.661c0.385,0.669,0.642,1.109,0.911,1.578
	c-0.179,0.341-0.345,0.661-0.526,1.004c0.578,0.967,1.98,1.201,2.197,2.741c-0.438,0.466-0.988,1.055-1.608,1.717
	c0.611,0.62,1.221,1.238,1.764,1.789c-0.055,1.227-1.025,1.612-1.774,2.309c0.604,0.634,1.162,1.223,1.714,1.804
	c-0.332,1.225-1.589,1.539-2.143,2.566c0.306,0.335,0.609,0.668,0.948,1.042c-0.283,1.235-1.482,1.522-2.436,2.151
	c0.248,0.912,0.489,1.796,0.753,2.767c-0.771,0.411-1.491,0.794-2.177,1.158c0.216,1.017,0.404,1.91,0.604,2.856
	c-0.764,0.303-1.394,0.553-1.999,0.793c0.165,1.162,0.315,2.199,0.461,3.224c-1.063,0.156-1.949,0.286-2.873,0.421
	c-0.046,0.8-0.081,1.428-0.125,2.201c-0.493-0.095-0.883-0.235-1.271-0.226c-0.395,0.01-0.788,0.168-1.189,0.261
	c-0.268,0.732-0.5,1.375-0.732,2.017c-0.793-0.147-1.508-0.282-2.349-0.438c-0.3,0.749-0.564,1.411-0.837,2.092
	c-1.307,0.018-2.421-0.997-3.749-0.492c-0.249,0.429-0.501,0.86-0.776,1.335c-0.779-0.326-1.48-0.711-2.23-0.912
	c-0.974-0.263-1.289,0.736-1.916,1.236c-1.035-0.423-1.444-1.804-2.818-1.778c-0.307,0.237-0.658,0.51-1.122,0.87
	c-0.403-0.753-0.771-1.44-1.141-2.134c-1.07-0.482-1.846,0.481-2.953,0.553c-0.129-0.915-0.26-1.852-0.414-2.952
	c-0.807,0.064-1.515,0.12-2.354,0.188c-0.086-1.541-0.169-3.055-0.26-4.716c-0.92,0.109-1.682,0.198-2.523,0.299
	c0.103-1.149,0.195-2.22,0.292-3.309c-0.713-0.076-1.214-0.129-1.847-0.197c0.374-1.139,0.723-2.201,1.143-3.478
	c-0.585,0.101-0.88,0.152-0.936,0.162c-0.734,1.385-1.375,2.59-2.09,3.937c0.588,0.198,1.221,0.414,1.924,0.654
	c0.281,1.29-1.213,2.291-0.723,3.76c0.543,0,1.091,0.045,1.628-0.011c0.499-0.055,0.987-0.216,1.687-0.375
	c-0.228,1.448-0.43,2.754-0.629,4.028c0.962,0.727,1.987,0.376,3.012,0.526c-0.045,1.03-0.091,2.024-0.133,3.007
	c1.231,0.692,2.294-0.194,3.443-0.03c0.804,0.771,1.014,2.156,2.212,2.624c0.692-0.379,1.3-0.712,1.957-1.071
	c0.2,0.229,0.361,0.413,0.545,0.624c-0.646,0.657-1.833,0.2-2.142,1.336c1.096,0.551,1.859-0.252,2.748-0.6
	c0.393,0.199,0.806,0.407,1.244,0.629c0.96-0.182,1.361-1.063,2.095-1.692c0.716,0.367,1.469,0.754,2.291,1.175
	c0.685-0.6,1.271-1.114,1.869-1.637c1.363-0.262,1.911,1.335,3.212,1.543c0.426-0.938,0.824-1.811,1.227-2.695
	c0.908,0.02,1.539,1.065,2.518,0.39c0.198-0.522,0.426-1.123,0.711-1.874c0.709,1.049,0.14,1.861-0.081,2.736
	c-0.405,0.143-0.79,0.277-1.234,0.431c-0.163,0.714-0.325,1.426-0.507,2.22c-1.094-0.128-2.119-0.247-3.074-0.358
	c-0.787,1.423-0.041,2.76-0.341,4.116c-0.967-0.207-1.883-0.404-3.014-0.647c-0.173,1.621-0.323,3.023-0.489,4.571
	c-0.814-0.376-1.468-0.674-2.29-1.052c-0.482,1.046-0.922,1.997-1.417,3.074c-0.82-0.699-1.569-1.338-2.391-2.037
	c-0.959,1.209-1.816,2.291-2.822,3.56c-0.357-0.537-0.612-0.918-0.926-1.388c-1.158,0.771-2.185,1.454-3.264,2.172
	c-0.312-0.548-0.557-0.978-0.88-1.54c-1.244,0.481-2.444,0.944-3.778,1.459c-0.133-0.429-0.262-0.848-0.338-1.097
	c0.802-1.109,1.493-2.066,2.279-3.155c0.282,0.484,0.5,0.861,0.769,1.321c0.498,0,1.046,0,1.838,0
	c1.056-1.162,2.211-2.434,3.569-3.929c0.548-0.217,1.369-0.595,1.236-1.894c-2.328,0.328-3.104,2.665-4.915,3.759
	c-0.385-0.84,0.062-2.352-1.737-2.037c-0.695,0.814-1.45,1.699-2.213,2.594c-1.191,0.086-2.082,0.631-3.3,2.849
	c-0.328,0.034-0.688,0.069-1.044,0.105c-1.482,1.382-1.255,3.378-1.917,5.13c-0.303-0.193-0.557-0.356-0.88-0.564
	c-1.725,0.91-2.258,2.603-2.724,4.217c-3.259,2.804-6.716,2.54-10.519,0.804c-0.676-0.766-0.94-1.833-0.611-3.146
	c0.289-1.158,0.359-2.373,0.526-3.555c-0.377-0.196-0.612-0.32-0.935-0.489c0.676-1.474,1.309-2.974,1.309-4.719
	c-0.344-0.159-0.699-0.324-1.09-0.505c0.383-1.202,1.312-2.216,1.068-3.655c-0.445-0.175-0.906-0.354-1.541-0.602
	c1.359-1.667,3.06-3.066,3.439-5.432c-0.482,0.025-0.824,0.045-1.238,0.067c-0.896,2.554-3.191,3.842-5.096,5.765
	c0.905,0.509,1.652,0.931,2.459,1.385c-0.158,1.197-1.059,1.923-1.746,2.89c-3.793,0.021-7.463-1.015-11.196-1.52
	c-3.748-0.505-7.46-1.186-11.149-2.687c-0.825-1.006-1.151-1.109-2.229-0.42c0.626,0.342,1.164,0.638,1.763,0.966
	c-0.143,0.275-0.263,0.508-0.363,0.704c-0.688,0.17-1.39-0.766-2.001,0.231c0.272,0.174,0.534,0.339,0.794,0.503
	c0.271,0.172,0.544,0.343,0.895,0.562c-0.119,0.361-0.225,0.689-0.317,0.971c-0.853,0.127-1.582-0.931-2.521,0.126
	c0.749,0.335,1.397,0.622,2.166,0.965c-0.19,0.438-0.385,0.884-0.584,1.341c-0.919-0.344-1.646-1.363-2.788-0.353
	c0.766,0.416,1.438,0.78,2.179,1.184c-0.193,0.34-0.345,0.606-0.51,0.897c-0.84-0.018-1.58-0.969-2.708-0.118
	c0.781,0.407,1.364,0.713,2.127,1.109c-0.521,0.691-0.98,1.302-1.41,1.873c-0.747,0.07-1.319-1.143-2.079-0.048
	c0.387,0.318,0.764,0.63,1.24,1.022c-0.31,0.395-0.581,0.743-0.902,1.154c-0.453-0.267-0.835-0.493-1.283-0.757
	c-0.172,0.11-0.352,0.227-0.635,0.411c0.334,0.456,0.618,0.845,0.967,1.32c-0.53,0.479-1.04,0.94-1.477,1.337
	c-0.579,0.053-0.884-0.897-1.509-0.083c0.072,0.26,0.166,0.593,0.28,1c-0.242,0.16-0.504,0.335-1.003,0.667
	c-0.169-0.385-0.339-0.773-0.486-1.113c-0.411,0.195-0.571,0.271-0.798,0.378c0.071,0.423,0.141,0.819,0.226,1.318
	c-0.28,0.221-0.599,0.471-0.973,0.767c-0.398-0.38-0.751-0.718-1.126-1.076c-0.194,0.148-0.335,0.255-0.526,0.401
	c0.146,0.454,0.286,0.885,0.451,1.398c-0.228,0.171-0.476,0.358-0.79,0.596c-0.344-0.601-0.654-1.143-1.004-1.753
	c-0.322,0.151-0.55,0.258-0.847,0.396c0.319,0.656,0.6,1.23,0.932,1.911c-0.423,0.166-0.788,0.309-1.204,0.472
	c-0.252-0.606-0.46-1.105-0.703-1.688c-0.305,0.117-0.542,0.206-0.83,0.317c0.121,0.516,0.224,0.953,0.343,1.459
	c-0.552,0.171-1.08,0.336-1.645,0.514c-0.209-0.267-0.397-0.505-0.567-0.723c-1.029,0.151-0.51,0.829-0.533,1.44
	c-2.691,1.714-2.459,4.628-2.686,7.349c-0.119,1.441-0.075,2.897-0.084,4.345c-0.008,1.095,0.102,2.159,1.037,2.98
	c1.455,0.529,2.812,0.048,4.127-0.541c3.021,0.656,3.883,1.926,2.407,3.63c-0.339-0.622-0.62-1.258-1.011-1.818
	c-0.491-0.702-0.756-0.695-1.617-0.107c0.377,0.903,1.348,1.577,1.159,2.847c-0.431,0.107-0.911,0.228-1.457,0.362
	c-0.287-0.464-0.546-0.885-0.822-1.331c-0.872-0.007-0.917,0.605-0.941,1.215c-4.136-0.232-5.956-1.192-7.118-4.407
	c0.481-0.211,0.994-0.392,1.46-0.651c0.432-0.24,1.114-0.335,0.885-1.361c-0.9,0.459-1.696,0.868-2.64,1.351
	c-0.226-0.574-0.466-1.188-0.713-1.823c0.739-0.394,1.362-0.688,1.949-1.045c0.533-0.324,1.023-0.717,1.662-1.17
	c-1.037-0.625-1.463,0.19-2.029,0.427c-0.593,0.247-1.146,0.582-1.808,0.926c-0.174-0.512-0.303-0.891-0.447-1.317
	c0.86-1.028,2.573-1.09,2.941-2.679c-0.814-0.347-1.061,0.42-1.53,0.675c-0.526,0.286-1.049,0.578-1.662,0.917
	c-0.222-0.4-0.391-0.706-0.57-1.028c1.018-1.276,2.879-1.522,3.652-3.382c-1.59,0.378-2.424,1.683-3.826,2.095
	c-0.106-0.255-0.218-0.521-0.33-0.791c0.765-0.611,1.721-0.895,2.162-1.834c-0.621-0.456-0.861,0.157-1.221,0.332
	c-0.369,0.182-0.718,0.402-1.197,0.674c-0.916-1.96-1.659-3.853-1.784-5.92c-0.028-0.467,0.245-0.996,0.495-1.428
	c1.51-2.595,2.597-5.381,3.688-8.158c0.777-1.979,0.961-4.093,0.743-6.205c-0.07-0.673-0.412-1.33-0.698-1.965
	c-0.959-2.121-1.948-4.229-2.976-6.452c-0.289,0.048-0.728,0.124-1.232,0.209c-0.604-1.481,0.304-2.926,0.137-4.575
	c-0.902,0.157-1.738,0.301-2.645,0.459c-0.171-1.395,0.308-2.607,0.791-3.812c0.84-2.086,1.794-4.109,3.173-5.909
	c0.343-0.448,0.585-0.971,0.085-1.49c-1.26,0.359-3.568,3.532-5.275,7.24c-2.206,0.773-4.524,1.105-7.001,0.748
	c0.093-0.848,0.995-0.774,1.394-1.339c-0.096-0.289-0.206-0.626-0.324-0.984c-2.91,0.171-5.747,0.221-8.396-1.402
	c0.171-0.323,0.276-0.569,0.419-0.789c0.127-0.192,0.296-0.356,0.471-0.561c-0.029-0.314-0.06-0.629-0.086-0.921
	c-0.189-0.096-0.307-0.199-0.434-0.214c-0.744-0.073-1.492-0.108-2.233-0.194c-2.364-0.272-4.737-0.499-7.088-0.869
	c-1.411-0.225-2.714-0.837-4.163-1.876c1.018-0.174,1.695-0.288,2.452-0.418c0-0.268,0-0.573,0-1.034
	c-3.26-0.427-6.419-1.308-9.582-2.945c0.966-0.499,1.735-0.895,2.608-1.347c0.027-0.244,0.064-0.556,0.113-0.973
	c-2.82-0.926-5.68-1.782-8.076-3.725c0.647-1.2,2.485-0.661,2.605-2.206c2.137,0.252,4.139,0.872,6.201,1.034
	c0.072-0.104,0.146-0.205,0.217-0.308c-0.43-0.76-0.86-1.52-1.348-2.379c1.649-0.275,2.807,0.927,4.271,1.05
	c0.88-1.201-0.182-2.368,0.041-3.618c1.615,0.382,2.805,1.749,4.598,2.052c0-1.646,0-3.157,0-4.968
	c1.647,0.899,3.094,1.649,4.326,2.983c0.989-1.228,0.24-2.507,0.572-3.691c1.004,0.224,1.684,1.441,3.068,0.903
	c0.421-1.807-1.012-3.253-1.351-5.067c1.543,0.124,2.479,1.439,3.922,1.927c0.759-1.836-0.135-3.367-0.524-5.032
	c0.563-0.116,0.894,0.24,1.211,0.523c0.452,0.405,0.86,0.858,1.275,1.301c0.354,0.375,0.711,0.632,1.244,0.127
	c-0.043-0.454-0.089-0.951-0.164-1.756c0.297,0.396,0.478,0.559,0.562,0.76c0.541,1.293,1.132,2.57,1.579,3.896
	c1.658,4.913,4.496,8.89,8.973,11.62c0.917,0.561,1.854,1.118,2.662,1.818c1.126,0.976,2.306,0.932,3.526,0.401
	c1.669-0.726,3.309-1.52,4.947-2.314c0.367-0.181,0.666-0.499,1.008-0.738c0.411-0.292,0.807-0.624,1.256-0.84
	c1.469-0.715,2.93-1.467,4.449-2.056c3.525-1.365,7.06-2.718,10.644-3.915c1.165-0.39,2.495-0.38,3.749-0.374
	c1.585,0.004,3.168,0.199,4.752,0.299c0.744,0.047,1.502-0.003,2.234,0.108c2.4,0.365,4.806,0.71,7.183,1.199
	c3.751,0.772,7.501,1.569,11.208,2.522c2.229,0.571,4.439,1.138,6.748,1.131c2.007-0.006,4.021-0.013,6.016-0.196
	c0.787-0.072,1.709-0.445,2.264-0.992c1.584-1.555,3.555-2.756,4.597-4.827C141.154,75.163,141.593,74.343,142.081,73.404z
	 M164.667,95.934c-1.146-0.167-2.18-0.468-2.566-1.784c0.306-0.284,0.597-0.52,0.845-0.794c0.503-0.556,0.702-1.205,0.48-1.943
	c-0.363-1.196-2.012-2.306-3.197-1.992c-1.354,0.359-2.623,0.96-3.487,2.091c-0.141,2.226,1.938,2.271,3.11,3.259
	c-0.44,0.479-0.81,0.882-1.102,1.2c-2.614,0.23-4.32-0.379-5.244-3.104c0.232-0.591,0.51-1.327,0.809-2.056
	c0.459-1.116,0.939-2.225,1.396-3.345c0.757-1.858,0.433-3.924,1.088-5.806c0.04-0.121,0.021-0.294-0.035-0.412
	c-0.552-1.127-1.062-2.282-1.71-3.352c-0.236-0.394-0.779-0.765-1.231-0.838c-1.947-0.313-3.814-0.136-5.319,1.251
	c-0.32,2.593,1.492,4.223,3.415,4.385c0.868,0.073,1.756-0.065,2.634-0.112c0.354-0.018,0.708-0.047,1.103-0.074
	c-0.646,1.885-1.2,3.659-1.872,5.389c-0.256,0.659-0.549,1.398-1.402,1.755c-0.242-0.473-0.467-0.917-0.711-1.396
	c-0.766-0.269-1.559-0.541-2.346-0.829c-0.791-0.291-1.271-1.202-2.414-1.231c0.53,2.097,2.281,2.365,3.873,2.975
	c0.333,1.429,0.678,2.875,1.007,4.327c0.368,1.619,1.085,3.01,2.661,3.737c0.954,0.441,1.976,0.741,3.246,1.207
	c1.229,1.1,2.789,1.245,4.461,0.14c0.598-0.394,1.169-0.666,1.907-0.756c2.695-0.329,4.542-1.819,5.468-4.375
	c0.396-1.091,0.665-2.227,0.992-3.342c1.604-1.336,2.504-2.56,2.594-3.639c-1.01,0.636-1.964,1.238-2.946,1.856
	c-0.149-0.441-0.246-0.721-0.358-1.057c-0.789,0.304-1.052,0.902-1.238,1.527c-0.387,1.297-0.731,2.606-1.107,3.907
	C167.051,94.149,166.359,95.379,164.667,95.934z M92.966,114.687c-1.509,0.382-2.829,0.652-4.106,1.055
	c-2.742,0.866-3.071,1.073-3.615,2.008c0.854,0.096,1.646,0.183,2.509,0.279c-0.245,1.406-1.792,1.488-2.344,2.562
	c0.379,0.23,0.691,0.421,1.022,0.621c-0.906,0.746-1.71,1.409-2.62,2.159c0.492,0.314,0.782,0.502,1.177,0.753
	c-0.84,0.679-1.604,1.295-2.511,2.027c0.756,0.349,1.281,0.591,1.975,0.911c-1.146,0.866-2.168,1.643-3.165,2.396
	c0.097,0.342,0.168,0.59,0.214,0.75c-0.394,0.382-0.704,0.687-1.069,1.041c0.954,0.717,1.902,0.766,2.811,0.59
	c3.061-0.593,5.478-2.23,6.885-5.01c1.418-2.8,2.127-5.876,2.809-8.927C93.141,116.979,92.966,115.97,92.966,114.687z
	 M164.321,81.244c0.94,0.16,1.839,0.194,2.653,0.474c2.566,0.882,4.716-0.253,5.377-2.9c-0.649-0.609-1.256-1.246-1.937-1.793
	c-1.292-1.041-2.276-0.919-4.323,0.442C164.604,78.455,163.944,79.812,164.321,81.244z M69.191,139.044
	c1.615-1.802,3.165-3.37,3.352-5.822c-0.213-0.341-0.456-0.731-0.682-1.093c-0.44-0.167-0.824-0.312-1.356-0.515
	c-1.174,2.151-3.374,3.782-2.896,6.705C68.167,138.574,68.658,138.799,69.191,139.044z M167.138,89.626
	c0.022-0.412,0.151-0.92,0.057-1.382c-0.294-1.411-0.671-2.806-1.021-4.204c-0.022-0.085-0.096-0.159-0.184-0.301
	c-0.309-0.15-0.672-0.326-0.986-0.479c-0.166,0.09-0.268,0.116-0.323,0.182c-0.089,0.102-0.194,0.224-0.212,0.349
	c-0.281,1.922,0.182,3.704,1.09,5.378C165.847,89.7,166.332,89.974,167.138,89.626z M38.176,91.369
	c-0.177,0.614,0.263,0.781,0.691,0.974c1.189,0.535,2.384,1.059,3.555,1.629c1.478,0.719,3.031,1.003,4.781,1.035
	C46.143,94.143,39.113,91.334,38.176,91.369z M117.532,105.455c-0.496-0.35-0.729-0.646-0.989-0.675
	c-2.056-0.223-4.115-0.256-6.206-0.097c0,0.441,0,0.736,0,1.134c2.022,0.064,3.965,0.149,5.907,0.166
	C116.592,105.986,116.939,105.707,117.532,105.455z M115.045,81.477c0.605,0.195,0.934,0.342,1.274,0.402
	c1.185,0.21,2.378,0.396,3.567,0.582c0.69,0.106,1.38,0.228,2.074,0.276c0.499,0.035,0.931-0.111,0.813-0.77
	C120.283,81.173,116.188,80.811,115.045,81.477z M130.183,132.63c0.22,0.101,0.377,0.22,0.55,0.244
	c1.738,0.261,3.173-0.501,4.53-1.429c0.384-0.262,0.411-0.71,0.024-0.997c-1.715,0.521-3.377,1.024-5.137,1.559
	C130.155,132.098,130.168,132.361,130.183,132.63z M87.987,82.233c0.01-0.131,0.021-0.264,0.028-0.396
	c-0.318-0.05-0.659-0.196-0.949-0.131c-1.98,0.451-3.976,0.885-5.705,2.084c0.424,0.621,0.934,0.472,1.423,0.316
	c1.51-0.48,3.013-0.969,4.515-1.474C87.545,82.552,87.758,82.37,87.987,82.233z M105.838,116.038
	c1.263,0.732,2.286,0.048,3.282-0.312c0.89-0.323,1.94-0.546,2.435-1.778c-1.767,0.468-3.367,0.886-4.964,1.321
	c-0.174,0.047-0.341,0.16-0.476,0.279C106.02,115.632,105.98,115.776,105.838,116.038z M176.186,63.59
	c0.906,1.335,3.757,2.575,5.227,2.176c-1.291-1.516-3.286-1.522-4.636-2.675C176.508,63.318,176.344,63.456,176.186,63.59z
	 M175.16,65.881c-0.013,0.163-0.025,0.326-0.038,0.488c0.886,0.353,1.745,0.79,2.661,1.032c0.912,0.243,1.76,0.973,3.033,0.544
	c-1.268-1.444-2.979-1.55-4.419-2.159C176.059,65.644,175.578,65.841,175.16,65.881z M99.564,79.057
	c0.502,0.641,1.722,0.899,4.101,0.829c0.526-0.016,1.118-0.02,1.337-0.697C103.651,78.494,100.475,78.434,99.564,79.057z
	 M90.774,80.774c0.579,0.619,1.091,0.704,1.721,0.422c0.966-0.433,1.949-0.823,2.926-1.23c0.452-0.188,1.038-0.245,0.946-1.088
	C94.291,78.857,92.565,79.74,90.774,80.774z M124.275,108.173c0.252,0,0.485,0.065,0.658-0.011c1.011-0.437,4.447-2.771,4.748-3.19
	c-0.84-0.2-0.969-0.18-1.91,0.316C125.482,106.495,124.673,107.145,124.275,108.173z M141.664,115.44
	c-0.679,1.779-2.61,2.456-3.449,4.319c0.42,0,0.771,0.108,0.91-0.018c0.959-0.873,1.92-1.755,2.782-2.723
	C142.257,116.63,142.395,116.014,141.664,115.44z M63.653,99.775c-1.869,0.613-2.577,2.301-3.658,3.705
	c0.222,0.258,0.391,0.455,0.712,0.829C61.631,102.647,63.219,101.647,63.653,99.775z M43.363,80.218
	c0.882,1.543,1.896,2.889,3.276,3.931c0.286,0.217,0.67,0.304,1.01,0.451c0.083-0.112,0.169-0.225,0.254-0.337
	c-0.851-1.428-2.441-2.265-3.261-3.729C44.461,80.209,44.119,79.843,43.363,80.218z M135.499,128.803
	c-0.092-0.073-0.186-0.146-0.278-0.22c-1.493,0.421-2.986,0.842-4.599,1.298c0.2,0.413,0.312,0.639,0.444,0.909
	c1.508-0.06,2.888-0.394,4.107-1.227C135.365,129.434,135.396,129.062,135.499,128.803z M124.654,104.475
	c0.033,0.133,0.067,0.266,0.101,0.397c0.325-0.021,0.692,0.049,0.965-0.079c1.462-0.688,2.905-1.414,4.336-2.163
	c0.178-0.095,0.239-0.409,0.354-0.622c-0.066-0.086-0.135-0.172-0.201-0.259C128.199,102.336,126.384,103.315,124.654,104.475z
	 M128.934,106.311c-1.729,1.365-3.537,2.319-4.682,4.101c0.351,0.078,0.701,0.113,0.906-0.041c1.401-1.062,2.771-2.162,4.193-3.283
	C129.214,106.832,129.113,106.644,128.934,106.311z M83.778,101.604c0.659,0.636,1.036,0.393,1.407,0.057
	c0.9-0.816,1.806-1.626,2.701-2.445c0.43-0.394,0.676-0.836,0.281-1.585C86.655,99,85.249,100.272,83.778,101.604z M102.906,114.871
	c0.217,0.51,0.664,0.499,1.049,0.334c1.362-0.591,2.709-1.219,4.043-1.87c0.173-0.084,0.236-0.394,0.35-0.599
	c-1.745,0.389-3.334,0.968-4.918,1.561c-0.165,0.062-0.312,0.188-0.444,0.31C102.93,114.657,102.932,114.773,102.906,114.871z
	 M58.854,102.396c1.022-0.908,2-1.74,2.927-2.625c0.286-0.271,0.338-0.67-0.245-0.935c-1.31,0.616-2.356,1.6-3.308,2.792
	C58.451,101.902,58.613,102.102,58.854,102.396z M120.309,87.201c-1.511-0.113-3.022-0.238-4.535-0.316
	c-0.136-0.007-0.287,0.289-0.439,0.451C116.671,88.311,119.076,88.359,120.309,87.201z M112.867,80.397
	c-1.779-0.479-3.393-0.887-5.108-0.372c0.958,1.124,2.366,0.675,3.536,1.022C111.766,81.189,112.408,81.3,112.867,80.397z
	 M126.42,96.1c1.567,0.3,4.732-0.475,5.316-1.24C130.378,94.445,127.412,95.09,126.42,96.1z M119.017,105.771
	c1.772,0.14,3.146-0.357,4.534-0.692c0.194-0.047,0.305-0.444,0.57-0.864c-1.747,0.065-3.199,0.286-4.6,0.792
	C119.362,105.064,119.286,105.348,119.017,105.771z M96.702,82.302c-0.229-0.644-0.71-0.649-1.075-0.529
	c-1.276,0.422-2.613,0.737-3.794,1.622C92.934,84.008,93.568,83.851,96.702,82.302z M131.093,99.031
	c-0.095-0.117-0.188-0.233-0.283-0.351c-2.105-0.115-4.11,0.613-4.98,1.834c0.106,0.076,0.24,0.235,0.316,0.213
	c1.414-0.429,2.825-0.873,4.23-1.332C130.629,99.313,130.855,99.155,131.093,99.031z M179.085,68.64
	c-1.262-0.512-2.41-0.978-3.558-1.448c-0.505-0.207-0.888-0.129-1.198,0.52c1.055,0.882,2.322,1.165,3.527,1.553
	c0.351-0.118,0.665-0.204,0.964-0.333C178.932,68.883,179,68.737,179.085,68.64z M121.971,84.135
	c-3.208-0.523-3.951-0.478-4.663,0.41c1.555,0.394,3.011,0.618,4.577,0.395C121.916,84.639,121.938,84.425,121.971,84.135z
	 M133.15,91.93c-0.056-0.097-0.112-0.195-0.168-0.294c-2.023-0.26-3.791,0.093-4.623,1.021c1.355,0.571,2.586-0.264,3.835-0.188
	C132.5,92.49,132.83,92.121,133.15,91.93z M88.789,104.198c1.182,0.142,2.142-0.384,3.51-1.729c0.279-0.274,0.771-0.497,0.429-1.167
	C91.266,102.01,89.979,102.807,88.789,104.198z M86.965,102.58c0.398,0.498,0.734,0.499,1.056,0.195
	c1.008-0.955,2.003-1.923,2.996-2.895c0.02-0.021-0.065-0.149-0.125-0.279C89.087,99.904,88.131,101.312,86.965,102.58z
	 M107.638,82.837c0.759,1.06,1.571,0.824,2.26,0.817c0.811-0.007,1.71,0.259,2.413-0.489
	C110.852,82.6,109.396,82.406,107.638,82.837z M115.793,108.331c-2.149-0.836-3.621-0.467-3.621,0.847
	C115.402,109.263,115.402,109.263,115.793,108.331z M146.243,115.92c0.651,0.546,1.082,0.277,1.398-0.162
	c0.666-0.933,2.108-1.343,1.931-2.872C148.168,113.592,147.038,114.554,146.243,115.92z M73.957,86.665
	c0.524,0.69,1.047,0.521,1.57,0.321c1.232-0.475,2.294-1.306,2.592-2.135C76.525,85.122,75.256,85.852,73.957,86.665z
	 M80.995,98.798c0.05,0.146,0.099,0.29,0.149,0.436c0.294,0.024,0.669,0.179,0.868,0.053c1.074-0.673,2.25-1.217,3.364-2.361
	c-0.562-0.091-0.922-0.272-1.114-0.161C83.152,97.403,82.08,98.112,80.995,98.798z M105.393,88.494
	c-1.33-0.677-3.713-0.178-4.464,0.892C102.624,89.749,103.985,89.011,105.393,88.494z M177.58,90.638
	c-0.865-0.951-1.909-1.566-3.102-1.877c-0.249-0.064-0.59,0.222-0.888,0.347c0.004,0.118,0.008,0.234,0.013,0.353
	C174.879,89.977,175.974,90.982,177.58,90.638z M53.462,78.438c-0.729-1.315-1.389-2.508-2.075-3.748
	c-0.721,0.122-0.592,0.62-0.468,1.139C51.277,77.324,52.23,78.369,53.462,78.438z M110.826,117.126
	c0.892,0.563,2.768,0.242,4.109-0.701C113.63,115.712,111.659,116.049,110.826,117.126z M144.988,113.45
	c0.09,0.138,0.178,0.276,0.268,0.417c1.246,0.275,1.627-1.012,2.402-1.568c0.495-0.356,0.613-0.866,0.117-1.598
	C146.788,111.675,145.889,112.562,144.988,113.45z M101.397,92.319c-0.841,0.671-2.381-0.183-2.723,1.666
	c1.339-0.038,2.493-0.104,3.69-0.758C102.018,92.899,101.792,92.689,101.397,92.319z M119.637,100.678
	c1.469,0.884,3.09,0.722,4.116-0.125c-0.94-0.749-1.968-0.216-2.926-0.233C120.434,100.312,120.033,100.552,119.637,100.678z
	 M100.611,82.343c0.373,0.148,0.698,0.406,0.986,0.371c1.083-0.139,2.051-0.625,3.16-1.122
	C103.298,80.954,101.7,81.248,100.611,82.343z M143.105,85.809c-1.06-0.829-2.139-1.546-3.494-1.544
	c-0.176,0-0.353,0.295-0.684,0.593C140.443,85.281,141.597,86.235,143.105,85.809z M59.455,98.296
	c-1.738-0.151-2.52,0.975-3.557,1.857c0.229,0.293,0.379,0.487,0.584,0.75C57.521,100.123,58.727,99.674,59.455,98.296z
	 M114.228,100.761c-0.903-1.148-1.968-1.229-3.163-1.312c-0.096,0.365-0.179,0.682-0.283,1.084
	C111.909,100.751,112.874,101.216,114.228,100.761z M71.929,103.706c0.003,0.135,0.006,0.27,0.009,0.404
	c0.34,0.027,0.719,0.17,1.013,0.065c1.144-0.408,2.34-0.742,3.221-1.701C74.681,102.672,73.219,102.915,71.929,103.706z
	 M57.857,83.77c1.344,0.852,2.076,2.03,3.533,2.441c-0.283-1.297-0.458-1.497-2.247-2.709C58.861,83.561,58.551,83.625,57.857,83.77
	z M138.076,115.955c-1.423-0.098-2.383,0.215-3.158,1.024c-0.331,0.345-0.369,0.724,0.174,1.188
	C135.764,117.171,137.245,117.345,138.076,115.955z M38.369,83.968c0.604,1.325,1.851,1.778,2.865,2.501
	c0.238,0.17,0.596,0.172,0.896,0.252c0.051-0.111,0.101-0.222,0.151-0.332c-0.933-0.86-2.002-1.557-3.052-2.268
	C39.011,83.971,38.66,84.014,38.369,83.968z M51.436,81.774c1.851,1.832,2.224,2.057,3.236,1.875
	c-0.627-1.201-1.636-1.856-2.754-2.496C51.742,81.379,51.609,81.551,51.436,81.774z M131.492,115.887
	c-0.115-0.179-0.151-0.271-0.218-0.326c-0.065-0.057-0.164-0.115-0.243-0.108c-1.237,0.089-2.136,0.798-2.904,1.68
	c-0.111,0.129,0.059,0.504,0.125,0.947C129.469,117.255,130.48,116.571,131.492,115.887z M70.422,113.965
	c1.423,0.498,2.562-0.12,3.88-0.823c-0.349-0.211-0.614-0.495-0.765-0.443C72.483,113.062,71.291,113.08,70.422,113.965z
	 M101.909,102.617c0.043,0.562,0.074,0.982,0.126,1.655c0.998-0.74,2.02,0.208,2.846-0.668
	C104.191,102.617,103.224,102.639,101.909,102.617z M157.591,72.976c-0.104,0.004-0.206,0.008-0.31,0.012c0,1.287,0,2.576,0,3.948
	c0.245-0.036,0.452-0.067,0.637-0.096C158.157,75.608,157.985,73.707,157.591,72.976z M85.223,86.913
	c1.324,0.112,2.48-0.238,3.488-1.226C87.486,85.223,86.005,85.692,85.223,86.913z M91.755,106.564
	c1.213,0.557,1.808-0.327,2.558-0.583c0.486-0.165,1.034-0.409,0.926-1.31C93.967,105.074,92.743,105.326,91.755,106.564z
	 M132.667,128.003c1.024-0.152,1.785-0.456,2.288-1.182c0.117-0.166,0.018-0.48,0.018-0.923c-0.992,0.369-1.823,0.678-2.729,1.013
	C132.416,127.357,132.523,127.637,132.667,128.003z M142.324,89.205c0.049-0.174,0.096-0.349,0.144-0.521
	c-0.96-0.782-2.214-0.69-3.367-0.853c-0.168-0.023-0.39,0.34-0.821,0.744C139.85,88.819,141.087,89.013,142.324,89.205z
	 M57.172,87.428c-0.266,0.518,0.096,0.776,0.466,0.947c0.804,0.373,1.433,1.254,2.557,1.053
	C59.676,88.114,58.564,87.415,57.172,87.428z M178.013,62.626c1.11,0.645,1.86,1.497,3.267,1.607
	c-0.415-1.465-1.471-1.792-2.475-2.271C178.574,62.155,178.376,62.321,178.013,62.626z M54.57,89.749
	c2.234,1.676,2.396,1.729,3.277,1.09c-0.588-0.718-1.604-1.323-2.818-1.663C54.908,89.327,54.771,89.499,54.57,89.749z
	 M178.189,88.88c-0.426-1.138-1.168-1.587-2.101-1.778c-0.531-0.107-0.993,0.002-1.21,0.724
	C176.014,87.974,176.818,89.002,178.189,88.88z M76.199,111.994c1.557,0.929,3.02,0.275,3.658-1.448
	C78.64,111.027,77.57,111.45,76.199,111.994z M133.651,105.851c1.493,0.274,2.831-0.46,3.437-1.68
	C135.664,104.055,134.761,104.799,133.651,105.851z M144.07,66.345c0.048-0.157,0.097-0.315,0.146-0.472
	c-0.946-0.4-1.885-0.819-2.849-1.172c-0.122-0.045-0.37,0.256-0.694,0.495C141.847,65.901,142.812,66.619,144.07,66.345z
	 M182.236,63.073c-0.26-1.179-0.738-2.018-1.75-2.6c-0.236,0.189-0.466,0.373-0.693,0.555
	C181.01,62.693,181.262,62.916,182.236,63.073z M35.206,85.113c-0.135,1.582,1.425,2.986,2.903,2.885
	C37.534,86.685,36.187,86.321,35.206,85.113z M153.508,114.253c1.988,0.574,3.025,0.111,3.294-1.522
	C155.87,113.709,154.424,113.017,153.508,114.253z M145.157,109.766c-1.295-0.216-2.128,0.519-2.456,2.043
	C143.679,111.893,144.062,111.583,145.157,109.766z M122.203,111.885c-1.055-0.294-1.802,0.542-2.707,0.707
	c-0.113,0.021-0.168,0.36-0.253,0.562C120.589,113.559,121.631,113.105,122.203,111.885z M153.229,68.481
	c0.127,1.753,0.644,2.604,1.54,2.631c0-0.959-0.355-2.253-0.795-2.566C153.802,68.424,153.491,68.497,153.229,68.481z
	 M108.067,86.914c1.237,0.853,2.494,0.592,3.072-0.559C110.07,86.132,109.072,86.057,108.067,86.914z M75.763,116.131
	c-1.295-0.192-2.518-0.141-3.685,1.019C73.766,117.711,74.665,116.573,75.763,116.131z M77.279,105.813
	c-1.218,0.781-2.491,0.897-3.302,1.937C75.323,108.137,76.555,107.46,77.279,105.813z M49.521,80.12
	c-1.349-1.952-1.664-2.161-2.631-1.544c0.632,0.688,1.239,1.35,1.881,2.049C49.107,80.398,49.314,80.259,49.521,80.12z
	 M73.41,122.122c1.483,0.388,2.693-0.25,2.971-1.571C75.479,121.273,74.036,120.846,73.41,122.122z M92.8,95.123
	c1.025-0.012,1.878-0.393,2.702-1.106c-0.812-0.812-1.51-0.24-2.201-0.022C92.784,94.156,92.57,94.501,92.8,95.123z M116.436,95.864
	c-0.021,0.405-0.04,0.731-0.055,1.045c1.883,0.294,2.107,0.187,2.188-1.045C117.934,95.864,117.3,95.864,116.436,95.864z
	 M81.87,101.474c-1.167,0.453-2.134,1.161-3.263,1.88c0.292,0.201,0.533,0.457,0.622,0.412c0.724-0.366,1.432-0.767,2.116-1.2
	C81.666,102.362,82.108,102.171,81.87,101.474z M31.187,86.828c-0.423,0.512-0.229,0.88,0.105,1.152
	c0.702,0.571,1.386,1.25,2.638,0.896C33.187,87.801,31.962,87.627,31.187,86.828z M139.715,96.395
	c-1.179,0.154-2.188,0.165-2.958,1.087C138.01,98.155,139.024,97.799,139.715,96.395z M106.961,95.675
	c0.986,0.334,1.791,0.594,2.655,0.03c-0.52-0.939-1.304-1.064-2.238-1.017C107.255,94.981,107.132,95.271,106.961,95.675z
	 M97.983,98.54c-0.91-0.56-1.586-0.323-2.239,0.022c-0.465,0.245-0.617,0.638-0.38,1.227C96.282,99.572,97.201,99.449,97.983,98.54z
	 M71.567,101.227c1.152,0.6,2.141,0.142,3.111-0.462C73.539,100.113,72.561,100.712,71.567,101.227z M122.617,109.332
	c-1.108-0.208-2.154-0.248-3.079,0.958C120.998,110.71,121.805,109.996,122.617,109.332z M57.891,95.98
	c-0.537-1.428-1.544-1.034-2.269-1.225c-0.377-0.101-0.688,0.181-0.597,0.831C55.871,95.703,56.742,95.823,57.891,95.98z
	 M79.004,119.907c1.54,0.038,2.334-0.639,2.387-1.966C80.615,118.606,79.416,118.619,79.004,119.907z M159.951,72.434
	c-1.257,1.047-1.309,2.146-0.22,2.856C159.811,74.262,159.881,73.348,159.951,72.434z M103.668,97.519
	c-0.111,0.377-0.215,0.728-0.352,1.182c0.938,0.101,1.692,0.369,2.4-0.188C105.302,97.728,105.302,97.728,103.668,97.519z
	 M73.744,126.033c1.391,0.39,2.293-0.016,2.931-1.287C75.607,125.01,74.504,124.889,73.744,126.033z M112.332,90.648
	c-2.029,0.052-2.029,0.052-2.32,1.011c0.848,0.341,1.596,0.114,2.32-0.337C112.332,91.074,112.332,90.861,112.332,90.648z
	 M76.241,88.777c1.344,0.251,2.239-0.144,2.684-1.087C77.819,87.378,76.979,87.721,76.241,88.777z M97.227,84.91
	c-1.171-0.165-2.044,0.031-2.797,0.792C95.442,86.319,96.373,86.089,97.227,84.91z M51.442,86.53
	c-0.288-0.978-0.288-0.978-1.608-1.65c-0.18,0.239-0.375,0.496-0.741,0.984C50.07,85.939,50.423,87.084,51.442,86.53z
	 M146.787,77.667c-1.204-0.19-2.08,0.096-2.866,0.668c-0.133,0.099-0.104,0.42-0.151,0.639
	C144.721,78.422,145.965,78.866,146.787,77.667z M79.514,115.643c0.636,0.587,1.217,0.317,1.784,0.041
	c0.553-0.27,1.045-0.596,0.775-1.443C81.188,114.653,80.197,114.743,79.514,115.643z M138.129,102.095
	c0.627-0.406,1.227-0.795,1.832-1.187c-0.746-0.651-0.932-0.63-2.053,0.203C137.995,101.499,138.09,101.923,138.129,102.095z
	 M139.335,107.693c-1.899,0.422-2.038,0.502-2.391,1.336C138.203,109.411,138.808,109.099,139.335,107.693z M134.076,88.045
	c-1.514-0.572-2.051-0.48-2.656,0.412C132.346,88.81,133.187,88.922,134.076,88.045z M49.695,92.485
	c-1.054-0.935-1.854-1.105-2.616-0.626C47.736,92.783,48.43,92.97,49.695,92.485z M176.048,84.371
	c1.535,0.471,2.351,0.147,2.555-0.973C177.686,83.476,176.766,83.396,176.048,84.371z M143.379,91.028
	c1.091,0.579,1.521,0.435,2.807-0.897c-0.143-0.146-0.287-0.297-0.451-0.47C144.847,90.177,144.158,90.576,143.379,91.028z
	 M143.312,105.173c-1.003-0.417-1.379-0.279-2.162,0.781C142.079,106.484,142.723,106.251,143.312,105.173z M140.979,82.765
	c1.104,1.07,1.674,1.163,2.749,0.454c-0.744-0.339-1.428-0.649-2.134-0.97C141.391,82.421,141.223,82.561,140.979,82.765z
	 M134.224,123.744c-0.815-0.708-1.314-0.038-1.987,0.417c0.164,0.34,0.308,0.638,0.471,0.973
	C133.455,124.827,134.182,124.696,134.224,123.744z M147.755,76.423c-1.175-0.502-2.175-0.401-3.12,0.32
	C145.73,76.861,146.741,77.117,147.755,76.423z M56.544,80.23c-0.317,0.343-0.463,0.5-0.599,0.646
	c1.063,1.498,1.114,1.527,2.056,1.035C57.539,81.379,57.104,80.876,56.544,80.23z M75.357,130.452
	c1.096,0.13,1.982,0.095,2.792-0.629C76.83,129.23,76.231,129.35,75.357,130.452z M124.812,82.855
	c1.271,0.567,1.271,0.567,2.279,0.071C126.447,82.052,125.823,82.009,124.812,82.855z M85.88,113.575
	c1.003,0.505,1.94-0.171,2.029-1.461C86.361,112.821,86.361,112.821,85.88,113.575z M162.679,75.72
	c0.606-1.202,0.661-1.557,0.409-2.694c-0.603,0.792-1.061,1.524-1.155,2.503C162.197,75.596,162.406,75.65,162.679,75.72z
	 M66.328,88.233c-0.975-1.017-1.431-1.06-2.102-0.2C65.285,88.812,65.429,88.827,66.328,88.233z M82.689,105.616
	c-0.875,0.244-1.676,0.415-2.176,1.269C81.682,107.24,82.28,106.893,82.689,105.616z M142.389,63.539
	c-0.549-0.288-1.098-0.577-1.75-0.921c-0.156,0.359-0.269,0.62-0.379,0.869C141.216,64.025,141.216,64.025,142.389,63.539z
	 M91.272,88.802c1.021,0.66,1.879,0.437,2.271-0.546C92.723,87.947,92.011,88.084,91.272,88.802z M122.48,89.051
	c1.598,0.146,1.902,0.032,2.374-0.947C124.008,88.381,123.025,87.751,122.48,89.051z M155.734,67.928
	c0.407-0.163,0.699-0.281,1.135-0.455c-0.313-0.632-0.558-1.122-0.883-1.778C155.276,66.459,155.426,67.052,155.734,67.928z
	 M76.1,98.926c0.938,0.729,1.613,0.339,2.223-0.168c0.108-0.09-0.012-0.452-0.035-0.839C77.458,98.301,76.779,98.612,76.1,98.926z
	 M174.904,76.426c-1.295-1.062-1.734-1.001-2.309,0.21C173.447,76.559,174.178,76.492,174.904,76.426z M95.934,109.083
	c-1.037-0.813-1.783-0.572-2.186,0.696C94.598,109.88,95.317,109.711,95.934,109.083z M106.128,84.118
	c-0.864-0.242-1.54-0.354-2.143,0.236C104.59,85.287,105.132,85.252,106.128,84.118z M118.809,117.629
	c-1.507-0.451-1.846-0.334-2.289,0.707C117.421,118.738,118.071,118.335,118.809,117.629z M70.586,108.733
	c-0.81-0.37-1.563-0.427-2.301,0.324C69.211,109.603,69.921,109.341,70.586,108.733z M146.191,88.603
	c-1.252-0.547-1.651-0.428-2.307,0.554C144.726,89.497,145.393,89.218,146.191,88.603z M68.944,104.695
	c-0.955-0.137-1.646-0.386-2.232,0.32C67.597,105.649,67.653,105.644,68.944,104.695z M53.177,99.461
	c0.649-0.266,1.144-0.544,1.086-1.352c-0.834-0.443-1.174,0.126-1.603,0.707C52.838,99.037,52.995,99.235,53.177,99.461z
	 M79.802,123.022c1.206,0.246,1.306,0.168,1.354-1.092C80.524,122.097,79.929,122.237,79.802,123.022z M74.106,94.764
	c0.858,0.53,1.448,0.451,2.131-0.099C75.53,94.227,74.939,94.097,74.106,94.764z M63.715,92.648
	c-0.422-0.271-0.796-0.51-1.238-0.794c-0.242,0.376-0.403,0.625-0.607,0.94C62.508,93.002,63.029,93.395,63.715,92.648z
	 M161.083,67.926c0.548,0.462,0.905,0.317,1.174-0.054c0.263-0.362,0.334-0.747-0.333-1.11
	C161.646,67.148,161.365,67.539,161.083,67.926z M173.902,78.405c0.913,0.328,1.479,0.238,1.918-0.514
	C174.986,77.31,174.497,77.683,173.902,78.405z M146.112,80.522c-0.017-0.109-0.035-0.218-0.052-0.326
	c-0.979-0.403-1.135-0.349-1.646,0.749C145.075,80.779,145.594,80.651,146.112,80.522z M117.923,91.754
	c0.806,0.128,1.373,0.145,1.479-0.805C118.701,90.799,118.078,90.626,117.923,91.754z M132.905,111.521
	c-0.466-0.354-0.734-0.558-1.265-0.961c-0.056,0.778-0.088,1.213-0.137,1.912C132.056,112.099,132.342,111.905,132.905,111.521z
	 M123.928,95.485c-0.736-0.217-1.26-0.171-1.455,0.703C123.186,96.377,123.764,96.452,123.928,95.485z M52.607,72.101
	c-0.702,0.401-0.653,0.791-0.318,1.116c0.16,0.157,0.486,0.142,1.054,0.284C53.002,72.854,52.828,72.52,52.607,72.101z
	 M174.525,79.35c0.042,0.131,0.082,0.261,0.123,0.391c0.611,0.337,0.992,0.116,1.11-0.785
	C175.348,79.087,174.936,79.218,174.525,79.35z M85.759,108.533c-0.732-0.388-1.16-0.164-1.551,0.502
	C84.978,109.521,85.395,109.265,85.759,108.533z M44.058,88.79c0.565,0.093,0.986,0.162,1.598,0.261
	C44.875,87.972,44.875,87.972,44.058,88.79z M70.532,94.91c-1.063-0.715-1.063-0.715-1.199,0.329
	C69.78,95.117,70.155,95.014,70.532,94.91z M79.746,93.832c0.05,0.153,0.1,0.308,0.148,0.46c0.541,0.211,1.01,0.248,1.251-0.874
	C80.544,93.597,80.145,93.715,79.746,93.832z M96.584,111.793c0.006,0.125,0.011,0.249,0.018,0.374
	c0.184,0.103,0.369,0.206,0.623,0.347c0.191-0.291,0.348-0.531,0.505-0.771c-0.046-0.077-0.092-0.154-0.138-0.23
	C97.255,111.606,96.92,111.699,96.584,111.793z M103.078,107.582c-0.555-0.312-0.555-0.312-0.99,0.02
	C102.558,107.908,102.558,107.908,103.078,107.582z"></path>
<path fill-rule="evenodd" clip-rule="evenodd" fill="#f4751a" class="fill" d="M51.883,65.92c-0.334,0.809-0.594,1.434-0.854,2.06
	c-3.668-1.959-3.668-1.959-4.638-1.357c0.813,1.478,2.286,2.708,2.036,4.768c-1.525-0.606-2.889-1.456-4.76-1.446
	c0.121,0.489,0.159,0.865,0.305,1.194c0.49,1.105,1.024,2.192,1.521,3.295c0.087,0.191,0.078,0.426,0.174,1.011
	c-1.282-1.052-2.303-1.888-3.372-2.764c-0.224,0.236-0.373,0.4-0.541,0.576c0.21,1.273,1.279,2.331,0.876,3.909
	c-1.557-0.878-3.032-1.709-4.427-2.495c-0.714,0.312-0.64,0.729-0.572,1.232c0.153,1.188,0.218,2.387,0.334,3.757
	c-1.927-0.47-3.171-1.705-4.544-2.507c-0.663,0.198-0.661,0.572-0.562,1.032c0.222,1.031,0.411,2.067,0.657,3.336
	c-1.571-0.479-2.887-0.881-4.263-1.301c-1.098,0.92,0.18,1.877-0.048,2.848c-1.749,0.154-3.321-0.657-5.001-1.095
	c-0.243,0.396-0.454,0.739-0.699,1.139c-2.357-0.843-4.453-2.068-6.463-3.853c1.087-0.484,1.975-0.878,2.928-1.303
	c0.042-0.331,0.087-0.687,0.138-1.079c-1.924-1.623-4.263-2.781-5.44-5.258c0.92-0.41,1.675,0.245,2.577,0.179
	c0.119-0.219,0.266-0.486,0.477-0.871c-3.478-6.246-4.437-12.822-2.208-19.872c1.481,0.918,2.104,2.601,3.793,3.274
	c0.382-3.186-0.01-6.372,2.252-9.076c0.509,1.382,0.924,2.592,1.396,3.777c0.474,1.182,0.689,2.521,1.84,3.375
	c0.607-0.49,0.692-1.106,0.769-1.769c0.184-1.621,0.289-3.273,1.261-4.686c0.129-0.188,0.277-0.362,0.576-0.752
	c0.4,1.15,0.689,2.146,1.093,3.094c0.408,0.964,0.812,1.965,1.839,2.61c0.841-0.964,0.258-2.017,0.377-2.973
	c0.124-0.995,0.229-1.994,0.61-3.067c0.38,0.616,0.779,1.221,1.134,1.851c1.232,2.197,2.884,3.983,4.952,5.444
	c3.089,2.184,6.14,4.425,9.138,6.729c1.94,1.49,3.535,3.332,4.683,5.521C51.482,64.899,51.672,65.427,51.883,65.92z"></path>
<path fill-rule="evenodd" clip-rule="evenodd" fill="#f4751a" class="fill" d="M90.853,133.687c0.4-0.456,0.579-0.661,0.765-0.875
	c1.516,0,3.073,1.28,4.835-0.264c-1.35-0.312-2.399-0.554-3.631-0.837c0.317-0.387,0.499-0.609,0.695-0.848
	c1.106,0.248,2.146,0.501,3.196,0.71c0.606,0.121,1.218,0.153,1.453-0.784c-1.164-0.323-2.285-0.633-3.406-0.943
	c1.257-0.999,2.855,0.269,4.138-0.972c-1.018-0.711-2.146-0.428-3.288-0.741c0.256-0.39,0.467-0.71,0.752-1.145
	c2.792,0.369,5.55,0.732,8.543,1.128c-2.036,2.353-4.43,4.054-6.292,5.685c-1.233,1.651-0.939,3.071-0.604,4.502
	c0.607,2.59,1.2,5.185,1.805,7.775c0.094,0.402,0.223,0.797,0.385,1.369c1.019,0.238,2.058,0.451,3.08,0.727
	c1.569,0.425,2.33,1.537,2.15,3.119c-0.026,0.229-0.222,0.438-0.404,0.776c-0.645-0.899-0.223-2.337-1.599-2.523
	c-0.345-0.046-0.718,0.128-1.358,0.257c0.572,0.531,0.895,0.828,1.185,1.096c0.402,1.762,0.402,1.762-0.659,2.132
	c-0.065-0.213-0.141-0.417-0.187-0.629c-0.046-0.222-0.062-0.449-0.09-0.664c-0.852,0-0.852,0-1.387,0.986
	c-1.802-0.58-3.61-1.161-5.47-1.76c-0.761-2.551-1.502-5.035-2.238-7.506c0.543-0.302,0.97-0.539,1.396-0.778
	c-0.004-0.083-0.008-0.166-0.012-0.25c-0.592-0.117-1.184-0.236-1.809-0.361c-0.219-0.534-0.426-1.041-0.663-1.625
	c1.194-0.339,2.413-0.033,3.656-0.799c-1.409-0.696-2.755-0.58-4.106-0.735c-0.147-0.388-0.29-0.768-0.488-1.289
	c1.532,0.128,2.947,0.44,4.635-0.157c-1.795-1.18-3.727-0.695-5.394-1.288c-0.216-0.435-0.421-0.841-0.763-1.523
	c1.212,0.357,2.156,0.719,3.135,0.902c0.977,0.185,1.994,0.255,3.039-0.252c-0.697-0.81-1.599-0.634-2.371-0.838
	C92.678,134.251,91.891,133.997,90.853,133.687z"></path>
<path fill-rule="evenodd" clip-rule="evenodd" fill="#f4751a" class="fill" d="M151.985,140.756c-0.099-1.122-0.18-2.076-0.25-2.876
	c0.548-0.765,1.749-0.458,1.818-1.64c-0.598,0-1.138,0-1.82,0c-0.081-0.389-0.161-0.757-0.229-1.078
	c0.79-0.447,1.451-0.819,2.104-1.189c-0.542-1.04-1.295-0.094-1.859-0.475c0.451-0.68,1.568-0.746,1.674-2.003
	c-0.698,0.208-1.273,0.38-1.929,0.575c-0.042-0.379-0.075-0.688-0.114-1.037c2.786-1.392,3.924-4.185,5.67-6.45
	c0.336-0.437,0.595-0.93,0.941-1.479c0.688,0.402,1.296,0.757,2.021,1.18c0.619-0.967,1.166-1.818,1.77-2.759
	c0.246,0.03,0.537,0.066,0.835,0.103c0.011,0.224,0.06,0.376,0.017,0.492c-0.826,2.28-1.67,4.555-2.498,6.834
	c-0.222,0.612-0.441,1.23-0.593,1.86c-0.584,2.435-2.038,4.378-3.512,6.313C154.957,138.54,153.662,139.707,151.985,140.756z"></path>
<path fill-rule="evenodd" clip-rule="evenodd" fill="#f4751a" class="fill" d="M149.839,78.861c2.406-1.498,3.81-0.875,4.4,1.881
	C152.357,81.919,150.253,81.055,149.839,78.861z M151.057,79.373c0.091,0.474,0.148,0.774,0.236,1.23
	c0.548-0.105,1.04-0.202,1.712-0.331c-0.241-0.58-0.404-0.969-0.608-1.457C151.9,79.021,151.541,79.172,151.057,79.373z"></path>
<path fill-rule="evenodd" clip-rule="evenodd" fill="#f4751a" class="fill" d="M161.134,96.608c0.012,0.227,0.042,0.358,0.02,0.48
	c-0.031,0.177-0.101,0.348-0.152,0.514c-0.628,0.272-1.175,0.323-1.701-0.493C159.933,96.937,160.496,96.783,161.134,96.608z"></path>
<path fill-rule="evenodd" clip-rule="evenodd" fill="#f4751a" class="fill" d="M170.477,79.046c-0.293,0.548-0.552,1.033-0.776,1.458
	c-1.456,0.611-2.76,0.291-3.743-0.866C166.775,77.696,168.758,77.388,170.477,79.046z M169.18,79.402
	c-0.765-1.101-1.094-1.062-1.952,0.213c0.283,0.226,0.575,0.458,0.937,0.744C168.569,79.979,168.882,79.683,169.18,79.402z"></path>
</svg>