<svg style="top: 3%; left: 4%; height: 42%; width: 42%;" version="1.1" id="svg_5339" xmlns="http://www.w3.org/2000/svg" xmlns:xlink="http://www.w3.org/1999/xlink" x="0px" y="0px" width="200px" height="200px" viewBox="0 0 200 200" enable-background="new 0 0 200 200" xml:space="preserve">
<path class="stroke" fill="#283843" d="M196.067,38.903c-2.192-0.478-4.148,0.105-6.177,0.622c-0.262-0.151-0.476-0.222-0.617-0.364
	c-1.511-1.525-3.333-2.553-5.296-3.366c-1.172-0.485-2.052-1.238-2.555-2.468c-0.297-0.727-0.765-1.432-1.311-1.998
	c-0.937-0.974-2.009-1.846-3.435-1.963c-1.608-0.131-3.236-0.083-4.708,0.648c-1.535,0.763-2.999,1.67-4.687,2.625
	c-0.908,0-2.09,0.064-3.262-0.023c-0.744-0.056-1.476-0.321-2.205-0.522c-1.094-0.3-2.161-0.731-3.272-0.92
	c-3.156-0.536-6.32-1.042-9.497-1.431c-1.877-0.229-3.791-0.349-5.678-0.275c-3.448,0.137-6.915,0.248-10.304,0.98
	c-2.214,0.479-4.459,0.907-6.449,2.124c-0.859,0.525-1.776,0.987-2.721,1.333c-0.731,0.269-1.54,0.374-2.323,0.439
	c-0.664,0.056-1.343-0.042-2.015-0.085c-1.091-0.068-2.188-0.087-3.27-0.231c-2.881-0.383-5.744-0.94-8.633-1.206
	c-2.892-0.265-5.816-0.452-8.71-0.326c-3.532,0.153-7.018,0.838-10.469,1.66c-2.521,0.601-4.892,1.506-7.116,2.854
	c-1.172,0.71-2.325,1.58-3.758,1.69c-1.232,0.095-2.268,0.57-3.232,1.29c-0.674,0.502-1.366,0.665-2.246,0.439
	c-1.831-0.468-3.692-0.835-5.554-1.16c-3.03-0.528-6.058-0.054-9.075,0.178c-2.139,0.165-4.254,0.625-6.393,0.783
	c-3.655,0.271-7.32,0.393-10.979,0.611c-1.429,0.084-2.89,0.102-4.271,0.423c-5.916,1.371-11.736,3.028-17.1,6.006
	c-1.286,0.715-2.185,1.646-2.75,2.99c-0.922,2.19-0.998,4.509-1.154,6.821c-0.103,1.512-0.08,3.051-0.375,4.526
	c-0.404,2.019-1.083,3.981-1.593,5.98c-0.739,2.892-1.486,5.783-2.125,8.698c-0.432,1.97-0.75,3.971-0.998,5.974
	c-0.29,2.336-0.486,4.685-0.653,7.033c-0.124,1.762-0.138,3.53-0.186,4.865c-1.59,2.748-2.989,5.147-4.369,7.558
	c-0.543,0.95-1.185,1.876-1.533,2.898c-0.703,2.071-1.312,4.181-1.808,6.31c-0.275,1.183-0.341,2.501,0.294,3.594
	c0.874,1.503,1.549,3.069,2.064,4.719c0.024,0.074,0.101,0.132,0.153,0.197c1.676,0.771,2.998,0.246,4.858-1.98
	c1.075-0.256,1.937-0.958,2.614-1.917c0.143-0.202,0.322-0.411,0.533-0.529c1.365-0.76,2.011-1.982,2.289-3.457
	c0.154-0.817,0.244-1.655,0.488-2.445c0.368-1.198,1.198-2.098,2.079-2.973c1.131-1.125,2.21-2.307,3.257-3.513
	c0.687-0.791,1.055-1.804,0.883-2.816c-0.216-1.273-0.662-2.511-1.053-3.75c-0.163-0.513-0.442-0.988-0.673-1.49
	c0.376-0.634,0.692-1.23,1.068-1.786c1.396-2.055,2.832-4.082,4.213-6.145c1.242-1.856,2.479-3.719,3.632-5.632
	c0.78-1.296,1.539-2.634,2.079-4.041c1.325-3.452,1.526-7.053,1.113-10.704c-0.055-0.489-0.083-0.981-0.137-1.622
	c0.755-0.129,1.408-0.348,2.054-0.332c1.893,0.047,3.783,0.183,5.673,0.293c2.44,0.142,4.879,0.299,7.319,0.438
	c1.894,0.108,3.786,0.263,5.68,0.281c2.752,0.026,5.444-0.548,8.144-1.007c0.4-0.068,0.801-0.125,1.241-0.194
	c0.152,0.505,0.244,0.917,0.399,1.303c0.421,1.049,0.71,2.194,1.334,3.107c1.789,2.616,4.466,4.03,7.391,5.025
	c1.791,0.61,3.594,1.19,5.388,1.794c0.233,0.079,0.446,0.217,0.73,0.36c0.036,0.417,0.108,0.832,0.104,1.247
	c-0.019,2.065,0.027,4.137-0.113,6.195c-0.105,1.547-0.351,3.104-0.729,4.608c-0.401,1.595-1.009,3.147-2.469,4.148
	c-1.742,1.194-3.689,1.967-5.517,2.808c-4.224-2.956-8.326-5.827-12.671-8.868c-0.092-0.375-0.471-1.089-0.385-1.742
	c0.152-1.151,0.525-2.288,0.935-3.384c0.158-0.419,0.611-0.812,1.027-1.037c1.511-0.816,3.605-0.353,4.604,1.051
	c0.555,0.778,0.984,1.655,1.386,2.528c0.333,0.724,0.509,1.519,0.822,2.254c0.141,0.33,0.447,0.589,0.795,1.027
	c0.691-1.069,1.25-1.933,1.782-2.758c0.384,0.119,0.75,0.232,1.192,0.369c0.106-0.736,0.187-1.299,0.287-1.997
	c0.646,0.618,0.987,1.541,2.08,1.374c0.057-0.451,0.11-0.878,0.171-1.371c0.55,0.344,0.995,0.621,1.512,0.944
	c0.123-0.312,0.263-0.499,0.257-0.682c-0.064-2.337-0.88-4.453-2.062-6.42c-1.188-1.976-3.118-3.036-5.193-3.835
	c-1.706-0.657-3.499-1.121-5.318-0.923c-3.51,0.381-6.233,2.155-8.142,5.129c-0.289,0.452-0.517,0.976-0.633,1.498
	c-0.429,1.932-0.797,3.876-0.337,5.865c0.047,0.203,0.077,0.423,0.054,0.627c-0.085,0.729-0.198,1.454-0.338,2.445
	c-0.694,0.312-1.611,0.71-2.516,1.134c-2.843,1.333-5.513,2.932-7.66,5.266c-1.533,1.667-2.689,3.553-3.09,5.837
	c-0.27,1.533-0.04,3.021,0.271,4.514c0.782,3.76,2.226,7.152,5.302,9.651c0.671,0.544,1.122,1.225,1.381,2.067
	c0.42,1.37,0.87,2.732,1.383,4.069c0.559,1.456,1.41,1.856,2.892,1.362c1.03-0.344,2.021-0.807,3.145-1.264
	c0.703,0.505,1.477,1.063,2.235,1.609c0.469-0.161,0.855-0.293,1.128-0.388c0.75,0.45,1.39,0.834,2.055,1.234
	c0.832-0.405,1.582-0.77,2.397-1.167c2.405,1.075,4.836,1.068,7.25-0.185c2.594-1.347,2.982-3.885,3.491-6.4
	c0.198,0.681,0.303,1.337,0.384,1.997c0.314,2.547,0.55,5.106,0.948,7.64c0.508,3.229,0.848,6.434-0.026,9.654
	c-0.686,2.521-0.659,5.083-0.354,7.654c0.129,1.088,0.295,2.171,0.417,3.26c0.355,3.181,0.701,6.363,1.042,9.545
	c0.125,1.166,0.228,2.335,0.353,3.633c-0.798,0.268-1.535,0.55-2.292,0.761c-0.971,0.271-1.952,0.516-2.941,0.714
	c-1.602,0.321-3.207,0.638-4.823,0.875c-1.413,0.207-2.851,0.244-4.258,0.477c-0.481,0.08-0.979,0.455-1.333,0.826
	c-0.626,0.66-0.87,1.51-0.851,2.37c0.741,1.105,1.866,1.374,2.98,1.6c1.145,0.232,2.31,0.366,3.555,0.556
	c0.231,2.655-0.914,5.199-0.774,7.815c0.699,0.846,1.49,1.015,2.518,0.803c1.771-0.367,2.738-1.563,3.466-3.047
	c0.537-1.093,1.006-2.22,1.529-3.382c0.345-0.034,0.65-0.065,1.066-0.106c-0.196,1.941-0.38,3.764-0.572,5.668
	c0.625,0.225,1.082,0.51,1.553,0.537c1.345,0.077,2.453-0.46,3.299-1.529c0.378-0.477,0.794-0.922,1.211-1.402
	c0.512,0.476,0.888,0.877,1.317,1.211c1.088,0.844,2.277,0.82,3.454,0.243c1.15-0.565,1.412-1.612,1.283-2.784
	c-0.073-0.669-0.208-1.333-0.354-1.991c-0.229-1.024-0.493-2.041-0.734-3.028c0.982-1.57,2.761-1.41,4.075-2.096
	c0.86-1.252,0.943-2.602,0.822-4.024c-0.065-0.783-0.04-1.599,0.108-2.368c0.327-1.695,0.812-3.359,1.135-5.054
	c0.553-2.904,0.982-5.831,0.815-8.8c-0.198-3.541-0.888-7.014-1.548-10.489c-0.093-0.494-0.255-1.01-0.194-1.491
	c0.537-4.211,0.094-8.414-0.055-12.618c-0.046-1.305-0.072-2.622-0.269-3.909c-0.145-0.95-0.042-1.821,0.178-2.694
	c1.009-0.195,1.986-0.292,2.903-0.581c2.656-0.834,5.225-1.878,7.645-3.283c2.747-1.594,4.226-3.912,4.301-7.095
	c0.024-1.012,0.015-2.025-0.02-3.036c-0.078-2.246-0.001-4.477,0.628-6.649c0.796-2.75,1.573-5.508,2.464-8.228
	c1.209-3.693,1.587-7.415,0.606-11.203c-0.547-2.117-1.191-4.21-1.835-6.301c-0.405-1.314-0.892-2.604-1.387-4.036
	c0.575-0.084,1.019-0.182,1.468-0.211c3.451-0.216,6.902-0.41,10.353-0.634c0.711-0.046,1.431-0.134,2.123-0.299
	c4.466-1.059,8.615-2.871,12.506-5.299c0.596-0.372,1.268-0.71,1.948-0.838c1.154-0.22,2.35-0.217,3.515-0.39
	c0.949-0.14,1.887-0.377,2.818-0.617c0.609-0.157,1.191-0.414,1.796-0.593c2.944-0.875,6-1.482,8.813-2.667
	c4.205-1.771,8.627-2.552,13.018-3.522c2.096-0.464,4.236-0.724,6.335-1.178c0.827-0.179,1.624-0.407,2.477-0.302
	c2.05,0.25,4.098,0.511,6.15,0.744c3.555,0.404,7.108,0.826,10.669,1.175c3.588,0.352,7.07-0.029,10.306-1.773
	c1.177-0.634,2.458-1.103,3.48-2.114C198.111,40.673,197.11,39.707,196.067,38.903z"></path>
<path fill-rule="evenodd" clip-rule="evenodd" fill="#7beeef" class="fill" d="M70.525,43.039c-2.941,2.768-5.018,5.918-7.043,9.135
	c-4.436,0.13-8.817,0.715-13.157,1.596c-1.979,0.401-3.979,0.761-5.79,1.734c-0.037,0.02-0.075,0.039-0.115,0.052
	c-2.078,0.673-4.122,1.5-6.243,1.981c-2.981,0.676-6.007,0.729-8.995-0.177c-1.246-0.378-2.531-0.764-3.785,0.126
	c-0.368,0.616-0.222,1.268-0.085,1.937c0.414,2.022,0.917,4.036,1.161,6.079c0.178,1.484,0.164,3.036-0.058,4.514
	c-0.426,2.839-1.253,5.572-2.551,8.169c-1.863,3.728-3.595,7.522-5.416,11.271c-0.458,0.944-1.027,1.835-1.577,2.731
	c-0.61,0.996-0.589,1.938-0.043,2.979c0.624,1.189,1.031,2.475,1.274,3.706c-0.141,0.186-0.178,0.29-0.243,0.312
	c-2.724,0.96-4.628,3.003-6.585,4.975c-1.008,1.015-2.025,2.021-3.014,3.055c-0.565,0.592-1.008,1.257-0.782,2.197
	c0.562,0.658,1.294,0.933,2.199,0.939c0.996,0.007,1.991,0.132,3.151,0.218c-0.236,0.738-0.409,1.275-0.581,1.813
	c-0.064-0.006-0.127-0.013-0.19-0.019c-0.023-0.368-0.046-0.737-0.075-1.194c-1.524,0.421-0.572,2.143-1.611,2.78
	c-0.097-0.668-0.188-1.297-0.294-2.034c-0.375,0.138-0.591,0.217-0.78,0.287c-0.036,0.627-0.068,1.188-0.102,1.748
	c-0.1,0.024-0.201,0.05-0.301,0.074c-0.467-0.764-0.934-1.528-1.476-2.415c-0.32,0.199-0.65,0.404-0.942,0.586
	c-0.099,1.74,1.278,3.196,0.431,5.191c-0.272,0.266-0.769,0.751-1.37,1.337c-0.278-0.416-0.549-0.66-0.619-0.951
	c-0.442-1.844-0.969-3.651-1.632-5.436c-0.267-0.716-0.021-1.661,0.112-2.481c0.377-2.325,1.275-4.404,2.777-6.271
	c1.503-1.868,2.735-3.955,4.242-5.818c1.346-1.663,1.686-3.536,1.709-5.551c0.023-1.935-0.007-3.87,0.061-5.802
	c0.133-3.797,0.687-7.536,1.46-11.26c0.694-3.346,1.372-6.696,2.631-9.875c1.137-2.871,1.571-5.828,1.733-8.881
	c0.088-1.627,0.496-3.237,0.755-4.855c0.103-0.642,0.518-1.008,1.039-1.347c3.28-2.135,6.815-3.655,10.617-4.598
	c3.204-0.793,6.46-1.235,9.738-1.415c3.679-0.202,7.269-0.913,10.884-1.512c3.325-0.552,6.656-1.099,10.006-1.451
	c1.393-0.146,2.861,0.104,4.254,0.382C66.977,41.934,68.687,42.211,70.525,43.039z"></path>
<path fill-rule="evenodd" clip-rule="evenodd" fill="#7beeef" class="fill" d="M85.887,56.685c-2.637-0.438-4.782-1.368-6.098-3.716
	c-0.969-1.731-1.912-3.467-2.358-5.419c-0.332-1.452-0.079-2.869,0.465-4.212c0.208-0.513,0.688-0.929,1.084-1.351
	c2.151-2.29,4.803-3.766,7.7-4.928c4.422-1.774,9.085-2.276,13.744-2.532c3.256-0.179,6.556,0.146,9.801,0.754
	c2.774,0.521,5.575,0.898,8.358,1.375c2.572,0.441,4.979-0.023,7.423-0.905c3.562-1.287,7.214-2.346,10.999-2.796
	c1.964-0.233,3.94-0.372,5.913-0.528c4.869-0.387,9.659,0.322,14.443,1.086c2.331,0.372,4.671,0.699,6.98,1.182
	c2.153,0.45,4.095,0.004,5.957-1.022c1.877-1.035,3.876-1.564,6.016-1.687c1.372-0.078,2.233,0.496,2.822,1.683
	c0.503,1.017,1.088,1.994,1.624,2.995c0.363,0.678,0.923,1.043,1.657,1.249c2.04,0.57,3.933,1.4,5.646,2.72
	c1.2,0.925,2.727,1.01,4.243,0.781c1.226-0.185,2.461-0.3,3.716-0.304c-1.295,0.993-2.793,1.315-4.335,1.37
	c-4.269,0.152-8.395-0.618-12.358-2.184c-1.364-0.538-2.694-1.173-3.819-2.184c-1.241-1.115-2.737-1.328-4.24-0.668
	c-0.982,0.432-1.911,1.043-2.761,1.706c-0.799,0.624-1.682,0.97-2.632,1.148c-2.79,0.523-5.595,0.664-8.43,0.325
	c-1.67-0.199-3.36-0.243-5.042-0.354c-1.175-0.077-2.35-0.205-3.526-0.211c-4.693-0.026-9.322,0.599-13.936,1.405
	c-1.531,0.268-3.088,0.412-4.64,0.534c-1.791,0.141-3.457,0.661-5.099,1.358c-0.963,0.408-1.996,0.653-2.999,0.969
	c-3.533,1.113-7.059,2.249-10.602,3.329c-2.161,0.659-4.4,0.797-6.633,0.561c-3.347-0.355-6.676-0.91-10.028-1.199
	c-1.616-0.139-3.272,0.083-4.902,0.232c-1.151,0.105-2.003,0.801-2.706,1.698c-1.561,1.993-1.828,4.285-1.585,6.7
	C85.781,55.96,85.833,56.276,85.887,56.685z"></path>
<path fill-rule="evenodd" clip-rule="evenodd" fill="#7beeef" class="fill" d="M57.777,103.191c-0.33-0.037-0.565-0.062-0.799-0.088
	c-0.307,0.759-0.307,0.759,0.716,1.228c0.372-0.332,0.793-0.707,1.236-1.101c0.438,0,0.931,0,1.515,0
	c0.176-0.494,0.342-0.957,0.531-1.486c0.338,0,0.701,0,1.125,0c0.274-0.388,0.536-0.76,0.818-1.159
	c0.344-0.022,0.713-0.045,1.162-0.073c0.166-0.375,0.33-0.748,0.526-1.19c0.275-0.05,0.595-0.107,0.967-0.175
	c0.295-0.515,0.581-1.132,1.391-0.897c2.118,3.076,2.596,9.379,0.66,10.855c-0.206,1.385-0.381,2.808-0.638,4.215
	c-0.212,1.157-0.5,2.302-0.792,3.443c-0.66,2.576-2.985,3.26-5.146,2.957c-0.578-0.081-1.154-0.27-1.696-0.495
	c-0.696-0.289-1.296-0.246-1.884,0.237c-0.53,0.437-1.087,0.622-1.644,0.031c0.367-1.065,0.752-2.079,1.059-3.116
	c0.14-0.475,0.163-0.994,0.172-1.495c0.012-0.614-0.02-0.614-0.747-1.187c-0.599,0.069-0.68,0.429-0.627,0.982
	c0.193,1.993-0.556,3.482-2.328,4.636c-0.66-0.324-1.37-0.673-1.966-0.965c-0.195-0.761-0.356-1.389-0.508-1.985
	c-1.196-0.208-2.046,0.283-2.962,0.608c-0.323,0.906-0.542,1.863-1.393,2.421c-0.711-0.129-0.848-0.713-1.041-1.201
	c-0.786-1.993-1.54-3.999-2.361-6.146c0.483,0.111,0.907,0.209,1.361,0.315c0.824,2.121,2.55,2.766,4.661,2.947
	c-0.05-0.883-0.847-0.789-1.362-1.293c-0.146-0.274-0.378-0.713-0.655-1.237c0.453-0.184,0.832-0.338,1.271-0.518
	c0.547-0.857,0.857-1.847,0.99-2.903c0.116-0.93-0.047-1.699-0.834-2.369c-0.622-0.528-1.056-1.277-1.645-2.02
	c-2.549,0.692-4.666,1.856-6.147,4.256c-1.49-1.863-2.102-4.028-2.539-6.367c0.423,0,0.745,0,1.068,0
	c0.232-0.291,0.436-0.547,0.639-0.802c0.369,0.274,0.698,0.518,1.184,0.877c0.495-0.604,0.95-1.16,1.447-1.768
	c0.525,0.31,1.015,0.599,1.595,0.942c0.518-0.458,1.008-0.89,1.553-1.372c0.568,0.408,1.143,1,1.83,0.279
	c0.395,0.266,0.733,0.493,1.097,0.738c0.337-0.153,0.639-0.29,0.979-0.443c0.272,0.349,0.551,0.707,0.785,1.006
	c1.047,0.099,2,0.189,3.083,0.292c-0.252-1.129-1.266-2.01-0.379-3.071C55.128,98.543,57.494,100.309,57.777,103.191z
	 M55.687,101.648c-0.413-1.124-0.654-1.236-1.606-0.726C54.591,101.265,54.936,101.837,55.687,101.648z"></path>
<path fill-rule="evenodd" clip-rule="evenodd" fill="#7beeef" class="fill" d="M91.385,82.625c-0.925,0.125-1.851,0.25-3.062,0.413
	c1.226,1.251,2.933,1.555,3.505,3.237c-1.333,0.212-2.765-0.164-4.016,0.642c0.259,1.241,1.282,1.825,2.23,2.677
	c-1.479,0.358-2.858-0.298-4.232,0.164c0.077,1.098,1.211,1.912,0.768,3.082c-0.903,0.053-1.656-0.861-2.756-0.369
	c0.396,1.15,0.781,2.267,1.208,3.505c-1.401,0.054-2.48-1.006-3.861-0.562c0.178,0.762,0.345,1.475,0.535,2.281
	c-1.167,0.181-1.862-1.175-3.096-0.724c0,0.807,0,1.62,0,2.469c-1.193,0.05-1.957-1.358-3.205-0.641
	c-0.121,0.632-0.245,1.278-0.377,1.967c-0.947-0.104-1.55-1.144-2.622-0.771c-0.281,0.307-0.563,0.614-0.961,1.046
	c-0.697-1.567-1.386-3.115-2.074-4.663c0.907-0.794,1.223-0.911,3.459-1.252c0.233-0.439,0.503-0.947,0.79-1.488
	c0.46,0,0.915,0,1.457,0c0.242-0.576,0.481-1.144,0.712-1.691c0.734-0.072,1.421-0.14,2.312-0.227
	c-0.164-0.934-0.298-1.697-0.454-2.581c0.312-0.117,0.648-0.256,0.994-0.371c0.354-0.118,0.717-0.213,1.256-0.371
	c-0.215-0.664-0.412-1.273-0.65-2.01c0.663-0.366,1.372-0.756,2.192-1.21c-0.505-0.605-0.92-1.103-1.36-1.631
	c0.656-0.474,1.248-0.9,1.975-1.426c-0.599-0.502-1.061-0.889-1.596-1.338c0.909-0.61,1.751-1.177,2.756-1.853
	c-0.649-0.617-1.146-1.089-1.689-1.605c0.497-0.619,1.622-0.68,1.615-1.912c-0.536-0.277-1.139-0.589-1.889-0.977
	c2.352-2.21,5.237-2.283,8.073-2.588c-0.504,0.912-1.78,1.043-1.889,2.293c0.646,0.978,1.963,0.43,2.87,1.143
	c-0.839,0.528-1.627,1.025-2.569,1.619c1.144,0.978,2.626,0.819,3.656,1.754c-1.106,0.341-2.141,0.744-3.035,1.734
	c1.059,0.657,2.066,1.283,3.073,1.908C91.413,82.409,91.399,82.518,91.385,82.625z"></path>
<path fill-rule="evenodd" clip-rule="evenodd" fill="#7beeef" class="fill" d="M74.736,128.954c0.433,0.688,0.89,1.415,1.507,2.399
	c-0.691,0.486-1.441,1.014-1.965,1.384c-0.016,1.653,1.348,2.078,1.665,3.23c-0.468,0.401-0.971,0.833-1.493,1.28
	c0.059,0.891,0.893,1.209,1.355,1.943c-0.578,0.549-1.166,1.11-1.821,1.734c0.662,0.722,1.255,1.367,1.92,2.093
	c-0.442,0.664-0.879,1.32-1.42,2.133c0.389,0.494,0.814,1.033,1.315,1.67c-0.497,0.469-1.001,0.947-1.512,1.43
	c0.168,1.127,1.259,1.597,1.699,2.595c-0.541,0.42-1.09,0.846-1.764,1.37c0.504,0.749,0.961,1.428,1.566,2.328
	c-0.505,0.288-1.019,0.58-1.556,0.885c0.489,0.733,0.784,1.177,1.13,1.697c-0.539,0.363-1.045,0.703-1.634,1.099
	c-0.118-0.263-0.268-0.439-0.264-0.611c0.104-3.733-0.633-7.381-1.117-11.054c-0.253-1.917-0.621-3.821-0.843-5.742
	c-0.307-2.642,0.272-5.221,0.891-7.752c0.737-3.017,0.661-6.008,0.254-9.036c-0.325-2.42-0.587-4.848-0.923-7.266
	c-0.185-1.333-0.397-2.67-0.719-3.974c-0.373-1.505-0.161-2.906,0.475-4.392c0.335,0.049,0.688,0.101,1.051,0.154
	c0,0.84,0,1.59,0,2.489c0.582,0.523,1.231,1.104,2.062,1.851c-0.499,0.294-0.964,0.569-1.5,0.886
	c0.724,1.044,1.258,1.812,1.81,2.608c-0.334,0.507-0.605,0.919-0.966,1.466c0.477,0.667,0.976,1.365,1.536,2.149
	c-0.338,0.521-0.674,1.037-1.083,1.667c0.471,0.589,0.96,1.201,1.494,1.869c-0.34,0.282-0.687,0.57-1.042,0.866
	c-0.263,1.308,1.086,1.695,1.5,2.587C76.277,127.922,75.326,128.076,74.736,128.954z"></path>
<path fill-rule="evenodd" clip-rule="evenodd" fill="#7beeef" class="fill" d="M79.906,159.826c-0.484-0.152-0.874-0.275-1.194-0.376
	c0-0.717,0-1.356,0-2.244c0.287-0.512,0.714-1.272,1.175-2.093c-0.385-0.324-0.694-0.584-1.044-0.879
	c0.449-0.924,0.905-1.86,1.389-2.853c-0.3-0.28-0.566-0.53-0.854-0.8c0.32-0.646,0.646-1.307,1.022-2.066
	c-0.442-0.628-0.864-1.23-1.32-1.878c0.493-0.722,1.01-1.478,1.568-2.296c-0.381-0.618-0.727-1.177-1.106-1.792
	c0.392-0.605,0.797-1.23,1.298-2.004c-0.558-0.691-1.099-1.362-1.715-2.126c0.28-0.448,0.63-1.002,1.063-1.692
	c-0.428-0.813-0.87-1.654-1.305-2.482c0.401-0.778,0.871-1.531,1.192-2.342c0.413-1.043-0.883-1.446-0.992-2.292
	c0.413-0.897,0.814-1.771,1.248-2.713c-0.354-0.595-0.689-1.162-1.053-1.774c0.479-1.01,1.573-1.788,1.36-3.27
	c-0.385-0.425-0.857-0.945-1.382-1.523c0.624-0.762,1.225-1.494,1.919-2.34c-0.804-0.768-1.518-1.45-2.336-2.233
	c0.352-0.425,0.685-0.841,1.032-1.243c0.998-1.156,0.972-1.584-0.165-2.604c-0.152-0.137-0.282-0.296-0.48-0.507
	c0.549-0.617,1.069-1.203,1.57-1.767c0.028-1.212-0.857-1.826-1.59-2.64c0.6-0.305,1.13-0.575,1.852-0.942
	c-0.555-0.608-1.017-1.114-1.478-1.619c0.017-0.05,0.035-0.101,0.052-0.151c0.773,0.369,1.61,0.649,2.295,1.142
	c0.391,0.281,0.713,0.895,0.751,1.384c0.138,1.758,0.222,3.529,0.179,5.291c-0.06,2.442-0.186,4.888-0.404,7.322
	c-0.245,2.727-0.628,5.441-0.944,8.162c-0.195,1.674-0.492,3.348-0.525,5.026c-0.023,1.201,0.279,2.415,0.496,3.612
	c0.764,4.222,0.874,8.456,0.334,12.712c-0.323,2.55-0.568,5.11-0.934,7.654C80.725,157.651,80.602,158.76,79.906,159.826z"></path>
<path fill-rule="evenodd" clip-rule="evenodd" fill="#7beeef" class="fill" d="M63.449,172.902c-0.046-0.33-0.116-0.598-0.116-0.865
	c0-1.833,0.358-3.6,1.006-5.312c0.363-0.96,1.115-1.55,1.925-2.105c0.797-0.545,1.578-1.115,2.333-1.715
	c0.24-0.191,0.379-0.51,0.642-0.879c-0.946-0.21-1.617,0.164-2.212,0.543c-1.003,0.639-2.037,0.917-3.226,0.821
	c-1.55-0.123-3.109-0.131-4.662-0.229c-0.44-0.028-0.873-0.199-1.386-0.323c0.202-0.814,0.737-0.998,1.329-1.064
	c1.549-0.173,3.106-0.269,4.646-0.496c1.16-0.172,2.3-0.482,3.441-0.765c1.548-0.383,3.089-0.799,4.432-1.148
	c2.643,0.776,5.127,1.505,7.707,2.263c-0.132,0.905-0.95,1.523-1.425,2.318c0.161,2.271,0.321,4.526,0.484,6.818
	c-0.832,0.069-1.11-0.417-1.271-0.937c-0.385-1.245-0.719-2.505-1.062-3.762c-0.153-0.559-0.282-1.125-0.412-1.651
	c-1.143-0.044-1.459,0.19-1.727,1.275c-0.301,1.225-0.547,2.463-0.857,3.686c-0.207,0.814-0.456,1.62-0.744,2.409
	c-0.112,0.307-0.379,0.559-0.732,0.78c-0.112-2.719,0.396-5.382,0.283-8.327c-2.153,1.046-4.074,1.796-5.582,3.237
	c-0.397,0.379-0.582,1-0.816,1.532c-0.54,1.23-1.047,2.474-1.582,3.706C63.829,172.79,63.66,172.81,63.449,172.902z"></path>
<path fill-rule="evenodd" clip-rule="evenodd" fill="#7beeef" class="fill" d="M52.661,93.063c0.288,0.054,0.521,0.097,0.896,0.167
	c0.213-1.05,0.416-2.048,0.633-3.12c1.163,0.548,1.258,2.183,2.673,2.268c0.837-0.725-0.074-1.617,0.321-2.538
	c1.05,0.413,1.909,1.077,2.674,1.813c-0.289,0.217-0.54,0.405-0.764,0.573c0.38,0.858,0.666,1.501,1.033,2.331
	c-1.356-0.335-2.152-1.819-3.622-1.309c0,0.505,0,0.949,0,1.484c-0.606-0.37-1.131-0.689-1.542-0.939
	c-1.073,0.06-1.102,0.823-1.281,1.525c-0.546-0.473-1.031-0.893-1.657-1.436c-0.454,0.775-0.822,1.403-1.275,2.177
	c-0.278-0.612-0.503-1.106-0.717-1.578c-0.684,0.152-0.684,0.152-2.29,2.42c-0.21-0.848-0.397-1.599-0.646-2.6
	c-0.603,0.51-1.021,0.832-1.4,1.194c-0.355,0.338-0.67,0.72-1.169,0.997c0.116-0.615,0.231-1.229,0.359-1.908
	c-1.419-0.214-1.952,1.292-3.371,1.314c1.393-2.004,2.813-3.666,4.961-4.978c0,0.932,0,1.614,0,2.415
	c1.66,0.225,1.84-1.44,2.841-1.971c0.508,0.576-0.249,1.673,0.869,2.056c1.103-0.317,0.978-1.75,1.967-2.312
	C52.326,91.77,52.49,92.4,52.661,93.063z"></path>
<path fill-rule="evenodd" clip-rule="evenodd" fill="#7beeef" class="fill" d="M63.719,77.612c-0.765-0.451-1.444-0.852-2.226-1.313
	c0.428-0.34,0.793-0.629,1.18-0.937c-0.098-0.519-0.189-0.995-0.302-1.591c1.448-0.221,2.363,0.595,3.395,1.317
	c0.132,0.488,0.272,1.002,0.456,1.68c-0.784-0.099-1.416-0.178-2.089-0.262C63.97,76.943,63.84,77.289,63.719,77.612z"></path>
<path fill-rule="evenodd" clip-rule="evenodd" fill="#7beeef" class="fill" d="M48.24,108.135c0,0.486,0,0.973,0,1.576
	c-0.606-0.148-1.067-0.261-1.799-0.44c0.588-0.538,1.014-0.928,1.438-1.317C48,108.014,48.12,108.075,48.24,108.135z"></path>
</svg>