<svg style="top: 3%; left: 4%; height: 42%; width: 42%;" version="1.1" id="svg_3567" xmlns="http://www.w3.org/2000/svg" xmlns:xlink="http://www.w3.org/1999/xlink" x="0px" y="0px" width="200px" height="200px" viewBox="0 0 200 200" enable-background="new 0 0 200 200" xml:space="preserve">
<path class="stroke" fill="#580f12" fill-rule="evenodd" clip-rule="evenodd" d="M85.033,95.067c-0.708,0.122-1.523,0.263-2.489,0.43
	c-2.909,6.359-3.646,13.196-4.568,19.946c-0.931,6.811-0.568,13.648,0.767,20.363c-2.596,0.893-8.069,0.925-10.132,0.054
	c0-0.878-0.119-1.851,0.021-2.784c0.68-4.554,0.312-9.125,0.269-13.686c-0.037-3.976-0.205-7.953-0.455-11.922
	c-0.156-2.467-0.362-4.967-0.916-7.367c-1.112-4.825-2.45-9.599-3.759-14.377c-0.309-1.124-0.865-2.182-1.326-3.263
	c-1.953-4.575-1.798-9.021,0.228-13.616c1.839-4.169,4.5-7.577,7.852-10.564c2.013-1.794,3.28-4.425,3.539-7.053
	c1.204-0.241,2.378-0.118,3.592,0.238c3.385,0.995,5.981,3.159,8.37,5.598c6.363,6.494,11.331,13.94,15.21,22.162
	c2.646,5.608,5.491,11.125,9.227,16.122c4.139,5.536,9.784,8.255,16.557,8.798c4.967,0.398,9.814,1.339,14.562,2.848
	c1.738,0.552,3.55,0.876,5.278,1.454c1.723,0.575,3.493,1.151,5.045,2.062c2.681,1.573,3.553,4.198,3.422,7.189
	c-0.051,1.174-0.254,2.34-0.311,3.514c-0.195,4.082-2.874,6.485-5.963,8.413c-8.46,5.279-17.622,8.367-27.695,8.576
	c-3.172,0.066-6.27,0.026-9.217-1.273c-4.696-2.07-7.995-5.629-10.189-10.147c-1.707-3.515-3.082-7.194-4.563-10.816
	c-3.003-7.339-6.479-14.399-11.762-20.421C85.5,95.4,85.326,95.3,85.033,95.067z M152.167,114.97
	c-1.959-2.262-3.968-3.903-6.494-4.731c-3.158-1.035-6.397-1.82-9.562-2.836c-1.243-0.399-2.243-0.272-3.323,0.401
	c-3.069,1.916-6.497,2.666-10.06,2.848c-0.831,0.042-1.703-0.054-2.507-0.268c-3.564-0.943-6.214-3.254-8.485-6.005
	c-3.196-3.872-5.159-8.446-7.059-13.03c-3.73-9.003-7.83-17.811-13.645-25.696c-2.99-4.057-6.33-7.815-10.382-10.859
	c-1.223-0.918-2.552-1.769-4.371-1.701c0.052,2.299-1.298,3.862-2.49,5.476c-0.773,1.046-1.684,1.994-2.567,2.955
	c-2.088,2.271-3.881,4.747-5.246,7.516c-0.603,1.222-1.083,2.496-0.974,4.018c1.022,0.664,2.051,1.333,3.103,2.019
	c0.964-0.408,1.835-1.128,3.046-0.551c-0.518,0.558-0.963,1.037-1.396,1.502c0.923,1.166,1.905,1.006,2.882,0.416
	c1.283-0.776,2.521-1.625,3.799-2.409c0.381-0.234,0.832-0.354,1.25-0.525c0.088,0.146,0.176,0.292,0.265,0.438
	c-0.94,2.375-3.66,2.771-5.363,4.327c0.517,1.074,1.366,0.897,2.044,0.604c1.605-0.694,3.159-1.507,4.718-2.305
	c0.758-0.388,1.348-1.229,2.648-0.819c-1.689,2.692-4.416,3.569-7.431,4.742c0.695,0.695,1.088,1.089,1.48,1.48
	c0.952-0.328,1.651-0.491,2.279-0.799c1.7-0.83,3.373-1.713,5.048-2.592c0.508-0.266,0.986-0.654,1.713,0.064
	c-1.965,2.324-4.999,2.917-7.466,4.659c0.416,0.507,0.767,0.935,1.001,1.221c3.477-0.138,5.88-2.572,8.984-2.881
	c-1.845,2.512-4.844,3.05-7.646,4.494c0.693,0.578,1.206,1.005,1.878,1.566c2.74-1.171,5.432-2.321,8.124-3.471
	c0.083,0.167,0.165,0.333,0.247,0.501c-1.775,2.452-4.935,2.71-7.447,4.323c0.511,0.624,0.984,1.203,1.538,1.878
	c2.733-0.861,5.352-1.685,7.97-2.51c0.064,0.166,0.129,0.332,0.193,0.497c-1.532,2.067-4.247,2.01-6.53,3.222
	c0.84,0.578,1.515,1.043,2.194,1.511c1.212-0.448,2.292-0.923,3.415-1.24c1.031-0.292,1.951-1.269,3.65-0.557
	c-1.1,0.701-1.853,1.26-2.675,1.687c-0.903,0.468-1.868,0.814-3.252,1.404c0.708,0.68,1.158,1.113,1.515,1.456
	c1.341-0.357,2.343-0.646,3.355-0.888c0.987-0.235,1.855-1.211,3.185-0.581c-1.298,1.874-3.42,1.931-5.225,2.838
	c0.346,0.455,0.597,0.786,0.844,1.111c2.213-0.244,4.224-1.169,6.423-1.041c-1.456,1.577-3.493,1.82-5.525,2.559
	c0.374,0.619,0.691,1.143,0.967,1.599c2.62,0.313,4.858-1.159,7.711-1.05c-2.088,2.063-4.518,2.142-6.712,2.796
	c0.627,1.167,0.702,1.27,1.747,1.142c1.227-0.151,2.434-0.465,3.66-0.632c0.648-0.089,1.318-0.016,1.979-0.016
	c0.02,0.168,0.041,0.337,0.062,0.506c-1.746,1.427-4.078,1.19-6.099,1.832c0.005,1.256,0.877,1.433,1.744,1.411
	c1.756-0.045,3.509-0.207,5.265-0.302c0.597-0.031,1.198-0.004,1.796-0.004c0.014,0.177,0.028,0.353,0.042,0.53
	c-2.169,1.797-4.935,1.042-7.661,1.309c0.312,0.669,0.516,1.106,0.713,1.529c2.999,0.464,5.992-0.299,9.226,0.632
	c-2.854,1.182-5.553,0.859-8.122,1.151c-0.107,1.042,0.361,1.389,1.092,1.509c1.671,0.274,3.342,0.55,5.015,0.817
	c1.102,0.176,2.258,0.149,3.601,0.901c-1.645,0.58-2.997,0.581-4.324,0.534c-1.319-0.046-2.632-0.268-3.948-0.412
	c-0.059,0.166-0.117,0.331-0.175,0.498c0.576,0.311,1.12,0.775,1.734,0.905c2.037,0.431,4.101,0.738,6.152,1.101
	c0.463,0.082,0.918,0.196,1.764,0.381c-1.965,1.186-3.72,0.821-5.469,0.94c0.933,0.635,1.865,1.274,2.894,1.54
	c2.649,0.681,5.332,1.245,8.017,1.769c3.605,0.702,7.264,0.782,10.906,0.503c2.723-0.209,5.441-0.606,8.129-1.097
	c4.882-0.889,9.153-3.329,13.472-5.604C150.033,116.585,150.932,115.823,152.167,114.97z M123.629,129.729
	c-0.987,1.119-1.87,0.939-2.689,0.825c-3.809-0.528-7.61-1.105-11.417-1.644c-0.471-0.066-0.959-0.008-1.72-0.008
	c0.638,0.729,1.098,1.253,1.652,1.888c4.812,0.43,9.687,0.863,14.757,1.315c-1.33,1.178-1.505,1.197-5.914,0.903
	c-1.958-0.131-3.918-0.251-5.877-0.376c0.292,0.583,0.65,0.841,1.049,1c2.082,0.838,4.254,1.274,6.497,1.196
	c3.648-0.125,7.308-0.173,10.937-0.524c4.037-0.392,7.959-1.435,11.693-3.052c1.792-0.776,3.325-1.969,4.526-3.578
	c-2.205,0.854-4.409,1.709-6.614,2.564c-0.1-0.082-0.2-0.164-0.299-0.245c0.215-0.387,0.336-0.919,0.665-1.132
	c0.87-0.563,1.804-1.047,2.761-1.45c0.895-0.377,1.846-0.628,2.782-0.899c1.156-0.336,2.323-0.636,3.486-0.952
	c0.039,0.1,0.077,0.198,0.116,0.298c0.795-0.661,1.59-1.322,2.38-1.978c0.164-2.263,0.613-4.433-0.228-6.93
	c-15.366,10.419-31.492,11.297-48.628,4.522c0.471,0.834,0.831,1.47,1.203,2.13c3.058,0.737,6.015,1.539,9.012,2.148
	c2.995,0.609,6.03,1.026,9.046,1.528c-0.017,0.14-0.034,0.279-0.051,0.42c-2.814,0.8-5.579,0.261-8.365-0.411
	c-2.812-0.677-5.649-1.243-8.552-1.875c0.055,1.625,1.25,1.598,2.115,1.751c3.66,0.643,7.339,1.182,11.009,1.769
	C120.417,129.167,121.867,129.427,123.629,129.729z"></path>
<path class="stroke" fill="#580f12" fill-rule="evenodd" clip-rule="evenodd" d="M41.196,108.062c-0.993-2.582,0.231-4.869-0.201-7.265
	c3.184-1.007,6.403-0.498,9.33-1.424c0.796-1.961-0.014-4.389,2.019-6.063c3.334,3.606,7.628,5.986,10.116,10.406
	c-3.28,3.826-6.609,7.709-9.995,11.658c-0.51,0-1.085,0-1.756,0c-1.167-2.192-0.302-4.672-1.059-7.098
	C46.848,108.205,44.027,108.133,41.196,108.062z"></path>
<path class="stroke" fill="#580f12" fill-rule="evenodd" clip-rule="evenodd" d="M147.608,124.484c-1.081,1.243-2.386,1.835-6.049,2.888
	c0-0.38-0.138-0.908,0.021-1.023C143.281,125.121,145.108,124.217,147.608,124.484z"></path>
<path class="stroke" fill="#580f12" fill-rule="evenodd" clip-rule="evenodd" d="M141.255,124.899c0.221-1.994,2.075-2.794,4.117-1.966
	C143.844,123.664,142.549,124.282,141.255,124.899z"></path>
<path fill-rule="evenodd" clip-rule="evenodd" fill="#de4555" class="fill" d="M80.369,95.175c-1.328-0.104-2.655-0.209-4.109-0.323
	c-0.13,0.248-0.289,0.552-0.569,1.085c1.2,0.346,2.232,0.644,3.26,0.94c0.205,0.609-0.025,0.892-0.633,0.86
	c-0.649-0.035-1.299-0.147-1.947-0.135c-0.625,0.013-0.943,0.371-0.767,1.24c0.718,0.189,1.504,0.397,2.446,0.646
	c-0.109,0.35-0.214,0.683-0.36,1.146c-0.925,0-1.811,0-2.782,0c-0.028,0.445-0.048,0.744-0.071,1.111
	c0.734,0.219,1.397,0.417,2.125,0.634c-0.286,1.749-1.841,0.429-2.553,1.295c0,0.156,0,0.455,0,0.827
	c0.634,0.182,1.24,0.357,1.871,0.539c0,0.308,0,0.556,0,0.755c-0.499,0.809-2.051-0.12-2.055,1.472
	c0.545,0.278,1.127,0.575,2.117,1.08c-1.128,0.299-1.83,0.485-2.51,0.666c-0.423,1.519,1.108,0.988,1.548,1.624
	c-0.013,0.225-0.028,0.478-0.048,0.836c-0.507,0.218-1.022,0.439-1.507,0.648c-0.431,1.077,0.496,1.188,1.133,1.502
	c-0.576,0.409-1.045,0.741-1.665,1.18c0.779,0.625,1.358,1.091,2.144,1.722c-0.84,0.489-1.36,0.793-2.107,1.228
	c0.596,0.559,1.059,0.994,1.622,1.522c-0.713,0.34-1.293,0.616-2.239,1.066c0.904,0.471,1.44,0.749,1.997,1.039
	c0.578,1.542-1.283,0.903-1.556,1.745c-0.201,1.296,1.179,0.602,1.557,1.111c0.536,1.452-1.355,1.024-1.451,2.206
	c0.512,0.207,1.089,0.439,1.631,0.658c-0.054,1.093-1.792,0.517-1.505,1.913c0.542,0.151,1.13,0.313,1.74,0.483
	c0.049,0.289,0.092,0.54,0.137,0.802c-0.53,0.441-1.03,0.858-1.862,1.551c0.92,0.247,1.431,0.384,2.096,0.562
	c0.045,0.329,0.104,0.749,0.172,1.228c-1.499,0-2.886,0-4.288,0c-0.083-0.468-0.183-0.722-0.164-0.968
	c0.753-9.658,0.562-19.31-0.154-28.958c-0.335-4.526-1.598-8.842-3.024-13.123c-1.317-3.958-2.791-7.883-3.004-12.116
	c-0.035-0.69-0.07-1.38-0.124-2.449c6.333,3.105,10.431,7.97,14.129,13.367c-0.702,0.262-1.275,0.476-1.96,0.733
	c0.932,1.918,3.355,0.619,4.51,2.555c-1.054-0.078-1.832-0.124-2.609-0.195c-0.74-0.067-1.478-0.161-2.287-0.251
	c-0.124,1.535,0.922,1.414,1.654,1.634c0.71,0.215,1.432,0.394,2.148,0.589C80.453,94.697,80.411,94.936,80.369,95.175z"></path>
<path fill-rule="evenodd" clip-rule="evenodd" fill="#de4555" class="fill" d="M59.469,103.758c-2.028,2.782-3.916,5.448-6.498,8.192
	c-0.149-1.866-0.259-3.258-0.37-4.65c-1.483-1.201-3.2-0.579-4.761-0.812c-1.536-0.229-3.088-0.358-4.75-0.543
	c0-1.134,0-2.135,0-3.437c2.99-0.205,5.926-0.407,9.059-0.621c0.315-1.516,0.588-2.827,0.903-4.347
	C55.854,98.918,57.227,101.681,59.469,103.758z"></path>
</svg>