<svg version="1.1" xmlns="http://www.w3.org/2000/svg" x="0px" y="0px" width="200px" height="200px" viewBox="0 0 200 200">
  <path fill="#670431" fill-rule="evenodd" clip-rule="evenodd" d="M122.244,159.615c1.475,2.641,0.142,4.303-1.942,6.654
	c-0.291,0.328-0.721,0.532-1.071,0.812c-1.776,1.418-3.279,3.034-4.064,5.237c-0.933,2.624-2.822,4.575-4.821,6.387
	c-1.661,1.505-3.474,2.841-5.224,4.247c-0.232,0.188-0.479,0.364-0.734,0.517c-3.873,2.303-5.115,2.169-8.207-0.584
	c-0.585-1.073-0.56-2.061,0.014-3.143c0.675-1.272,1.172-2.64,1.741-3.968c1.575-3.677,4.241-6.478,7.236-9.016
	c0.798-0.677,1.672-1.28,2.392-2.032c0.784-0.82,1.469-1.745,2.123-2.676c0.602-0.854,1.102-1.779,1.652-2.67
	c1.224-1.977,2.881-3.278,5.304-3.34c2.431-2.891,3.172-6.114,2.402-9.789c-1.044-4.984-3.713-8.938-7.331-12.392
	c-3.941-3.762-8.056-7.315-12.709-10.152c-4.21-2.566-8.566-4.893-12.859-7.32c-5.463-3.088-11.035-5.988-16.17-9.632
	c-1.986-1.409-4.006-2.775-6.012-4.16c-2.527-1.744-4.5-4.066-6.51-6.338c-1.779-2.014-3.446-4.127-5.214-6.152
	c-2.292-2.626-3.899-5.634-5.022-8.901c-0.808-2.351-1.693-4.705-2.167-7.131c-0.425-2.177-0.421-4.451-0.455-6.686
	c-0.089-5.839,2.101-11.08,4.359-16.31c1.482-3.434,3.743-6.312,6.115-9.135c1.472-1.752,2.954-3.473,4.669-5.013
	c4.474-4.016,9.48-7.068,15.309-8.608c5.488-1.449,11.057-1.973,16.744-1.268c3.572,0.442,7.078,1.133,10.557,2.011
	c0.812,0.205,1.588,0.558,2.311,0.816c2.129-0.511,4.215-0.974,6.28-1.516c2.524-0.662,5.08-0.965,7.682-0.796
	c4.781,0.312,9.552,0.781,13.995,2.725c2.502,1.096,4.922,2.398,7.307,3.734c3.192,1.789,6.055,4.049,8.318,6.931
	c1.314,1.673,2.449,3.524,3.431,5.416c2.325,4.482,4.077,9.181,4.671,14.242c0.081,0.692,0.122,1.397,0.086,2.091
	c-0.116,2.239-0.29,4.475-0.417,6.713c-0.193,3.424-1.212,6.662-2.267,9.879c-1.291,3.937-2.213,7.95-3.014,12.009
	c-0.661,3.346-1.071,6.724-0.987,10.102c0.112,4.474,0.364,8.946,1.6,13.324c1.179,4.18,2.378,8.333,4.278,12.251
	c0.128,0.266,0.276,0.521,0.398,0.75c2.739,0.282,3.977,0.54,4.459,4.344c0.188,1.481,0.15,2.989,0.315,4.474
	c0.353,3.19,1.656,6.067,3.365,8.706c1.88,2.901,2.62,6.098,3.072,9.421c0.161,1.185,0.069,2.433,0.405,3.559
	c0.632,2.12-1.616,4.341-3.552,4.475c-0.645,0.044-1.289,0.08-2.013,0.125c-1.938-2.038-3.717-4.227-5.35-6.556
	c-1.388-1.979-2.575-4.041-3.142-6.387c-0.324-1.343-0.505-2.749-0.527-4.13c-0.027-1.782-0.497-3.443-1.013-5.108
	c-0.113-0.364-0.396-0.683-0.627-1.004c-0.553-0.771-1.113-1.534-1.684-2.291c-1.605-2.132-1.744-5.349,0.624-7.71
	c-0.371-0.864-0.763-1.771-1.15-2.68c-1.66-3.894-3.39-7.77-4.449-11.88c-1.171-4.544-1.644-9.167-1.844-13.874
	c-0.181-4.246,0.474-8.345,1.043-12.479c0.216-1.56,0.876-3.052,1.214-4.601c0.827-3.809,2.077-7.48,3.337-11.16
	c1.457-4.255,1.96-8.652,1.213-13.118c-0.496-2.962-1.522-5.786-2.786-8.497c-0.468-1.006-1.322-1.843-2.052-2.715
	c-0.925-1.106-1.905-2.166-2.853-3.254c-2.733-3.139-6.139-5.348-9.805-7.237c-2.507-1.292-5.147-2.215-7.888-2.668
	c-2.64-0.436-5.339-0.771-8.039-0.345c-0.319,0.051-0.631,0.155-1.153,0.287c0.847,0.622,1.479,1.179,2.192,1.595
	c3.237,1.884,5.469,4.743,7.589,7.718c0.635,0.89,1.27,1.782,1.886,2.686c2.698,3.958,4.601,8.253,5.484,12.98
	c0.376,2.002,0.996,3.981,1.146,5.998c0.245,3.319,0.42,6.643-0.324,9.974c-0.607,2.713-1.628,5.212-2.83,7.684
	c-1.637,3.367-3.929,6.216-6.655,8.74c-0.4,0.369-0.819,0.734-1.281,1.019c-3.018,1.862-6.172,3.457-9.55,4.55
	c-3.149,1.018-6.343,1.468-9.701,1.097c-3.583-0.396-6.962-1.402-10.078-3.069c-2.351-1.257-4.523-2.911-6.594-4.609
	c-2.508-2.056-4.807-4.381-6.489-7.186c-1.124-1.874-2.057-3.867-2.999-5.843c-1.945-4.077-2.549-8.444-2.791-12.906
	c-0.192-3.568,0.584-6.96,1.78-10.238c1.301-3.568,3.219-6.807,5.657-9.777c2.771-3.375,5.925-6.317,9.246-9.105
	c0.679-0.569,1.518-0.95,2.291-1.404c0.594-0.35,1.198-0.68,1.859-1.052c-0.408-0.658-1.01-0.547-1.496-0.605
	c-1.436-0.171-2.878-0.304-4.32-0.404c-3.217-0.224-6.438,0.087-9.456,1.086c-6.108,2.022-11.833,4.946-16.296,9.668
	c-3.585,3.794-6.783,7.933-8.779,12.905c-1.717,4.277-2.312,8.747-2.867,13.24c-0.218,1.764,0.498,3.431,1.048,5.085
	c1.226,3.688,3.346,6.885,5.576,10.01c3.104,4.35,6.485,8.472,10.562,11.956c2.116,1.809,4.31,3.538,6.555,5.185
	c4.267,3.125,8.974,5.546,13.535,8.191c3.699,2.146,7.561,4.013,11.253,6.171c2.791,1.631,5.398,3.574,8.144,5.291
	c3.357,2.103,6.341,4.688,9.257,7.318c2.314,2.087,4.647,4.253,6.063,7.147c1.755,3.591,2.752,7.375,2.765,11.376
	c0.01,2.964-0.99,5.677-2.371,8.258C123.521,157.341,122.858,158.504,122.244,159.615z"/>
  <path fill="#fa57ac" fill-rule="evenodd" clip-rule="evenodd" d="M153.553,128.104c-0.218,0.187-0.47,0.402-0.79,0.676
	c-0.269-0.298-0.577-0.51-0.704-0.802c-0.996-2.277-1.992-4.556-2.921-6.861c-2.18-5.413-3.139-11.098-3.732-16.87
	c-0.37-3.585-0.477-7.167,0.005-10.733c0.479-3.56,1.327-7.046,2.541-10.438c0.706-1.969,1.373-3.953,1.99-5.951
	c0.733-2.38,1.561-4.75,2.038-7.186c0.438-2.229,0.737-4.556,0.616-6.813c-0.231-4.316-1.51-8.426-3.518-12.255
	c-0.754-1.437-1.833-2.71-2.818-4.018c-0.839-1.113-1.749-2.173-2.638-3.247c-2.545-3.077-5.603-5.469-9.223-7.197
	c-3.323-1.585-6.784-2.534-10.429-2.988c-2.079-0.26-4.133-0.746-6.242-0.549c-1.883,0.177-3.77,0.371-5.635,0.672
	c-1.861,0.301-3.709,0.698-5.543,1.136c-4.965,1.183-9.483,3.267-13.336,6.686c-0.818,0.725-1.751,1.318-2.596,2.014
	c-3.854,3.176-6.922,7.024-9.345,11.357c-1.449,2.591-2.079,5.482-2.294,8.443c-0.453,6.243,1.125,12.056,3.949,17.543
	c1.299,2.523,2.924,4.879,5.003,6.858c0.644,0.613,1.358,1.188,2.126,1.633c3.883,2.248,7.77,4.509,12.312,5.212
	c2.143,0.331,4.272,0.099,6.396-0.176c3.615-0.468,7.028-1.611,9.909-3.85c1.907-1.482,3.512-3.357,5.233-5.075
	c0.383-0.381,0.73-0.81,1.021-1.264c0.528-0.83,1.109-1.65,1.478-2.553c0.805-1.978,1.542-3.97,2.079-6.062
	c0.869-3.383,0.672-6.728,0.169-10.075c-0.348-2.305-0.907-4.593-1.569-6.828c-0.448-1.511-1.192-2.943-1.892-4.367
	c-0.832-1.694-1.569-3.484-2.686-4.981c-1.979-2.652-3.789-5.449-6.483-7.541c-1.866-1.448-3.792-2.723-5.92-3.722
	c-0.619-0.289-1.188-0.687-1.832-1.066c1.332-0.911,2.62-1.056,3.808-0.482c1.666,0.803,3.153,1.846,4.563,3.06
	c2.237,1.925,4.388,3.963,6.143,6.295c2.633,3.498,5.017,7.194,6.062,11.564c0.661,2.759,1.549,5.475,2.047,8.261
	c0.731,4.098,0.774,8.168-0.587,12.248c-1.138,3.411-2.726,6.559-4.84,9.38c-2.16,2.881-4.941,5.156-8.155,6.915
	c-3.308,1.81-6.89,2.685-10.537,3.11c-2.606,0.305-5.307-0.15-7.795-1.095c-4.442-1.687-8.628-3.899-12.313-6.931
	c-1.18-0.969-2.235-2.143-3.15-3.37c-2.593-3.478-4.318-7.388-5.439-11.571c-0.79-2.941-1.561-5.911-1.507-8.968
	c0.107-6.173,2.074-11.766,5.873-16.632c1.96-2.51,4.104-4.888,6.285-7.213c1.573-1.68,3.549-2.886,5.559-4.006
	c1.915-1.066,3.835-2.127,5.733-3.223c2.354-1.359,4.822-2.308,7.565-2.563c1.476-0.138,2.938-0.496,4.385-0.849
	c3.19-0.776,6.437-0.539,9.669-0.676c2.913-0.123,5.494,0.905,8.079,1.928c2.68,1.062,5.414,1.998,7.933,3.463
	c5.18,3.015,9.612,6.724,12.248,12.279c1.587,3.345,2.944,6.787,3.678,10.397c0.54,2.666,0.741,5.436,0.753,8.16
	c0.009,1.812-0.492,3.649-0.924,5.438c-0.971,4.017-1.964,8.031-3.087,12.007c-1.467,5.194-2.708,10.419-2.816,15.845
	c-0.074,3.741,0.083,7.488,0.772,11.161c0.549,2.929,1.347,5.821,2.221,8.672C151.369,122.315,152.475,125.09,153.553,128.104z"/>
  <path fill="#fa57ac" fill-rule="evenodd" clip-rule="evenodd" d="M100.341,31.683c-0.896,0.377-1.573,0.661-2.211,0.93
	c-1.693-0.396-3.334-0.805-4.985-1.161c-3.592-0.775-7.195-0.729-10.803-0.1c-0.146,0.025-0.291,0.084-0.437,0.084
	c-4.272,0.005-7.848,2.104-11.422,4.016c-2.351,1.258-4.526,2.898-6.615,4.574c-2.683,2.153-4.903,4.749-6.897,7.592
	c-2.631,3.749-4.703,7.74-6.096,12.075c-0.574,1.791-0.983,3.665-1.201,5.532c-0.556,4.784-0.142,9.451,2.241,13.773
	c1.702,3.09,3.1,6.355,5.231,9.2c2.488,3.319,5.295,6.327,8.348,9.154c2.641,2.446,5.381,4.764,8.368,6.712
	c4.292,2.8,8.771,5.319,13.21,7.889c3.922,2.27,7.946,4.364,11.839,6.682c3.332,1.984,6.618,4.066,9.779,6.31
	c2.429,1.723,4.86,3.48,6.902,5.701c1.343,1.46,2.986,2.682,4.144,4.267c3.597,4.922,5.17,10.342,3.729,16.485
	c-0.571,2.438-1.571,4.586-3.024,6.654c-0.571-0.373-1.097-0.715-1.653-1.077c0.428-0.799,0.77-1.571,1.228-2.267
	c1.535-2.332,1.803-4.895,1.576-7.598c-0.39-4.681-2.633-8.495-5.478-12.05c-2.665-3.33-5.819-6.159-9.219-8.686
	c-2.556-1.898-5.239-3.651-7.99-5.255c-5.12-2.983-10.338-5.799-15.502-8.708c-3.385-1.907-6.811-3.753-10.103-5.812
	c-4.742-2.966-9.083-6.435-13.021-10.452c-3.13-3.193-5.677-6.803-8.255-10.402c-0.8-1.119-1.37-2.417-1.94-3.681
	c-1.59-3.522-2.606-7.198-2.856-11.075c-0.191-2.955-0.061-5.891,0.632-8.763c0.853-3.538,1.848-7.034,3.637-10.255
	c2.558-4.604,5.566-8.866,9.308-12.585c4.377-4.351,9.685-7.166,15.538-8.857c3.823-1.105,7.785-1.62,11.815-0.975
	c1.468,0.235,2.977,0.307,4.466,0.295c2.49-0.019,4.787,0.818,7.14,1.428C99.896,31.312,100.004,31.443,100.341,31.683z"/>
  <path fill="#fa57ac" fill-rule="evenodd" clip-rule="evenodd" d="M151.084,133.296c1.849-1.834,3.994-2.743,6.635-2.414
	c0.955,0.804,0.839,1.961,0.955,3.023c0.109,0.988,0.116,1.987,0.197,2.979c0.237,2.896,1.172,5.616,2.901,7.886
	c2.272,2.982,3.291,6.319,3.697,9.935c0.183,1.618,0.324,3.241,0.493,4.955c-0.816,0.468-1.484,0.853-2.142,1.229
	c-1.372-0.696-2.423-1.617-3.226-2.756c-1.752-2.483-3.432-5.028-4.499-7.892c-0.443-1.19-0.637-2.486-0.838-3.751
	c-0.218-1.373-0.308-2.766-0.461-4.148c-0.217-1.953-1.042-3.621-2.384-5.043C151.401,136.224,150.953,134.956,151.084,133.296z"/>
  <path fill="#fa57ac" fill-rule="evenodd" clip-rule="evenodd" d="M97.759,180.664c1.195-2.206,2.289-4.512,3.655-6.643
	c0.9-1.404,2.128-2.622,3.328-3.802c1.524-1.502,3.173-2.879,4.764-4.315c1.088-0.982,1.939-2.11,2.41-3.535
	c0.262-0.796,0.725-1.525,0.916-1.912c2.11-2.153,3.947-1.148,5.744-0.224c1.068,0.55,1.408,1.456,1.351,3.296
	c-0.876,0.791-1.827,1.735-2.866,2.568c-1.398,1.12-2.511,2.46-3.111,4.127c-0.904,2.511-2.444,4.524-4.423,6.256
	c-1.912,1.672-3.787,3.39-5.73,5.023c-0.636,0.535-1.394,0.992-2.171,1.277C99.985,183.381,98.518,182.596,97.759,180.664z"/>
</svg>