<svg version="1.1" xmlns="http://www.w3.org/2000/svg" x="0px" y="0px" width="200px" height="200px" viewBox="0 0 200 200">
  <path fill="#672a19" fill-rule="evenodd" clip-rule="evenodd" d="M118.719,101.906c-2.958,2.488-5.878,4.948-8.802,7.403
    c-1.185,0.994-2.404,1.95-3.566,2.97c-5.509,4.832-10.977,9.712-16.516,14.508c-2.69,2.329-5.521,4.494-8.257,6.77
    c-3.888,3.234-7.747,6.504-11.619,9.757c-0.39,0.328-0.791,0.644-1.26,1.024c-2.027-0.911-3.975-1.782-4.538-4.402
    c0.887-0.905,1.732-1.875,2.685-2.722c3.663-3.258,7.289-6.562,11.058-9.69c7.027-5.836,13.982-11.748,20.735-17.902
    c4.268-3.889,8.722-7.574,13.089-11.355c0.618-0.536,1.217-1.094,1.844-1.658c-0.392-0.661-0.672-1.28-1.083-1.796
    c-1.216-1.528-1.488-3.317-1.727-5.187c-0.712-5.565,1.304-10.427,3.678-15.229c1.992-4.032,4.347-7.841,6.752-11.636
    c1.9-2.999,3.504-6.188,5.193-9.316c1.32-2.447,2.639-4.899,3.825-7.414c0.767-1.625,1.35-3.345,1.912-5.056
    c0.674-2.053,1.231-4.144,1.855-6.212c0.111-0.368,0.299-0.713,0.543-1.278c1.921,1.523,1.231,3.769,2.116,5.574
    c1.511-3.649,2.977-7.188,4.451-10.747c0.872-0.152,1.14,0.33,1.156,1.04c0.099,4.52,1.263,8.882,1.981,13.308
    c0.91,5.604,2.261,11.114,3.928,16.547c0.861,2.807,1.842,5.611,2.32,8.491c0.85,5.12,0.909,10.301-0.469,15.364
    c-1.491,5.477-4.186,10.34-8.286,14.291c-1.35,1.302-3.062,2.286-4.737,3.177c-2.84,1.51-5.927,2.419-9.104,2.867
    C124.781,103.834,121.705,103.724,118.719,101.906z M134.856,54.772c0.259,2.325,0.413,4.384,0.738,6.416
    c0.252,1.574,0.695,3.121,1.093,4.669c0.902,3.508,1.533,7.039,1.371,10.692c-0.069,1.542-0.388,2.974-1.19,4.268
    c-0.617,0.995-1.356,1.915-2.08,2.922c0.714,1.312,0.514,2.678,0.026,4.018c-1.459,4.003-4.216,6.822-8.138,8.388
    c-2.081,0.83-3.735,2.157-5.329,3.632c-0.144,0.134-0.229,0.331-0.38,0.556c0.252,0.334,0.491,0.65,0.671,0.889
    c1.141,0.164,2.151,0.421,3.163,0.424c1.489,0.005,2.99-0.085,4.465-0.291c3.267-0.458,6.257-1.698,8.99-3.527
    c2.892-1.936,4.935-4.594,6.683-7.589c3.568-6.113,4.508-12.679,3.56-19.552c-0.386-2.795-1.209-5.535-1.903-8.283
    c-0.63-2.5-1.381-4.969-2.031-7.463c-1.525-5.85-2.565-11.786-3.111-17.811c-0.07-0.771-0.35-1.524-0.533-2.285
    c-1.633,3.579-3.302,7.015-3.546,10.916c-0.526,0-0.859,0-1.271,0c-0.579-1.606-1.139-3.162-1.798-4.991
    c-0.268,0.687-0.43,1.104-0.593,1.521c-0.693,1.777-1.25,3.623-2.104,5.317c-3.116,6.172-6.328,12.292-10.159,18.066
    c-2.432,3.665-4.396,7.593-6.028,11.676c-1.352,3.384-2.234,6.905-2.181,10.55c0.037,2.481,0.151,5.082,2.514,6.916
    c1.106-0.908,2.584-1.477,3.021-2.956c0.456-1.54,1.267-2.81,2.289-3.984c1.482-1.705,2.985-3.39,4.555-5.169
    c-0.816-1.5-0.584-3.143-0.296-4.862c0.575-3.438,2.045-6.581,3.001-9.889c0.034-0.116,0.224-0.188,0.479-0.386
    c0.428,0.433,0.849,0.859,1.457,1.475c0.428-5.247,2.298-9.858,3.781-14.716C134.46,54.557,134.71,54.693,134.856,54.772z"/>
  <path fill="#ffc524" fill-rule="evenodd" clip-rule="evenodd" d="M119.606,94.51c0.729,0.57,1.329,1.038,2.067,1.614
    c-1.225,1.179-2.323,2.303-3.493,3.348c-4.423,3.947-8.984,7.75-13.277,11.833c-6.132,5.832-12.652,11.214-18.989,16.807
    c-3.36,2.965-6.936,5.688-10.412,8.52c-1.64,1.336-3.271,2.683-4.919,4.008c-0.519,0.416-1.082,0.778-1.739,1.246
    c-0.649-0.521-1.268-1.017-2.044-1.639c0.491-0.53,0.833-0.957,1.231-1.321c5.523-5.046,11.204-9.902,16.979-14.662
    c5.208-4.294,10.135-8.929,15.195-13.402c1.352-1.195,2.726-2.366,4.107-3.527c3.591-3.021,7.196-6.025,10.786-9.044
    c0.868-0.731,1.693-1.512,2.559-2.246C118.244,95.546,118.864,95.092,119.606,94.51z"/>
  <path fill="#ffc524" fill-rule="evenodd" clip-rule="evenodd" d="M132.602,85.679c-0.246,2.588-1.259,4.939-3.486,6.481
    c-1.588,1.101-3.461,1.789-5.275,2.696c-0.799-0.734-1.507-1.385-2.359-2.167c0.537-0.947,1.017-1.901,1.597-2.793
    c1.198-1.845,2.877-3.237,4.589-4.563C129.359,84.022,131.199,84.167,132.602,85.679z"/>
</svg>