<svg style="top: 3%; left: 4%; height: 42%; width: 42%;" version="1.1" id="svg_4791" xmlns="http://www.w3.org/2000/svg" xmlns:xlink="http://www.w3.org/1999/xlink" x="0px" y="0px" width="200px" height="200px" viewBox="0 0 200 200" enable-background="new 0 0 200 200" xml:space="preserve">
<path class="stroke" fill="#580f12" fill-rule="evenodd" clip-rule="evenodd" d="M41.075,103.184c-1.637-1.831-3.321-3.71-5-5.595
	c-1.793-2.014-2.172-4.517-2.383-7.058c-0.186-2.245-0.103-4.529-0.48-6.738c-0.621-3.638-0.072-7.246-0.044-10.863
	c0.044-5.646,1.509-11.088,2.666-16.569c0.667-3.162,2.794-5.141,5.46-6.562c1.531-0.817,3.281-0.572,4.73,0.331
	c2.201,1.371,4.384,2.809,6.389,4.446c2.312,1.889,4.424,4.024,6.605,6.038c1.03-0.149,2.186-0.317,3.469-0.503
	c0.346-1.11,0.75-2.405,1.278-4.097c-0.401-0.49-0.917-1.273-1.581-1.902c-1.779-1.683-3.015-3.702-3.977-5.991
	c0.152-0.497,0.311-1.012,0.351-1.145c3.25-2.11,6.206-4.029,9.328-6.056c1.44,1.769,2.782,3.66,4.377,5.307
	c1.561,1.612,3.379,2.975,5.005,4.379c3.891-0.096,7.033,1.078,9.082,4.099c1.988-0.648,3.732-1.215,5.159-1.68
	c3.604-4.976,6.977-9.799,10.538-14.479c2.105-2.768,4.278-5.541,7.275-7.469c2.886-1.857,6.24-1.205,8.041,1.691
	c0.785,1.262,1.495,2.662,1.828,4.095c0.729,3.125,1.215,6.308,1.761,9.474c0.338,1.957,0.581,3.93,0.906,5.889
	c0.257,1.546,0.573,3.082,0.883,4.727c1.202,0.139,2.353,0.272,3.598,0.417c-0.242,1.08-0.416,1.854-0.628,2.795
	c1.846,0.707,3.606,1.383,5.455,2.091c-0.303,1.58-1.4,2.527-2.473,3.758c2.608,2.022,5.162,4.001,8.006,6.206
	c-0.981,0.835-1.715,1.459-2.482,2.112c2.465,2.948,4.955,5.925,7.449,8.908c-0.802,2.84-3.043,1.351-4.714,1.665
	c0.138,0.913,0.267,1.761,0.379,2.511c2.551,1.814,5.167,3.456,7.527,5.407c3.474,2.869,7.001,5.703,9.613,9.48
	c1.879,2.718,3.006,5.577,3.103,8.952c0.168,5.85-0.771,11.446-3.003,16.848c-0.626,1.515-1.198,3.064-1.638,4.641
	c-0.734,2.637-2.219,4.682-4.494,6.161c-3.783,2.458-7.441,5.153-11.399,7.289c-5.599,3.022-11.676,3.963-17.919,2.331
	c-3.898-1.019-7.707-2.381-11.551-3.603c-2.754-0.875-5.492-1.132-8.207,0.13c-2.313,1.076-4.498,0.81-6.647-0.504
	c-2.391-1.462-4.401-3.258-5.576-6.055c-2.694-0.203-5.394-0.542-8.097-0.581c-4.378-0.062-8.318-1.573-12.168-3.395
	c-4.414-2.088-8.512-4.677-12.081-8.06c-0.685-0.649-1.538-1.132-2.353-1.63c-2.04-1.247-3.524-3.041-4.837-4.972
	c-1.345-1.979-2.668-3.986-3.804-6.087c-0.637-1.177-0.953-2.551-1.277-3.87C42.002,107.77,41.593,105.616,41.075,103.184z
	 M109.505,56.759c0.369,0.104,0.738,0.208,1.328,0.374c-2.986,3.213-7.109,3.696-10.459,5.384c-0.667,0.74-0.002,2.113-1.504,2.383
	c-0.233-0.48-0.457-0.939-0.666-1.371c-0.769-0.42-1.522-0.832-2.348-1.283c0.376-0.776,0.656-1.357,0.903-1.867
	c-0.877-0.598-1.644-1.121-2.57-1.752c0.515-0.44,0.844-0.721,1.167-0.996c0.731,0.457,1.35,0.843,2.062,1.288
	c0.231-0.461,0.405-0.807,0.561-1.117c-0.431-0.888-1.866-1.01-1.52-2.254c0.947-1.135,1.541,0.321,2.479,0.304
	c0.237-0.604,0.477-1.214,0.703-1.792c-0.514-0.592-0.948-1.091-1.668-1.92c0.337-0.372,0.625-0.69,0.913-1.008
	c0.125,0.124,0.251,0.248,0.377,0.372c0.404,0.186,0.811,0.372,1.329,0.61c0.363-0.752,0.681-1.41,0.969-2.005
	c-0.466-0.499-0.821-0.88-1.132-1.212c0.48-1.374,1.462-0.41,2.372-0.716c2.998-4.017,6.105-8.181,9.123-12.224
	c0.847-0.229,1.478-0.399,2.334-0.63c-0.417-0.546-0.712-0.934-1.048-1.374c-2.461,0.717-4.184,2.332-5.794,3.957
	c-4.351,4.391-8.019,9.33-11.27,14.59c-1.345,2.175-2.595,4.536-5.959,4.898c1.067,1.278,1.727,2.469,2.724,3.194
	c3.842,2.792,7.119,6.188,10.524,9.45c1.812,1.735,3.586,3.509,5.597,5.48c0.147-1.899,0.658-3.167,2.7-3.212
	c0.563,0.342,1.264,0.762,1.958,1.191c0.174,0.107,0.334,0.24,0.496,0.366c1.339,1.03,2.87,1.095,4.488,1.05
	c4.467-0.125,6.804,3.651,5.583,7.453c-0.119,0.37-0.236,0.74-0.402,1.261c3.192,0.57,6.229,1.113,9.382,1.677
	c-0.396-0.802-0.752-1.522-1.07-2.169c0.691-1.796,2.548-0.692,3.811-1.705c-1.14-1.235-2.156-2.403-3.247-3.498
	c-1.095-1.098-2.529-1.929-2.716-3.777c0.297-0.547,0.615-1.134,0.946-1.745c-1.523-2.131-4.392-2.51-6.01-4.605
	c0.641-1.318,1.228-2.523,1.897-3.9c-1.619-0.335-3.113-0.645-4.706-0.975c0.241-1.147,0.437-2.081,0.644-3.066
	c-1.377,0.114-2.5,0.206-3.733,0.308c-0.686-4.021-0.001-8-1.47-11.667c-3.329,0.918-3.329,0.918-4-0.531
	c1.238-0.368,2.453-0.729,3.761-1.117c-0.083-0.613-0.152-1.128-0.211-1.558c-0.706-0.515-1.925,0.247-2.053-1.204
	c0.444-0.29,0.938-0.61,1.659-1.08c-0.52-1.825-1.047-3.685-1.65-5.809c-0.861,0.571-1.443,0.957-2.197,1.456
	c0.673,0.316,1.068,0.502,1.53,0.72c-0.658,1.264-1.782,1.256-2.948,1.3c-0.508,0.766-1.013,1.526-1.618,2.44
	c1.052,0.106,1.805,0.183,2.979,0.302c-1.5,1.419-3.087,1.708-4.533,2.434c-0.174,0.527-0.354,1.077-0.54,1.646
	c1.368,0.592,2.804-0.708,4.18,0.607c-1.792,0.586-3.393,1.11-5.085,1.665c-0.17,0.478-0.34,0.959-0.629,1.772
	c1.667-0.417,3.051-0.764,4.832-1.21c-1.559,2.453-3.878,2.698-5.863,3.58c-0.205,0.798-0.395,1.539-0.609,2.379
	c1.92,0.128,3.462-1.156,5.28-0.562c-0.139,0.441-0.235,0.751-0.334,1.06c-2.154,0.051-3.878,1.204-5.64,2.254
	C105.894,58.611,107.786,57.904,109.505,56.759z M53.439,61.728c-1.011-1.225-1.863-2.206-2.659-3.231
	c-1.496-1.926-3.359-3.437-5.433-4.657c-2.815-1.658-5.583-0.482-6.713,2.608c-1.226,3.349-1.219,6.857-1.534,10.324
	c-0.479,5.265,0.019,10.536-0.051,15.803c-0.037,2.902,0.332,5.728,0.887,8.558c0.378,1.92,0.973,3.76,2.271,5.216
	c1.587,1.779,3.326,3.425,5.045,5.082c1.423,1.371,2.911,2.675,4.329,3.97c-0.206,0.682-0.354,1.168-0.521,1.723
	c1.065,0.395,2.012,0.744,2.965,1.097c0.094,0.725,0.171,1.319,0.24,1.851c1.964,1.403,3.847,2.748,5.644,4.032
	c2.854-0.558,5.582-1.24,8.352-1.593c3.459-0.441,6.951-0.623,10.431-0.89c2.091-0.161,4.187-0.271,6.396-0.41
	c0.555-3.953,2.135-7.248,4.534-10.121c-1.603-1.323-3.078-1.924-4.409-1.472c-2.982,1.013-6.049,1.065-8.848,1.046
	c-1.268,0.517-2.26,0.979-3.289,1.325c-1.101,0.37-2.225,0.699-3.362,0.925c-1.78,0.354-2.83-0.218-3.808-1.918
	c0.834-1.054,0.852-1.014,2.054-1.512c1.501-0.621,3.087-1.062,4.131-2.517c2.331-3.245,5.159-5.84,9.282-6.595
	c0.254-0.046,0.482-0.232,0.688-0.335c0.469-2.069,1.568-3.191,3.508-3.554c1.773-0.331,2.545,1.016,3.427,2.135
	c0.294,0.374,0.491,0.823,0.762,1.218c0.416,0.606,0.857,1.195,1.43,1.987c1.648-1.761,2.887-3.55,3.819-5.523
	c0.926-1.956,1.691-3.987,2.557-6.056c-3.75-4.967-8.686-8.588-13.76-11.667c-1.572,0-2.988,0.341-4.13-0.072
	c-2.231-0.807-4.325-2.006-6.444-3.102c-1.025-0.529-1.98-1.192-2.772-1.676c-1.683,0.223-3.104,0.41-4.579,0.604
	c-0.438,0.288-0.937,0.616-1.398,0.92c-0.659-0.317-1.197-0.576-1.702-0.819c-0.562,0.534-1.047,0.998-1.452,1.384
	c-2.378,0.273-2.91-2.241-4.637-2.813c-0.87,2.319-0.998,4.092-0.311,5.326c0.386-0.778,0.729-1.469,1.17-2.36
	c1.388,1.662-0.071,2.973-0.081,4.494c0.393,1.364,0.829,2.878,1.265,4.393c0.174-0.029,0.348-0.058,0.521-0.087
	c0-1.815,0-3.63,0-5.83c0.672,0.708,1.035,1.09,1.388,1.46c2.067-1.012,5.963-1.525,7.46-0.852c-1.82,1.756-4.35,1.175-6.396,2.291
	c0.183,0.465,0.361,0.92,0.519,1.321c2.082,0.151,3.896-1.061,6.291-0.549c-1.967,2.409-4.779,1.54-6.857,2.861
	c0.036,0.494,0.076,1.048,0.096,1.333c1.248,0.704,2.52-1.026,3.528,0.609c-1.282,1.394-3.086,1.182-4.726,1.894
	c-0.207,0.421-0.48,0.976-0.805,1.632c1.249-0.121,2.278-0.221,3.308-0.32c0.048,0.191,0.097,0.384,0.146,0.576
	c-2.098,1.856-4.963,1.959-7.842,2.958c0.904,0.509,1.528,0.86,2.22,1.249c1.599-0.575,3.146-1.131,4.751-1.709
	c0.291,1.438-0.687,1.664-1.312,2.082c-0.662,0.442-1.412,0.752-2.176,1.146c0.256,0.597,0.438,1.021,0.596,1.387
	c0.916,0.158,1.644-1.069,2.765,0.072c-0.935,0.759-1.797,1.459-2.864,2.326c-0.197,0.442-0.502,1.125-0.784,1.758
	c0.27,0.529,0.499,0.981,0.792,1.557c-2.882,1.68-5.088,4.504-9.037,4.107c0.612-2.328,3.211-1.346,4.059-2.855
	c-0.197-0.931-2.029-0.529-1.608-1.967c2.006-0.723,3.044-2.544,2.434-4.22c-0.443-1.22-1.261-1.407-3.45-0.691
	c0.133,3.147-1.616,5.468-3.83,7.639c-0.982,0.097-2.008,0.199-3.464,0.344c0.855-1.503,1.481-2.603,2.108-3.702
	c1.422-2.499,1.422-2.499,1.35-3.278c-0.84,0.781-1.681,1.804-2.743,2.48c-1,0.636-1.911,2.085-3.833,0.932
	c2.598-1.836,5.475-3.198,6.064-7.005c-0.961,0.501-1.566,0.925-2.238,1.145c-1.283,0.421-2.602,0.738-3.913,1.062
	c-0.134,0.033-0.327-0.175-0.637-0.354c0.255-0.485,0.487-0.928,0.731-1.392c1.904,0.218,3.42-0.325,4.688-1.592
	c-0.505-1.095-0.959-2.079-1.417-3.072c-1.461-0.11-2.847-0.214-4.418-0.332c0.81-2.377,2.956-0.375,3.994-1.836
	c-0.034-0.546-0.077-1.268-0.121-1.976c-1.141-0.347-2.51,0.534-3.159-0.871c0.768-1.352,1.972-0.187,2.797-0.611
	c0.506-2.047,1.002-4.053,1.518-6.141c-0.551-0.219-1.736,1.025-2.208-0.743c2.247-1.334,4.569-2.306,7.385-1.763
	c1.679-1.795,0.585-4.527,2.153-6.564c1.082,2.267-0.013,4.442,0.279,6.474c1.088,0.37,1.335-0.279,1.512-0.986
	C52.721,64.728,53.083,63.2,53.439,61.728z M76.089,124.331c0.586-0.135,1.002-0.231,1.765-0.406c0,1.878,0,3.534,0,5.308
	c1.554,0,2.797,0,4.1,0c-0.148-1.792-0.282-3.41-0.392-4.727c-2.017-1.493-3.859-2.858-6.148-4.552
	c-2.413-0.562-11.121,0.974-12.906,1.952c0.581,1.217,1.432,2.104,2.57,2.431c1.352-0.323,1.129-2.634,3.189-1.958
	c-0.461,1.066-0.88,2.037-1.359,3.148c0.561,0.24,1.014,0.434,1.549,0.662c0.49-0.99,0.876-1.859,1.342-2.683
	c0.445-0.789,0.889-1.72,2.187-1.04c-0.632,1.526-1.22,2.951-1.899,4.595c0.852,0.248,1.446,0.421,2.064,0.601
	c0.37-1.492,0.624-2.759,1.009-3.985c0.251-0.797,0.779-1.283,1.71-0.597c-0.154,1.815-1.016,3.562-0.496,5.535
	c0.551,0.076,1.052,0.146,1.717,0.238C76.089,127.323,76.089,125.967,76.089,124.331z M93.735,124.233
	c0.39,1.207,0.713,2.21,1.091,3.378c1.137-1.029-0.569-3.051,1.717-3.239c0.292,0.966,0.567,1.879,0.969,3.212
	c0.803-1.097,0.29-2.71,1.966-2.472c0.186,0.631,0.371,1.267,0.536,1.83c1.235,0.771,2.277,0.08,3.284-0.293
	c0.48,0.509,0.883,0.936,1.316,1.395c0.714-0.204,1.349-0.386,2.062-0.589c0.321,0.532,0.634,1.049,0.859,1.422
	c1.015-0.283,1.579-0.44,1.916-0.534c0.686,0.579,1.205,1.017,1.73,1.46c0.659-0.928,1.154-1.624,1.711-2.405
	c-0.081-0.238-0.172-0.564-0.301-0.875c-0.153-0.37-0.339-0.727-0.373-0.798c-6.508-1.148-12.757-2.251-19.16-3.382
	c-0.202,0.095-0.568,0.281-0.945,0.438c-0.372,0.154-0.756,0.277-1.09,0.398c-0.549,2.288,0.031,4.004,1.508,4.616
	C92.6,125.137,92.6,125.137,93.735,124.233z M99.083,118.131c2.544,0.985,10.814,2.149,12.863,1.844
	c0.356-0.548,0.754-1.16,1.223-1.879c-2.699-2.3-5.492-4.218-8.739-5.707C102.283,113.9,100.431,115.63,99.083,118.131z
	 M100.136,90.021c-0.415-0.651-0.863-1.254-1.205-1.912c-0.9-1.727-2.162-3.321-1.918-5.479c0.04-0.349-0.453-0.759-0.93-1.498
	c-0.979,4.883-2.834,8.764-6.079,11.985c0.68,0.984,1.319,1.91,1.867,2.703C94.705,93.832,97.318,91.998,100.136,90.021z
	 M123.271,111.943c-2.323-2.691-4.863-4.479-7.746-6.098c-1.221,0.615-2.405,1.212-3.84,1.935c2.876,2.093,5.444,3.961,8.226,5.985
	C120.778,113.294,121.896,112.689,123.271,111.943z M124.258,102.145c2.975,2.447,5.409,4.621,6.829,7.75
	c0.504-0.068,0.938-0.127,1.481-0.201c-0.632-3.115-1.237-6.094-1.899-9.355C128.527,100.943,126.653,101.471,124.258,102.145z
	 M122.267,79.273c-0.871-1.88-1.784-2.603-3.314-2.398c-1.074,0.144-2.16,0.387-3.176,0.762c-1.66,0.614-2.086,1.699-1.571,3.555
	C117.739,82.53,120.911,81.775,122.267,79.273z M81.074,92.657c-1.819,0.711-3.676,1.343-5.443,2.164
	c-0.987,0.458-1.528,1.354-1.063,2.573c0.837,0.965,1.911,1.25,3.127,0.941c1.119-0.286,2.229-0.625,3.323-1
	c0.993-0.342,1.953-0.83,2.051-2.03C83.165,94.114,82.371,93.459,81.074,92.657z M46.252,92.832
	c0.128,0.084,0.256,0.168,0.384,0.252c0.277-0.501,0.556-1.002,0.834-1.503c-0.109-0.062-0.219-0.124-0.329-0.185
	C46.845,91.875,46.549,92.353,46.252,92.832z M116.135,131.114c0.772-0.529,0.925-0.978,0-1.382
	C116.135,130.281,116.135,130.698,116.135,131.114z M113.589,130.223c0.12,0.015,0.24,0.03,0.361,0.044c0-0.562,0-1.125,0-1.688
	c-0.121,0.001-0.241,0.001-0.361,0.002C113.589,129.128,113.589,129.675,113.589,130.223z"></path>
<path class="stroke" fill="#580f12" fill-rule="evenodd" clip-rule="evenodd" d="M174.087,118.144c-1.246,1.749-0.843,4.013-2.56,5.29
	c-1.333-0.313-2.155-1.26-2.989-2.13c-1.894-1.974-3.746-3.988-5.578-6.02c-0.769-0.853-1.65-1.682-1.599-3.224
	c2.23-2.185,4.763-4.259,7.452-6.121c1.443-0.998,3.059-1.75,4.619-2.568c0.154-0.081,0.478,0.163,0.855,0.308
	c-0.084,1.489-0.166,2.949-0.256,4.538c2.656,0.302,5.209,0.267,7.76,1.495c0.131,2.393,0.953,4.857-0.385,7.356
	C178.935,117.431,176.509,117.788,174.087,118.144z"></path>
<path class="stroke" fill="#580f12" fill-rule="evenodd" clip-rule="evenodd" d="M76.546,78.44c-0.937,1.355-2.861,2.158-6.167,2.188
	c-1.909,0.017-3.991,0.541-5.917-0.893c0.413-0.353,0.602-0.656,0.807-0.668C69.031,78.836,72.796,78.641,76.546,78.44z"></path>
<path class="stroke" fill="#580f12" fill-rule="evenodd" clip-rule="evenodd" d="M58.008,95.49c-1.077,2.917-6.821,5.728-10.025,5.051
	c-0.194-0.859,0.273-1.247,1.03-1.413c2.76-0.604,5.354-1.573,7.625-3.316C56.949,95.574,57.469,95.607,58.008,95.49z"></path>
<path class="stroke" fill="#580f12" fill-rule="evenodd" clip-rule="evenodd" d="M66.118,75.965c0.51-0.18,1.039-0.552,1.529-0.508
	c2.461,0.224,4.748-0.263,6.963-1.322c0.62-0.297,1.363-0.339,2.322-0.562C75.062,76.426,69.032,77.902,66.118,75.965z"></path>
<path class="stroke" fill="#580f12" fill-rule="evenodd" clip-rule="evenodd" d="M73.976,82.449c-0.848,0.309-1.676,0.784-2.549,0.894
	c-2.023,0.254-4.069,0.34-6.107,0.476c-0.734,0.049-1.36-0.105-1.446-1.135c0.249-0.153,0.515-0.454,0.798-0.47
	c3.04-0.174,6.083-0.304,9.125-0.446C73.856,81.996,73.916,82.222,73.976,82.449z"></path>
<path class="stroke" fill="#580f12" fill-rule="evenodd" clip-rule="evenodd" d="M71.693,90.542c-1.526,2.306-2.859,4.321-4.319,6.528
	c-0.32-0.069-0.789-0.17-1.138-0.246C65.743,95.402,69.425,91.106,71.693,90.542z"></path>
<path class="stroke" fill="#580f12" fill-rule="evenodd" clip-rule="evenodd" d="M91.943,81.645c0.142,0.358,0.403,0.716,0.405,1.076
	c0.012,2.164-1.105,3.896-2.329,5.536c-0.37,0.495-1.024,0.997-1.925,0.204c0.66-1.095,1.42-2.188,2.002-3.367
	c0.549-1.114,0.91-2.32,1.354-3.485C91.614,81.62,91.779,81.632,91.943,81.645z"></path>
<path class="stroke" fill="#580f12" fill-rule="evenodd" clip-rule="evenodd" d="M57.756,67.681c2.224-1.699,4.717-1.606,7.761-1.521
	c-0.583,0.658-0.807,1.16-1.107,1.211C62.215,67.741,60.031,68.532,57.756,67.681z"></path>
<path class="stroke" fill="#580f12" fill-rule="evenodd" clip-rule="evenodd" d="M62.073,85.546c2.848-0.74,5.224,0.486,7.807,0.307
	C68.007,87.719,64.3,87.679,62.073,85.546z"></path>
<path class="stroke" fill="#580f12" fill-rule="evenodd" clip-rule="evenodd" d="M55.263,110.865c0.022-2.201,1.871-5.366,3.559-6.534
	c0.678,0.587,0.389,1.27,0.018,1.784C57.755,107.619,57.252,109.59,55.263,110.865z"></path>
<path class="stroke" fill="#580f12" fill-rule="evenodd" clip-rule="evenodd" d="M66.122,90.392c-0.925,2.25-1.457,4.697-3.532,6.757
	C62.149,94.844,64.012,91.47,66.122,90.392z"></path>
<path class="stroke" fill="#580f12" fill-rule="evenodd" clip-rule="evenodd" d="M41.143,66.375c0.79-1.519,3.593-2.298,5.431-1.646
	C45.703,66.036,43.323,66.792,41.143,66.375z"></path>
<path class="stroke" fill="#580f12" fill-rule="evenodd" clip-rule="evenodd" d="M61.83,106.98c-0.927,1.384-1.836,2.78-2.81,4.131
	c-0.091,0.126-0.587-0.04-1.004-0.081c0.202-1.754,1.236-2.959,2.135-4.194c0.205-0.283,0.889-0.219,1.352-0.315
	C61.612,106.674,61.722,106.827,61.83,106.98z"></path>
<path class="stroke" fill="#580f12" fill-rule="evenodd" clip-rule="evenodd" d="M63.425,90.889c-0.658,1.647-1.316,3.294-2.005,5.018
	c-0.484-0.135-0.789-0.221-1.268-0.354c0.29-2.137,1.655-3.454,2.831-4.886C63.13,90.741,63.277,90.815,63.425,90.889z"></path>
<path class="stroke" fill="#580f12" fill-rule="evenodd" clip-rule="evenodd" d="M62.781,110.912c-0.017-2.515,0.96-3.843,2.499-3.573
	C64.802,109.754,64.249,110.584,62.781,110.912z"></path>
<path class="stroke" fill="#580f12" fill-rule="evenodd" clip-rule="evenodd" d="M70.146,106.814c-0.269,0.875-0.512,1.669-0.778,2.539c-0.454,0-0.817,0-1.409,0
	c0.101-0.689,0.13-1.271,0.282-1.819C68.44,106.808,68.872,106.346,70.146,106.814z"></path>
<path class="stroke" fill="#580f12" fill-rule="evenodd" clip-rule="evenodd" d="M41.633,62.012c0.804-1.055,1.722-1.14,2.78-0.974
	C43.663,62.544,43.483,62.613,41.633,62.012z"></path>
<path class="stroke" fill="#580f12" fill-rule="evenodd" clip-rule="evenodd" d="M73.977,108.177c-1.229-1.542-1.214-1.638,0.15-2.407
	C75.099,106.562,74.599,107.226,73.977,108.177z"></path>
<path class="stroke" fill="#580f12" fill-rule="evenodd" clip-rule="evenodd" d="M111.309,61.51c2.474,0.432,4.488-0.627,6.679-1.566
	c-0.106,1.666-1.473,1.842-2.15,2.677c1.251,1.958,3.306-0.431,4.822,1.106c-0.767,0.44-1.424,0.816-2.187,1.253
	c0.219,0.39,0.438,0.78,0.696,1.241c1.171,0,2.311,0,3.46,0c0.21,1.469-1.338,1.01-1.743,1.843c1.244,2.017,2.516,4.079,3.83,6.211
	c-0.51,0.47-0.822,0.758-1.231,1.137c-0.31-0.367-0.572-0.583-0.716-0.862c-1.931-3.755-4.505-7.009-7.657-9.805
	c-0.661-0.586-1.444-1.033-2.122-1.603C112.394,62.641,111.866,62.057,111.309,61.51z"></path>
<path class="stroke" fill="#580f12" fill-rule="evenodd" clip-rule="evenodd" d="M118.429,58.974c-2.414,0.551-4.486,1.052-6.574,1.463
	c-0.256,0.05-0.605-0.384-1.02-0.667c0.273-0.297,0.414-0.593,0.62-0.651c1.688-0.474,3.384-0.932,5.09-1.334
	C117.316,57.603,117.331,57.667,118.429,58.974z"></path>
<path class="stroke" fill="#580f12" fill-rule="evenodd" clip-rule="evenodd" d="M106.193,61.803c-0.648,2.186-1.251,4.214-1.867,6.292
	c-1.292-0.484-0.947-1.538-0.839-2.412C103.714,63.867,104.843,62.293,106.193,61.803z"></path>
<path class="stroke" fill="#580f12" fill-rule="evenodd" clip-rule="evenodd" d="M107.487,67.792c-0.497-0.066-0.75-0.1-1.14-0.151
	c0-0.429-0.068-0.828,0.011-1.195c0.507-2.327,1.33-3.636,2.909-4.359C108.648,64.072,108.095,65.844,107.487,67.792z"></path>
<path class="stroke" fill="#580f12" fill-rule="evenodd" clip-rule="evenodd" d="M111.523,56.745c1.923-0.623,3.699-0.976,5.831-1.042
	c-0.834,2.041-2.477,1.794-3.804,2.101C112.767,57.986,111.909,58.131,111.523,56.745z"></path>
<path class="stroke" fill="#580f12" fill-rule="evenodd" clip-rule="evenodd" d="M111.659,53.47c2.773-1.689,4.58-1.898,5.71-0.798
	c-1.144,1.096-2.675,1.11-4.05,1.453C112.945,54.218,112.442,53.797,111.659,53.47z"></path>
<path class="stroke" fill="#580f12" fill-rule="evenodd" clip-rule="evenodd" d="M109.536,68.987c-0.298-0.158-0.524-0.278-0.709-0.377
	c-0.02-0.219-0.09-0.391-0.033-0.478c0.854-1.297,1.443-2.84,3.339-3.806C111.698,66.392,111.019,67.795,109.536,68.987z"></path>
<path class="stroke" fill="#580f12" fill-rule="evenodd" clip-rule="evenodd" d="M113.005,69.241c0.168-0.197,0.311-0.421,0.506-0.584
	c0.298-0.249,0.631-0.456,1.057-0.757c0.449,0.665,0.348,1.249-0.123,1.623c-0.304,0.243-0.846,0.188-1.281,0.266
	C113.11,69.606,113.058,69.423,113.005,69.241z"></path>
<path class="stroke" fill="#580f12" fill-rule="evenodd" clip-rule="evenodd" d="M97.028,86.268c-0.097,0.563-0.157,1.136-0.296,1.688
	c-0.563,2.245-1.88,4.038-3.509,5.612c-0.605,0.584-1.324,1.014-1.957,0.233c1.832-2.625,3.604-5.164,5.377-7.703
	C96.772,86.156,96.899,86.212,97.028,86.268z"></path>
<path class="stroke" fill="#580f12" fill-rule="evenodd" clip-rule="evenodd" d="M119.75,79.396c-0.776,1.375-1.854,1.305-3.034,1.035
	c-0.605-1.1-0.059-1.767,0.793-2.141C118.517,77.849,119.333,78.169,119.75,79.396z"></path>
<path class="stroke" fill="#580f12" fill-rule="evenodd" clip-rule="evenodd" d="M77.124,95.706c0.517-0.484,0.995-0.933,1.574-1.477
	c0.758,0.157,1.501,0.31,2.241,0.463c-0.022,1.324-0.517,2.079-1.539,2.376C78.409,97.357,77.7,96.911,77.124,95.706z"></path>
<path fill-rule="evenodd" clip-rule="evenodd" fill="#de4555" class="fill" d="M120.15,144.941c-1.364-0.07-1.615-0.824-1.52-1.828
	c0.169-1.772,0.395-3.541,0.521-5.316c0.379-5.336,0.42-10.655-0.37-15.98c-0.511-3.449-2.19-5.91-5.138-7.651
	c-2.412-1.424-4.8-2.895-7.156-4.41c-3.631-2.334-7.585-4.042-11.408-6.004c-0.892-0.458-1.725-1.029-2.562-1.534
	c0.408-1.45,1.294-1.843,2.413-1.49c1.359,0.427,2.752,0.882,3.971,1.596c4.012,2.35,7.968,4.795,11.911,7.26
	c1.915,1.197,3.754,2.517,5.625,3.784c1.404,0.951,2.432,2.216,3.02,3.804c1.059,2.863,2.338,5.665,2.176,8.846
	c-0.138,2.725-0.179,5.456-0.216,8.185c-0.027,1.964,0.081,3.93,0.019,5.892C121.381,141.799,121.022,143.453,120.15,144.941z"></path>
<path fill-rule="evenodd" clip-rule="evenodd" fill="#de4555" class="fill" d="M143.501,138.105c-0.045-0.875-0.108-1.385-0.09-1.891
	c0.141-3.966,0.604-7.949,0.375-11.893c-0.324-5.589-1.01-11.171-1.816-16.716c-0.737-5.071-4.092-8.475-8.309-10.902
	c-4.561-2.625-9.33-4.884-14.01-7.3c-0.776-0.401-1.559-0.788-2.788-1.408c0.855-0.251,1.261-0.501,1.632-0.457
	c1.355,0.163,2.771,0.224,4.035,0.682c4.902,1.776,9.591,3.934,13.787,7.161c5.457,4.196,7.932,9.835,8.509,16.439
	c0.562,6.416,0.802,12.85,0.204,19.289c-0.146,1.563-0.025,3.15-0.074,4.724C144.921,136.971,144.886,136.97,143.501,138.105z"></path>
<path fill-rule="evenodd" clip-rule="evenodd" fill="#de4555" class="fill" d="M85.616,65.817c1.327-1.236,2.467-2.297,3.678-3.425
	c1.535,0.474,2.619,1.641,3.789,2.641c2.806,2.396,5.559,4.854,8.342,7.276c1.809,1.575,3.465,3.269,4.639,5.575
	c-2.144,0.755-4.16,1.465-6.267,2.206c-0.791-1.004-1.773-1.991-2.449-3.156c-2.082-3.585-5.213-6.101-8.409-8.569
	C87.913,67.573,86.882,66.788,85.616,65.817z"></path>
<path fill-rule="evenodd" clip-rule="evenodd" fill="#de4555" class="fill" d="M131.326,143.835c-0.555,0.166-0.808,0.278-1.07,0.309
	c-0.26,0.03-0.528-0.022-0.8-0.038c-0.099-0.234-0.254-0.424-0.24-0.6c0.118-1.561,0.258-3.121,0.41-4.679
	c0.08-0.816,0.293-1.63,0.286-2.444c-0.047-5.884-0.083-11.769-0.242-17.65c-0.048-1.751-0.387-3.512-0.753-5.235
	c-0.643-3.017-3.014-4.769-5.114-6.72c-4.519-4.197-9.837-7.117-15.341-9.755c-0.609-0.292-1.202-0.621-2.152-1.113
	c0.762-0.372,1.244-0.607,1.672-0.816c5.424,2.685,10.742,5.19,15.514,8.721c5.391,3.99,7.81,9.484,8.602,15.938
	c0.59,4.809-0.08,9.575-0.291,14.357C131.664,137.315,131.491,140.52,131.326,143.835z"></path>
<path fill-rule="evenodd" clip-rule="evenodd" fill="#de4555" class="fill" d="M108.037,79.524c1.352,4.148,2.655,8.15,4.036,12.39
	c-2.446,0.824-4.617,1.554-6.754,2.274c-1.662-1.476-5.699-8.103-6.378-10.434C101.093,80.78,104.272,79.98,108.037,79.524z
	 M104.854,81.598c-2.87,1.193-3.76,2.261-3.408,4.004c0.276,1.369,1.549,2.268,3.038,2.146c1.776-0.146,3.132-1.419,3.278-3.079
	C107.911,82.985,107.177,82.19,104.854,81.598z"></path>
<path fill-rule="evenodd" clip-rule="evenodd" fill="#de4555" class="fill" d="M150.021,129.646c0.642-3.407,1.861-6.696,1.855-10.239
	c-0.005-2.387,0.299-4.772,0.403-7.161c0.168-3.813-1.48-6.91-4.023-9.571c-1.796-1.879-3.679-3.682-5.601-5.434
	c-1.145-1.043-2.373-1.936-3.908-2.506c-1.297-0.483-2.301-1.7-3.533-2.424c-2.76-1.622-5.583-3.139-8.637-4.842
	c3.533,0.488,6.588,1.523,9.406,3.246c3.982,2.434,7.793,5.1,11.177,8.339c2.687,2.572,5.192,5.309,6.623,8.784
	c0.554,1.344,0.882,2.928,0.782,4.365c-0.314,4.517-1.225,8.942-2.714,13.236c-0.29,0.837-0.429,1.731-0.766,2.546
	c-0.247,0.598-0.702,1.109-1.064,1.66L150.021,129.646z"></path>
<path fill-rule="evenodd" clip-rule="evenodd" fill="#de4555" class="fill" d="M90.112,135.977c-0.288-0.18-0.662-0.415-1.04-0.652
	c0.069-0.305,0.048-0.58,0.167-0.674c2.971-2.354,5.977-4.571,10.147-3.687c4.938,1.046,9.896,2.009,14.837,3.04
	c0.68,0.142,1.32,0.468,1.979,0.709c-0.015,0.145-0.029,0.289-0.044,0.433c-0.331,0.114-0.675,0.353-0.991,0.32
	c-1.967-0.201-3.948-0.351-5.884-0.73c-3.079-0.603-6.116-1.415-9.188-2.057c-2.584-0.539-5.014-0.061-7.221,1.428
	C92.05,134.664,91.227,135.222,90.112,135.977z"></path>
<path fill-rule="evenodd" clip-rule="evenodd" fill="#de4555" class="fill" d="M83.3,115.579c-0.766,0.202-1.531,0.403-2.525,0.664
	c-0.245,0.736-0.539,1.618-0.863,2.593c-2.1-0.407-4.301-0.736-6.446-1.281c-1.644-0.417-2.848-1.482-3.433-3.355
	c0.542-0.104,0.98-0.269,1.413-0.258c3.476,0.087,6.95,0.178,10.422,0.349c0.555,0.028,1.089,0.463,1.633,0.709
	C83.433,115.193,83.366,115.386,83.3,115.579z"></path>
<path fill-rule="evenodd" clip-rule="evenodd" fill="#de4555" class="fill" d="M90.13,137.675c0.303,0.354,0.666,0.674,0.897,1.071
	c1.358,2.33,2.958,3.089,5.624,2.419c1.59-0.399,3.15-0.951,4.678-1.551c1.613-0.633,3.139-0.673,4.787-0.062
	c3.006,1.114,6.064,2.085,9.09,3.112c0.062,0.638,0.098,1.027,0.139,1.458c-0.252,0.067-0.44,0.176-0.615,0.156
	c-3.239-0.375-6.162-1.779-9.155-2.917c-2.062-0.783-3.947-0.944-5.886,0.258c-0.688,0.426-1.492,0.7-2.277,0.923
	c-3.053,0.866-6.753-1.338-7.662-4.523C89.876,137.904,90.003,137.79,90.13,137.675z"></path>
<path fill-rule="evenodd" clip-rule="evenodd" fill="#de4555" class="fill" d="M74.835,51.738c-1.976,0.601-3.868,1.175-5.856,1.779
	c-1.683-1.496-3.34-2.97-5.194-4.619c1.454-1.14,2.669-2.093,3.757-2.946C70.017,47.916,72.34,49.758,74.835,51.738z"></path>
<path fill-rule="evenodd" clip-rule="evenodd" fill="#de4555" class="fill" d="M93.155,120.44c0.061-0.699,0.104-1.207,0.149-1.729
	c0.333-0.029,0.542-0.1,0.723-0.056c2.846,0.709,5.659,1.59,8.537,2.113c3.894,0.708,7.837,1.14,11.758,1.701
	c0.677,0.097,1.553-0.084,1.75,1.303C108.275,123.763,100.873,122.028,93.155,120.44z"></path>
<path fill-rule="evenodd" clip-rule="evenodd" fill="#de4555" class="fill" d="M66.044,61.278c-1.181-1.595-0.86-4.2,0.662-5.163
	c0.459-0.29,0.963-0.554,1.482-0.692c3.165-0.845,6.336-1.666,9.514-2.462c1.426-0.357,2.67-0.048,3.721,1.246
	c-2.96,0.467-5.789,0.868-8.601,1.375c-1.338,0.242-2.674,0.593-3.95,1.061c-1.682,0.617-2.741,1.777-2.576,3.734
	c0.021,0.256-0.059,0.521-0.107,0.779C66.18,61.205,66.094,61.238,66.044,61.278z"></path>
<path fill-rule="evenodd" clip-rule="evenodd" fill="#de4555" class="fill" d="M81.351,61.662c-2.419-1.586-4.611-3.023-6.804-4.46
	c0.008-0.136,0.016-0.272,0.023-0.409c1.554-0.263,3.106-0.525,4.657-0.787c1.468,1.452,3.484,2.147,4.318,4.36
	C82.748,60.836,81.96,61.302,81.351,61.662z"></path>
<path fill-rule="evenodd" clip-rule="evenodd" fill="#de4555" class="fill" d="M91.024,120.76c-2.975,1.765-5,2.133-6.874,1.232
	c1.83-0.878,2.075-2.396,1.7-4.201c1.847,0,3.57,0,5.531,0C91.262,118.791,91.144,119.767,91.024,120.76z"></path>
<path fill-rule="evenodd" clip-rule="evenodd" fill="#de4555" class="fill" d="M138.183,137.122c-0.394-1.05-1.523-16.176-1.236-17.275
	c0.084-0.325,0.424-0.583,0.945-1.26c0.188,0.98,0.357,1.532,0.391,2.091c0.287,4.917,0.553,9.836,0.817,14.755
	C139.139,136.168,139.308,137.002,138.183,137.122z"></path>
<path fill-rule="evenodd" clip-rule="evenodd" fill="#de4555" class="fill" d="M86.532,114.571c-0.305-0.671-0.687-1.097-0.627-1.447
	c0.632-3.73,1.991-7.157,4.538-10.502c0.402,0.98,0.671,1.634,0.857,2.089C89.722,107.976,88.224,111.075,86.532,114.571z"></path>
<path fill-rule="evenodd" clip-rule="evenodd" fill="#de4555" class="fill" d="M79.151,65.403c-3.018-0.535-5.188-2.518-7.768-3.653
	c0.071-0.395,0.061-0.613,0.151-0.772c0.129-0.225,0.334-0.407,0.626-0.746c0.98,0.487,2.01,0.869,2.898,1.462
	c2.433,1.625,4.914,2.729,7.896,1.271C82.051,64.385,80.595,64.752,79.151,65.403z"></path>
<path fill-rule="evenodd" clip-rule="evenodd" fill="#de4555" class="fill" d="M100.409,96.449c-1.088,0.987-2.081,1.888-3.229,2.928
	c-0.916-0.196-1.951-0.417-3.168-0.676c1.422-2.073,3.351-3.268,5.407-4.832C99.802,94.865,100.095,95.63,100.409,96.449z"></path>
<path fill-rule="evenodd" clip-rule="evenodd" fill="#de4555" class="fill" d="M85.07,124.856c0.61-0.105,0.979-0.168,1.249-0.215
	c0.857,2.628,1.674,5.13,2.555,7.83c-0.365,0.321-0.85,0.749-1.522,1.342C86.284,130.766,85.347,127.966,85.07,124.856z"></path>
<path fill-rule="evenodd" clip-rule="evenodd" fill="#de4555" class="fill" d="M133.117,143.727c0.065-0.73,0.101-1.112,0.119-1.324
	c2.528-1.522,4.917-2.96,7.474-4.499c0.293,0.284,0.637,0.617,1.112,1.078C139.188,141.116,136.464,142.563,133.117,143.727z"></path>
<path fill-rule="evenodd" clip-rule="evenodd" fill="#de4555" class="fill" d="M120.265,96.983c-1.865-1.412-3.553-2.679-5.221-3.97
	c-0.121-0.094-0.112-0.357-0.196-0.658c1.164-0.313,2.209-0.071,3.096,0.517c1.466,0.97,2.84,2.078,4.503,3.314
	C121.589,96.499,120.983,96.72,120.265,96.983z"></path>
<path fill-rule="evenodd" clip-rule="evenodd" fill="#de4555" class="fill" d="M133.558,116.244c1.834-0.885,3.451-1.666,5.111-2.467
	c0.572,2.186-1.115,3.787-4.842,4.794C133.743,117.842,133.661,117.138,133.558,116.244z"></path>
<path fill-rule="evenodd" clip-rule="evenodd" fill="#de4555" class="fill" d="M83.854,62.572c0.748-0.879,1.208-1.418,1.693-1.988
	c-0.386-1.826-1.639-3.047-2.843-4.336c2.071,0.775,4.099,1.516,5.47,3.405C87.274,61.269,85.843,61.911,83.854,62.572z"></path>
<path fill-rule="evenodd" clip-rule="evenodd" fill="#de4555" class="fill" d="M121.601,146.07c0.359-0.814,0.601-1.361,0.883-2
	c0.987,0,1.926,0,2.936,0c0.727,0.612,1.535,1.294,2.567,2.166C125.813,146.824,123.871,146.675,121.601,146.07z"></path>
<path fill-rule="evenodd" clip-rule="evenodd" fill="#de4555" class="fill" d="M91.071,110.96c0.234-0.456,0.439-0.854,0.729-1.414
	c1.694,0.911,3.293,1.77,5.01,2.692c-0.211,0.487-0.383,0.887-0.578,1.34C94.129,113.357,92.647,112.188,91.071,110.96z"></path>
<path fill-rule="evenodd" clip-rule="evenodd" fill="#de4555" class="fill" d="M111.159,94.292c0.697-0.247,1.197-0.424,1.793-0.636
	c1.851,1.366,3.682,2.718,5.678,4.19C117.286,98.025,113.165,96.013,111.159,94.292z"></path>
<path fill-rule="evenodd" clip-rule="evenodd" fill="#de4555" class="fill" d="M107.255,104.137c-0.613,0.928-1.174,0.697-1.76,0.43
	c-1.89-0.863-4.751-3.199-5.232-4.53C102.899,101.173,104.849,102.96,107.255,104.137z"></path>
<path fill-rule="evenodd" clip-rule="evenodd" fill="#de4555" class="fill" d="M122.992,122.538c-0.16-0.94-0.257-1.513-0.381-2.24
	c1.2-0.336,2.28-0.639,3.567-0.999c0.09,0.792,0.154,1.355,0.237,2.088C125.302,121.761,124.306,122.096,122.992,122.538z"></path>
<path fill-rule="evenodd" clip-rule="evenodd" fill="#de4555" class="fill" d="M98.152,110.38c-1.991-0.21-3.604-1.231-5.292-2.314
	c0.168-0.424,0.281-0.711,0.434-1.096C95.349,107.556,96.769,108.894,98.152,110.38z"></path>
<path fill-rule="evenodd" clip-rule="evenodd" fill="#de4555" class="fill" d="M148.831,108.159c0.288,0.592,0.512,1.049,0.846,1.734
	c-0.905,0.665-1.731,1.272-2.927,2.151c-0.124-1.167-0.198-1.861-0.28-2.637C147.281,108.979,147.986,108.605,148.831,108.159z"></path>
<path fill-rule="evenodd" clip-rule="evenodd" fill="#de4555" class="fill" d="M150.021,129.643c0.415,2.608-1.204,4.261-3.057,5.976
	c-0.08-0.677-0.16-1.354-0.24-2.027c1.492-1.061,2.992-2.017,3.297-3.945C150.021,129.646,150.021,129.643,150.021,129.643z"></path>
<path fill-rule="evenodd" clip-rule="evenodd" fill="#de4555" class="fill" d="M54.206,120.126c0.097-0.483,0.205-1.022,0.376-1.872
	c1.037,0.523,1.799,0.908,2.632,1.329c0.02,0.424,0.037,0.806,0.055,1.201C56.096,121.354,55.226,120.904,54.206,120.126z"></path>
<path fill-rule="evenodd" clip-rule="evenodd" fill="#de4555" class="fill" d="M90.37,112.626c0.765,0.504,1.462,0.964,2.619,1.728
	c-1.406,0.329-2.333,0.546-3.366,0.787C89.185,114.07,89.799,113.466,90.37,112.626z"></path>
<path fill-rule="evenodd" clip-rule="evenodd" fill="#de4555" class="fill" d="M83.993,119.978c-1.423-0.434-1.994-1.425-2.184-2.813
	C83.801,117.555,84.194,118.058,83.993,119.978z"></path>
<path fill-rule="evenodd" clip-rule="evenodd" fill="#de4555" class="fill" d="M93.315,114.5c0.809,0.349,1.213,0.523,1.798,0.775
	c-0.422,0.584-0.751,1.042-1.081,1.499c-0.141-0.022-0.28-0.044-0.42-0.066C93.532,116.115,93.453,115.522,93.315,114.5z"></path>
<path fill-rule="evenodd" clip-rule="evenodd" fill="#de4555" class="fill" d="M171.346,115.82c-0.333,1.159-0.628,2.187-1.002,3.49
	c-2.476-1.809-3.741-4.5-6.239-6.345c2.07-2.039,4.656-2.979,6.881-5.127c0.106,1.626,0.177,2.704,0.259,3.953
	c2.808-0.271,5.354-0.517,8.081-0.779c0,1.332,0,2.395,0,3.708C176.886,115.444,174.258,115.633,171.346,115.82z"></path>
<path fill-rule="evenodd" clip-rule="evenodd" fill="#de4555" class="fill" d="M104.901,83.083c0.387,0.394,0.82,0.837,1.199,1.222
	c-0.866,1.895-0.866,1.895-2.555,1.342C103.04,83.966,103.04,83.966,104.901,83.083z"></path>
</svg>