<svg style="top: 3%; left: 54%; height: 42%; width: 42%;" version="1.1" id="svg_5065" xmlns="http://www.w3.org/2000/svg" xmlns:xlink="http://www.w3.org/1999/xlink" x="0px" y="0px" width="200px" height="200px" viewBox="0 0 200 200" enable-background="new 0 0 200 200" xml:space="preserve">
<path class="stroke" fill="#693c11" d="M178.449,57.824c0.292-1.819,0.669-3.693-0.022-5.457c-1.014-2.592-2.228-5.104-3.344-7.656
	c-0.502-1.146-0.875-2.286-0.403-3.578c0.336-0.921,0.521-1.903,0.7-2.872c0.067-0.361-0.002-0.788-0.134-1.138
	c-0.218-0.575-0.537-1.112-0.953-1.945c-1.72-0.284-3.684-0.782-5.67-0.899c-3.634-0.214-7.28-0.223-10.922-0.28
	c-3.824-0.059-7.649-0.041-11.473-0.118c-3.075-0.061-6.148-0.2-9.221-0.33c-1.202-0.051-2.401-0.181-3.603-0.259
	c-3.108-0.202-6.216-0.383-9.323-0.593c-3.94-0.268-7.884-0.514-11.819-0.847c-4.403-0.374-8.791-0.99-13.199-1.22
	c-5.659-0.294-11.332-0.306-16.998-0.445c-0.28-0.007-0.558-0.097-0.838-0.11c-1.942-0.093-3.913-0.428-5.819-0.21
	c-4.414,0.503-8.821,0.517-13.237,0.298c-4.872-0.24-9.737-0.667-14.61-0.798c-3.75-0.102-7.509,0.084-11.26,0.224
	c-2.19,0.081-4.374,0.322-6.561,0.484c-0.175,0.014-0.361-0.051-0.527-0.015c-0.532,0.119-1.122,0.161-1.571,0.429
	c-1.173,0.701-2.31,1.471-3.409,2.283c-0.984,0.728-2.058,1.42-2.814,2.354c-1.681,2.074-1.845,4.672-1.759,7.175
	c0.073,2.118,0.639,4.194,2.433,5.694c1.37,1.148,1.415,1.697,0.319,3.131c-0.845,1.105-1.762,2.18-1.866,3.617
	c-0.127,1.777-0.42,3.627-0.074,5.331c0.372,1.836,1.326,3.577,2.167,5.291c0.541,1.103,0.612,2.152-0.018,3.121
	c-1.331,2.049-1.719,4.393-2.298,6.683c-0.421,1.668-0.272,3.279,0.266,4.912c0.585,1.778,1.086,3.591,1.513,5.415
	c0.593,2.536-0.556,4.791-1.306,7.103c-1.165,3.583-1.551,7.166,0.53,10.543c2.369,3.844,2.017,7.479-0.148,11.308
	c-1.112,1.967-1.655,4.267-2.358,6.445c-0.156,0.483,0.003,1.133,0.185,1.646c0.53,1.498,1.139,2.968,1.727,4.446
	c1.251,3.143,0.747,6.137-0.58,9.144c-0.724,1.64-1.221,3.392-1.694,5.128c-0.558,2.047,0.252,3.94,1.073,5.723
	c1.401,3.044,1.803,6.086,0.493,9.224c-1.336,3.194-2.814,6.331-4.083,9.552c-0.462,1.172-0.884,2.592-0.641,3.755
	c0.428,2.041,1.384,3.971,2.032,5.718c-0.388,1.845-1.386,3.321-0.607,5.089c0.562,0.19,1.147,0.516,1.758,0.572
	c2.216,0.209,4.438,0.366,6.66,0.47c2.36,0.11,4.725,0.144,7.087,0.199c3.604,0.085,7.208,0.184,10.812,0.234
	c3.825,0.054,7.653-0.034,11.475,0.109c4.205,0.158,8.402,0.51,12.605,0.773c0.669,0.042,1.342,0.045,2.011,0.098
	c2.856,0.226,5.71,0.513,8.57,0.68c2.609,0.152,5.228,0.162,7.841,0.264c2.617,0.104,5.232,0.235,7.849,0.369
	c2.851,0.146,5.72,0.159,8.547,0.508c3.132,0.386,6.207,1.22,9.337,1.615c3.5,0.441,7.03,0.727,10.556,0.86
	c3.741,0.14,7.494-0.048,11.238,0.045c2.08,0.052,4.149,0.512,6.229,0.567c4.2,0.112,8.405,0.089,12.607,0.094
	c3.992,0.005,7.987,0.033,11.978-0.08c1.144-0.033,2.657-0.158,3.333-0.872c1.446-1.531,2.663-3.372,3.591-5.274
	c1.06-2.172,1.6-4.592,2.556-6.824c1.173-2.744,1.684-5.583,2.02-8.529c0.454-3.975-1.292-7.293-2.728-10.724
	c-0.691-1.652-1.925-3.171-2.225-4.874c-0.585-3.331,0.096-6.557,1.753-9.603c1.801-3.309,2.049-6.833,0.924-10.471
	c-0.758-2.454-1.53-4.925-2.001-7.442c-0.637-3.396-0.39-6.728,1.255-9.921c1.204-2.335,1.571-4.909,1.028-7.529
	c-0.429-2.069-1.074-4.104-1.358-6.189c-0.159-1.167-0.002-2.491,0.409-3.597c0.685-1.848,1.798-3.533,2.525-5.369
	c0.779-1.965,1.343-4.018,1.95-6.047c0.157-0.524,0.248-1.13,0.149-1.657c-0.232-1.229-0.554-2.447-0.921-3.644
	c-0.427-1.39-0.979-2.739-1.399-4.13c-0.183-0.602-0.212-1.258-0.246-1.894c-0.131-2.415-0.256-4.884,0.891-7.079
	C176.756,63.403,177.976,60.759,178.449,57.824z M31.559,105.008c-2.147,0-4.153,0-6.124,0c-1.259-1.706-2.392-3.303-2.498-5.438
	c3.073,0,6.05,0,9.167,0C31.905,101.545,31.731,103.282,31.559,105.008z M99.195,81.401c0.148,0.791,0.267,1.426,0.417,2.227
	c-1.488-0.083-2.825-0.159-4.266-0.24c-0.08-0.497-0.155-0.963-0.27-1.671C96.509,81.608,97.808,81.508,99.195,81.401z
	 M65.271,63.458c1.842-0.954,3.688-0.766,5.46-0.771c3.258-0.011,6.52,0.127,9.779,0.258c1.489,0.061,2.942,0.348,4.076,1.198
	c0,1.742,0,3.384,0,4.895c-6.667,1.704-13.122,0.19-19.756-0.442C64.974,66.925,65.124,65.175,65.271,63.458z M76.681,85.703
	c1.363,0.012,2.729-0.199,4.258-0.327c-0.072,0.999-0.151,2.095-0.217,3.022c-0.517,0.788-0.952,1.449-1.578,2.403
	c-3.726-0.129-7.733-0.269-11.738-0.407c-0.788-4.471,0.351-8.625,1.418-12.827c1.89,1.342,8.71,1.805,11.182,0.749
	c0.143-0.479,0.305-1.032,0.491-1.663c0.903,1.981,1.204,4.046,0.594,6.038c-2.063-0.659-4.072-0.698-5.985,0.604
	C74.724,84.694,75.332,85.69,76.681,85.703z M69.461,71.883c0-0.286,0-0.653,0-1.094c2.513,0.288,4.966,0.567,7.419,0.848
	c0.001,0.082,0.003,0.164,0.005,0.246C74.432,71.883,71.98,71.883,69.461,71.883z M47.388,89.128
	c-1.336-0.337-2.531-0.64-4.014-1.015c0.131-1.587,0.254-3.075,0.378-4.564c0.109,0.003,0.219,0.005,0.328,0.008
	c0.24,1.022,0.196,2.288,0.803,2.999c0.559,0.658,1.816,0.721,2.896,1.092C47.66,88.102,47.552,88.51,47.388,89.128z M46.199,81.922
	c1.016-0.163,1.969-0.315,3.133-0.501c0.096,0.709,0.177,1.31,0.268,1.986c-1.175,0.113-2.108,0.203-3.137,0.302
	C46.363,83.034,46.292,82.55,46.199,81.922z M47.278,85.301c0.59-0.06,1.179-0.146,1.771-0.171c1.89-0.081,2.757-1.161,2.423-3.028
	c-0.086-0.485-0.129-0.979-0.21-1.615c-1.146-1.223-2.803-0.391-4.359-0.761c0.391-0.761,0.742-1.474,1.118-2.173
	c0.922-1.711,1.781-3.461,2.805-5.108c0.824-1.324,2.063-2.247,3.645-2.526c1.551-0.274,3.114-0.657,4.582-0.206
	c-0.159,1.859-0.362,3.625-0.445,5.398c-0.062,1.319,0.546,1.904,1.756,2.421c1.604,0.687,3.222,0.628,5.196,0.42
	c0.453-1.766,0.928-3.61,1.378-5.358c-0.788-0.737-1.438-1.343-2.088-1.95c0.076-0.111,0.152-0.223,0.228-0.333
	c0.787,0.052,1.574,0.104,2.403,0.161c0.46,4.163-0.955,7.949-1.743,11.972c-0.764,0.064-1.526,0.196-2.284,0.179
	c-1.768-0.039-3.535-0.208-5.302-0.212c-1.475-0.004-2.955,0.109-4.422,0.27c-0.378,0.042-0.716,0.459-1.01,0.97
	c4.202,0.396,8.331,0.741,12.527,0.595c0,2.167,0,4.201,0,6.33c-0.836,0-1.699,0-2.729,0c0.036-3.093-1.84-4.686-4.586-4.953
	c-3.421-0.333-6.118,0.856-6.558,4.892c-0.855-0.083-1.534-0.147-2.257-0.218C50.236,87.135,49.872,86.228,47.278,85.301z
	 M58.012,93.365c-0.737,0.579-2.047,0.295-2.715-0.587c-0.602-0.796-0.364-2.108,0.514-2.792c0.712,0.113,1.331,0.212,1.951,0.309
	C58.755,91.533,58.851,92.706,58.012,93.365z M82.739,106.136c-11.022-0.176-21.767-0.347-32.618-0.521c0-1.625,0-3.105,0-4.791
	c10.89,0.155,21.738,0.311,32.618,0.466C82.739,103.048,82.739,104.677,82.739,106.136z M87.303,91.215
	c-0.112,0.645-0.364,1.264-0.585,1.991c-1.366,1.079-2.477,0.275-2.94-2.584c0.613-0.426,1.309-1.051,2.121-1.41
	c0.341-0.15,1.141,0.125,1.352,0.452C87.494,90.04,87.393,90.702,87.303,91.215z M95.863,90.866c-1.347,0-2.56,0-3.804,0
	c-0.432-2.258-1.47-3.893-3.511-4.635c-1.961-0.714-3.804,0.05-5.628,0.813c0-0.975,0-1.832,0-2.871c1.14,0,2.187,0.023,3.23-0.006
	c1.195-0.033,2.396-0.057,3.578-0.209c0.4-0.052,0.75-0.485,1.068-0.93c-2.476-0.72-4.94-0.335-7.422-0.296
	c-0.046-0.291-0.132-0.501-0.102-0.692c0.318-2.017-0.259-3.908-0.704-5.838c-0.367-1.598-0.507-3.247-0.762-4.972
	c0.649-0.077,1.08-0.129,1.748-0.209c-0.393,0.446-0.615,0.698-1.001,1.136c0.281,1.312,0.53,2.771,0.945,4.179
	c0.094,0.321,0.772,0.661,1.178,0.658c0.905-0.008,1.845-0.111,2.704-0.385c1.832-0.585,2.342-1.425,2.278-3.326
	c-0.016-0.489-0.002-0.978-0.002-1.606c2.548-0.176,5.025-0.296,7.347,0.926c0.252,0.133,0.473,0.438,0.583,0.715
	c0.823,2.077,1.442,4.203,1.302,6.687c-1.08,0-2.159-0.035-3.236,0.008c-2.02,0.081-2.676,0.711-2.587,2.393
	c0.118,2.208,0.856,2.919,2.902,2.797c0.063-0.003,0.13,0.042,0.279,0.094C95.506,87.029,94.272,88.742,95.863,90.866z
	 M102.262,87.488c-0.519,0.854-3.245,1.254-4.881,0.716c-0.167-1.178,0.203-1.715,1.549-2.249c2.537-1.004,2.64-1.156,2.596-3.939
	C103.138,83.399,103.397,85.62,102.262,87.488z M139.228,107.096c-1.916-0.104-3.782-0.125-5.631-0.32
	c-4.597-0.486-9.166,0.023-13.749,0.201c-1.928,0.075-3.871-0.292-5.809-0.442c-0.842-0.066-1.686-0.131-2.528-0.137
	c-2.19-0.019-4.381,0.002-6.571-0.009c-0.238-0.001-0.474-0.106-0.849-0.196c-0.124-1.229-0.241-2.378-0.374-3.689
	c11.875,0.31,23.647,0.617,35.511,0.926C139.228,104.651,139.228,105.794,139.228,107.096z M170.504,108.332
	c-3.131-0.194-6.258-0.424-9.386-0.646c-0.063-0.005-0.124-0.059-0.288-0.143c-0.081-1.152-0.167-2.361-0.256-3.638
	c3.563-0.39,6.946,0.022,10.51,0.6c0.177,1.152,0.352,2.284,0.541,3.507C171.143,108.156,170.816,108.351,170.504,108.332z"></path>
<path class="stroke" fill="#693c11" d="M148.763,11.398c-0.973,0.015-1.945-0.084-2.919-0.118c-1.427-0.049-2.854-0.096-4.282-0.123
	c-0.725-0.014-1.145,0.241-1.172,1.099c-0.048,1.525-0.215,3.047-0.346,4.569c-0.025,0.301-0.108,0.598-0.128,0.702
	c-1.673,0.309-3.204,0.548-4.713,0.884c-1.063,0.237-1.376,1.455-0.61,2.213c1.347,1.338,2.664,2.709,4.074,3.976
	c1.673,1.503,3.421,2.923,5.157,4.354c0.529,0.437,1.095,0.546,1.659-0.044c0.693-0.727,1.463-1.38,2.148-2.114
	c2.18-2.331,4.362-4.664,6.488-7.044c0.675-0.756,0.43-1.312-0.589-1.542c-0.81-0.183-1.635-0.331-2.462-0.385
	c-0.727-0.051-0.921-0.348-0.915-1.049c0.012-1.39-0.051-2.782-0.135-4.17C149.976,11.863,149.634,11.385,148.763,11.398z"></path>
<path fill-rule="evenodd" clip-rule="evenodd" fill="#faf0e5" class="fill" d="M148.287,14.222c-0.305,1.234-0.604,2.339-0.848,3.458
	c-0.299,1.372-0.033,1.754,1.352,2c0.444,0.079,0.903,0.076,1.355,0.119c0.405,0.041,0.809,0.093,1.206,0.138
	c-2.178,2.186-4.297,4.314-6.445,6.47c-2.732-1.423-4.803-3.601-7.005-5.938c0.959-0.035,1.79-0.114,2.616-0.081
	c1.138,0.046,1.608-0.253,1.729-1.398c0.145-1.389,0.25-2.785,0.286-4.181c0.02-0.728,0.228-1.01,0.983-0.936
	C144.936,14.011,146.359,14.085,148.287,14.222z"></path>
<path fill-rule="evenodd" clip-rule="evenodd" fill="#faf0e5" class="fill" d="M116.416,173.889c-1.232-5.348-2.417-10.492-3.674-15.944
	c4.724,0.579,9.222,1.131,13.844,1.698c1.169,4.809,2.333,9.601,3.557,14.635C125.492,174.146,121.046,174.02,116.416,173.889z"></path>
<path fill-rule="evenodd" clip-rule="evenodd" fill="#faf0e5" class="fill" d="M98.156,157.2c4.463,0.258,8.581,0.495,12.786,0.738
	c1.229,5.243,2.449,10.447,3.695,15.763c-4.376,0-8.55,0-12.85,0C100.573,168.18,99.387,162.789,98.156,157.2z"></path>
<path fill-rule="evenodd" clip-rule="evenodd" fill="#faf0e5" class="fill" d="M84.466,157.512c4.131-0.164,7.999-0.316,11.95-0.473
	c1.197,5.505,2.371,10.907,3.586,16.495c-4.178-0.128-8.155-0.25-12.312-0.378C86.61,167.922,85.555,162.795,84.466,157.512z"></path>
<path fill-rule="evenodd" clip-rule="evenodd" fill="#faf0e5" class="fill" d="M70.8,157.226c4.08,0,7.921,0,11.94,0
	c1.061,5.161,2.097,10.204,3.167,15.418c-4.269,0.364-8.317-0.73-12.659-0.787C72.429,166.957,71.614,162.09,70.8,157.226z"></path>
<path fill-rule="evenodd" clip-rule="evenodd" fill="#faf0e5" class="fill" d="M131.974,174.459c-1.19-4.965-2.334-9.73-3.492-14.561
	c4.135,0,8.147,0,12.198,0c1.328,5.046,2.607,9.907,3.986,15.148C140.296,174.844,136.18,174.654,131.974,174.459z"></path>
<path fill-rule="evenodd" clip-rule="evenodd" fill="#faf0e5" class="fill" d="M53.655,142.623c0.54,4.497,2.193,8.532,1.999,13.04
	c-4.25,0-8.358,0-12.562,0c-0.82-4.358-1.627-8.646-2.455-13.04C45.003,142.623,49.293,142.623,53.655,142.623z"></path>
<path fill-rule="evenodd" clip-rule="evenodd" fill="#faf0e5" class="fill" d="M58.71,170.766c-4.182,0-8.108,0-12.094,0
	c-1.078-4.495-2.084-8.694-3.142-13.104c4.274,0,8.369,0,12.701,0C57.024,162.046,57.871,166.426,58.71,170.766z"></path>
<path fill-rule="evenodd" clip-rule="evenodd" fill="#faf0e5" class="fill" d="M142.318,159.909c4.026,0.248,7.822,0.481,11.659,0.718
	c1.154,4.747,2.278,9.365,3.439,14.138c-3.665,0-7.281,0-11.132,0C145.018,170.022,143.708,165.116,142.318,159.909z"></path>
<path fill-rule="evenodd" clip-rule="evenodd" fill="#faf0e5" class="fill" d="M69.109,157.024c0.888,5.111,1.714,9.86,2.58,14.843
	c-1.659,0-3.125,0.029-4.59-0.007c-1.821-0.044-3.639-0.175-5.459-0.203c-1.15-0.019-1.422-0.828-1.58-1.669
	c-0.744-3.95-1.442-7.907-2.149-11.863c-0.029-0.164,0.016-0.34,0.035-0.668C61.672,157.312,65.36,157.169,69.109,157.024z"></path>
<path fill-rule="evenodd" clip-rule="evenodd" fill="#faf0e5" class="fill" d="M62.95,57.231c-0.781-3.819-1.556-7.607-2.353-11.502
	c4.594,0.174,9.037,0.343,13.802,0.523c0.871,3.511,1.773,7.148,2.723,10.979C72.283,57.231,67.726,57.231,62.95,57.231z"></path>
<path fill-rule="evenodd" clip-rule="evenodd" fill="#faf0e5" class="fill" d="M127.975,158.031c-1.814-4.196-2.154-8.513-3.037-12.721
	c3.834,0,7.654,0,11.533,0c0.051,0.493,0.085,0.833,0.119,1.173c1.851,3.586,1.988,7.685,3.605,11.548
	C135.988,158.031,132.032,158.031,127.975,158.031z"></path>
<path fill-rule="evenodd" clip-rule="evenodd" fill="#faf0e5" class="fill" d="M138.537,145.344c4.012,0.143,7.811,0.28,11.782,0.421
	c1.547,4.202,2.117,8.606,3.269,13.02c-3.903-0.224-7.632-0.438-11.507-0.66C140.246,154.191,139.728,149.841,138.537,145.344z"></path>
<path fill-rule="evenodd" clip-rule="evenodd" fill="#faf0e5" class="fill" d="M41.769,157.7c1.011,4.23,2.006,8.392,3.041,12.72
	c-3.978,0-7.818,0-11.822,0c-0.838-4.683-1.635-9.135-2.472-13.81C34.419,156.988,38.05,157.341,41.769,157.7z"></path>
<path fill-rule="evenodd" clip-rule="evenodd" fill="#faf0e5" class="fill" d="M125.823,157.767c-4.506-0.527-8.963-1.047-13.523-1.58
	c-0.618-3.72-1.216-7.319-1.816-10.938c4.137,0,8.158,0,12.503,0C123.907,149.312,124.845,153.453,125.823,157.767z"></path>
<path fill-rule="evenodd" clip-rule="evenodd" fill="#faf0e5" class="fill" d="M159.014,174.841c-1.07-4.681-2.11-9.227-3.203-14.01
	c3.833,0.221,7.369,0.426,10.99,0.635c1.065,4.447,2.106,8.797,3.202,13.375C166.227,174.841,162.763,174.841,159.014,174.841z"></path>
<path fill-rule="evenodd" clip-rule="evenodd" fill="#faf0e5" class="fill" d="M73.915,44.251c-4.711-0.224-9.225-0.438-13.813-0.655
	c-0.786-3.657-1.535-7.148-2.333-10.868c4.51,0.125,8.767,0.242,13.094,0.361C71.861,36.744,72.836,40.308,73.915,44.251z"></path>
<path fill-rule="evenodd" clip-rule="evenodd" fill="#faf0e5" class="fill" d="M81.706,143.875c4.122,0,8.062,0,12.174,0
	c0.819,3.812,1.602,7.455,2.419,11.26c-4.262,0.181-8.222,0.35-12.273,0.522C83.226,151.597,82.458,147.693,81.706,143.875z"></path>
<path fill-rule="evenodd" clip-rule="evenodd" fill="#faf0e5" class="fill" d="M95.851,144.06c4.262,0.316,8.379,0.62,12.674,0.937
	c1.197,3.42,1.108,7.124,2.172,10.836c-4.403,0.53-8.554-0.546-12.804-0.391C97.208,151.624,96.55,147.96,95.851,144.06z"></path>
<path fill-rule="evenodd" clip-rule="evenodd" fill="#faf0e5" class="fill" d="M155.298,159.062c-0.945-4.453-1.856-8.746-2.817-13.271
	c3.347,0.135,6.638,0.27,10.063,0.407c1.271,4.391,2.522,8.715,3.867,13.358C162.561,159.385,159.03,159.228,155.298,159.062z"></path>
<path fill-rule="evenodd" clip-rule="evenodd" fill="#faf0e5" class="fill" d="M57.567,155.635c-0.7-4.377-1.345-8.408-2.001-12.515
	c3.778,0,7.475,0,11.265,0c0.669,4.062,1.318,7.993,1.985,12.041C64.956,155.323,61.179,155.482,57.567,155.635z"></path>
<path fill-rule="evenodd" clip-rule="evenodd" fill="#faf0e5" class="fill" d="M30.149,154.583c-0.726-4.057-1.417-7.932-2.148-12.021
	c3.628,0,7.083,0,10.8,0c0.826,4.199,1.681,8.546,2.589,13.162C37.537,155.334,33.844,154.958,30.149,154.583z"></path>
<path fill-rule="evenodd" clip-rule="evenodd" fill="#faf0e5" class="fill" d="M68.692,143.218c3.789,0.166,7.347,0.322,11.153,0.487
	c0.855,3.807,1.724,7.671,2.612,11.626c-4.185,0-8.085,0-11.977,0C69.877,151.241,69.301,147.341,68.692,143.218z"></path>
<path fill-rule="evenodd" clip-rule="evenodd" fill="#faf0e5" class="fill" d="M101.811,45.396c-0.403-2.053-0.694-3.865-1.129-5.644
	c-0.425-1.741-0.996-3.445-1.584-5.441c4.203,0.338,8.194,0.658,12.395,0.995c0.834,3.35,1.68,6.751,2.581,10.373
	C109.737,46.2,105.766,45.429,101.811,45.396z"></path>
<path fill-rule="evenodd" clip-rule="evenodd" fill="#faf0e5" class="fill" d="M125.527,35.9c1.158,3.393,2.255,6.653,2.428,10.175
	c-4.068,0-8.075,0-12.183,0c-0.754-3.578-1.485-7.054-2.237-10.623C117.623,35.605,121.568,35.752,125.527,35.9z"></path>
<path fill-rule="evenodd" clip-rule="evenodd" fill="#faf0e5" class="fill" d="M114.22,47.914c0.97,3.34,1.948,6.714,2.994,10.316
	c-4.036,0.465-7.91-0.009-11.94,0.092c-1.017-3.541-2.014-7.019-3.111-10.845C106.312,47.628,110.19,47.769,114.22,47.914z"></path>
<path fill-rule="evenodd" clip-rule="evenodd" fill="#faf0e5" class="fill" d="M131.302,58.537c-4.127-0.135-8.074-0.263-12.226-0.399
	c-1.002-3.265-2.022-6.586-3.088-10.061c4.343,0,8.443,0,12.628,0C129.529,51.634,130.393,54.995,131.302,58.537z"></path>
<path fill-rule="evenodd" clip-rule="evenodd" fill="#faf0e5" class="fill" d="M58.772,45.646c0.709,3.798,1.417,7.599,2.148,11.514
	c-3.588-0.148-7.011-0.289-10.798-0.445c-0.737-3.662-1.525-7.582-2.382-11.842C51.466,45.135,54.943,45.379,58.772,45.646z"></path>
<path fill-rule="evenodd" clip-rule="evenodd" fill="#faf0e5" class="fill" d="M96.989,33.921c1.177,3.825,2.698,7.338,2.834,11.351
	c-3.684-0.162-7.337-0.323-11.208-0.493c-0.753-3.469-1.53-7.055-2.355-10.858C89.979,33.921,93.417,33.921,96.989,33.921z"></path>
<path fill-rule="evenodd" clip-rule="evenodd" fill="#faf0e5" class="fill" d="M165.355,48.868c1.013,3.599,1.996,7.085,3.06,10.862
	c-4.184-0.282-8.129-0.549-12.267-0.829c-0.792-3.255-1.588-6.524-2.433-9.997C157.78,48.966,161.55,48.292,165.355,48.868z"></path>
<path fill-rule="evenodd" clip-rule="evenodd" fill="#faf0e5" class="fill" d="M72.817,33.489c4.085,0.197,7.814,0.378,11.654,0.564
	c0.759,3.541,1.519,7.082,2.343,10.927c-3.773-0.208-7.378-0.407-11.041-0.608C74.769,40.674,73.82,37.184,72.817,33.489z"></path>
<path fill-rule="evenodd" clip-rule="evenodd" fill="#faf0e5" class="fill" d="M103.396,58.5c-3.803-0.22-7.44-0.43-11.273-0.651
	c-0.887-3.593-1.77-7.174-2.714-11.003c3.662,0.17,7.217,0.334,10.905,0.506C101.316,50.979,102.311,54.573,103.396,58.5z"></path>
<path fill-rule="evenodd" clip-rule="evenodd" fill="#faf0e5" class="fill" d="M79.06,57.471c-0.938-3.741-1.838-7.323-2.748-10.953
	c3.613,0.136,7.252,0.271,11.161,0.419c0.891,3.553,1.786,7.124,2.729,10.88C86.401,57.699,82.792,57.587,79.06,57.471z"></path>
<path fill-rule="evenodd" clip-rule="evenodd" fill="#faf0e5" class="fill" d="M164.829,46.863c-3.896,0-7.66,0-11.55,0
	c-0.673-3.464-1.323-6.809-1.995-10.264c3.757,0,7.437,0,11.3,0C163.311,39.922,164.046,43.287,164.829,46.863z"></path>
<path fill-rule="evenodd" clip-rule="evenodd" fill="#faf0e5" class="fill" d="M116.55,175.696c4.872,0.133,9.392,0.256,14.039,0.382
	c0.577,2.71,1.155,5.425,1.761,8.266c-4.729,0.296-9.272-0.275-13.983-0.76C117.763,180.962,117.169,178.388,116.55,175.696z"></path>
<path fill-rule="evenodd" clip-rule="evenodd" fill="#faf0e5" class="fill" d="M47.199,42.862c-0.688-3.291-1.385-6.632-2.107-10.088
	c3.622,0,7.164,0,10.871,0c0.742,3.521,1.48,7.021,2.258,10.712C54.482,43.275,50.913,43.073,47.199,42.862z"></path>
<path fill-rule="evenodd" clip-rule="evenodd" fill="#faf0e5" class="fill" d="M37.353,56.742c-3.259,0-6.308,0-9.419,0
	c-0.533-1.992-1.056-3.822-1.493-5.673c-0.105-0.445-0.045-1.014,0.149-1.429c0.688-1.472,0.614-2.792-0.5-4.023
	c-0.201-0.222-0.304-0.531-0.468-0.828c3.038,0,5.981,0,9.003,0C35.546,48.828,36.432,52.708,37.353,56.742z"></path>
<path fill-rule="evenodd" clip-rule="evenodd" fill="#faf0e5" class="fill" d="M46.098,45.081c0.758,3.891,1.505,7.72,2.274,11.665
	c-3.152,0-6.106,0-9.189,0c-0.869-3.79-1.756-7.661-2.674-11.665C39.747,45.081,42.817,45.081,46.098,45.081z"></path>
<path fill-rule="evenodd" clip-rule="evenodd" fill="#faf0e5" class="fill" d="M127.579,36.07c3.432,0.148,6.772,0.292,10.181,0.439
	c0.949,3.28,1.903,6.578,2.86,9.886c-3.623,0-7.106,0-10.597,0C129.189,42.877,128.398,39.535,127.579,36.07z"></path>
<path fill-rule="evenodd" clip-rule="evenodd" fill="#faf0e5" class="fill" d="M130.476,48.514c3.611,0,6.952,0,10.393,0
	c0.871,3.389,1.726,6.711,2.584,10.055c-3.474,0-6.787,0-10.281,0C132.267,55.192,131.381,51.891,130.476,48.514z"></path>
<path fill-rule="evenodd" clip-rule="evenodd" fill="#faf0e5" class="fill" d="M23.602,169.871c-0.716-3.055-1.414-6.029-2.087-8.906
	c0.622-1.676,1.209-3.261,1.783-4.811c1.751,0.114,3.524,0.23,5.595,0.365c0.792,4.425,1.582,8.85,2.386,13.352
	C28.746,169.871,26.295,169.871,23.602,169.871z"></path>
<path fill-rule="evenodd" clip-rule="evenodd" fill="#faf0e5" class="fill" d="M147.016,184.452c-4.445,0-8.528,0-12.788,0
	c-0.599-2.765-1.177-5.432-1.799-8.304c4.324,0.206,8.454,0.403,12.659,0.604C145.722,179.281,146.362,181.839,147.016,184.452z"></path>
<path fill-rule="evenodd" clip-rule="evenodd" fill="#faf0e5" class="fill" d="M121.829,67.63c-0.714-2.537-1.409-5-2.184-7.748
	c4.266,0.184,8.276,0.356,12.483,0.538c0.762,2.624,1.523,5.25,2.356,8.125C130.155,68.231,126.061,67.936,121.829,67.63z"></path>
<path fill-rule="evenodd" clip-rule="evenodd" fill="#faf0e5" class="fill" d="M45.455,42.969c-3.256,0-6.29,0-9.461,0
	c-0.747-3.424-1.478-6.777-2.231-10.233c3.23,0,6.285,0,9.44,0c-0.083,0.511-0.149,0.914-0.213,1.303
	c1.289,1.142,1.014,2.792,1.413,4.205C44.812,39.694,45.066,41.189,45.455,42.969z"></path>
<path fill-rule="evenodd" clip-rule="evenodd" fill="#faf0e5" class="fill" d="M139.621,36.522c3.349,0,6.444,0,9.824,0
	c0.684,3.354,1.368,6.706,2.063,10.116c-3.144,0-6.091,0-9.073,0C141.494,43.256,140.584,39.986,139.621,36.522z"></path>
<path fill-rule="evenodd" clip-rule="evenodd" fill="#faf0e5" class="fill" d="M156.839,60.854c4.132,0.271,8.025,0.527,12.005,0.788
	c0.643,2.579,1.267,5.087,1.931,7.751c-3.959,0-7.717,0-11.469,0C158.502,66.611,157.723,63.913,156.839,60.854z"></path>
<path fill-rule="evenodd" clip-rule="evenodd" fill="#faf0e5" class="fill" d="M103.562,181.679c-0.423-1.881-0.902-4.012-1.387-6.165
	c4.373,0,8.516,0,12.674,0c0.53,2.703,1.031,5.251,1.567,7.983C112.147,183.043,107.943,183.475,103.562,181.679z"></path>
<path fill-rule="evenodd" clip-rule="evenodd" fill="#faf0e5" class="fill" d="M151.928,48.662c0.812,3.491,1.584,6.806,2.353,10.108
	c-2.954,0-5.924,0-8.964,0c-0.887-3.403-1.737-6.661-2.636-10.108C145.943,48.662,148.896,48.662,151.928,48.662z"></path>
<path fill-rule="evenodd" clip-rule="evenodd" fill="#faf0e5" class="fill" d="M157.892,176.633c0.682,2.76,1.335,5.404,1.986,8.042
	c-3.662,0-7.183,0-10.943,0c-0.738-2.66-1.457-5.246-2.232-8.042C150.536,176.633,154.182,176.633,157.892,176.633z"></path>
<path fill-rule="evenodd" clip-rule="evenodd" fill="#faf0e5" class="fill" d="M107.903,67.522c-0.685-2.522-1.314-4.843-1.98-7.298
	c4.095,0,7.954,0,11.979,0c0.639,2.407,1.285,4.841,1.938,7.298C115.769,67.522,111.864,67.522,107.903,67.522z"></path>
<path fill-rule="evenodd" clip-rule="evenodd" fill="#faf0e5" class="fill" d="M144.036,60.467c0.707,2.951,1.385,5.783,2.116,8.831
	c-3.375-0.253-6.515-0.487-9.729-0.728c-0.804-2.757-1.575-5.401-2.362-8.104C137.401,60.467,140.582,60.467,144.036,60.467z"></path>
<path fill-rule="evenodd" clip-rule="evenodd" fill="#faf0e5" class="fill" d="M94.826,67.403c-0.743-2.521-1.459-4.953-2.247-7.623
	c3.997,0.193,7.64,0.37,11.442,0.554c0.59,2.293,1.191,4.634,1.818,7.069C102.1,67.403,98.506,67.403,94.826,67.403z"></path>
<path fill-rule="evenodd" clip-rule="evenodd" fill="#faf0e5" class="fill" d="M34.115,42.57c-3.433,0-6.762,0-10.049,0
	c-1.388-1.998-1.089-4.384,0.721-5.95c1.306-1.131,2.555-2.357,3.986-3.303c0.792-0.523,1.906-0.558,3.107-0.874
	C32.662,35.986,33.388,39.273,34.115,42.57z"></path>
<path fill-rule="evenodd" clip-rule="evenodd" fill="#faf0e5" class="fill" d="M157.442,69.636c-3.286-0.142-6.232-0.269-9.342-0.402
	c-0.727-2.839-1.447-5.648-2.178-8.499c3.001,0,5.938,0,9.084,0C155.81,63.672,156.592,66.527,157.442,69.636z"></path>
<path fill-rule="evenodd" clip-rule="evenodd" fill="#faf0e5" class="fill" d="M167.125,49.021c2.276,0,4.445,0,6.502,0
	c2.836,2.782,3.32,7.63,1.229,11.598c-1.47-0.238-2.958-0.479-4.651-0.752C169.196,56.314,168.167,52.688,167.125,49.021z"></path>
<path fill-rule="evenodd" clip-rule="evenodd" fill="#faf0e5" class="fill" d="M39.359,67.307c-2.861,0-5.611,0-8.359,0
	c-0.744-2.802-1.504-5.672-2.292-8.639c2.883,0,5.855,0,8.921,0C38.215,61.591,38.771,64.367,39.359,67.307z"></path>
<path fill-rule="evenodd" clip-rule="evenodd" fill="#faf0e5" class="fill" d="M33.434,172.152c4.043,0.125,7.914,0.244,11.953,0.369
	c0.447,1.924,0.91,3.918,1.397,6.016c-3.967,0-7.702,0-11.608,0C34.005,176.576,34.239,174.257,33.434,172.152z"></path>
<path fill-rule="evenodd" clip-rule="evenodd" fill="#faf0e5" class="fill" d="M50.231,66.229c-3.008,0.268-5.772,0.512-8.796,0.779
	c-0.635-2.688-1.287-5.444-1.981-8.386c3.155,0,6.227,0,9.386,0C49.306,61.172,49.764,63.677,50.231,66.229z"></path>
<path fill-rule="evenodd" clip-rule="evenodd" fill="#faf0e5" class="fill" d="M47.117,172.684c4.116,0,7.985,0,12.026,0
	c0.447,2.172,0.852,4.14,1.33,6.469c-4.095-0.188-7.856-0.36-11.844-0.544C48.125,176.633,47.613,174.626,47.117,172.684z"></path>
<path fill-rule="evenodd" clip-rule="evenodd" fill="#faf0e5" class="fill" d="M74.833,179.584c-0.375-1.946-0.729-3.791-1.146-5.959
	c4.37,0.391,8.459,0.757,12.702,1.137c0.357,1.822,0.708,3.609,1.088,5.538C83.255,180.061,79.186,179.83,74.833,179.584z"></path>
<path fill-rule="evenodd" clip-rule="evenodd" fill="#faf0e5" class="fill" d="M50.658,59.09c3.778-1.29,7.19,0.243,10.716,0.047
	c0.26,1.128,0.495,2.148,0.701,3.044c-0.731,1.135-1.289,2.214-2.062,3.107c-0.363,0.419-1.13,0.621-1.735,0.673
	c-1.929,0.165-3.867,0.211-6.007,0.313C51.715,63.802,51.187,61.446,50.658,59.09z"></path>
<path fill-rule="evenodd" clip-rule="evenodd" fill="#faf0e5" class="fill" d="M89.482,180.405c-0.418-1.639-0.882-3.46-1.34-5.252
	c4.152,0,8.154,0,12.285,0c0.404,2.184,0.779,4.207,1.188,6.419C97.574,181.183,93.672,180.808,89.482,180.405z"></path>
<path fill-rule="evenodd" clip-rule="evenodd" fill="#faf0e5" class="fill" d="M96.468,69.452c2.503,0,5.006-0.011,7.509,0.003
	c2.399,0.014,4.798,0.047,7.197,0.084c4.522,0.071,9.046,0.071,13.565,0.25c4.408,0.173,8.807,0.559,13.213,0.803
	c5.709,0.318,11.42,0.659,17.135,0.854c3.993,0.138,7.995,0.052,11.992,0.063c1.481,0.003,2.963,0.001,4.483,0.001
	c0.274,0.813-0.138,1.045-0.74,1.04c-2.327-0.022-4.657-0.029-6.98-0.128c-4.259-0.183-8.518-0.644-12.771-0.589
	c-5.062,0.065-10.062-0.604-15.099-0.744c-2.161-0.06-4.324,0.002-6.486-0.002c-1.584-0.003-3.17-0.004-4.753-0.045
	c-4.588-0.118-9.175-0.345-13.764-0.354c-3.535-0.009-7.069,0.291-10.605,0.343c-0.776,0.011-1.566-0.429-2.336-0.699
	c-0.543-0.191-1.062-0.448-1.59-0.676C96.449,69.587,96.458,69.52,96.468,69.452z"></path>
<path fill-rule="evenodd" clip-rule="evenodd" fill="#faf0e5" class="fill" d="M164.312,36.497c2.825,0.396,5.548-0.006,8.22,1.271
	c-2.28,3.063-1.821,6.083-0.252,9.272c-1.932,0-3.729,0-5.683,0C165.834,43.524,165.099,40.131,164.312,36.497z"></path>
<path fill-rule="evenodd" clip-rule="evenodd" fill="#faf0e5" class="fill" d="M62.336,179.052c-0.433-1.881-0.863-3.748-1.319-5.724
	c3.802,0.166,7.413,0.324,11.158,0.489c0.239,1.828,0.477,3.651,0.743,5.685C69.307,179.348,65.905,179.203,62.336,179.052z"></path>
<path fill-rule="evenodd" clip-rule="evenodd" fill="#faf0e5" class="fill" d="M169.566,176.695c-1.233,2.667-2.385,5.159-3.604,7.798
	c-1.316,0.126-2.707,0.259-4.249,0.406c-0.74-2.764-1.445-5.395-2.197-8.205C162.964,176.695,166.134,176.695,169.566,176.695z"></path>
<path fill-rule="evenodd" clip-rule="evenodd" fill="#faf0e5" class="fill" d="M28.554,154.469c-1.732-0.152-3.294-0.291-4.943-0.437
	c0.391-2.689-0.733-4.995-1.68-7.352c-0.437-1.087-1.001-2.174-0.698-3.47c1.616-0.084,3.155-0.164,5.018-0.261
	C27.016,146.773,27.775,150.575,28.554,154.469z"></path>
<path fill-rule="evenodd" clip-rule="evenodd" fill="#faf0e5" class="fill" d="M24.024,171.522c2.812,0.136,5.206,0.252,7.722,0.374
	c0.414,2.081,0.818,4.115,1.263,6.348c-2.483,0-4.76,0-7.335,0C25.169,176.19,24.624,173.969,24.024,171.522z"></path>
<path fill-rule="evenodd" clip-rule="evenodd" fill="#faf0e5" class="fill" d="M79.684,60.261c-0.022-0.106-0.091-0.441-0.143-0.689
	c3.698,0,7.338,0,11.015,0c0.777,2.671,1.489,5.121,2.253,7.746c-1.405,0-2.617,0-4.017,0c-0.797-1.667-1.155-3.938-3.108-4.914
	C83.88,61.504,81.869,61.021,79.684,60.261z"></path>
<path fill-rule="evenodd" clip-rule="evenodd" fill="#faf0e5" class="fill" d="M170.909,159.481c-1.216,0.067-2.098,0.116-2.787,0.154
	c-1.283-4.591-2.491-8.92-3.756-13.456c1.087,0.099,1.983,0.181,3.021,0.274C166.663,151.251,168.261,155.4,170.909,159.481z"></path>
<path fill-rule="evenodd" clip-rule="evenodd" fill="#faf0e5" class="fill" d="M23.333,58.869c1.33-0.075,2.291-0.129,3.272-0.184
	c1.393,2.837,1.859,5.811,2.243,8.967c-0.941,0.083-1.788,0.156-2.859,0.25C26.608,64.486,25.356,61.663,23.333,58.869z"></path>
<path fill-rule="evenodd" clip-rule="evenodd" fill="#faf0e5" class="fill" d="M53.324,68.46c-1.884,0.37-3.754,0.945-5.652,1.068
	c-4.266,0.276-8.545,0.365-12.82,0.457c-3.062,0.066-6.126,0.013-9.296-0.218c0.316-0.088,0.63-0.24,0.949-0.252
	c3.676-0.146,7.355-0.215,11.027-0.423c2.611-0.147,5.21-0.527,7.82-0.707c2.641-0.181,5.289-0.245,7.934-0.359
	C53.299,68.171,53.312,68.315,53.324,68.46z"></path>
<path fill-rule="evenodd" clip-rule="evenodd" fill="#faf0e5" class="fill" d="M168.544,161.411c1.238,0.215,2.218,0.387,3.083,0.537
	c1.333,3.428,0.628,6.564-0.222,9.696c-0.1,0.02-0.198,0.04-0.297,0.06C170.286,168.4,169.462,165.095,168.544,161.411z"></path>
<path fill-rule="evenodd" clip-rule="evenodd" fill="#faf0e5" class="fill" d="M77.823,59.93c-4.848,0.459-9.266,0.877-13.792,1.305
	c-0.17-0.607-0.344-1.229-0.541-1.931c4.528,0,8.905-0.009,13.283,0.022C77.063,59.327,77.352,59.648,77.823,59.93z"></path>
<path fill-rule="evenodd" clip-rule="evenodd" fill="#faf0e5" class="fill" d="M19.982,171.152c0.884,0.061,1.67,0.115,2.512,0.174
	c0.205,1.235,0.355,2.347,0.581,3.443c0.226,1.095,0.527,2.175,0.852,3.485c-1.17-0.06-2.197-0.112-3.355-0.17
	C21.382,175.548,20.594,173.413,19.982,171.152z"></path>
<path fill-rule="evenodd" clip-rule="evenodd" fill="#faf0e5" class="fill" d="M21.875,169.327c-0.636-0.056-1.05-0.114-1.465-0.127
	c-1.697-0.051-2.257-0.614-1.855-2.222c0.334-1.34,0.937-2.612,1.421-3.915c0.096,0.018,0.19,0.035,0.286,0.053
	c0.111,0.285,0.257,0.562,0.33,0.857C21.02,165.716,21.431,167.463,21.875,169.327z"></path>
<path fill-rule="evenodd" clip-rule="evenodd" fill="#faf0e5" class="fill" d="M170.846,61.993c1.238,0.114,2.232,0.207,3.384,0.313
	c-0.625,1.896-1.216,3.694-1.809,5.492c-0.083,0.001-0.165,0.001-0.247,0.001C171.748,65.936,171.322,64.072,170.846,61.993z"></path>
<path fill-rule="evenodd" clip-rule="evenodd" fill="#faf0e5" class="fill" d="M25.031,52.819c0.364,1.266,0.729,2.53,1.165,4.043
	c-1.097-0.07-2.007-0.128-3.301-0.21c0.634-1.471,1.165-2.7,1.695-3.931C24.736,52.755,24.884,52.787,25.031,52.819z"></path>
</svg>