<svg version="1.1" xmlns="http://www.w3.org/2000/svg" width="200" height="200" viewBox="0 0 200 200">
    <path fill="#f7b7a3" d="M100,60 c-10,0 -18,8 -18,18 c0,5 2,10 5,13 l3,10 l20,0 l3,-10 c3,-3 5,-8 5,-13 c0,-10 -8,-18 -18,-18z" />
    
    <path fill="#5d3a1a" d="M100,55 c-12,0 -22,8 -22,20 c0,4 1,7 3,10 c2,-5 8,-8 19,-8 s17,3 19,8 c2,-3 3,-6 3,-10 c0,-12 -10,-20 -22,-20z" />
    
    <path fill="#e74c3c" d="M85,101 l-15,10 c-2,1 -3,4 -2,6 l5,15 h54 l5,-15 c1,-2 0,-5 -2,-6 l-15,-10z" />

    <path fill="#1f4a69" d="M100,52 c-15,0 -27,11 -27,25 c0,6 2,11 6,15 l-8,5 c-4,2 -6,7 -5,12 l6,18 c1,3 4,5 7,5 h42 c3,0 6,-2 7,-5 l6,-18 c1,-5 -1,-10 -5,-12 l-8,-5 c4,-4 6,-9 6,-15 c0,-14 -12,-25 -27,-25z M100,58 c12,0 21,9 21,21 c0,4 -1,8 -3,11 c-2,-5 -9,-9 -18,-9 s-16,4 -18,9 c-2,-3 -3,-7 -3,-11 c0,-12 9,-21 21,-21z M100,110 h-18 l-4,-12 l10,-6 c4,3 7,5 12,5 s8,-2 12,-5 l10,6 l-4,12 h-18z" />
</svg>