<svg version="1.1" xmlns="http://www.w3.org/2000/svg" x="0px" y="0px" width="200px" height="200px" viewBox="0 0 200 200">
  <path fill="#064146" d="M168.838,95.02c-0.282-6.399-1.637-12.58-3.451-18.707c-1.717-5.791-4.646-10.95-7.883-15.949
	c-1.668-2.576-3.748-4.881-5.551-7.374c-1.868-2.585-4.204-4.669-6.696-6.6c-3.989-3.089-8.562-5.15-13.081-7.282
	c-4.346-2.051-8.867-3.622-13.643-4.374c-3.175-0.499-6.371-0.904-9.512-1.571c-5.275-1.12-10.573-1.401-15.93-0.923
	c-2.18,0.195-4.393,0.195-6.538,0.575c-3.296,0.582-6.57,1.327-9.813,2.159c-6.297,1.615-12.18,4.14-17.197,8.385
	c-2.144,1.812-4.149,3.793-6.341,5.542c-4.946,3.949-8.199,9.161-10.976,14.687c-1.841,3.662-3.45,7.455-4.938,11.278
	c-1.111,2.857-2.143,5.802-2.713,8.802c-1.164,6.118-1.969,12.302-1.53,18.576c0.15,2.456,0.102,4.945,0.499,7.361
	c0.543,3.297,1.518,6.521,2.141,9.808c1.033,5.451,3.312,10.419,5.951,15.203c2.783,5.047,6.275,9.597,10.451,13.633
	c3.711,3.586,7.741,6.755,12.104,9.446c5.856,3.613,12.301,5.932,18.923,7.729c2.042,0.555,4.107,1.112,6.198,1.365
	c2.783,0.337,5.602,0.374,8.404,0.545c8.715,0.532,17.203-0.694,25.445-3.49c9.074-3.078,17.051-8.074,24.011-14.609
	c5.343-5.017,10.411-10.316,13.875-16.9c2.747-5.224,5.233-10.543,5.901-16.514c0.143-1.288,0.326-2.575,0.555-3.851
	C168.504,106.362,169.09,100.729,168.838,95.02z"/>
  <path fill="#8dece4" fill-rule="evenodd" clip-rule="evenodd" d="M106.805,43.259c-1.121-0.445-2.143-0.836-3.151-1.254
	c-3.446-1.428-6.501,0.204-7.177,3.833c-0.05,0.266-0.169,0.519-0.245,0.745c-1.012,1.12-2.244,1.228-3.706,1.011
	c-0.074-0.717-0.141-1.379-0.252-2.462c-0.407-0.412-1.023-1.037-1.695-1.716c-1.74,0.271-3.36,0.274-4.788,0.801
	c-2.518,0.93-5.282,1.534-6.952,4.019c-0.324,0.484-0.923,0.795-1.418,1.154c-1.628,1.177-1.795,2.145-0.665,3.977
	c2.237,0.686,6.591-0.339,8.903-2.154c0.283,0.74,0.553,1.442,0.873,2.281c-2.4,0.502-5.007-0.316-6.896,1.778
	c-0.713-0.192-1.363-0.347-2-0.545c-0.453-0.142-0.879-0.366-1.33-0.514c-3.061-0.998-5.043,0.054-6.354,3.422
	c-0.562,1.443-1.341,2.317-2.741,2.751c-0.132,0.04-0.268,0.07-0.393,0.124c-2.773,1.176-3.357,2.54-2.294,5.356
	c0.188,0.497,0.378,0.994,0.556,1.464c-1.076,1.292-2.371,0.503-3.506,0.596c-2.049,1.224-3.688,4.416-3.631,7.127
	c1.205,1.928,3.006,3.026,5.271,3.462c1.051,0.202,1.936-0.006,2.508-0.931c1.162-1.878,2.754-3.195,4.963-3.888
	c0.453-1.099,0.915-2.215,1.428-3.453c0.91,0.187,1.691,0.348,2.456,0.504c0.812,1.353,1.582,2.634,2.433,4.05
	c-0.407,0.955-0.828,1.943-1.354,3.178c0.621,0.342,1.225,0.675,1.891,1.041c0.903-0.579,1.699-1.089,2.604-1.669
	c0.897,0.172,1.992,1.35,3.11-0.445c-0.479-1.126-1.033-2.431-1.588-3.735c1.943,0.627,4.083,0.252,5.41,1.996
	c0.424,1.706,0.01,3.81,2.161,4.836c2.03,0.104,1.34-1.805,2.038-2.892c0.66-0.278,1.449-0.611,2.318-0.978
	c0.332,0.489,0.674,0.992,0.975,1.434c0.023,1.93-0.676,3.155-2.503,3.882c-0.927,0.368-1.597,1.386-2.682,2.385
	c-0.391,0-1.224,0.11-2.016-0.021c-2.222-0.367-4.509-0.595-6.619-1.319c-2.653-0.912-4.843-0.996-6.456,1.975
	c-1.512-0.188-2.971-0.368-4.424-0.548c-0.996-1.779-1.708-3.676-3.748-4.06c-1.364-0.122-2.588-0.253-3.814-0.338
	c-1.951-0.135-3.66,0.549-5.093,1.797c-1.807,1.573-3.585,3.038-5.937,3.884c-1.854,0.666-2.986,2.453-3.203,4.478
	c-0.384,3.588-1.084,7.166-0.43,10.814c0.202,1.129,0.09,2.322,0.057,3.484c-0.07,2.452,0.747,4.411,3.111,5.721
	c2.957-0.53,5.787,0.554,8.547,1.229c2.163,2.912,2.439,5.976,1.516,9.15c-1.105,3.8-0.568,7.13,2.25,10.045
	c0.59,0.609,1,1.492,1.24,2.322c0.742,2.551,1.596,5.075,1.51,7.816c-0.033,1.054,0.445,2.123,0.692,3.186
	c0.278,1.197,0.646,2.382,0.825,3.594c0.605,4.057,2.857,5.302,6.102,6.278c1.889,0.568,3.797,0.276,5.691-0.075
	c1.252-0.232,2.155-0.951,2.594-2.106c0.821-2.17,1.768-4.331,2.236-6.585c0.396-1.9,1.213-3.164,2.778-4.293
	c1.757-1.267,3.3-2.857,4.806-4.432c1.236-1.293,1.6-2.978,1.564-4.759c-0.043-2.113-0.089-4.229-0.021-6.341
	c0.051-1.565,0.251-3.129,0.439-4.688c0.187-1.538,0.763-2.935,1.932-3.985c2.774-2.495,5.043-5.371,6.841-8.641
	c0.353-0.644,0.914-1.199,1.467-1.701c2.432-2.211,2.531-2.355,3.217-5.943c-0.225-0.371-0.531-0.876-0.916-1.507
	c-1.605,0.257-3.143,0.503-4.927,0.788c-0.427-0.341-1.04-0.761-1.57-1.27c-1.67-1.6-3.236-3.315-4.978-4.832
	c-2.158-1.879-2.438-4.458-2.922-6.988c-0.016-0.087,0.146-0.209,0.243-0.337c0.97-0.122,1.481,0.556,1.96,1.215
	c1.367,1.876,2.723,3.761,4.039,5.672c0.462,0.67,0.836,1.407,1.188,2.144c0.888,1.85,1.868,2.489,3.885,2.317
	c2.967-0.253,5.75-0.812,7.938-3.224c1.361-1.502,3.218-2.542,4.745-3.909c0.662-0.593,1.055-1.488,1.479-2.113
	c-1.585-2.92-2.559-3.391-5.293-2.719c-1.786-1.137-2.101-3.119-2.811-4.882c0.135-0.086,0.27-0.171,0.404-0.257
	c0.477,0.758,0.953,1.515,1.625,2.585c1.783,1.466,4.359,1.697,6.823,2.083c0.918,0.145,1.954-0.464,2.642-0.649
	c1.684,0,3.094,0,4.605,0c1.64,5.366,3.992,10.406,6.857,15.286c0.783,0.066,1.453,0.135,2.127,0.179
	c1.014,0.065,1.756-0.397,2.099-1.324c0.637-1.725,1.2-3.478,1.781-5.223c0.237-0.713,0.427-1.441,0.667-2.154
	c0.715-2.118,1.443-4.232,2.342-6.856c0.641-0.501,1.875-0.594,3.188-0.367c0.562,1.056,1.097,2.063,1.629,3.066
	c0.83,0.08,1.503,0.146,2.337,0.227c2.241,3.195,0.102,6.738,0.469,9.349c1.111,2.208,1.972,3.749,2.663,5.362
	c0.364,0.85,0.845,1.362,1.693,1.54c1.341-1.073,1.515-1.488,0.575-2.886c-0.99-1.474-1.397-3.114-1.797-4.771
	c-0.167-0.695-0.118-1.442-0.158-2.03c1.193-0.454,2.166-0.824,3.268-1.243c-0.209-2.467-0.398-4.688-0.605-7.121
	c0.82-0.843,1.59-1.802,2.527-2.551c0.941-0.75,1.338-1.705,1.557-2.795c0.199-0.999,0.354-2.007,0.58-3.312
	c0.523-0.309,1.27-0.749,2.148-1.268c0.258,0.438,0.503,0.744,0.634,1.094c1.838,4.908,2.905,9.981,3.199,15.216
	c0.107,1.914,0.233,3.828,0.279,5.744c0.02,0.799-0.147,1.603-0.245,2.565c-1.917-0.472-2.918,0.506-3.816,1.851
	c-0.861,1.288-1.898,2.459-2.818,3.632c0.467,1.401-0.012,2.878,1.34,3.707c2.719,0.174,3.834-0.643,4.855-3.535
	c0.422,1.685,0.295,3.888-0.33,6.116c-1.798-0.221-3.577-0.439-5.517-0.678c-0.813-0.958-1.673-2.12-2.69-3.122
	c-0.959-0.943-2.119-1.679-3.125-2.58c-0.541-0.485-0.987-1.098-1.398-1.705c-0.44-0.652-0.896-1.017-1.752-0.484
	c0.242,1.478,0.447,2.923,1.485,4.146c0.521,0.614,0.785,1.439,1.229,2.128c0.662,1.022,1.301,2.075,2.091,2.993
	c1.796,2.089,3.995,2.734,6.64,1.672c0.814-0.327,1.717-0.438,2.873-0.721c-0.105,1.786-0.368,3.413-0.697,5.052
	c-1.415,7.058-5.32,12.845-9.475,18.475c-3.498,4.742-7.245,9.326-11.953,12.919c-2.977,2.272-6.244,4.185-9.49,6.073
	c-2.476,1.441-5.064,2.724-7.703,3.842c-4.613,1.955-9.449,3.144-14.398,3.977c-6.201,1.044-12.404,0.921-18.621,0.411
	c-8.148-0.668-15.918-2.758-23.029-6.828c-3.014-1.724-5.785-3.892-8.559-6c-1.955-1.487-3.691-3.259-5.592-4.822
	c-3.463-2.849-5.82-6.545-7.893-10.407c-2.264-4.215-4.656-8.422-6.311-12.886c-2.264-4.215-4.656-8.422-6.311-12.886
	c-2.375-6.405-4.223-12.991-4.417-19.957c-0.152-5.446,0.247-10.831,1.382-16.112c1.148-5.339,2.383-10.701,4.881-15.641
	c3.529-6.978,7.292-13.841,12.582-19.652c4.278-4.702,9.438-8.304,15.425-10.621c1.849-0.716,3.677-1.486,5.51-2.243
	c4.672-1.93,9.575-2.895,14.589-2.941c5.607-0.053,11.234,0.082,16.826,0.484c4.914,0.354,9.74,1.454,14.469,2.89
	c0.428,0.13,0.818,0.384,1.439,0.682c-1.441,0.797-2.715,0.604-3.976,0.403c-1.353-0.215-2.69-0.516-4.046-0.71
	c-1.883-0.269-3.676,0.041-5.422,1.023c-0.145,0.55-0.299,1.131-0.498,1.884C108.381,42.617,107.576,42.945,106.805,43.259z"/>
  <path fill="#8dece4" d="M93.179,141.38c1.27,2.841,1.565,5.795-0.677,8.412c0.127,0.39,0.181,0.66,0.301,0.898
	c0.148,0.295,0.351,0.563,0.474,0.756c3.177,1.286,4.724,0.317,6.349-2.422c0.695-1.172,1.4-2.346,1.98-3.576
	c1.411-2.99,2.279-6.14,2.277-9.463c0-1.786-0.565-2.216-2.723-2.336c-0.428,0.561-0.852,1.269-1.421,1.827
	c-0.855,0.841-1.708,1.793-2.753,2.307C95.447,138.539,94.244,139.523,93.179,141.38z"/>
</svg>