<svg style="top: 53%; left: 4%; height: 42%; width: 42%;" version="1.1" xmlns="http://www.w3.org/2000/svg" xmlns:xlink="http://www.w3.org/1999/xlink" x="0px" y="0px" width="200px" height="200px" viewBox="0 0 200 200" enable-background="new 0 0 200 200" xml:space="preserve">
<g id="svg">
	<path class="stroke" fill="#580f12" d="M134.008,50.573c-3.285-2.421-6.585-4.823-9.932-7.155c-1.252-0.872-2.633-1.595-4.32-1.515
		c-0.71,0.811-1.414,1.614-2.143,2.448c-0.751-0.347-1.391-0.643-2.08-0.962c-0.374,0.543-0.695,1.009-1.028,1.493
		c0.499,0.391,0.908,0.712,1.345,1.054c-0.807,1.213-1.596-0.16-2.508,0.207c-0.205,0.419-0.472,0.964-0.719,1.465
		c0.378,0.388,0.646,0.666,0.967,0.994c-0.266,0.268-0.475,0.476-0.651,0.654c-0.503-0.185-0.915-0.337-1.381-0.508
		c-0.277,0.493-0.515,0.914-0.774,1.375c0.345,0.29,0.605,0.508,0.906,0.761c-0.155,0.207-0.283,0.378-0.411,0.55
		c-0.519-0.127-0.983-0.242-1.522-0.375c-0.189,0.541-0.353,1.004-0.503,1.432c0.276,0.415,0.517,0.774,0.731,1.095
		c-0.524,1.047-1.26,0.211-1.994,0.385c-0.129,0.391-0.279,0.842-0.422,1.276c0.432,0.295,0.789,0.538,1.209,0.825
		c-0.229,0.272-0.391,0.467-0.574,0.687c-0.599-0.199-1.146-0.38-1.824-0.605c-0.225,0.491-0.436,0.95-0.635,1.383
		c0.488,0.345,0.849,0.601,1.273,0.901c-0.215,0.393-0.402,0.734-0.612,1.119c-0.49-0.116-0.916-0.217-1.49-0.353
		c-0.113,0.526-0.212,0.985-0.317,1.47c0.488,0.298,0.895,0.547,1.375,0.841c-0.218,0.404-0.4,0.741-0.568,1.054
		c-0.553-0.125-0.981-0.223-1.458-0.332c-0.131,0.549-0.244,1.025-0.36,1.512c0.295,0.257,0.555,0.482,0.829,0.721
		c-0.149,0.289-0.269,0.52-0.381,0.736c-0.421-0.019-0.772-0.033-1.259-0.054c-0.159,0.564-0.312,1.097-0.441,1.559
		c0.438,0.362,0.745,0.617,1.256,1.039c-0.677,0.159-1.045,0.246-1.46,0.344c-0.101,0.417-0.194,0.805-0.312,1.285
		c0.424,0.405,1.111,0.822,0.322,1.559c-0.319,0.014-0.7,0.03-1.149,0.05c-0.116,0.521-0.221,0.987-0.319,1.432
		c0.454,0.279,0.793,0.489,1.165,0.717c-0.071,0.293-0.13,0.544-0.198,0.833c-0.443,0.019-0.835,0.037-1.301,0.056
		c-0.072,0.521-0.137,0.999-0.199,1.45c0.379,0.276,0.688,0.502,1.154,0.842c-0.489,0.306-0.84,0.525-1.258,0.786
		c-0.068,0.385-0.147,0.822-0.228,1.269c0.339,0.247,0.618,0.451,0.921,0.671c-0.066,0.352-0.123,0.653-0.171,0.914
		c-0.384,0.167-0.704,0.307-1.022,0.445c-0.088,0.545-0.166,1.032-0.244,1.509c0.116,0.124,0.21,0.219,0.297,0.321
		c0.082,0.097,0.156,0.202,0.326,0.421c-0.959-0.217-0.959-0.217-1.25-2.089c0.862-0.804,0.936-1.288,0.21-1.939
		c-0.265-0.043-0.612-0.101-0.971-0.159c-0.098-0.271-0.188-0.521-0.276-0.771c0.365-0.254,0.687-0.477,1.035-0.719
		c-0.189-0.654-0.361-1.248-0.535-1.846c-0.492,0.054-0.878,0.096-1.348,0.146c-0.066-0.457-0.122-0.843-0.179-1.234
		c0.462-0.231,0.854-0.428,1.29-0.646c-0.14-0.611-0.266-1.167-0.396-1.738c-0.655,0.115-1.221,0.213-1.853,0.324
		c-0.102-0.38-0.178-0.665-0.266-0.991c0.586-0.276,1.107-0.522,1.707-0.805c-0.086-0.649-0.166-1.259-0.269-2.027
		c-0.671,0.234-1.202,0.418-1.794,0.625c-0.133-0.212-0.242-0.386-0.398-0.634c0.322-0.189,0.594-0.333,0.846-0.501
		c0.287-0.192,0.559-0.407,0.932-0.682c-0.308-0.538-0.56-0.979-0.832-1.458c-0.597,0.225-1.045,0.395-1.616,0.611
		c-0.089-0.385-0.161-0.7-0.231-1.002c0.525-0.376,0.961-0.688,1.477-1.056c-0.086-0.389-0.168-0.761-0.269-1.219
		c-0.714,0.105-1.313,0.194-1.989,0.294c-0.062-0.381-0.109-0.673-0.16-0.988c0.385-0.241,0.718-0.449,1.189-0.746
		c-0.232-0.531-0.45-1.027-0.693-1.583c-0.675,0.271-1.201,0.481-1.83,0.733c-0.155-0.493-0.285-0.901-0.42-1.326
		c0.705-0.428,1.308-0.793,1.962-1.19c-0.179-0.493-0.327-0.9-0.501-1.376c-0.82,0.209-1.555,0.396-2.389,0.609
		c-0.141-0.385-0.271-0.743-0.387-1.06c0.484-0.452,0.873-0.816,1.328-1.242c-0.164-0.431-0.314-0.824-0.472-1.235
		c-0.698,0.18-1.253,0.323-1.896,0.488c-0.229-0.458-0.418-0.839-0.596-1.195c0.494-0.438,0.889-0.789,1.374-1.22
		c-0.29-0.462-0.538-0.857-0.814-1.299c-0.702,0.261-1.276,0.474-1.921,0.713c-0.137-0.348-0.242-0.62-0.324-0.829
		c0.511-0.428,0.944-0.792,1.441-1.208c-0.351-0.56-0.631-1.008-0.94-1.502c-0.668,0.239-1.255,0.449-1.95,0.698
		c-0.229-0.356-0.459-0.715-0.711-1.107c0.535-0.48,0.994-0.89,1.51-1.351c-0.266-0.547-0.492-1.017-0.805-1.666
		c-0.865,0.42-1.609,0.781-2.464,1.196c-0.216-0.261-0.493-0.596-0.784-0.946c0.611-0.559,1.164-1.063,1.834-1.676
		c-0.496-0.5-0.881-0.889-1.256-1.268c-0.838,0.476-1.528,0.868-2.131,1.21c-0.941-0.513-0.162-1.043-0.259-1.587
		c-0.376-0.488-0.787-1.021-1.278-1.657c-0.718,0.388-1.369,0.768-2.044,1.099c-2.926,1.439-5.9,2.792-8.438,4.902
		c-1.22,1.015-2.425,2.051-3.687,3.012c-0.98,0.748-1.612,1.687-1.973,2.874c0.075,0.158,0.131,0.334,0.232,0.478
		c1.687,2.358,3.436,4.674,5.054,7.078c1.466,2.177,2.868,4.405,4.155,6.692c1.085,1.927,2.122,3.911,2.897,5.976
		c1.495,3.982,2.817,8.029,4.161,12.067c1.219,3.66,2.205,7.392,2.777,11.206c0.548,3.671,0.996,7.365,1.313,11.063
		c0.343,4.019,0.515,8.053,0.698,12.083c0.117,2.579,0.115,5.163,0.172,7.744c0.039,1.77,0.162,3.541,0.119,5.308
		c-0.08,3.263-0.273,6.523-0.385,9.786c-0.092,2.714-0.156,5.43-0.191,8.145c-0.023,1.981,0.02,3.964,0.031,5.942
		c0.502,0.215,0.816,0.405,1.156,0.483c1.715,0.4,3.42,0.89,5.159,1.128c3.764,0.515,7.538,0.948,11.357,0.626
		c3.613-0.305,7.237-0.485,10.846-0.836c1.411-0.137,2.896-0.283,4.002-1.225c0.964-3.595,0.245-7.155,0.489-10.674
		c0.115-1.668-0.003-3.354-0.037-5.031c-0.07-3.402-0.158-6.805-0.232-10.207c-0.088-4.035-0.236-8.071-0.232-12.106
		c0.004-3.172,0.137-6.347,0.326-9.514c0.221-3.662,0.441-7.332,0.89-10.971c0.738-5.993,1.896-11.912,3.869-17.642
		c0.737-2.141,1.473-4.285,2.321-6.383c0.796-1.971,1.672-3.917,2.645-5.808c0.639-1.243,1.549-2.342,2.271-3.547
		c2.249-3.755,4.831-7.222,8.36-9.893c0.058-0.043,0.059-0.162,0.133-0.392C135.914,52.21,135.016,51.316,134.008,50.573z"></path>
</g>
<g id="Layer_2">
	<path fill-rule="evenodd" clip-rule="evenodd" fill="#de4555" class="fill" d="M103.629,80.958c-0.689-0.231-1.111-0.374-1.609-0.542
		c0.073-0.382,0.137-0.718,0.215-1.123c0.508,0.03,0.939,0.056,1.523,0.091c0.198-0.513,0.399-1.032,0.57-1.476
		c-0.509-0.746-1.773-0.154-1.907-1.468c0.646,0.069,1.204,0.129,1.849,0.197c0.119-0.589,0.232-1.144,0.357-1.758
		c-0.52-0.169-0.938-0.307-1.451-0.474c0.049-0.302,0.093-0.576,0.146-0.91c0.482,0.055,0.873,0.1,1.445,0.165
		c0.208-0.552,0.415-1.102,0.642-1.699c-0.626-0.246-1.078-0.422-1.599-0.626c0.115-0.329,0.214-0.608,0.323-0.92
		c0.59,0.098,1.114,0.185,1.624,0.27c0.566-1.321,0.52-1.434-0.898-2.298c0.301-0.519,0.301-0.519,1.645-0.363
		c0.201-0.47,0.411-0.957,0.645-1.5c-0.465-0.23-0.896-0.444-1.405-0.696c0.114-0.278,0.206-0.503,0.319-0.783
		c0.496,0.09,0.931,0.17,1.373,0.251c0.656-0.338,0.716-0.86,0.549-1.512c-0.381-0.192-0.733-0.371-1.218-0.615
		c0.05-0.338,0.104-0.703,0.175-1.187c0.56,0.15,0.975,0.261,1.508,0.403c0.289-0.37,0.582-0.748,0.982-1.264
		c-0.494-0.35-0.911-0.645-1.412-1c0.112-0.273,0.24-0.583,0.381-0.927c0.507,0.084,0.943,0.157,1.461,0.244
		c0.203-0.385,0.406-0.771,0.649-1.233c-0.336-0.338-0.641-0.646-1.001-1.007c0.13-0.195,0.269-0.403,0.418-0.628
		c0.439,0.118,0.824,0.222,1.277,0.344c0.309-0.446,0.611-0.883,1.057-1.526c-0.428-0.252-0.811-0.477-1.221-0.718
		c0.18-0.292,0.293-0.475,0.444-0.719c0.457,0.163,0.869,0.309,1.421,0.505c0.277-0.451,0.572-0.929,0.906-1.469
		c-0.426-0.347-0.768-0.626-1.158-0.945c0.318-0.981,1.112-0.04,1.656-0.294c0.288-0.389,0.577-0.778,0.912-1.229
		c-0.323-0.318-0.604-0.593-0.947-0.932c0.125-0.184,0.265-0.389,0.425-0.624c0.552,0.165,1.062,0.317,1.698,0.507
		c0.297-0.512,0.584-1.005,0.89-1.53c-0.249-0.317-0.463-0.591-0.684-0.873c0.54-1.046,1.306-0.007,1.939-0.254
		c0.919-0.514,0.493-1.664,1.059-2.398c0.638-0.141,1.285-0.284,1.952-0.431c4.125,2.692,7.993,5.715,11.721,9.107
		c-0.992,1.215-1.907,2.38-2.871,3.502c-1.629,1.897-3.115,3.885-4.229,6.139c-1.1,2.231-2.406,4.377-3.319,6.68
		c-1.75,4.411-3.56,8.795-4.925,13.365c-1.21,4.052-2.21,8.144-2.881,12.289c-0.803,4.958-1.355,9.968-1.305,15.015
		c0.031,3.165,0.035,6.33,0.074,9.495c0.044,3.442,0.092,6.884,0.177,10.325c0.136,5.435,0.327,10.869,0.446,16.303
		c0.06,2.667,0.01,5.335,0.009,8.001c-1.311,0.524-8.446,1.267-10.728,1.077c-0.066-0.719-0.136-1.466-0.211-2.276
		c-0.232-0.274-0.49-0.58-0.787-0.93c0.01-0.638,0.021-1.308,0.033-2.094c-0.474-0.06-0.902-0.114-1.437-0.181
		c-0.015-0.339-0.031-0.714-0.053-1.21c0.608-0.09,1.171-0.172,1.807-0.266c-0.023-0.554-0.046-1.073-0.072-1.669
		c-0.571,0.025-1.091,0.047-1.694,0.074c-0.063-0.154-0.139-0.338-0.266-0.653c0.636-0.07,1.157-0.128,1.865-0.206
		c0.011-0.53,0.021-1.085,0.033-1.584c-0.706-0.556-1.637,0.141-2.359-0.786c0.766-0.148,1.39-0.27,2.124-0.412
		c0.058-0.294,0.122-0.626,0.18-0.921c-0.731-0.612-1.784,0.432-2.386-0.63c0.673-0.737,1.604-0.174,2.414-0.599
		c0.011-0.317,0.023-0.696,0.037-1.128c-0.914-0.052-1.738-0.098-2.562-0.145c-0.01-0.11-0.021-0.22-0.03-0.331
		c0.796-0.181,1.591-0.362,2.479-0.564c-0.02-0.444-0.038-0.861-0.06-1.35c-0.77-0.047-1.477-0.09-2.197-0.134
		c0.209-0.72,0.209-0.72,2.212-1.03c0.008-0.194,0.034-0.408,0.021-0.619c-0.015-0.217-0.067-0.432-0.116-0.72
		c-0.825-0.019-1.606-0.039-2.679-0.064c0.849-1.027,1.812-0.645,2.627-0.99c-0.016-0.343-0.031-0.721-0.053-1.199
		c-0.826-0.002-1.628-0.004-2.508-0.006c-0.093-0.289-0.178-0.556-0.284-0.89c0.977-0.199,1.853-0.377,2.83-0.577
		c0.004-0.414,0.008-0.79,0.012-1.206c-1.065-0.094-2.026-0.18-2.987-0.265c-0.008-0.13-0.018-0.259-0.025-0.389
		c0.829-0.156,1.659-0.311,2.535-0.476c0.094-0.45,0.173-0.828,0.277-1.325c-0.885-0.065-1.65-0.121-2.707-0.199
		c0.996-0.898,1.998-0.38,2.846-0.807c-0.016-0.369-0.031-0.745-0.052-1.202c-0.867-0.003-1.689-0.007-2.511-0.01
		c-0.01-0.13-0.02-0.26-0.028-0.39c0.835-0.108,1.67-0.216,2.545-0.33c-0.017-0.375-0.029-0.668-0.039-0.891
		c-0.817-0.669-2.079,0.49-2.796-0.991c0.984-0.108,1.803-0.199,2.744-0.303c0.01-0.341,0.02-0.711,0.033-1.209
		c-0.956-0.003-1.805-0.006-2.717-0.009c-0.082-0.201-0.158-0.389-0.322-0.787c1.041-0.144,1.955-0.27,2.942-0.406
		c0.004-0.395,0.009-0.737,0.015-1.213c-0.453-0.006-0.844,0.01-1.231-0.023c-0.306-0.026-0.606-0.113-0.909-0.174
		c-0.002-0.137-0.004-0.274-0.008-0.411c0.619-0.136,1.238-0.271,2.014-0.441c0.023-0.281,0.054-0.65,0.094-1.144
		c-0.981,0.042-1.824,0.079-2.804,0.121c0.081-0.367,0.132-0.597,0.194-0.875c0.847-0.088,1.646-0.171,2.505-0.26
		c-0.021-0.479-0.038-0.874-0.061-1.401c-0.816-0.033-1.606-0.064-2.45-0.098c-0.014-0.342-0.025-0.593-0.041-0.97
		c0.872-0.143,1.709-0.279,2.61-0.426c0.144-0.408,0.29-0.825,0.462-1.312c1.867-0.856,2.43-2.501,2.375-4.449
		c-0.079-2.716-0.2-5.432-0.29-8.148c-0.021-0.584,0.015-1.17,0.024-1.764c1.814-1.257,2.26-3.032,2.07-5.048
		c-0.173-1.845-0.32-3.694-0.559-5.53c-0.198-1.525-1.045-2.577-2.57-3.006c-0.677-0.19-1.355-0.375-2.006-0.803
		c0.504,0.002,1.007,0.004,1.699,0.007C103.552,82.091,103.588,81.554,103.629,80.958z"></path>
	<path fill-rule="evenodd" clip-rule="evenodd" fill="#de4555" class="fill" d="M86.859,57.456c0.614-0.25,1.064-0.433,1.623-0.659
		c0.17,0.261,0.352,0.541,0.568,0.872c-0.486,0.427-0.912,0.8-1.374,1.205c0.149,0.445,0.274,0.815,0.436,1.295
		c0.59-0.111,1.108-0.208,1.753-0.329c0.135,0.319,0.283,0.667,0.44,1.04c-0.477,0.315-0.88,0.582-1.405,0.929
		c0.23,0.547,0.447,1.063,0.702,1.673c0.638-0.142,1.195-0.267,1.808-0.404c0.07,0.203,0.139,0.401,0.219,0.634
		c-0.442,0.311-0.842,0.592-1.336,0.939c0.193,0.459,0.375,0.893,0.572,1.361c0.497-0.086,0.881-0.153,1.316-0.228
		c0.104,0.258,0.197,0.494,0.312,0.783c-0.438,0.259-0.816,0.484-1.326,0.788c0.11,0.503,0.23,1.05,0.364,1.661
		c0.589-0.058,1.062-0.105,1.534-0.151c0.053,0.067,0.107,0.134,0.16,0.201c-0.339,0.354-0.678,0.708-1.107,1.159
		c0.127,0.443,0.269,0.944,0.429,1.505c0.503-0.144,0.88-0.251,1.343-0.383c0.143,0.345,0.271,0.653,0.422,1.015
		c-0.516,0.252-0.955,0.466-1.548,0.755c0.191,0.572,0.383,1.14,0.591,1.76c0.639-0.165,1.146-0.295,1.784-0.459
		c0.159,0.438,0.302,0.833,0.454,1.256c-0.633,0.357-1.172,0.662-1.752,0.989c0.117,0.496,0.219,0.928,0.344,1.455
		c0.633-0.027,1.246-0.054,1.916-0.083c0.152,0.329,0.279,0.601,0.459,0.991c-0.603,0.208-1.145,0.396-1.783,0.617
		c0.02,0.436,0.039,0.899,0.064,1.495c0.773-0.093,1.43-0.173,2.218-0.268c0.185,0.43,0.372,0.864,0.612,1.42
		c-0.503,0.156-0.873,0.306-1.258,0.384c-3.555,0.72-4.767,3.169-4.886,5.525c-0.062,1.222-0.244,2.444-0.208,3.662
		c0.057,1.901,0.64,3.653,1.86,4.948c-0.251,3.197-0.496,6.217-0.719,9.239c-0.168,2.288,0.438,4.215,2.667,5.342
		c0.1,0.542,0.197,1.068,0.303,1.642c0.436,0.099,0.858,0.195,1.588,0.362c-0.707,0.106-1.102,0.166-1.541,0.232
		c0.04,0.926,0.078,1.809,0.115,2.674c0.755,0.419,1.797-0.479,2.37,0.616c-0.706,0.721-1.617,0.236-2.423,0.606
		c-0.047,0.221-0.109,0.509-0.197,0.919c0.906,0.044,1.725,0.084,2.594,0.127c-0.275,0.742-0.275,0.742-2.568,1.151
		c-0.008,0.319-0.014,0.656-0.022,1.061c0.608,0.046,1.135,0.086,1.802,0.138c-0.012,0.412-0.022,0.783-0.035,1.196
		c-0.637,0.084-1.167,0.154-1.78,0.235c-0.02,0.297-0.04,0.585-0.056,0.825c0.75,0.537,1.816-0.306,2.375,0.683
		c-0.56,0.909-1.523,0.037-2.244,0.675c-0.022,0.215-0.058,0.55-0.086,0.826c0.681,0.561,1.615-0.067,2.342,0.811
		c-0.822,0.205-1.486,0.37-2.236,0.556c0.041,0.337,0.075,0.622,0.112,0.936c0.702,0.127,1.328,0.24,1.954,0.353
		c0.001,0.131,0.001,0.262,0.001,0.394c-0.714,0.081-1.428,0.162-2.201,0.25c-0.015,0.52-0.026,0.96-0.042,1.496
		c0.669,0.09,1.286,0.172,2.047,0.275c-0.695,0.524-0.695,0.524-1.986,0.64c-0.008,0.391-0.016,0.801-0.025,1.278
		c0.792,0.053,1.451,0.099,2.157,0.146c0.022,0.233,0.04,0.401,0.065,0.658c-0.702,0.066-1.365,0.129-2.152,0.203
		c0.024,0.557,0.049,1.103,0.07,1.592c0.689,0.387,1.539-0.103,2.19,0.755c-0.501,0.072-0.829,0.126-1.157,0.166
		c-0.312,0.038-0.627,0.06-1.049,0.1c0.021,0.498,0.041,0.958,0.064,1.498c0.773,0.028,1.477,0.053,2.196,0.08
		c0.011,0.241,0.019,0.411,0.031,0.714c-0.687,0.03-1.34,0.058-2.029,0.087c-0.046,0.572-0.081,1.014-0.124,1.537
		c0.658,0.046,1.264,0.088,1.979,0.138c-0.472,1.007-1.529,0.342-2.063,0.993c0.021,0.123,0.05,0.288,0.089,0.517
		c0.519,0.026,1.002,0.05,1.548,0.077c0.011,0.247,0.02,0.448,0.03,0.725c-0.508,0.102-0.98,0.197-1.525,0.307
		c-0.022,0.354-0.045,0.696-0.071,1.116c0.556,0.036,1.041,0.067,1.651,0.106c0.039,0.305,0.079,0.624,0.126,0.987
		c-0.69,0.105-1.265,0.192-1.935,0.295c-0.029,0.455-0.059,0.885-0.088,1.353c0.572,0.146,1.044,0.267,1.598,0.408
		c-0.025,1.192-1.162,0.52-1.719,1.125c-0.031,0.483-0.074,1.137-0.121,1.841c0.588,0.134,1.061,0.241,1.59,0.362
		c0.018,0.414,0.035,0.805,0.051,1.19c-1.851,0.707-1.851,0.707-2.48,3.565c-2.901-0.228-5.811-0.459-8.816-1.372
		c-0.04-0.428-0.157-1.002-0.138-1.571c0.138-4.076,0.348-8.15,0.448-12.227c0.08-3.219-0.023-6.441,0.06-9.66
		c0.183-7.127-0.185-14.242-0.485-21.355c-0.139-3.305-0.298-6.631-0.804-9.893c-0.642-4.152-1.19-8.335-2.417-12.386
		c-0.812-2.685-1.299-5.479-2.251-8.107c-1.356-3.745-2.861-7.455-4.581-11.044c-1.247-2.601-2.873-5.032-4.463-7.45
		c-2.008-3.053-4.152-6.016-6.302-9.11c3.621-3.455,7.737-6.03,12.219-8.125c0.29,0.223,0.572,0.439,0.896,0.688
		c0.401-0.115,0.81-0.232,1.217-0.349c0.062,0.07,0.124,0.139,0.186,0.208c-0.343,0.404-0.686,0.809-1.087,1.281
		c0.254,0.427,0.502,0.844,0.831,1.397c0.613-0.236,1.176-0.454,1.843-0.71c0.255,0.29,0.539,0.615,0.866,0.986
		c-0.489,0.377-0.896,0.692-1.377,1.062c0.407,0.56,0.742,1.022,1.139,1.568c0.595-0.289,1.108-0.538,1.752-0.85
		c0.251,0.322,0.512,0.658,0.876,1.125c-0.509,0.389-0.968,0.74-1.39,1.063c0.345,0.707,0.58,1.186,0.867,1.773
		c0.62-0.241,1.191-0.463,1.818-0.707c0.152,0.129,0.312,0.267,0.439,0.375c-0.006,0.119,0.01,0.185-0.014,0.207
		c-0.387,0.359-0.779,0.712-1.288,1.174c0.334,0.522,0.66,1.03,1.021,1.594c0.531-0.292,0.957-0.525,1.504-0.826
		c0.235,0.392,0.453,0.753,0.696,1.159c-0.493,0.371-0.907,0.682-1.403,1.054C86.334,56.463,86.558,56.885,86.859,57.456z"></path>
	<path fill-rule="evenodd" clip-rule="evenodd" fill="#de4555" class="fill" d="M101.405,91.584c0.141-0.215,0.259-0.397,0.382-0.586
		c0.174,0.043,0.366,0.033,0.413,0.111c0.268,0.444,0.655,0.89,0.719,1.372c0.255,1.93,0.472,3.869,0.577,5.812
		c0.146,2.668,0.181,5.342,0.262,8.013c0.01,0.317,0.027,0.636,0.01,0.951c-0.1,1.702-0.625,2.382-2.285,2.723
		c-1.99,0.409-3.962,0.17-5.906-0.375c-0.578-0.163-0.979-0.501-1.053-1.107c-0.15-1.252-0.455-2.522-0.361-3.76
		c0.283-3.696,0.722-7.381,1.115-11.069c0.053-0.492,0.162-0.985,0.307-1.458c0.174-0.57,0.425-1.111,1.146-1.274
		c0.451,0.412,0.487,0.862,0.215,1.431c-0.508,1.058-0.596,2.163-0.191,3.367c1.59,1.191,3.272,0.786,5.029,0.28
		C102.213,94.454,102.532,92.978,101.405,91.584z M101.146,100.41c-1.086,0.012-2.253-0.008-3.413,0.049
		c-0.837,0.041-1.478,0.484-1.74,1.295c-0.625,1.922-0.73,3.891-0.38,5.88c0.029,0.169,0.151,0.322,0.312,0.647
		c0.426,0.079,0.939,0.242,1.455,0.254c0.812,0.019,1.627-0.047,2.438-0.105c1.499-0.106,2.132-0.674,2.242-2.168
		c0.08-1.072-0.064-2.161,0.031-3.23C102.175,102.101,101.926,101.353,101.146,100.41z"></path>
	<path fill-rule="evenodd" clip-rule="evenodd" fill="#de4555" class="fill" d="M101.743,89.378c-0.15-0.498-0.294-0.971-0.445-1.474
		c-0.376-0.307-0.76-0.62-1.106-0.901c-1.174-0.131-2.096,0.291-2.984,0.876c-0.088,0.443-0.166,0.837-0.271,1.376
		c-2.079,0.391-2.791,2.079-3.168,4.044c-0.091-0.03-0.182-0.06-0.273-0.09c-0.069-0.219-0.208-0.442-0.196-0.656
		c0.097-1.715,0.133-3.441,0.364-5.14c0.232-1.708,1.245-2.664,2.947-2.875c2.351-0.291,4.691-0.213,6.986,0.488
		c0.623,0.19,1.064,0.535,1.229,1.148c0.752,2.802,0.64,5.627,0.076,8.51c-0.1-0.205-0.257-0.401-0.289-0.617
		c-0.087-0.583-0.109-1.174-0.178-1.76c-0.158-1.365-0.674-2.447-2.192-2.727C102.068,89.551,101.911,89.448,101.743,89.378z"></path>
	<path fill-rule="evenodd" clip-rule="evenodd" fill="#de4555" class="fill" d="M101.648,153.537c0.033,0.782,0.06,1.393,0.088,2.052
		c-1.821,0.079-3.543,0.153-5.367,0.232c-0.122-0.854-0.222-1.549-0.347-2.427C97.922,153.316,99.723,153.254,101.648,153.537z"></path>
	<path fill-rule="evenodd" clip-rule="evenodd" fill="#de4555" class="fill" d="M100.505,94.912c-1.073,0.593-1.856,0.504-2.723-0.234
		c0.014-0.458,0.032-1.009,0.05-1.618c0.932-0.04,1.711-0.074,2.588-0.112C100.451,93.681,100.479,94.318,100.505,94.912z"></path>
	<path fill-rule="evenodd" clip-rule="evenodd" fill="#de4555" class="fill" d="M98.238,88.325c0.684,0.042,1.155,0.07,1.6,0.097
		c0.599,1.04,0.318,1.99,0.145,3.129c-0.537-0.045-1.018-0.086-1.609-0.135C98.327,90.357,98.287,89.453,98.238,88.325z"></path>
</g>
</svg>